<svg width="50" height="50" viewBox="0 0 50 50" fill="none" xmlns="http://www.w3.org/2000/svg">
<path fill-rule="evenodd" clip-rule="evenodd" d="M10.3854 4.16675C7.53125 4.16675 5.42083 6.66466 5.51667 9.37091C5.60625 11.9751 5.48958 15.3438 4.64167 18.0917C3.7875 20.8459 2.35 22.5917 0 22.8167V25.348C2.35 25.5709 3.78958 27.3167 4.63958 30.073C5.48958 32.8209 5.60625 36.1897 5.51458 38.7917C5.42083 41.5001 7.53125 43.998 10.3854 43.998H39.6187C42.4729 43.998 44.5833 41.5001 44.4875 38.7917C44.3979 36.1897 44.5146 32.8209 45.3625 30.073C46.2146 27.3167 47.65 25.573 50 25.348V22.8167C47.65 22.5917 46.2146 20.8459 45.3625 18.0917C44.5146 15.3417 44.3979 11.973 44.4875 9.37091C44.5833 6.66258 42.4708 4.16675 39.6187 4.16675H10.3854ZM33.8958 28.6855C33.8958 32.4147 31.1146 34.6751 26.5 34.6751H18.6437C18.4189 34.6751 18.2032 34.5857 18.0442 34.4267C17.8852 34.2677 17.7958 34.052 17.7958 33.8272V14.3355C17.7964 14.111 17.886 13.8958 18.0449 13.7373C18.2039 13.5787 18.4192 13.4897 18.6437 13.4897H26.4562C30.3042 13.4897 32.8312 15.573 32.8312 18.7751C32.8312 21.0209 31.1313 23.0313 28.9667 23.3855V23.5022C31.9146 23.8251 33.8979 25.8667 33.8979 28.6855H33.8958ZM25.6458 16.1751H21.1667V22.5042H24.9396C27.8562 22.5042 29.4646 21.3292 29.4646 19.2292C29.4646 17.2626 28.0812 16.1751 25.6458 16.1751ZM21.1667 25.0147V31.9876H25.8125C28.8479 31.9876 30.4583 30.7688 30.4583 28.4792C30.4583 26.1876 28.8042 25.0147 25.6167 25.0147H21.1667Z" fill="black"/>
</svg>
