<svg width="50" height="50" viewBox="0 0 50 50" fill="none" xmlns="http://www.w3.org/2000/svg">
<path fill-rule="evenodd" clip-rule="evenodd" d="M49.3863 12.6524C49.7949 13.2899 49.9971 14.0328 49.9975 14.8736C50 21.7415 50 35.4731 50 35.4731C49.9996 36.2955 49.8057 37.0239 49.4156 37.6521C49.0141 38.2974 48.4045 38.8377 47.5795 39.2625C44.7893 40.6937 41.998 42.1231 39.2068 43.5525C35.3383 45.5336 31.4699 47.5145 27.6045 49.5003C25.81 50.422 24.0705 50.3887 22.2891 49.4535C20.6874 48.6126 15.2037 45.8081 10.2443 43.2718C7.00179 41.6135 3.98343 40.0699 2.4207 39.2646C1.5957 38.8396 0.986133 38.2996 0.58457 37.6538C0.193945 37.0257 0.000390625 36.2972 0 35.475C0.00126953 32.041 0.00126953 28.6072 0.00126953 25.1734C0.00126953 21.7397 0.00126953 18.3059 0.00253906 14.872C0.00292969 13.2041 0.795117 11.921 2.42285 11.0824C3.99073 10.2745 7.02375 8.72309 10.2783 7.05843C15.2286 4.52636 20.6913 1.73219 22.2898 0.893377C24.0705 -0.0413459 25.81 -0.0748529 27.6039 0.846502C31.4152 2.80447 35.2294 4.75788 39.0435 6.7113C41.8885 8.16835 44.7335 9.6254 47.5773 11.0844C48.3836 11.5 48.985 12.0253 49.3863 12.6524ZM37.9482 22.0919L30.1672 22.0431C30.1672 22.0431 29.7045 18.2928 25.2186 18.2928C20.7328 18.2928 19.66 22.5978 19.66 25.2796C19.66 27.0438 20.4549 32.231 25.2186 32.231C30.3793 32.231 30.1807 28.2249 30.1807 28.2249L37.6039 28.6021C37.6039 32.0657 35.2225 38.1945 25.2582 38.1945C19.1051 38.1945 11.2053 35.0186 11.2053 25.2796C11.2053 15.5403 19.2639 12.1528 25.2582 12.1528C34.6666 12.1528 37.9482 19.2101 37.9482 22.0919Z" fill="black"/>
</svg>
