<svg width="50" height="50" viewBox="0 0 50 50" fill="none" xmlns="http://www.w3.org/2000/svg">
<g clip-path="url(#clip0_88_2)">
<path d="M47.833 11.0629L27.1637 0.458203C25.9731 -0.152734 24.0245 -0.152734 22.8338 0.458203L2.16495 11.0629C0.974176 11.6738 0 13.1734 0 14.3953V35.6047C0.0926374 37.0277 0.91055 38.2062 2.16484 38.9371L22.8341 49.5417C24.0246 50.1527 25.9732 50.1527 27.1638 49.5417L47.833 38.9371C49.1789 38.1416 49.9451 36.9441 49.9979 35.6047V14.3953C49.9496 13.1097 49.0833 11.813 47.8331 11.0629H47.833ZM8.33297 25.0001C8.23505 10.5382 30.0319 4.15244 39.4314 17.5901L32.2189 21.2991C27.8648 14.8994 17.054 17.1878 16.6659 25.0001C16.7824 32.2002 27.4081 35.5448 32.2193 28.7005L39.432 32.4095C31.1481 45.189 8.75066 40.5911 8.33308 25.0001H8.33297ZM41.6648 25.8228H39.813V27.4685H37.9615V25.8228H36.1097V24.1772H37.9615V22.5317H39.8132V24.1772H41.6649V25.8228H41.6648ZM48.609 25.8228H46.7571V27.4685H44.9055V25.8228H43.0538V24.1772H44.9057V22.5317H46.7573V24.1772H48.6091V25.8228H48.609Z" fill="black"/>
</g>
<defs>
<clipPath id="clip0_88_2">
<rect width="50" height="50" fill="white"/>
</clipPath>
</defs>
</svg>
