<svg width="50" height="50" viewBox="0 0 50 50" fill="none" xmlns="http://www.w3.org/2000/svg">
<path d="M18.4912 11.766V17.5145L6.30762 23.0911L18.4912 28.8671V34.5004L0 25.7281V20.5969L18.4912 11.7659V11.766ZM31.0737 16.9701C31.0737 15.5013 29.7231 14.5784 28.6486 15.3127C27.5741 16.0471 27.5741 17.893 28.6486 18.6275C29.7232 19.3619 31.0737 18.4388 31.0737 16.9701ZM26.6675 21.4829C23.0237 19.4854 23.0237 14.4645 26.6675 12.4669C30.3113 10.4695 34.8908 12.9799 34.8908 16.975C34.8908 20.97 30.3113 23.4804 26.6676 21.4829H26.6675ZM46.1829 33.1945C46.1829 31.7257 44.8323 30.8028 43.7578 31.5372C42.6833 32.2715 42.6833 34.1174 43.7578 34.8518C44.8324 35.5862 46.1829 34.6633 46.1829 33.1946V33.1945ZM41.7767 37.7073C38.1329 35.7098 38.1329 30.6889 41.7767 28.6914C45.4204 26.6938 50 29.2043 50 33.1994C50 37.1944 45.4205 39.7048 41.7768 37.7073H41.7767ZM30.58 38.4083L49.5653 11.5916H43.0781L23.7764 38.4083H30.5799H30.58Z" fill="black"/>
</svg>
