<svg width="320" height="400" viewBox="0 0 320 400" fill="none" xmlns="http://www.w3.org/2000/svg">
<g opacity="0.1">
<path d="M319.809 79.9524H239.857L239.857 0.00012207H319.809V79.9524Z" fill="#710C0C"/>
<path d="M159.905 239.857L79.9524 239.857L79.9524 159.905H159.905L159.905 239.857Z" fill="#710C0C"/>
<path d="M239.857 159.905L159.905 159.905V79.9524L239.857 79.9524L239.857 159.905Z" fill="#710C0C"/>
<path d="M79.9524 319.809H0.00012207V239.857L79.9524 239.857V319.809Z" fill="#710C0C"/>
</g>
<g opacity="0.1">
<path d="M319.809 159.906H239.857L239.857 79.9537H319.809V159.906Z" fill="url(#paint0_linear_131_43)"/>
<path d="M79.9524 399.763H0.00012207V319.81L79.9524 319.81V399.763Z" fill="url(#paint1_linear_131_43)"/>
<path d="M0.00012207 159.906H79.9524V79.9537H0.00012207V159.906Z" fill="url(#paint2_linear_131_43)"/>
<path d="M239.857 399.763H319.809V319.81H239.857V399.763Z" fill="url(#paint3_linear_131_43)"/>
</g>
<defs>
<linearGradient id="paint0_linear_131_43" x1="159.905" y1="399.763" x2="159.905" y2="79.9537" gradientUnits="userSpaceOnUse">
<stop stop-color="#710C0C"/>
<stop offset="1" stop-color="#710C0C"/>
</linearGradient>
<linearGradient id="paint1_linear_131_43" x1="159.905" y1="399.763" x2="159.905" y2="79.9537" gradientUnits="userSpaceOnUse">
<stop stop-color="#710C0C"/>
<stop offset="1" stop-color="#710C0C"/>
</linearGradient>
<linearGradient id="paint2_linear_131_43" x1="159.905" y1="399.763" x2="159.905" y2="79.9537" gradientUnits="userSpaceOnUse">
<stop stop-color="#710C0C"/>
<stop offset="1" stop-color="#710C0C"/>
</linearGradient>
<linearGradient id="paint3_linear_131_43" x1="159.905" y1="399.763" x2="159.905" y2="79.9537" gradientUnits="userSpaceOnUse">
<stop stop-color="#710C0C"/>
<stop offset="1" stop-color="#710C0C"/>
</linearGradient>
</defs>
</svg>
