<svg width="50" height="50" viewBox="0 0 50 50" fill="none" xmlns="http://www.w3.org/2000/svg">
<path d="M13.08 39.24C10.8133 39.24 8.81333 38.7733 7.08 37.84C5.37333 36.9067 4.04 35.6267 3.08 34C2.14667 32.3733 1.68 30.5067 1.68 28.4C1.68 26.2933 2.13333 24.4267 3.04 22.8C3.97333 21.1733 5.24 19.9067 6.84 19C8.46667 18.0667 10.2933 17.6 12.32 17.6C14.3733 17.6 16.1867 18.0533 17.76 18.96C19.3333 19.8667 20.56 21.1467 21.44 22.8C22.3467 24.4267 22.8 26.3333 22.8 28.52C22.8 28.68 22.7867 28.8667 22.76 29.08C22.76 29.2933 22.7467 29.4933 22.72 29.68H4.68V26.92H20.72L19.16 27.88C19.1867 26.52 18.9067 25.3067 18.32 24.24C17.7333 23.1733 16.92 22.3467 15.88 21.76C14.8667 21.1467 13.68 20.84 12.32 20.84C10.9867 20.84 9.8 21.1467 8.76 21.76C7.72 22.3467 6.90667 23.1867 6.32 24.28C5.73333 25.3467 5.44 26.5733 5.44 27.96V28.6C5.44 30.0133 5.76 31.28 6.4 32.4C7.06667 33.4933 7.98667 34.3467 9.16 34.96C10.3333 35.5733 11.68 35.88 13.2 35.88C14.4533 35.88 15.5867 35.6667 16.6 35.24C17.64 34.8133 18.5467 34.1733 19.32 33.32L21.44 35.8C20.48 36.92 19.28 37.7733 17.84 38.36C16.4267 38.9467 14.84 39.24 13.08 39.24ZM24.4663 39L33.5863 27.16L33.5463 29.12L24.8663 17.8H29.1463L35.7863 26.52H34.1463L40.7863 17.8H44.9863L36.1863 29.2L36.2263 27.16L45.4263 39H41.0663L34.0663 29.72L35.6263 29.96L28.7463 39H24.4663Z" fill="black"/>
</svg>
