<svg width="40" height="40" viewBox="0 0 40 40" fill="none" xmlns="http://www.w3.org/2000/svg">
<path fill-rule="evenodd" clip-rule="evenodd" d="M14.025 0C9.94667 0 6.66667 3.42167 6.66667 7.61333C6.66667 10.1617 7.88 12.425 9.745 13.8067C8.7838 14.5268 8.00469 15.4621 7.47011 16.5376C6.93554 17.6132 6.66037 18.799 6.66667 20C6.66667 22.55 7.88 24.8117 9.745 26.1933C8.7838 26.9135 8.00469 27.8488 7.47011 28.9243C6.93554 29.9998 6.66037 31.1856 6.66667 32.3867C6.66667 36.5783 9.94667 40 14.025 40C18.1017 40 21.3833 36.5783 21.3833 32.3867V25.95C22.6722 27.0246 24.2969 27.6138 25.975 27.615C30.0533 27.6133 33.3333 24.1917 33.3333 20C33.34 18.7989 33.065 17.613 32.5304 16.5374C31.9958 15.4618 31.2165 14.5265 30.255 13.8067C31.2162 13.0865 31.9953 12.1512 32.5299 11.0757C33.0645 10.0002 33.3396 8.81436 33.3333 7.61333C33.3333 3.42167 30.0533 0 25.975 0H14.025V0ZM9.43167 7.61333C9.43167 4.96167 11.5017 2.83833 14.025 2.83833H18.6167V12.3883H14.025C11.5017 12.3883 9.43167 10.2633 9.43167 7.61333V7.61333ZM25.975 12.3867H21.3833V2.83667H25.975C28.5 2.83667 30.5683 4.96167 30.5683 7.61333C30.5683 10.2633 28.5 12.3867 25.975 12.3867ZM9.43334 20C9.43334 17.35 11.5033 15.225 14.0267 15.225H18.6183V24.775H14.025C11.5 24.775 9.43167 22.65 9.43167 20H9.43334ZM21.3833 20C21.3833 17.35 23.4533 15.225 25.9767 15.225C28.5017 15.225 30.57 17.3483 30.57 20C30.57 22.65 28.5017 24.775 25.9767 24.775C23.4533 24.775 21.385 22.6517 21.385 20H21.3833ZM9.43334 32.3867C9.43334 29.7367 11.5033 27.6133 14.0267 27.6133H18.6183V32.3867C18.6183 35.0383 16.5517 37.1617 14.0267 37.1617C11.5033 37.1617 9.43334 35.0383 9.43334 32.3867Z" fill="white"/>
</svg>
