<svg width="50" height="50" viewBox="0 0 50 50" fill="none" xmlns="http://www.w3.org/2000/svg">
<path d="M28.5009 0C27.3577 0 26.3823 0.40055 25.5742 1.20225C24.7662 2.0041 24.3632 2.9702 24.3632 4.09995C24.3632 5.19325 24.766 6.13985 25.5742 6.9415C26.3823 7.74335 27.3578 8.14515 28.5009 8.14515C29.6047 8.14515 30.5605 7.74335 31.3686 6.9415C32.1768 6.13985 32.5812 5.19325 32.5812 4.09995C32.5812 2.97015 32.1768 2.0041 31.3686 1.20225C30.5606 0.4006 29.6047 0 28.5009 0ZM37.3657 7.81725C37.4837 8.4368 37.5429 9.25585 37.5429 10.2763V12.4074H34.6467V17.7094C35.4744 17.6001 36.144 17.5471 36.6564 17.5471L37.5432 17.6003V17.7096H37.4842V27.4941C37.4842 30.5555 37.8994 32.797 38.7271 34.2184C39.831 36.1132 41.8214 37.0599 44.6989 37.0599C46.7487 37.0599 48.5028 36.6963 49.9613 35.967V30.5009C48.9755 31.1206 47.8715 31.4298 46.6496 31.4298C44.9152 31.4298 44.0488 30.2088 44.0488 27.7671V17.6001H46.5906C47.0637 17.6001 47.5666 17.6183 48.0988 17.6546C48.631 17.6911 48.9945 17.7092 49.1915 17.7092V12.4071H44.049V10.1667C44.049 9.2922 44.1083 8.5095 44.2263 7.81695H37.3664L37.3658 7.81715L37.3657 7.81725ZM10.2885 12.1342C7.60798 12.1342 5.3027 12.9549 3.37098 14.5947C1.36085 16.3438 0.35475 18.5297 0.35475 21.1535C0.35475 22.9027 0.906097 24.5427 2.00976 26.0731C2.9952 27.4941 4.11936 28.406 5.38074 28.8069V28.9162C4.11936 29.4259 3.48927 30.7022 3.48927 32.7428C3.48927 34.31 4.15885 35.4749 5.49903 36.2401V36.3494C1.83334 37.479 0.000274658 39.5741 0.000274658 42.635C0.000274658 45.2955 1.22255 47.2461 3.66678 48.485C5.59795 49.469 8.06132 49.9605 11.0571 49.9605C18.3494 49.9605 21.9958 47.1361 21.9958 41.4875C21.9958 37.9529 19.1769 35.7847 13.5398 34.9832C12.2391 34.8011 11.2545 34.3644 10.5843 33.6718C10.0718 33.1983 9.8158 32.7233 9.8158 32.2495C9.8158 30.9013 10.6038 30.1186 12.1801 29.8998C14.5846 29.5722 16.5462 28.5425 18.064 26.8116C19.5816 25.0805 20.3405 23.0486 20.3405 20.7164C20.3405 19.9876 20.183 19.2047 19.8678 18.3667C20.8929 18.1479 21.6801 17.9477 22.2321 17.7656V12.134C19.7484 13.0087 17.5612 13.447 15.6693 13.447C14.0135 12.5725 12.2202 12.134 10.2886 12.134V12.1342H10.2885ZM25.1316 12.4074C25.2104 13.0633 25.2499 14.2484 25.2499 15.9608V32.9614C25.2499 34.7108 25.2104 35.9488 25.1316 36.6773H31.8127C31.7337 35.8393 31.6944 34.4907 31.6944 32.6321V15.8515C31.6944 14.2481 31.7337 13.0997 31.8127 12.4074H25.1316V12.4074ZM10.5249 17.1631C11.7075 17.1631 12.6329 17.5835 13.3031 18.4215C13.8548 19.187 14.1306 20.0969 14.1306 21.1537C14.1306 23.7046 12.9294 24.9803 10.5249 24.9803C8.0418 24.9803 6.7994 23.7228 6.7994 21.2083C6.7994 18.5118 8.0418 17.1631 10.5249 17.1631ZM10.9387 39.4112C14.25 39.4112 15.9057 40.3396 15.9057 42.198C15.9057 44.1659 14.3879 45.1503 11.3526 45.1503C7.88392 45.1503 6.14941 44.2019 6.14941 42.3071C6.14941 40.3757 7.74595 39.411 10.9389 39.411L10.9387 39.4112V39.4112Z" fill="black"/>
</svg>
