<svg width="50" height="50" viewBox="0 0 50 50" fill="none" xmlns="http://www.w3.org/2000/svg">
<g clip-path="url(#clip0_342_5)">
<path d="M49.0563 22.7719L27.225 0.943801C26.9261 0.644744 26.5712 0.40751 26.1806 0.245653C25.7899 0.0837965 25.3713 0.000488281 24.9484 0.000488281C24.5256 0.000488281 24.1069 0.0837965 23.7163 0.245653C23.3257 0.40751 22.9708 0.644744 22.6719 0.943801L18.1406 5.47505L23.8906 11.2251C24.5688 10.9935 25.2983 10.9573 25.9961 11.1205C26.6938 11.2837 27.3316 11.6398 27.8367 12.1482C28.3417 12.6565 28.6937 13.2965 28.8524 13.9953C29.0112 14.6941 28.9703 15.4234 28.7344 16.1001L34.275 21.6438C35.0947 21.3552 35.9883 21.3543 36.8086 21.6413C37.6289 21.9283 38.327 22.4861 38.7879 23.2229C39.2489 23.9596 39.4452 24.8313 39.3446 25.6945C39.244 26.5578 38.8524 27.361 38.2344 27.9719C37.6087 28.6014 36.7839 28.9942 35.9008 29.0831C35.0177 29.172 34.1311 28.9516 33.3925 28.4594C32.6539 27.9673 32.1091 27.2339 31.8511 26.3847C31.5932 25.5355 31.6381 24.623 31.9781 23.8032L26.8125 18.6344V32.2376C27.5977 32.6262 28.2259 33.2722 28.5925 34.068C28.9592 34.8637 29.042 35.761 28.8272 36.6104C28.6124 37.4598 28.113 38.2099 27.4123 38.7357C26.7115 39.2615 25.8517 39.5312 24.9761 39.5C24.1006 39.4687 23.2622 39.1383 22.6007 38.5638C21.9392 37.9894 21.4946 37.2055 21.341 36.343C21.1873 35.4805 21.334 34.5913 21.7564 33.8238C22.1789 33.0563 22.8516 32.4567 23.6625 32.125V18.3969C23.1947 18.2052 22.7694 17.9228 22.4112 17.566C22.053 17.2091 21.769 16.7849 21.5755 16.3178C21.382 15.8507 21.2829 15.3499 21.2839 14.8443C21.2849 14.3387 21.386 13.8383 21.5813 13.3719L15.9156 7.70318L0.946876 22.6719C0.647818 22.9708 0.410585 23.3257 0.248728 23.7164C0.0868711 24.107 0.00356293 24.5257 0.00356293 24.9485C0.00356293 25.3713 0.0868711 25.79 0.248728 26.1806C0.410585 26.5712 0.647818 26.9261 0.946876 27.225L22.7781 49.0563C23.077 49.3554 23.4319 49.5926 23.8226 49.7544C24.2132 49.9163 24.6319 49.9996 25.0547 49.9996C25.4775 49.9996 25.8962 49.9163 26.2868 49.7544C26.6774 49.5926 27.0323 49.3554 27.3313 49.0563L49.0594 27.3282C49.6626 26.7241 50.0014 25.9053 50.0014 25.0516C50.0014 24.1979 49.6626 23.3791 49.0594 22.7751" fill="black"/>
</g>
<defs>
<clipPath id="clip0_342_5">
<rect width="50" height="50" fill="white"/>
</clipPath>
</defs>
</svg>
