<svg width="47" height="47" viewBox="0 0 47 47" fill="none" xmlns="http://www.w3.org/2000/svg">
<path fill-rule="evenodd" clip-rule="evenodd" d="M23.5 0C10.5162 0 0 10.5162 0 23.5C0 33.8988 6.72687 42.6819 16.0681 45.7956C17.2431 46.0013 17.6838 45.2963 17.6838 44.6794C17.6838 44.1213 17.6544 42.2706 17.6544 40.3025C11.75 41.3894 10.2225 38.8631 9.7525 37.5413C9.48812 36.8656 8.3425 34.78 7.34375 34.2219C6.52125 33.7812 5.34625 32.6944 7.31437 32.665C9.165 32.6356 10.4869 34.3688 10.9275 35.0737C13.0425 38.6281 16.4206 37.6294 17.7719 37.0125C17.9775 35.485 18.5944 34.4569 19.27 33.8694C14.0413 33.2819 8.5775 31.255 8.5775 22.2663C8.5775 19.7106 9.48813 17.5956 10.9863 15.9506C10.7513 15.3631 9.92875 12.9544 11.2213 9.72313C11.2213 9.72313 13.1894 9.10625 17.6838 12.1319C19.5637 11.6031 21.5613 11.3387 23.5588 11.3387C25.5562 11.3387 27.5538 11.6031 29.4338 12.1319C33.9281 9.07688 35.8963 9.72313 35.8963 9.72313C37.1888 12.9544 36.3663 15.3631 36.1313 15.9506C37.6294 17.5956 38.54 19.6812 38.54 22.2663C38.54 31.2844 33.0469 33.2819 27.8181 33.8694C28.67 34.6038 29.4044 36.0137 29.4044 38.2169C29.4044 41.36 29.375 43.8863 29.375 44.6794C29.375 45.2963 29.8156 46.0306 30.9906 45.7956C35.6557 44.2206 39.7095 41.2223 42.5813 37.2228C45.4532 33.2232 46.9986 28.4238 47 23.5C47 10.5162 36.4837 0 23.5 0Z" fill="white"/>
</svg>
