<svg width="298" height="288" viewBox="0 0 298 288" fill="none" xmlns="http://www.w3.org/2000/svg">
<path d="M148.617 287.727C66.5379 287.727 0 254.434 0 213.364C0 172.294 66.5379 139 148.617 139C230.695 139 297.233 172.294 297.233 213.364C297.233 254.434 230.695 287.727 148.617 287.727Z" fill="#242424"/>
<path d="M164.943 243.586C137.955 243.586 116.077 230.954 116.077 215.371C116.077 199.789 137.955 187.157 164.943 187.157C191.93 187.157 213.808 199.789 213.808 215.371C213.808 230.954 191.93 243.586 164.943 243.586Z" fill="#AEAEAE"/>
<path d="M250.117 117.811L279.776 134.935C280.623 135.486 281.328 136.229 281.834 137.104C282.34 137.979 282.632 138.961 282.687 139.97V199.423C282.633 200.432 282.341 201.415 281.835 202.29C281.33 203.165 280.624 203.908 279.776 204.458L258.304 216.859C257.403 217.316 256.407 217.554 255.397 217.554C254.386 217.554 253.39 217.316 252.489 216.859L222.83 199.735C221.983 199.183 221.278 198.44 220.772 197.565C220.267 196.69 219.974 195.708 219.92 194.699V135.246C219.974 134.236 220.267 133.254 220.772 132.377C221.278 131.501 221.983 130.757 222.83 130.204L244.303 117.811C245.204 117.354 246.2 117.115 247.21 117.115C248.22 117.115 249.216 117.354 250.117 117.811Z" fill="#736969"/>
<path d="M253.785 216.901C254.571 216.901 255.039 216.257 255.039 215.18V155.727C254.987 154.78 254.713 153.858 254.24 153.037C253.766 152.215 253.106 151.516 252.312 150.997L222.653 133.872C222.316 133.664 221.931 133.544 221.534 133.525C220.748 133.525 220.274 134.17 220.274 135.246V194.699C220.326 195.647 220.601 196.569 221.076 197.391C221.551 198.213 222.212 198.911 223.007 199.43L252.666 216.554C253.003 216.764 253.389 216.883 253.785 216.901Z" fill="#242424"/>
<path d="M221.534 133.88C220.72 133.88 220.628 134.836 220.628 135.246V194.699C220.685 195.584 220.945 196.444 221.389 197.211C221.832 197.979 222.447 198.634 223.184 199.125L252.843 216.242C253.126 216.423 253.45 216.528 253.785 216.547C254.6 216.547 254.685 215.591 254.685 215.18V155.727C254.63 154.843 254.371 153.983 253.928 153.216C253.486 152.448 252.872 151.793 252.135 151.301L222.476 134.177C222.193 133.998 221.869 133.896 221.534 133.88ZM221.534 133.171C221.993 133.188 222.44 133.325 222.83 133.568L252.489 150.685C253.335 151.239 254.038 151.984 254.543 152.86C255.047 153.736 255.338 154.718 255.393 155.727V215.18C255.393 216.49 254.741 217.255 253.785 217.255C253.326 217.238 252.879 217.102 252.489 216.859L222.83 199.735C221.983 199.183 221.278 198.44 220.772 197.565C220.267 196.69 219.974 195.708 219.92 194.699V135.246C219.92 133.929 220.578 133.171 221.534 133.171Z" fill="#736969"/>
<path d="M258.304 150.685L279.776 138.292C281.384 137.364 282.687 138.115 282.687 139.97V199.423C282.633 200.432 282.341 201.415 281.835 202.29C281.33 203.165 280.624 203.908 279.776 204.458L258.304 216.859C256.696 217.786 255.393 217.036 255.393 215.18V155.727C255.448 154.717 255.74 153.734 256.246 152.858C256.751 151.982 257.456 151.238 258.304 150.685Z" fill="#AEAEAE"/>
<path d="M244.303 117.811L222.83 130.204C221.223 131.132 221.223 132.64 222.83 133.568L252.489 150.685C253.39 151.142 254.386 151.381 255.396 151.381C256.407 151.381 257.403 151.142 258.304 150.685L279.776 138.292C281.384 137.364 281.384 135.863 279.776 134.935L250.117 117.811C249.216 117.354 248.22 117.115 247.21 117.115C246.2 117.115 245.203 117.354 244.303 117.811Z" fill="#736969"/>
<path d="M237.66 201.937C230.911 198.042 225.443 188.566 225.443 180.776C225.443 172.986 230.911 169.827 237.66 173.694C244.409 177.561 249.876 187.065 249.876 194.855C249.876 202.645 244.402 205.818 237.66 201.937Z" fill="#AEAEAE"/>
<path d="M237.66 200.521C231.591 196.98 226.669 188.481 226.669 181.484C226.669 174.487 231.626 171.633 237.66 175.111C243.694 178.588 248.651 187.15 248.651 194.147C248.651 201.144 243.729 204.012 237.66 200.521Z" fill="#242424"/>
<path d="M237.66 195.223C234.119 193.177 231.244 188.205 231.244 184.112C231.244 180.018 234.076 178.361 237.66 180.408C241.243 182.455 244.076 187.426 244.076 191.519C244.076 195.613 241.201 197.27 237.66 195.223Z" fill="#AEAEAE"/>
<path d="M237.66 190.018C237.109 189.653 236.65 189.165 236.321 188.592C235.991 188.02 235.8 187.378 235.762 186.718C235.762 185.5 236.612 185.004 237.667 185.613C238.219 185.977 238.679 186.465 239.01 187.038C239.341 187.611 239.533 188.253 239.572 188.913C239.565 190.131 238.708 190.606 237.66 190.018Z" fill="#FAFAFA"/>
<path d="M237.66 169.19C232.702 166.315 228.652 159.332 228.652 153.61C228.652 147.888 232.681 145.529 237.66 148.405C242.638 151.28 246.668 158.263 246.668 163.985C246.668 169.707 242.631 172.065 237.66 169.19Z" fill="#AEAEAE"/>
<path d="M237.66 168.149C233.184 165.564 229.551 159.275 229.551 154.106C229.551 148.936 233.184 146.84 237.66 149.424C242.136 152.009 245.761 158.298 245.761 163.468C245.761 168.638 242.136 170.734 237.66 168.149Z" fill="#242424"/>
<path d="M237.66 164.254C236.282 163.355 235.136 162.144 234.314 160.719C233.492 159.294 233.018 157.696 232.929 156.053C232.929 153.036 235.054 151.804 237.66 153.319C239.037 154.218 240.183 155.43 241.005 156.854C241.827 158.279 242.302 159.878 242.391 161.52C242.391 164.537 240.273 165.762 237.66 164.254Z" fill="#AEAEAE"/>
<path d="M237.66 160.408C237.248 160.143 236.905 159.784 236.659 159.361C236.413 158.937 236.27 158.461 236.243 157.972C236.243 157.08 236.874 156.719 237.66 157.165C238.071 157.431 238.414 157.79 238.66 158.213C238.906 158.637 239.049 159.112 239.076 159.601C239.062 160.493 238.432 160.862 237.66 160.408Z" fill="#FAFAFA"/>
<path d="M223.099 136.875C223.402 137.072 223.654 137.337 223.835 137.65C224.016 137.963 224.121 138.313 224.14 138.674C224.14 139.34 223.673 139.609 223.099 139.276C222.797 139.078 222.546 138.813 222.365 138.5C222.184 138.188 222.079 137.838 222.058 137.477C222.058 136.783 222.526 136.542 223.099 136.875Z" fill="#AEAEAE"/>
<path d="M251.625 153.355C251.929 153.551 252.181 153.817 252.362 154.129C252.543 154.442 252.647 154.793 252.666 155.154C252.666 155.819 252.199 156.089 251.625 155.756C251.322 155.557 251.07 155.291 250.889 154.977C250.709 154.663 250.604 154.311 250.584 153.95C250.584 153.291 251.052 153.022 251.625 153.355Z" fill="#AEAEAE"/>
<path d="M223.099 194.331C223.403 194.527 223.655 194.793 223.836 195.105C224.017 195.418 224.121 195.769 224.14 196.13C224.14 196.796 223.673 197.058 223.099 196.732C222.796 196.534 222.544 196.267 222.363 195.953C222.183 195.639 222.078 195.288 222.058 194.926C222.058 194.267 222.526 193.998 223.099 194.331Z" fill="#AEAEAE"/>
<path d="M251.625 210.804C251.928 211.002 252.18 211.269 252.361 211.582C252.542 211.896 252.647 212.248 252.666 212.609C252.666 213.268 252.199 213.537 251.625 213.204C251.322 213.008 251.07 212.743 250.889 212.43C250.708 212.117 250.604 211.766 250.584 211.405C250.584 210.747 251.052 210.478 251.625 210.804Z" fill="#AEAEAE"/>
<path d="M271.589 187.129L266.49 190.075C264.883 191.003 263.58 190.252 263.58 188.396V173.057C263.633 172.048 263.925 171.065 264.431 170.19C264.937 169.315 265.642 168.572 266.49 168.022L271.589 165.111C273.197 164.183 274.5 164.934 274.5 166.789V182.108C274.443 183.114 274.15 184.093 273.644 184.966C273.138 185.838 272.435 186.579 271.589 187.129Z" fill="#736969"/>
<path d="M273.133 167.795C273.133 166.683 272.354 166.23 271.384 166.782L266.689 169.495C266.182 169.827 265.76 170.274 265.457 170.799C265.154 171.324 264.979 171.913 264.946 172.519V175.231L273.133 170.507V167.795Z" fill="#AEAEAE"/>
<path d="M264.946 187.355C264.946 188.467 265.725 188.92 266.689 188.368L271.391 185.648C271.898 185.316 272.32 184.87 272.623 184.344C272.925 183.819 273.1 183.23 273.133 182.625V179.912L264.946 184.636V187.355Z" fill="#AEAEAE"/>
<path d="M250.039 77.6063L277.545 93.4769C278.332 93.9866 278.986 94.6752 279.455 95.4864C279.924 96.2975 280.194 97.2082 280.244 98.1439V130.409C280.195 131.347 279.925 132.26 279.456 133.073C278.987 133.887 278.332 134.578 277.545 135.09L257.652 146.577C256.817 147 255.894 147.22 254.957 147.22C254.021 147.22 253.098 147 252.263 146.577L224.778 130.707C223.994 130.195 223.341 129.506 222.874 128.695C222.406 127.884 222.136 126.974 222.087 126.04V93.7673C222.137 92.8317 222.407 91.921 222.874 91.109C223.342 90.297 223.994 89.6065 224.778 89.0932L244.678 77.6063C245.51 77.1884 246.428 76.9707 247.359 76.9707C248.289 76.9707 249.207 77.1884 250.039 77.6063Z" fill="#736969"/>
<path d="M253.467 146.592C254.175 146.592 254.6 146.004 254.6 145.019V112.74C254.547 111.864 254.288 111.012 253.846 110.255C253.403 109.497 252.788 108.854 252.05 108.378L224.572 92.514C224.261 92.3203 223.905 92.2105 223.538 92.1953C222.83 92.1953 222.405 92.7831 222.405 93.7604V126.04C222.452 126.914 222.704 127.765 223.142 128.524C223.581 129.282 224.192 129.926 224.926 130.402L252.404 146.266C252.723 146.467 253.09 146.579 253.467 146.592Z" fill="#242424"/>
<path d="M223.545 92.5495C222.837 92.5495 222.766 93.3993 222.766 93.7676V126.04C222.817 126.851 223.054 127.639 223.459 128.343C223.865 129.047 224.428 129.647 225.104 130.098L252.588 145.99C252.844 146.152 253.136 146.247 253.438 146.266C254.147 146.266 254.217 145.416 254.217 145.048V112.74C254.166 111.93 253.928 111.142 253.521 110.439C253.114 109.736 252.55 109.137 251.873 108.689L224.388 92.8186C224.133 92.6576 223.84 92.5649 223.538 92.5495H223.545ZM223.538 91.8413C223.963 91.8547 224.376 91.9818 224.735 92.2096L252.22 108.073C253.005 108.584 253.658 109.273 254.127 110.084C254.596 110.895 254.867 111.805 254.918 112.74V145.02C254.918 146.238 254.316 146.946 253.431 146.946C253.005 146.929 252.59 146.802 252.227 146.578L224.742 130.707C223.958 130.196 223.306 129.507 222.838 128.696C222.371 127.885 222.101 126.975 222.051 126.04V93.7676C222.051 92.5424 222.66 91.8413 223.545 91.8413H223.538Z" fill="#736969"/>
<path d="M257.624 108.073L277.545 96.5862C279.039 95.7293 280.243 96.4233 280.243 98.1443V130.41C280.195 131.347 279.925 132.26 279.456 133.074C278.987 133.887 278.332 134.578 277.545 135.091L257.652 146.578C256.165 147.435 254.961 146.74 254.961 145.02V112.74C255.008 111.808 255.274 110.9 255.736 110.089C256.199 109.279 256.845 108.588 257.624 108.073Z" fill="#AEAEAE"/>
<path d="M244.65 77.6066L224.749 89.0935C223.262 89.9575 223.262 91.3455 224.749 92.2095L252.234 108.073C253.07 108.496 253.993 108.716 254.929 108.716C255.865 108.716 256.788 108.496 257.624 108.073L277.545 96.5862C279.039 95.7293 279.039 94.3341 277.545 93.4772L250.067 77.6066C249.228 77.1794 248.3 76.9567 247.358 76.9567C246.417 76.9567 245.489 77.1794 244.65 77.6066Z" fill="#736969"/>
<path d="M238.495 132.732C232.242 129.127 227.164 120.346 227.164 113.129C227.164 105.913 232.235 102.981 238.495 106.593C244.756 110.205 249.827 118.979 249.827 126.203C249.827 133.426 244.742 136.344 238.495 132.732Z" fill="#AEAEAE"/>
<path d="M238.495 131.422C232.83 128.179 228.312 120.275 228.312 113.781C228.312 107.287 232.865 104.653 238.495 107.903C244.126 111.154 248.679 119.078 248.679 125.544C248.679 132.01 244.118 134.659 238.495 131.422Z" fill="#242424"/>
<path d="M238.495 126.529C235.209 124.631 232.547 120.02 232.547 116.232C232.547 112.443 235.209 110.899 238.495 112.797C241.781 114.695 244.437 119.305 244.437 123.094C244.437 126.883 241.774 128.427 238.495 126.529Z" fill="#AEAEAE"/>
<path d="M238.495 121.706C237.981 121.371 237.552 120.919 237.245 120.388C236.937 119.856 236.759 119.26 236.725 118.646C236.725 117.52 237.518 117.06 238.495 117.627C239.009 117.962 239.436 118.414 239.742 118.946C240.049 119.477 240.226 120.073 240.259 120.686C240.259 121.812 239.466 122.265 238.495 121.706Z" fill="#FAFAFA"/>
<path d="M225.004 95.2762C225.284 95.4583 225.518 95.7039 225.685 95.9931C225.852 96.2823 225.949 96.6068 225.968 96.9404C225.968 97.5566 225.536 97.8044 225.004 97.4999C224.723 97.3171 224.49 97.0703 224.322 96.7798C224.155 96.4894 224.059 96.1634 224.041 95.8286C224.041 95.2124 224.431 95 225.004 95.2762Z" fill="#AEAEAE"/>
<path d="M251.434 110.58C251.714 110.762 251.947 111.008 252.115 111.297C252.282 111.586 252.379 111.911 252.397 112.244C252.397 112.86 251.972 113.108 251.434 112.804C251.153 112.621 250.919 112.374 250.752 112.084C250.585 111.793 250.488 111.467 250.471 111.132C250.471 110.488 250.903 110.233 251.434 110.58Z" fill="#AEAEAE"/>
<path d="M225.004 125.7C225.284 125.882 225.518 126.128 225.685 126.417C225.852 126.706 225.949 127.031 225.968 127.364C225.968 127.98 225.536 128.228 225.004 127.924C224.723 127.741 224.49 127.494 224.322 127.204C224.155 126.913 224.059 126.587 224.041 126.252C224.041 125.643 224.431 125.388 225.004 125.7Z" fill="#AEAEAE"/>
<path d="M251.434 140.969C251.715 141.151 251.949 141.398 252.116 141.689C252.284 141.979 252.38 142.305 252.397 142.64C252.397 143.249 251.972 143.504 251.434 143.192C251.154 143.01 250.921 142.765 250.754 142.475C250.586 142.186 250.489 141.862 250.471 141.528C250.471 140.912 250.903 140.664 251.434 140.969Z" fill="#AEAEAE"/>
<path d="M276.419 119.121V113.668C276.419 111.947 275.215 111.253 273.728 112.11L261.42 119.192C260.635 119.704 259.982 120.395 259.513 121.207C259.044 122.019 258.773 122.93 258.721 123.866V129.319C258.721 131.04 259.932 131.734 261.42 130.877L273.728 123.795C274.513 123.283 275.166 122.593 275.634 121.78C276.101 120.968 276.371 120.057 276.419 119.121Z" fill="#736969"/>
<path d="M261.618 129.319C260.726 129.836 260.003 129.418 260.003 128.384V123.363C260.029 122.797 260.188 122.244 260.469 121.752C260.75 121.259 261.144 120.841 261.618 120.53L263.792 119.277V128.037L261.618 129.319Z" fill="#AEAEAE"/>
<path d="M273.523 113.682C274.422 113.172 275.144 113.59 275.144 114.617V119.645C275.116 120.206 274.954 120.753 274.672 121.24C274.39 121.726 273.996 122.138 273.523 122.442L271.349 123.703V114.943L273.523 113.682Z" fill="#AEAEAE"/>
<path d="M169.936 140.734V217.037C169.934 217.192 169.982 217.344 170.076 217.477C170.169 217.609 170.304 217.716 170.465 217.785C170.773 217.926 171.117 218 171.466 218C171.815 218 172.159 217.926 172.468 217.785C172.635 217.72 172.776 217.615 172.876 217.482C172.976 217.35 173.03 217.195 173.032 217.037V140.734H169.936Z" fill="#37474F"/>
<path d="M171.469 202.135C165.484 202.135 159.5 201.003 154.941 198.735C150.383 196.466 147.922 193.46 147.922 190.218C147.922 186.977 150.413 183.95 154.941 181.697C164.058 177.165 178.886 177.165 187.997 181.697C192.526 183.95 195.016 186.977 195.016 190.218C195.016 193.46 192.526 196.481 187.997 198.735C183.445 201.003 177.454 202.135 171.469 202.135ZM171.469 179.305C165.698 179.305 159.928 180.401 155.536 182.588C151.375 184.636 149.111 187.356 149.111 190.218C149.111 193.081 151.393 195.785 155.536 197.849C164.32 202.217 178.619 202.217 187.403 197.849C191.563 195.8 193.827 193.076 193.827 190.218C193.827 187.361 191.545 184.647 187.403 182.588C183.011 180.401 177.24 179.305 171.469 179.305Z" fill="#37474F"/>
<path d="M158.038 136.529L145.004 209.284C144.986 209.447 145.026 209.612 145.12 209.754C145.213 209.897 145.356 210.012 145.527 210.083C145.836 210.224 146.18 210.298 146.529 210.298C146.878 210.298 147.222 210.224 147.53 210.083C147.679 210.015 147.805 209.916 147.898 209.796C147.99 209.675 148.046 209.536 148.059 209.391L161.134 136.524L158.038 136.529Z" fill="#37474F"/>
<path d="M197.993 209.289L185.037 136.821L184.984 136.529H181.905L194.98 209.407C194.997 209.549 195.054 209.685 195.147 209.804C195.239 209.923 195.363 210.02 195.509 210.088C195.815 210.233 196.159 210.307 196.508 210.303C196.858 210.307 197.204 210.233 197.512 210.088C197.676 210.012 197.81 209.895 197.896 209.752C197.982 209.61 198.016 209.448 197.993 209.289Z" fill="#37474F"/>
<path d="M156.594 123.594C164.688 119.568 177.811 119.568 185.899 123.594C189.946 125.606 191.967 128.243 191.967 130.886V134.122C191.967 136.76 189.946 139.402 185.899 141.415C177.811 145.44 164.688 145.44 156.594 141.415C152.552 139.402 150.532 136.76 150.532 134.122V130.886C150.532 128.243 152.552 125.606 156.594 123.594Z" fill="#263238"/>
<path d="M156.594 122.022C164.688 117.997 177.811 117.997 185.899 122.022C189.946 124.034 191.967 126.672 191.967 129.309V132.54C191.967 135.178 189.946 137.815 185.899 139.828C177.811 143.858 164.688 143.858 156.594 139.828C152.552 137.815 150.532 135.178 150.532 132.54V129.299C150.532 126.672 152.552 124.034 156.594 122.022Z" fill="#71C2A3"/>
<path opacity="0.5" d="M156.594 122.022C164.688 117.997 177.811 117.997 185.899 122.022C189.946 124.034 191.967 126.672 191.967 129.309V132.54C191.967 135.178 189.946 137.815 185.899 139.828C177.811 143.858 164.688 143.858 156.594 139.828C152.552 137.815 150.532 135.178 150.532 132.54V129.299C150.532 126.672 152.552 124.034 156.594 122.022Z" fill="black"/>
<path d="M171.249 139.617C182.695 139.617 191.973 135.002 191.973 129.309C191.973 123.615 182.695 119 171.249 119C159.804 119 150.526 123.615 150.526 129.309C150.526 135.002 159.804 139.617 171.249 139.617Z" fill="#71C2A3"/>
<path opacity="0.3" d="M171.249 139.617C182.695 139.617 191.973 135.002 191.973 129.309C191.973 123.615 182.695 119 171.249 119C159.804 119 150.526 123.615 150.526 129.309C150.526 135.002 159.804 139.617 171.249 139.617Z" fill="black"/>
<path d="M111.708 33.4861L114.71 39.0525C114.946 38.7934 115.258 38.6161 115.602 38.5463C115.945 38.4764 116.301 38.5175 116.62 38.6638C116.938 38.81 117.201 39.0538 117.372 39.3597C117.543 39.6657 117.611 40.018 117.568 40.3656C117.525 40.7132 117.373 41.0382 117.133 41.2934C116.893 41.5486 116.578 41.7209 116.234 41.7852C115.89 41.8496 115.534 41.8026 115.218 41.6513C114.902 41.5 114.642 41.252 114.477 40.9434L111.778 35.986L106.049 37.4024L108.712 42.3597C108.836 42.216 108.984 42.096 109.151 42.0056C109.442 41.8559 109.771 41.7957 110.096 41.8324C110.421 41.8692 110.728 42.0013 110.978 42.2122C111.228 42.423 111.41 42.7032 111.501 43.0174C111.592 43.3315 111.588 43.6657 111.49 43.9776C111.392 44.2896 111.203 44.5655 110.948 44.7705C110.693 44.9755 110.383 45.1005 110.057 45.1296C109.732 45.1588 109.404 45.0909 109.117 44.9345C108.83 44.7781 108.595 44.5401 108.443 44.2506L104.038 35.9223L111.708 33.4861Z" fill="#25A171"/>
<path d="M218.192 13.9825L215.168 19.5348C215.354 19.5603 215.534 19.6203 215.699 19.7118C215.984 19.8695 216.217 20.1082 216.366 20.3979C216.516 20.6875 216.577 21.0151 216.541 21.3392C216.505 21.6633 216.373 21.9694 216.163 22.2189C215.953 22.4684 215.674 22.65 215.361 22.7409C215.048 22.8318 214.715 22.8279 214.404 22.7296C214.093 22.6313 213.818 22.4431 213.614 22.1887C213.41 21.9343 213.286 21.6251 213.257 21.3003C213.229 20.9754 213.297 20.6494 213.454 20.3634L216.159 15.406L211.91 11.3622L209.212 16.3196C209.4 16.3483 209.582 16.4082 209.75 16.4966C210.026 16.667 210.247 16.9149 210.384 17.2094C210.52 17.504 210.568 17.8322 210.519 18.1534C210.471 18.4746 210.33 18.7745 210.112 19.0159C209.895 19.2573 209.612 19.4296 209.297 19.5113C208.983 19.593 208.652 19.5805 208.344 19.4755C208.037 19.3704 207.767 19.1774 207.569 18.9203C207.37 18.6633 207.252 18.3536 207.228 18.0297C207.204 17.7058 207.276 17.382 207.434 17.0986L211.967 8.88354L218.192 13.9825Z" fill="#25A171"/>
<path d="M231.371 29.7397L234.296 35.3416C234.535 35.0857 234.85 34.9128 235.195 34.8478C235.539 34.7828 235.895 34.8291 236.211 34.9801C236.528 35.131 236.788 35.3788 236.954 35.6874C237.12 35.996 237.183 36.3495 237.135 36.6966C237.087 37.0437 236.929 37.3664 236.685 37.618C236.441 37.8696 236.123 38.0369 235.778 38.0959C235.433 38.1548 235.077 38.1021 234.764 37.9456C234.45 37.7891 234.195 37.5368 234.034 37.2254L231.407 32.2043L225.663 33.5144L228.248 38.4718C228.374 38.3318 228.526 38.2165 228.694 38.1318C228.984 37.9828 229.312 37.9229 229.635 37.9597C229.959 37.9966 230.265 38.1285 230.514 38.3389C230.763 38.5492 230.944 38.8286 231.034 39.1418C231.125 39.455 231.12 39.7879 231.022 40.0985C230.923 40.4092 230.735 40.6837 230.48 40.8874C230.226 41.0911 229.917 41.2149 229.592 41.2431C229.267 41.2714 228.941 41.2028 228.656 41.0461C228.37 40.8894 228.137 40.6516 227.986 40.3627L223.666 32.0414L231.371 29.7397Z" fill="#25A171"/>
<path d="M132.592 24.7472C132.283 24.2998 131.882 23.9232 131.417 23.6424C130.796 23.2782 130.129 22.9995 129.434 22.8138C128.498 22.5813 127.587 22.2587 126.714 21.8507C126.273 21.6441 125.88 21.3488 125.558 20.9833C125.236 20.6177 124.993 20.1897 124.845 19.7261C125.309 20.0507 125.842 20.264 126.403 20.3493C127.741 20.5547 129.235 19.9031 130.652 19.8252C132.663 19.719 134.094 20.6113 135.645 22.0844C134.773 23.6211 133.945 25.1862 133.102 26.7372C132.436 27.9458 131.773 29.1616 131.112 30.3844C131.048 30.4977 130.248 32.0628 130.248 32.0628C130.784 32.0868 131.307 32.2321 131.778 32.4877C132.294 32.7706 132.714 33.2002 132.986 33.722C133.258 34.2439 133.369 34.8347 133.305 35.4196C133.241 36.0045 133.004 36.5573 132.626 37.008C132.248 37.4587 131.744 37.7871 131.179 37.9516C130.615 38.1161 130.014 38.1094 129.452 37.9323C128.891 37.7551 128.395 37.4156 128.027 36.9565C127.659 36.4974 127.436 35.9395 127.385 35.3533C127.334 34.7671 127.458 34.179 127.741 33.6633L132.592 24.7472Z" fill="#25A171"/>
<path d="M205.628 40.6741C205.087 40.6872 204.556 40.8177 204.07 41.0566C203.424 41.3855 202.825 41.7974 202.286 42.2817C201.584 42.9398 200.82 43.528 200.005 44.0381C199.596 44.2957 199.139 44.4669 198.662 44.5412C198.184 44.6155 197.697 44.5913 197.229 44.47C197.752 44.2498 198.218 43.916 198.596 43.4927C199.488 42.4871 199.771 40.8441 200.444 39.6685C201.443 37.9193 202.972 37.204 205.047 36.7012C205.869 38.2592 206.733 39.8101 207.576 41.3611C208.241 42.5792 208.902 43.7973 209.559 45.0154L210.501 46.6513C210.816 46.2153 211.222 45.8529 211.69 45.589C212.208 45.3094 212.797 45.1896 213.383 45.2447C213.968 45.2998 214.525 45.5274 214.981 45.8987C215.437 46.27 215.773 46.7682 215.947 47.3305C216.12 47.8928 216.122 48.4938 215.954 49.0575C215.785 49.6212 215.454 50.1223 215 50.4974C214.547 50.8725 213.993 51.1048 213.408 51.1649C212.822 51.2249 212.232 51.1101 211.712 50.8349C211.192 50.5596 210.766 50.1364 210.486 49.6186L205.628 40.6741Z" fill="#25A171"/>
<path opacity="0.15" d="M155.283 153.645C155.708 156.11 154.844 162.179 152.082 168.057C149.376 173.815 145.474 181.357 145 185.316C144.716 183.552 145.113 180.224 145.354 177.278C145.357 177.214 145.357 177.15 145.354 177.087L145.396 176.577C145.396 176.499 145.396 176.421 145.396 176.343C145.396 176.123 145.396 175.904 145.439 175.699V175.656C145.573 173.269 145.68 170.89 145.765 168.744C145.828 167.03 145.885 165.465 145.92 164.169C145.92 163.525 145.956 162.944 145.97 162.441C145.97 162.193 145.97 161.96 145.97 161.733C145.97 160.904 145.97 160.437 145.97 160.437L149.653 152.441C149.879 152.385 150.085 152.356 150.297 152.321C152.064 152.155 153.832 152.624 155.283 153.645Z" fill="black"/>
<path d="M151.402 158.341C151.23 162.045 151.341 165.758 151.735 169.445C152.23 173.461 151.664 176.201 150.467 178.149C149.15 180.273 145.432 181.817 145.439 177.618C145.439 174.7 146.02 160.458 146.02 160.458L151.402 158.341Z" fill="#B16668"/>
<path d="M149.702 152.463C153.01 151.648 156.175 154.021 156.543 154.849C157.039 155.975 157.167 158.341 156.104 161.386C155.221 164.4 155.052 167.579 155.609 170.67C156.14 173.298 158.116 179.778 155.8 183.418C153.484 187.058 147.847 190.571 145.241 186.251C144.391 184.834 145.241 179.523 145.439 175.691C145.871 168.05 146.02 160.494 146.02 160.494L149.702 152.463Z" fill="#263238"/>
<path d="M130.241 148.178L139.787 162.321L148.257 151.776L140.694 134.765L130.241 148.178Z" fill="#B16668"/>
<path d="M141.239 135.983L137.302 158.645L135.885 156.577C135.885 151.372 135.963 144.864 136.105 140.636L140.673 134.772L141.239 135.983Z" fill="#9A4A4D"/>
<path d="M131.495 107.294C140.701 100.177 151.926 93.4701 151.926 93.4701L164.503 106.642L153.725 117.662L137.153 128.809C139.087 130.727 140.661 132.977 141.799 135.452C142.353 136.637 147.934 152.376 148.352 153.616C145.474 158.282 146.71 162.068 141.799 164.502C141.799 164.502 127.373 145.267 120.815 134.085C115.617 125.211 116.792 121.182 117.621 119.921C119.845 116.43 121.438 115.049 131.495 107.294Z" fill="#455A64"/>
<path d="M140.977 126.203C141.834 124.992 142.748 123.83 143.654 122.718C147.089 118.526 154.631 109.844 154.631 109.844L156.855 109.978L150.439 119.843L140.977 126.203Z" fill="#37474F"/>
<path d="M136.424 159.148C136.424 159.148 134.965 186.732 133.152 192.291C131.683 196.661 129.632 200.813 127.054 204.635C126.481 205.506 125.128 207.149 124.653 207.857C124.539 207.998 124.457 208.162 124.413 208.338C124.369 208.514 124.364 208.697 124.399 208.875C124.435 209.053 124.509 209.221 124.616 209.367C124.724 209.513 124.862 209.634 125.022 209.72C126.573 210.86 132.465 210.428 135.425 207.553C138.385 204.678 140.708 199.055 142.408 196.831C143.045 195.995 143.64 195.145 144.2 194.26C144.737 193.451 144.972 192.478 144.865 191.512C144.575 189.834 144.398 189.218 144.632 187.709C145.439 182.448 151.529 166.053 151.919 163.964L136.424 159.148Z" fill="#FFBDA7"/>
<path d="M188.66 92.2592C190.721 98.4558 192.095 100.552 190.784 107.294C189.474 114.036 182.817 120.318 174.567 126.656C167.747 131.904 158.576 139.142 156.664 140.643C154.985 141.96 152.921 155.585 153.19 159.664C153.466 163.913 147.096 178.022 144.32 188.291C140.382 189.141 139.651 191.726 134.24 188.291C134.24 188.291 137.635 140.253 138.803 134.517C139.972 128.781 158.363 108.356 158.363 108.356C158.363 108.356 154.362 99.6173 151.912 93.4843L188.66 92.2592Z" fill="#455A64"/>
<path d="M150.906 104.419C152.125 106.95 154.247 108.933 156.855 109.978L155.849 111.196C155.849 111.196 151.94 109.631 150.906 104.419Z" fill="#37474F"/>
<path d="M160.481 45.235C154.631 46.2689 154.05 47.4446 150.212 55.7658C146.565 63.6763 142.826 72.8687 142.826 72.8687L116.162 74.3205L124.781 83.1375C124.781 83.1375 145.878 84.3414 148.3 83.7607C150.722 83.18 161.685 59.6821 161.685 59.6821L160.481 45.235Z" fill="#FFBDA7"/>
<path d="M186.309 87.0467C185.643 85.9703 185.997 83.2219 186.309 81.848C186.741 79.8296 186.309 75.8001 186.309 75.8001V68.5427C186.309 68.5427 184.085 62.3095 183.54 58.974C182.994 55.6384 183.079 52.8693 184.581 46.9347L176.982 44.718H166.203L160.502 45.2633C160.502 45.2633 157.429 52.4734 156.012 56.8501C155.206 63.7043 155.502 68.3391 156.012 72.9778C156.522 77.6164 154.015 82.925 153.902 85.602C153.788 88.279 152.287 91.048 151.947 93.4984C153.526 96.9331 159.149 102.62 171.387 102.23C184.064 101.827 189.88 94.7501 189.88 94.7501C189.011 91.7626 188.003 89.6568 186.309 87.0467Z" fill="#242424"/>
<path d="M187.286 98.6611C179.553 89.0225 171.515 92.1386 167.605 89.8653C163.696 87.592 162.386 84.5326 160.368 81.891C158.852 79.9223 152.223 72.8757 147.571 76.5583C146.275 77.5852 140.772 81.9689 139.221 83.2508C137.67 84.5326 136.388 87.0042 135.538 91.2604C132.203 108.413 144.299 115.644 146.657 116.564C149.015 117.485 150.991 117.117 154.596 120.955C158.201 124.793 162.988 138.348 171.847 142.201C175.884 143.964 178.689 143.745 180.707 142.158C182.173 141.004 187.725 136.528 189.021 135.487C191.379 133.582 192.64 129.822 193.547 125.133C195.232 116.508 195.02 108.292 187.286 98.6611Z" fill="#25A171"/>
<path opacity="0.2" d="M187.286 98.6611C179.553 89.0225 171.515 92.1386 167.605 89.8653C163.696 87.592 162.386 84.5326 160.368 81.891C158.852 79.9223 152.223 72.8757 147.571 76.5583C146.275 77.5852 140.772 81.9689 139.221 83.2508C137.67 84.5326 136.388 87.0042 135.538 91.2604C132.203 108.413 144.299 115.644 146.657 116.564C149.015 117.485 150.991 117.117 154.596 120.955C158.201 124.793 162.988 138.348 171.847 142.201C175.884 143.964 178.689 143.745 180.707 142.158C182.173 141.004 187.725 136.528 189.021 135.487C191.379 133.582 192.64 129.822 193.547 125.133C195.232 116.508 195.02 108.292 187.286 98.6611Z" fill="white"/>
<path opacity="0.15" d="M171.847 142.222C175.884 143.986 178.689 143.766 180.707 142.18C182.173 141.025 187.725 136.55 189.021 135.508C191.379 133.603 192.64 129.843 193.546 125.155C194.765 118.916 194.963 112.896 192.13 106.416L161.111 131.295C163.859 135.742 167.322 140.246 171.847 142.222Z" fill="black"/>
<path opacity="0.15" d="M169.022 140.572C169.904 141.222 170.854 141.775 171.854 142.222C175.891 143.985 178.696 143.766 180.714 142.18C182.18 141.025 187.732 136.549 189.028 135.508C191.386 133.603 192.647 129.843 193.554 125.155C193.875 123.563 194.112 121.956 194.262 120.339L169.022 140.572Z" fill="black"/>
<path d="M185.296 131.776C183.618 140.423 180.7 146.089 171.84 142.222C162.981 138.355 158.193 124.786 154.589 120.976C150.984 117.166 149.008 117.513 146.65 116.586C144.292 115.658 132.196 108.434 135.531 91.2819C138.867 74.1294 150.085 85.8854 152.11 88.527C154.136 91.1686 155.446 94.1925 159.348 96.5013C163.25 98.81 171.316 95.6373 179.036 105.276C186.755 114.914 186.982 123.122 185.296 131.776Z" fill="#25A171"/>
<path opacity="0.35" d="M185.296 131.776C183.618 140.423 180.7 146.089 171.84 142.222C162.981 138.355 158.193 124.786 154.589 120.976C150.984 117.166 149.008 117.513 146.65 116.586C144.292 115.658 132.196 108.434 135.531 91.2819C138.867 74.1294 150.085 85.8854 152.11 88.527C154.136 91.1686 155.446 94.1925 159.348 96.5013C163.25 98.81 171.316 95.6373 179.036 105.276C186.755 114.914 186.982 123.122 185.296 131.776Z" fill="white"/>
<path d="M151.643 110.679C154.95 113.37 158.151 112.882 158.795 109.589C159.44 106.296 157.273 101.437 153.965 98.7462C150.658 96.055 147.457 96.5437 146.813 99.8368C146.168 103.13 148.335 107.988 151.643 110.679Z" fill="#263238"/>
<path d="M144.738 190.563C145.552 190.422 145.751 191.81 146.43 193.531C147.225 195.165 147.512 197.001 147.252 198.8C146.813 201.108 143.328 201.937 141.905 205.096C140.482 208.254 138.548 213.842 132.486 216.285C126.424 218.728 121.261 217.489 119.739 215.818C118.216 214.146 118.974 212.185 122.571 209.182C126.424 205.988 132.486 194.339 132.486 194.339H139.078L144.738 190.563Z" fill="#263238"/>
<path d="M106.948 71.5373C106.948 71.5373 100.391 64.4554 100.575 63.2373C100.759 62.0192 107.834 66.1479 107.834 66.1479L106.948 71.5373Z" fill="#7E7A7A"/>
<path d="M100.851 63.4499C100.943 62.8975 105.475 65.2133 106.75 65.971C106.75 65.971 102.111 63.9244 102.026 64.4201C102.05 64.9161 102.186 65.4003 102.423 65.8365C102.423 65.8365 100.759 63.719 100.851 63.4499Z" fill="#FAFAFA"/>
<path d="M94.7039 66.4171L94.6331 66.8774C94.624 66.9687 94.6403 67.0607 94.6803 67.1432C94.7203 67.2257 94.7824 67.2955 94.8597 67.3448C95.0615 67.4911 95.2942 67.5889 95.5398 67.6306C95.7854 67.6724 96.0374 67.657 96.2761 67.5856C96.3662 67.5631 96.4482 67.5162 96.5132 67.4499C96.5782 67.3837 96.6236 67.3007 96.6444 67.2103L96.7223 66.757L94.7039 66.4171Z" fill="#7E7A7A"/>
<path d="M96.3822 67.1252C96.4751 67.1112 96.5612 67.0682 96.6282 67.0024C96.6952 66.9365 96.7397 66.8513 96.7554 66.7586C96.7711 66.666 96.7572 66.5708 96.7156 66.4866C96.674 66.4024 96.6069 66.3334 96.5239 66.2896C96.3221 66.1433 96.0894 66.0455 95.8438 66.0038C95.5982 65.962 95.3462 65.9774 95.1075 66.0488C95.0146 66.0628 94.9285 66.1058 94.8615 66.1716C94.7945 66.2375 94.75 66.3228 94.7343 66.4154C94.7186 66.508 94.7325 66.6032 94.7741 66.6874C94.8157 66.7716 94.8828 66.8406 94.9658 66.8845C95.1676 67.0307 95.4003 67.1285 95.6459 67.1702C95.8915 67.212 96.1435 67.1966 96.3822 67.1252Z" fill="#AEAEAE"/>
<path d="M95.6528 64.0942L95.2562 66.4667C95.2556 66.5098 95.2656 66.5524 95.2854 66.5906C95.3052 66.6289 95.3341 66.6618 95.3696 66.6862C95.4631 66.7602 95.5738 66.8094 95.6914 66.8292C95.809 66.849 95.9297 66.8388 96.0423 66.7995C96.0856 66.7899 96.1252 66.7681 96.1566 66.7367C96.1879 66.7054 96.2097 66.6657 96.2194 66.6225L96.616 64.25L95.6528 64.0942Z" fill="#455A64"/>
<path d="M96.439 64.427C96.6444 64.3491 96.6727 64.172 96.5098 64.0375C96.4106 63.961 96.2938 63.9106 96.1701 63.8908C96.0464 63.871 95.9197 63.8825 95.8016 63.9242C95.5962 63.995 95.5679 64.172 95.7379 64.3137C95.8344 64.3926 95.9501 64.4447 96.0732 64.4646C96.1963 64.4845 96.3225 64.4715 96.439 64.427Z" fill="#37474F"/>
<path d="M97.5436 69.2924L97.4657 69.7527C97.4604 69.8442 97.4791 69.9356 97.5201 70.0176C97.5612 70.0996 97.623 70.1694 97.6994 70.2201C97.9011 70.3663 98.1338 70.4641 98.3795 70.5059C98.6251 70.5476 98.8771 70.5322 99.1158 70.4609C99.2055 70.4377 99.2871 70.3905 99.352 70.3243C99.4169 70.2582 99.4626 70.1757 99.4841 70.0855L99.562 69.6323L97.5436 69.2924Z" fill="#7E7A7A"/>
<path d="M99.222 70.0078C99.3144 69.9926 99.3997 69.9488 99.4658 69.8825C99.5319 69.8162 99.5755 69.7308 99.5903 69.6384C99.6052 69.546 99.5906 69.4512 99.5487 69.3675C99.5067 69.2838 99.4395 69.2155 99.3566 69.1721C99.1556 69.0244 98.9228 68.9257 98.6769 68.8838C98.431 68.842 98.1787 68.8583 97.9402 68.9313C97.5011 69.0942 97.4444 69.4624 97.7985 69.7599C98.001 69.9074 98.2346 70.0065 98.4814 70.0495C98.7282 70.0925 98.9816 70.0782 99.222 70.0078Z" fill="#AEAEAE"/>
<path d="M98.4927 66.9692L98.0961 69.3488C98.0918 69.3916 98.0995 69.4348 98.1183 69.4735C98.137 69.5122 98.1661 69.545 98.2023 69.5683C98.3034 69.641 98.42 69.6891 98.543 69.7087C98.6659 69.7284 98.7918 69.7191 98.9105 69.6816C99.0167 69.6391 99.0734 69.5754 99.0805 69.5046L99.4771 67.1321L98.4927 66.9692Z" fill="#455A64"/>
<path d="M99.2788 67.3022C99.4841 67.2243 99.5125 67.0544 99.3425 66.9127C99.2433 66.8362 99.1265 66.7858 99.0028 66.766C98.8791 66.7462 98.7524 66.7577 98.6343 66.7994C98.4289 66.8773 98.4006 67.0473 98.5706 67.1889C98.6698 67.2654 98.7865 67.3158 98.9102 67.3356C99.0339 67.3554 99.1606 67.3439 99.2788 67.3022Z" fill="#37474F"/>
<path d="M100.369 72.2313L100.292 72.6846C100.283 72.7775 100.301 72.8708 100.342 72.9545C100.383 73.0381 100.447 73.1089 100.525 73.1591C100.727 73.3058 100.959 73.4039 101.205 73.4457C101.451 73.4874 101.703 73.4717 101.942 73.3998C102.031 73.3766 102.113 73.3294 102.178 73.2633C102.243 73.1972 102.288 73.1146 102.31 73.0245L102.388 72.5713L100.369 72.2313Z" fill="#7E7A7A"/>
<path d="M102.048 72.9396C102.14 72.9244 102.225 72.8806 102.291 72.8143C102.358 72.748 102.401 72.6626 102.416 72.5702C102.431 72.4778 102.416 72.383 102.374 72.2993C102.332 72.2156 102.265 72.1473 102.182 72.1039C101.981 71.9577 101.748 71.8599 101.502 71.8181C101.257 71.7763 101.005 71.7917 100.766 71.8631C100.673 71.8772 100.587 71.9202 100.52 71.986C100.453 72.0518 100.408 72.1371 100.393 72.2297C100.377 72.3223 100.391 72.4175 100.432 72.5017C100.474 72.586 100.541 72.6549 100.624 72.6988C100.827 72.8451 101.061 72.9429 101.308 72.9847C101.555 73.0264 101.808 73.011 102.048 72.9396Z" fill="#AEAEAE"/>
<path d="M101.318 69.9084L100.922 72.2809C100.918 72.3237 100.925 72.3669 100.944 72.4056C100.963 72.4444 100.992 72.4772 101.028 72.5004C101.127 72.5769 101.244 72.6273 101.368 72.6471C101.491 72.6669 101.618 72.6554 101.736 72.6137C101.779 72.6037 101.817 72.5816 101.847 72.5502C101.877 72.5188 101.898 72.4794 101.906 72.4367L102.303 70.0642L101.318 69.9084Z" fill="#455A64"/>
<path d="M102.104 70.213C102.148 70.2053 102.188 70.1843 102.219 70.1529C102.25 70.1214 102.271 70.081 102.278 70.0374C102.285 69.9937 102.278 69.949 102.258 69.9094C102.239 69.8697 102.207 69.8372 102.168 69.8164C102.068 69.7421 101.951 69.6931 101.828 69.6734C101.705 69.6536 101.578 69.6638 101.46 69.7031C101.416 69.7107 101.376 69.7317 101.345 69.7631C101.314 69.7946 101.294 69.835 101.287 69.8786C101.28 69.9223 101.287 69.967 101.306 70.0067C101.326 70.0463 101.357 70.0788 101.396 70.0996C101.497 70.1723 101.614 70.2204 101.737 70.2401C101.86 70.2597 101.986 70.2505 102.104 70.213Z" fill="#37474F"/>
<path d="M94.3709 52.9756L94.2647 53.0393C94.0751 53.2118 93.8714 53.3682 93.6557 53.5067C93.3151 53.5418 92.9784 53.6081 92.65 53.705C92.4517 53.7758 91.1416 54.2503 90.8229 54.3778C90.7168 54.4125 90.623 54.4771 90.5527 54.5637C90.4823 54.6504 90.4385 54.7555 90.4263 54.8664C90.313 55.5746 91.3045 56.2262 92.8837 59.6397C93.4899 60.8556 94.0289 62.1039 94.4984 63.3789C94.6304 63.8343 94.897 64.2392 95.2633 64.5404C96.7189 65.5494 98.0946 66.6693 99.3779 67.8901C100.745 69.1365 102.699 71.3532 103.415 72.1747C103.489 72.2787 103.59 72.3606 103.707 72.4117C103.825 72.4628 103.953 72.4812 104.08 72.465L105.886 71.7568C105.973 71.7245 106.048 71.6649 106.099 71.5869C106.19 71.4737 106.289 71.3672 106.396 71.2682C106.599 71.2971 106.789 71.3803 106.948 71.509L108.754 70.8008L109.201 68.1096L109.654 65.4185C108.124 64.1579 107.359 61.049 107.239 60.2912C107.118 59.5334 106.913 59.1439 106.531 58.981C104.956 58.2715 103.426 57.4674 101.949 56.5732C100.307 55.52 98.7534 54.3358 97.3029 53.0322C96.8071 52.5436 96.4459 52.1116 96.1627 52.2107L94.3709 52.9756Z" fill="#25A171"/>
<path opacity="0.2" d="M94.3709 52.9756L94.2647 53.0393C94.0751 53.2118 93.8714 53.3682 93.6557 53.5067C93.3151 53.5418 92.9784 53.6081 92.65 53.705C92.4517 53.7758 91.1416 54.2503 90.8229 54.3778C90.7168 54.4125 90.623 54.4771 90.5527 54.5637C90.4823 54.6504 90.4385 54.7555 90.4263 54.8664C90.313 55.5746 91.3045 56.2262 92.8837 59.6397C93.4899 60.8556 94.0289 62.1039 94.4984 63.3789C94.6304 63.8343 94.897 64.2392 95.2633 64.5404C96.7189 65.5494 98.0946 66.6693 99.3779 67.8901C100.745 69.1365 102.699 71.3532 103.415 72.1747C103.489 72.2787 103.59 72.3606 103.707 72.4117C103.825 72.4628 103.953 72.4812 104.08 72.465L105.886 71.7568C105.973 71.7245 106.048 71.6649 106.099 71.5869C106.19 71.4737 106.289 71.3672 106.396 71.2682C106.599 71.2971 106.789 71.3803 106.948 71.509L108.754 70.8008L109.201 68.1096L109.654 65.4185C108.124 64.1579 107.359 61.049 107.239 60.2912C107.118 59.5334 106.913 59.1439 106.531 58.981C104.956 58.2715 103.426 57.4674 101.949 56.5732C100.307 55.52 98.7534 54.3358 97.3029 53.0322C96.8071 52.5436 96.4459 52.1116 96.1627 52.2107L94.3709 52.9756Z" fill="black"/>
<path opacity="0.2" d="M103.415 72.1746C103.489 72.2786 103.59 72.3605 103.707 72.4116C103.825 72.4627 103.953 72.4812 104.08 72.465L105.886 71.7568C105.973 71.7245 106.048 71.6649 106.099 71.5868C106.19 71.4736 106.289 71.3671 106.396 71.2681C106.599 71.2971 106.789 71.3803 106.948 71.5089L108.754 70.8007L109.201 68.1096L109.654 65.4184C108.124 64.1579 107.359 61.0489 107.239 60.2911C107.203 59.9841 107.117 59.6851 106.984 59.4059L104.859 60.1991L102.813 71.4522L103.415 72.1746Z" fill="black"/>
<path d="M107.395 68.8391L106.948 71.5373C106.127 70.8291 104.824 71.594 104.293 72.2951C104.031 72.6492 103.648 72.4438 103.415 72.1747C102.706 71.3532 100.745 69.1365 99.3779 67.8901C98.0946 66.6693 96.719 65.5494 95.2633 64.5404C94.897 64.2392 94.6304 63.8343 94.4984 63.3789C94.0289 62.1039 93.4899 60.8557 92.8838 59.6397C91.3045 56.2262 90.313 55.5534 90.4263 54.8664C90.5396 54.1795 91.4107 54.392 92.6784 53.9883C93.2661 53.7828 93.8058 53.46 94.2647 53.0393C94.5763 52.756 94.9729 53.2447 95.5253 53.7971C96.973 55.1043 98.5269 56.2887 100.171 57.338C101.649 58.2335 103.179 59.0399 104.753 59.753C105.107 59.9088 105.32 60.3054 105.461 61.0631C105.603 61.8209 106.339 64.9228 107.876 66.1834L107.395 68.8391Z" fill="#25A171"/>
<path d="M97.5649 51.8L97.1683 54.1725C97.1677 54.2156 97.1777 54.2582 97.1975 54.2965C97.2172 54.3348 97.2461 54.3676 97.2816 54.392C97.3789 54.4723 97.4958 54.525 97.6203 54.545C97.7448 54.5649 97.8723 54.5512 97.9898 54.5054C98.0324 54.4942 98.0712 54.4719 98.1023 54.4408C98.1334 54.4097 98.1557 54.3709 98.1668 54.3283L98.5634 51.9559L97.5649 51.8Z" fill="#455A64"/>
<path d="M98.3723 52.1186C98.5777 52.0407 98.6131 51.8636 98.4431 51.722C98.3428 51.6478 98.2261 51.5987 98.1028 51.579C97.9796 51.5593 97.8534 51.5695 97.7349 51.6087C97.6914 51.6163 97.6513 51.6373 97.6202 51.6688C97.5892 51.7002 97.5687 51.7406 97.5617 51.7843C97.5547 51.8279 97.5615 51.8727 97.5811 51.9123C97.6007 51.9519 97.6322 51.9844 97.6712 52.0053C97.771 52.0779 97.8864 52.1259 98.0082 52.1456C98.13 52.1653 98.2547 52.156 98.3723 52.1186Z" fill="#37474F"/>
<path d="M97.0408 51.5662L96.97 52.0265C96.9608 52.1177 96.9772 52.2097 97.0172 52.2923C97.0572 52.3748 97.1193 52.4446 97.1966 52.4939C97.3983 52.6401 97.631 52.7379 97.8767 52.7797C98.1223 52.8215 98.3743 52.8061 98.613 52.7347C98.703 52.7122 98.7851 52.6652 98.8501 52.599C98.9151 52.5327 98.9605 52.4498 98.9812 52.3593L99.0591 51.9061L97.0408 51.5662Z" fill="#7E7A7A"/>
<path d="M98.7193 52.2814C99.1584 52.1114 99.2221 51.7431 98.861 51.4457C98.6553 51.2934 98.4165 51.1922 98.1641 51.1503C97.9117 51.1084 97.6529 51.1272 97.4092 51.2049C97.3189 51.2218 97.2361 51.2661 97.172 51.3318C97.1078 51.3975 97.0655 51.4813 97.0508 51.572C97.0361 51.6626 97.0497 51.7555 97.0898 51.8381C97.1298 51.9207 97.1944 51.9889 97.2746 52.0335C97.479 52.1854 97.7164 52.2869 97.9673 52.33C98.2183 52.373 98.4759 52.3564 98.7193 52.2814Z" fill="#AEAEAE"/>
<path d="M100.61 54.1724L100.213 56.5448C100.209 56.5876 100.217 56.6308 100.236 56.6695C100.254 56.7083 100.283 56.7411 100.32 56.7643C100.419 56.8408 100.536 56.8913 100.659 56.911C100.783 56.9308 100.91 56.9194 101.028 56.8777C101.07 56.8676 101.109 56.8455 101.139 56.8141C101.169 56.7827 101.189 56.7433 101.198 56.7006L101.594 54.3282L100.61 54.1724Z" fill="#455A64"/>
<path d="M101.396 54.5051C101.602 54.4272 101.63 54.2502 101.46 54.1156C101.361 54.0391 101.244 53.9887 101.12 53.9689C100.997 53.9491 100.87 53.9606 100.752 54.0023C100.546 54.0731 100.518 54.2502 100.688 54.3918C100.788 54.466 100.905 54.5151 101.028 54.5348C101.152 54.5545 101.278 54.5443 101.396 54.5051Z" fill="#37474F"/>
<path d="M100.086 53.9597L100.008 54.413C100.001 54.504 100.018 54.5955 100.058 54.6777C100.098 54.7599 100.159 54.8299 100.235 54.8804C100.436 55.0281 100.669 55.1268 100.915 55.1686C101.161 55.2104 101.413 55.1942 101.651 55.1212C101.741 55.099 101.823 55.0531 101.889 54.9883C101.955 54.9235 102.003 54.8422 102.027 54.7529L102.097 54.2996L100.086 53.9597Z" fill="#7E7A7A"/>
<path d="M101.757 54.6681C101.85 54.654 101.936 54.611 102.003 54.5452C102.07 54.4794 102.115 54.3941 102.131 54.3015C102.146 54.2089 102.132 54.1137 102.091 54.0295C102.049 53.9452 101.982 53.8763 101.899 53.8324C101.697 53.6862 101.465 53.5884 101.219 53.5466C100.973 53.5049 100.721 53.5203 100.483 53.5916C100.39 53.6057 100.304 53.6487 100.237 53.7145C100.17 53.7803 100.125 53.8656 100.109 53.9582C100.094 54.0508 100.108 54.146 100.149 54.2303C100.191 54.3145 100.258 54.3834 100.341 54.4273C100.543 54.5735 100.775 54.6713 101.021 54.7131C101.267 54.7549 101.519 54.7395 101.757 54.6681Z" fill="#AEAEAE"/>
<path d="M103.648 55.6595L103.252 58.0391C103.248 58.0819 103.255 58.1251 103.274 58.1638C103.293 58.2025 103.322 58.2353 103.358 58.2586C103.458 58.3329 103.575 58.3819 103.698 58.4016C103.822 58.4213 103.948 58.4112 104.066 58.3719C104.165 58.3294 104.229 58.2657 104.236 58.1949L104.633 55.8224L103.648 55.6595Z" fill="#455A64"/>
<path d="M104.434 55.9923C104.64 55.9144 104.668 55.7444 104.498 55.6028C104.399 55.5263 104.282 55.4759 104.158 55.4561C104.035 55.4363 103.908 55.4478 103.79 55.4895C103.585 55.5674 103.556 55.7444 103.726 55.879C103.825 55.9554 103.942 56.0059 104.066 56.0257C104.19 56.0455 104.316 56.034 104.434 55.9923Z" fill="#37474F"/>
<path d="M103.124 55.447L103.046 55.9074C103.04 55.9983 103.057 56.0895 103.097 56.1716C103.137 56.2537 103.197 56.3238 103.273 56.3748C103.475 56.521 103.707 56.6188 103.953 56.6606C104.199 56.7023 104.451 56.6869 104.689 56.6155C104.78 56.5921 104.862 56.5449 104.928 56.4789C104.994 56.4129 105.041 56.3305 105.065 56.2402L105.136 55.787L103.124 55.447Z" fill="#7E7A7A"/>
<path d="M104.795 56.1554C104.888 56.1413 104.974 56.0983 105.041 56.0325C105.108 55.9667 105.153 55.8814 105.169 55.7888C105.184 55.6962 105.17 55.601 105.129 55.5168C105.087 55.4325 105.02 55.3636 104.937 55.3197C104.735 55.1735 104.503 55.0757 104.257 55.0339C104.011 54.9922 103.759 55.0076 103.521 55.0789C103.428 55.093 103.342 55.136 103.275 55.2018C103.208 55.2676 103.163 55.3529 103.148 55.4455C103.132 55.5381 103.146 55.6333 103.187 55.7175C103.229 55.8018 103.296 55.8707 103.379 55.9146C103.581 56.0608 103.814 56.1586 104.059 56.2004C104.305 56.2421 104.557 56.2267 104.795 56.1554Z" fill="#AEAEAE"/>
<path d="M106.941 71.5301L145.226 104.206L147.032 103.498C146.688 102.312 146.611 101.064 146.806 99.8437C147.117 98.2574 148.031 97.3155 149.263 97.0747V97.0251L109.604 65.4822L107.798 66.155L106.941 71.5301Z" fill="#37474F"/>
<path d="M145.191 104.149C144.853 102.967 144.778 101.724 144.971 100.509C145.283 98.8947 146.211 97.9528 147.471 97.7262L107.812 66.1761L106.906 71.5584L145.191 104.149Z" fill="#455A64"/>
<path d="M168.738 112.981L166.975 123.717L168.682 125.119L169.163 124.942L170.955 114.227L169.227 112.797L168.738 112.981Z" fill="#263238"/>
<path d="M168.682 125.119L170.473 114.404L168.738 112.981L166.975 123.717L168.682 125.119Z" fill="#37474F"/>
<path d="M168.852 124.092L168.958 123.469L167.251 122.06L167.152 122.69L168.852 124.092Z" fill="#263238"/>
<path d="M169.121 122.506L169.22 121.883L167.513 120.474L167.407 121.104L169.121 122.506Z" fill="#263238"/>
<path d="M169.383 120.927L169.489 120.304L167.775 118.887L167.669 119.517L169.383 120.927Z" fill="#263238"/>
<path d="M169.645 119.34L169.751 118.717L168.03 117.301L167.931 117.931L169.645 119.34Z" fill="#263238"/>
<path d="M169.907 117.761L170.013 117.138L168.292 115.714L168.193 116.345L169.907 117.761Z" fill="#263238"/>
<path d="M170.176 116.175L170.282 115.551L168.554 114.128L168.448 114.758L170.176 116.175Z" fill="#263238"/>
<path d="M170.084 112.705C170.015 112.738 169.955 112.789 169.912 112.852C169.868 112.915 169.842 112.989 169.836 113.066L167.471 127.23C167.455 127.448 167.487 127.666 167.567 127.87C167.647 128.073 167.771 128.256 167.931 128.405C167.986 128.462 168.055 128.504 168.131 128.525C168.207 128.546 168.287 128.546 168.363 128.526L169.277 128.186C169.347 128.153 169.408 128.101 169.451 128.036C169.495 127.971 169.52 127.896 169.524 127.817L171.862 113.618C171.884 113.406 171.857 113.192 171.782 112.993C171.707 112.794 171.586 112.615 171.43 112.471C171.376 112.413 171.307 112.37 171.231 112.349C171.154 112.328 171.074 112.328 170.998 112.351L170.084 112.705Z" fill="#37474F"/>
<path d="M168.611 128.136L170.941 113.972C170.964 113.76 170.937 113.546 170.862 113.347C170.787 113.147 170.666 112.969 170.509 112.825C170.204 112.563 169.9 112.676 169.801 113.066L167.435 127.23C167.419 127.448 167.452 127.666 167.532 127.87C167.611 128.073 167.736 128.256 167.896 128.405C168.243 128.646 168.54 128.533 168.611 128.136Z" fill="#455A64"/>
<path d="M139.681 98.817C139.713 98.816 139.744 98.8043 139.768 98.7837C139.793 98.7632 139.809 98.7349 139.816 98.7037L140.779 92.8752C140.785 92.8405 140.778 92.8047 140.758 92.7756C140.738 92.7465 140.707 92.7263 140.673 92.7194C140.638 92.7167 140.603 92.7267 140.574 92.7474C140.545 92.7682 140.525 92.7984 140.517 92.8327L139.547 98.6258C139.543 98.6435 139.542 98.662 139.546 98.6799C139.55 98.6978 139.557 98.7147 139.568 98.7295C139.579 98.7443 139.592 98.7566 139.608 98.7656C139.624 98.7745 139.642 98.78 139.66 98.7816L139.681 98.817Z" fill="#AEAEAE"/>
<path d="M130.779 91.2532C130.811 91.2523 130.842 91.2406 130.866 91.22C130.891 91.1994 130.907 91.1712 130.914 91.1399L131.806 85.7931C131.809 85.7754 131.809 85.7572 131.805 85.7398C131.8 85.7223 131.793 85.7058 131.782 85.6913C131.772 85.6768 131.758 85.6645 131.743 85.6552C131.728 85.6459 131.711 85.6398 131.693 85.6373C131.658 85.631 131.622 85.6386 131.593 85.6585C131.564 85.6784 131.544 85.7089 131.537 85.7435L130.645 91.0903C130.642 91.1255 130.652 91.1605 130.673 91.1891C130.693 91.2176 130.724 91.2378 130.758 91.2461L130.779 91.2532Z" fill="#AEAEAE"/>
<path d="M121.891 83.6686C121.923 83.6688 121.953 83.6573 121.977 83.6364C122 83.6155 122.015 83.5866 122.019 83.5553L122.812 78.8033C122.816 78.786 122.817 78.7681 122.813 78.7506C122.81 78.7332 122.803 78.7166 122.793 78.7019C122.783 78.6873 122.77 78.6748 122.755 78.6655C122.74 78.6561 122.723 78.65 122.706 78.6475C122.671 78.6413 122.635 78.6489 122.606 78.6688C122.577 78.6886 122.557 78.7191 122.55 78.7537L121.757 83.5128C121.751 83.5475 121.758 83.5833 121.778 83.6124C121.798 83.6416 121.829 83.6617 121.863 83.6686H121.891Z" fill="#AEAEAE"/>
<path d="M113.011 75.9495C113.042 75.9497 113.073 75.9382 113.096 75.9173C113.12 75.8964 113.135 75.8675 113.138 75.8362L113.846 71.672C113.849 71.6368 113.839 71.6018 113.818 71.5733C113.798 71.5447 113.767 71.5245 113.733 71.5162C113.715 71.5132 113.697 71.5137 113.68 71.5178C113.662 71.5219 113.646 71.5295 113.631 71.54C113.617 71.5506 113.604 71.5639 113.595 71.5793C113.586 71.5947 113.58 71.6117 113.577 71.6295L112.869 75.7937C112.866 75.8114 112.867 75.8295 112.871 75.847C112.875 75.8645 112.882 75.881 112.893 75.8955C112.903 75.91 112.917 75.9223 112.932 75.9315C112.947 75.9408 112.965 75.9469 112.982 75.9495H113.011Z" fill="#AEAEAE"/>
<path d="M168.873 123.809L168.937 123.738L107.416 70.9779L102.614 67.4581L102.558 67.536L107.359 71.0558L168.873 123.809Z" fill="#AEAEAE"/>
<path d="M169.142 122.223L169.206 122.145L107.543 70.2129L99.484 64.4482L99.4274 64.5261L107.487 70.2838L169.142 122.223Z" fill="#AEAEAE"/>
<path d="M169.404 120.629L169.468 120.558L107.671 69.4411L96.6371 61.8068L96.5804 61.8847L107.614 69.519L169.404 120.629Z" fill="#AEAEAE"/>
<path d="M170.211 115.821L170.268 115.743L107.749 66.8773L103.386 62.8547L103.322 62.9256L107.685 66.9552L170.211 115.821Z" fill="#AEAEAE"/>
<path d="M169.942 117.407L170.006 117.336L107.621 67.6492L100.129 60.6027L100.065 60.6735L107.557 67.72L169.942 117.407Z" fill="#AEAEAE"/>
<path d="M169.68 119.001L169.744 118.923L107.494 68.4214L97.1966 58.4926L97.1329 58.5563L107.43 68.4923L169.68 119.001Z" fill="#AEAEAE"/>
<path d="M97.1401 59.1299L97.5792 58.967C97.6601 58.9254 97.7292 58.864 97.78 58.7885C97.8308 58.7129 97.8616 58.6257 97.8695 58.535C97.8975 58.2815 97.8652 58.025 97.7754 57.7862C97.6855 57.5475 97.5407 57.3334 97.3525 57.1611C97.2883 57.0937 97.2067 57.0454 97.1166 57.0216C97.0266 56.9979 96.9317 56.9996 96.8426 57.0266L96.4177 57.1895L97.1401 59.1299Z" fill="#AEAEAE"/>
<path d="M96.9203 57.324C96.5592 57.0266 96.2121 57.1611 96.1272 57.6214C96.0972 57.8734 96.1278 58.1289 96.2165 58.3666C96.3052 58.6044 96.4494 58.8175 96.6371 58.9883C96.9982 59.2857 97.3453 59.1582 97.4302 58.6979C97.4602 58.4449 97.4296 58.1883 97.3409 57.9495C97.2523 57.7106 97.1081 57.4962 96.9203 57.324Z" fill="#7E7A7A"/>
<path d="M100.114 61.1763L100.554 61.0134C100.635 60.9718 100.704 60.9104 100.754 60.8349C100.805 60.7593 100.836 60.6721 100.844 60.5814C100.872 60.3278 100.84 60.0711 100.751 59.8323C100.661 59.5935 100.516 59.3794 100.327 59.2075C100.263 59.1401 100.181 59.0918 100.091 59.068C100.001 59.0443 99.9061 59.046 99.817 59.073L99.385 59.2359L100.114 61.1763Z" fill="#AEAEAE"/>
<path d="M99.8949 59.3705C99.5337 59.073 99.1867 59.2005 99.1017 59.6679C99.0723 59.9198 99.1032 60.1751 99.1919 60.4128C99.2806 60.6504 99.4244 60.8636 99.6116 61.0347C99.9728 61.3321 100.32 61.2047 100.405 60.7373C100.434 60.4853 100.403 60.23 100.315 59.9924C100.226 59.7547 100.082 59.5416 99.8949 59.3705Z" fill="#7E7A7A"/>
<path d="M103.131 63.1311L103.57 62.9683C103.651 62.9267 103.72 62.8652 103.771 62.7897C103.822 62.7141 103.853 62.6269 103.861 62.5363C103.889 62.2827 103.857 62.026 103.767 61.7872C103.678 61.5483 103.532 61.3342 103.344 61.1624C103.28 61.0949 103.198 61.0466 103.108 61.0229C103.018 60.9991 102.923 61.0008 102.834 61.0278L102.409 61.1907L103.131 63.1311Z" fill="#AEAEAE"/>
<path d="M102.912 61.3182C102.551 61.0207 102.204 61.1482 102.119 61.6085C102.089 61.8616 102.119 62.1181 102.208 62.357C102.297 62.5958 102.441 62.8102 102.628 62.9824C102.99 63.2799 103.337 63.1524 103.422 62.685C103.451 62.4331 103.42 62.1778 103.331 61.9401C103.243 61.7025 103.099 61.4893 102.912 61.3182Z" fill="#7E7A7A"/>
<path d="M96.3894 63.6198L96.8213 63.4569C96.9046 63.4182 96.9756 63.3575 97.0268 63.2814C97.078 63.2052 97.1073 63.1165 97.1117 63.0249C97.1411 62.7719 97.1102 62.5155 97.0216 62.2768C96.933 62.038 96.7891 61.8236 96.6018 61.651C96.536 61.5861 96.454 61.5401 96.3643 61.5176C96.2746 61.4952 96.1805 61.4972 96.0919 61.5235L95.6599 61.6793L96.3894 63.6198Z" fill="#AEAEAE"/>
<path d="M96.1626 61.8137C95.8014 61.5163 95.4544 61.6509 95.3694 62.1112C95.3415 62.3647 95.3737 62.6213 95.4636 62.86C95.5534 63.0987 95.6983 63.3129 95.8864 63.4851C96.2476 63.7825 96.5946 63.648 96.6796 63.1876C96.7075 62.9341 96.6753 62.6776 96.5854 62.4389C96.4956 62.2001 96.3507 61.986 96.1626 61.8137Z" fill="#7E7A7A"/>
<path d="M99.2717 66.2826L99.7037 66.1197C99.7865 66.0804 99.8571 66.0196 99.9082 65.9436C99.9593 65.8675 99.989 65.7792 99.9941 65.6877C100.023 65.4347 99.9926 65.1784 99.904 64.9396C99.8154 64.7008 99.6715 64.4864 99.4842 64.3138C99.4187 64.2483 99.337 64.2014 99.2474 64.1778C99.1578 64.1541 99.0636 64.1546 98.9743 64.1793L98.5423 64.3422L99.2717 66.2826Z" fill="#AEAEAE"/>
<path d="M99.0451 64.4765C98.6839 64.179 98.3368 64.3136 98.2519 64.7739C98.2239 65.0274 98.2562 65.284 98.346 65.5227C98.4358 65.7614 98.5807 65.9756 98.7688 66.1478C99.13 66.4452 99.477 66.3107 99.562 65.8504C99.59 65.5968 99.5577 65.3403 99.4679 65.1016C99.378 64.8629 99.2332 64.6487 99.0451 64.4765Z" fill="#7E7A7A"/>
<path d="M102.154 68.9949L102.593 68.832C102.674 68.7904 102.743 68.729 102.794 68.6534C102.845 68.5779 102.876 68.4907 102.883 68.4C102.911 68.1465 102.879 67.89 102.789 67.6512C102.699 67.4125 102.555 67.1983 102.366 67.0261C102.302 66.9587 102.221 66.9104 102.131 66.8866C102.041 66.8629 101.946 66.8646 101.857 66.8916L101.425 67.0544L102.154 68.9949Z" fill="#AEAEAE"/>
<path d="M101.913 67.1889C101.552 66.8915 101.205 67.019 101.12 67.4864C101.091 67.7383 101.122 67.9936 101.21 68.2313C101.299 68.4689 101.443 68.6821 101.63 68.8532C101.991 69.1506 102.338 69.0232 102.423 68.5628C102.453 68.3098 102.422 68.0533 102.334 67.8144C102.245 67.5755 102.101 67.3611 101.913 67.1889Z" fill="#7E7A7A"/>
<path d="M170.976 96.5721C167.712 98.5692 161.182 98.0806 157.931 98.6117C154.681 99.1429 154.143 99.0083 155.035 100.545C156.026 102.252 159.574 101.204 160.474 102.096C157.987 104.08 155.225 105.691 152.273 106.876C147.521 108.746 149.362 110.998 153.109 113.052C156.855 115.106 160.474 113.987 165.452 111.324C170.148 108.817 174.383 105.12 177.732 103.47C181.082 101.82 170.976 96.5721 170.976 96.5721Z" fill="#FFBDA7"/>
<path d="M184.602 46.9276C192.392 48.946 193.993 50.2703 195.706 55.0506C197.123 59.0094 200.982 77.0612 201.797 83.3783C202.505 88.7677 202.108 90.2195 198.837 92.6769C194.389 96.0054 174.829 104.83 174.829 104.83C174.829 104.83 171.083 104.922 169.631 102.089C168.214 99.4048 168.611 98.392 168.611 98.392L188.731 83.2084C188.731 83.2084 185.678 70.9212 185.409 70.1705C184.85 68.5488 178.398 54.4274 184.602 46.9276Z" fill="#FFBDA7"/>
<path d="M112.635 82.5497C110.058 80.9421 108.549 79.2425 108.124 76.0556C107.65 72.5146 108.018 70.0643 109.42 69.5048C110.822 68.9453 112.508 69.9156 114.059 71.0983C115.829 72.458 116.183 74.2993 116.389 76.4805C116.485 77.7687 116.907 79.0114 117.614 80.0923L122.154 83.8882C122.154 83.8882 117.727 85.7295 112.635 82.5497Z" fill="#FFBDA7"/>
<path d="M181.105 12.8906C181.771 12.8016 182.448 12.8657 183.085 13.0782C183.723 13.2906 184.303 13.6458 184.783 14.1166C186.352 15.7225 186.008 18.6893 184.783 25.5054L179.94 26.0694L181.105 12.8906Z" fill="#5F4D33"/>
<path d="M152.859 10.9171C151.819 10.9222 150.788 10.7136 149.831 10.3041C148.348 9.44599 147.956 11.1378 148.765 12.5966C149.307 13.6469 150.109 14.5415 151.094 15.1958C152.078 15.8501 153.213 16.2424 154.392 16.3357C154.392 16.1273 155.777 12.5476 155.777 12.5476L152.859 10.9171Z" fill="#5F4D33"/>
<path d="M178.837 26.1431C179.56 26.5722 180.578 25.1869 181.473 24.2552C181.821 23.8561 182.266 23.5525 182.765 23.3733C183.263 23.1941 183.8 23.1452 184.323 23.2311C184.846 23.317 185.338 23.535 185.753 23.8644C186.168 24.1938 186.493 24.6236 186.695 25.1133C188.166 28.2149 184.819 32.3341 182.858 33.6948C182.31 34.1696 181.627 34.4595 180.905 34.5233C180.183 34.5871 179.459 34.4216 178.837 34.0504L178.322 45.9051C177.454 47.8066 176.129 49.4636 174.465 50.7279C172.801 51.9922 170.849 52.8245 168.784 53.1503C161.821 54.0943 163.255 48.3447 165.536 45.5373V41.222C163.796 41.5969 162.008 41.6879 160.24 41.4917C159.332 41.2466 157.162 38.6353 155.765 35.6931C154.196 32.4076 151.585 26.5599 153.914 16.679C156.366 6.06243 167.816 5.74368 174.62 10.0222C181.424 14.3007 178.837 26.1431 178.837 26.1431Z" fill="#FFBDA7"/>
<path d="M178.837 27.3689C179.192 27.3689 180.578 25.0887 181.472 24.2673C182.698 23.1395 181.105 12.9275 181.105 12.9275C181.105 12.9275 182.331 9.04132 179.879 6.47913C177.427 3.91694 172.67 4.33376 169.201 4.21116C164.937 4.25034 160.711 3.41591 156.782 1.75931C151.879 -0.386065 151.474 -0.69255 150.861 1.52638C150.248 3.74531 150.015 8.66128 152.957 11.9835L154.563 14.5948C154.563 14.5948 156.059 15.8207 160.693 16.4214C165.327 17.0221 173.136 14.509 174.178 14.3741C175.502 14.1902 175.796 15.4897 176.507 19.0204C177.096 22.0484 177.623 27.3689 178.837 27.3689Z" fill="#5F4D33"/>
<path d="M181.105 13.6754L185.445 11.3461C185.153 10.7665 184.643 10.3262 184.027 10.1217C183.412 9.91714 182.74 9.96511 182.159 10.255C181.576 10.5793 181.141 11.1161 180.945 11.7534C180.749 12.3907 180.806 13.0793 181.105 13.6754Z" fill="#5F4D33"/>
<path d="M165.548 41.1974C165.548 41.1974 171.996 39.8979 174.252 38.7455C175.578 38.0548 176.667 36.9831 177.378 35.6685C177.04 37.0019 176.436 38.2531 175.601 39.3462C173.958 41.4548 165.548 43.024 165.548 43.024V41.1974Z" fill="#F28F8F"/>
<path d="M165.339 25.8856C165.349 26.1403 165.433 26.3866 165.582 26.5937C165.73 26.8009 165.936 26.9598 166.174 27.0507C166.413 27.1416 166.672 27.1604 166.921 27.1048C167.17 27.0493 167.397 26.9218 167.574 26.7383C167.75 26.5547 167.869 26.3233 167.916 26.0726C167.962 25.822 167.934 25.5632 167.834 25.3286C167.734 25.094 167.568 24.8939 167.355 24.7532C167.143 24.6124 166.894 24.5373 166.639 24.5371C166.465 24.5403 166.293 24.5777 166.134 24.6472C165.974 24.7167 165.83 24.8169 165.71 24.9422C165.589 25.0674 165.494 25.2152 165.431 25.3771C165.367 25.5389 165.336 25.7117 165.339 25.8856Z" fill="#5F4D33"/>
<path d="M166.651 21.0064L169.422 22.5266C169.62 22.1481 169.663 21.7073 169.542 21.2976C169.421 20.8879 169.145 20.5416 168.772 20.3322C168.59 20.2314 168.389 20.1689 168.182 20.1484C167.974 20.1279 167.765 20.1499 167.567 20.213C167.368 20.2761 167.185 20.379 167.027 20.5154C166.87 20.6519 166.742 20.8189 166.651 21.0064Z" fill="#5F4D33"/>
<path d="M166.136 34.5284L163.182 35.6318C163.247 35.8302 163.35 36.0135 163.487 36.1709C163.624 36.3283 163.792 36.4566 163.979 36.5481C164.167 36.6395 164.371 36.6924 164.579 36.7035C164.788 36.7145 164.996 36.6836 165.192 36.6125C165.588 36.4535 165.907 36.1481 166.082 35.7599C166.258 35.3716 166.277 34.9305 166.136 34.5284Z" fill="#F28F8F"/>
<path d="M153.816 22.073L156.341 20.136C156.223 19.9647 156.071 19.8193 155.895 19.709C155.718 19.5987 155.521 19.5258 155.316 19.4948C155.11 19.4638 154.9 19.4753 154.699 19.5286C154.498 19.582 154.31 19.6761 154.147 19.805C153.809 20.0673 153.587 20.4497 153.525 20.8724C153.463 21.2951 153.567 21.7253 153.816 22.073Z" fill="#5F4D33"/>
<path d="M154.6 25.5178C154.61 25.773 154.695 26.0197 154.844 26.2271C154.993 26.4345 155.2 26.5934 155.438 26.6839C155.677 26.7743 155.937 26.7925 156.187 26.7359C156.436 26.6794 156.663 26.5507 156.839 26.3659C157.015 26.1812 157.133 25.9486 157.178 25.6971C157.223 25.4457 157.193 25.1866 157.091 24.9523C156.99 24.7179 156.822 24.5186 156.607 24.3794C156.393 24.2401 156.143 24.167 155.888 24.1692C155.714 24.1724 155.543 24.2099 155.385 24.2796C155.226 24.3492 155.082 24.4496 154.963 24.575C154.843 24.7004 154.749 24.8483 154.687 25.0101C154.625 25.1719 154.595 25.3445 154.6 25.5178Z" fill="#5F4D33"/>
<path d="M160.681 25.3584L161.907 33.045L157.64 32.5423L160.681 25.3584Z" fill="#F28F8F"/>
<path d="M165.5 40.5L162.5 41C162.005 39.6747 160.495 36.8253 160.099 36.0301C159.703 35.2349 160.594 34.7048 161.089 34.5391L165.544 33.0481C166.039 32.8825 167.327 32.4518 168.515 32.0542C169.703 31.6566 170 33.5451 170 34.5391V39.5L166 40.503M165.5 40.5L165.544 37.0241L166 40.503M165.5 40.5L166 40.503" stroke="#5F4D33"/>
</svg>
