<svg width="40" height="40" viewBox="0 0 40 40" fill="none" xmlns="http://www.w3.org/2000/svg">
<g clip-path="url(#clip0_485_33)">
<path d="M15.1668 8.24677C14.9454 8.24177 14.7239 8.24956 14.5035 8.27011C10.5335 8.58344 8.95513 10.6251 8.00347 11.5001C7.05013 12.3751 5.24347 14.4384 4.04347 14.0751C2.8418 13.7134 2.50347 12.2301 2.9268 11.7734C3.35013 11.3168 3.68347 11.3984 3.94847 11.7734C4.11013 12.0734 4.19013 12.4118 4.1818 12.7518C4.53026 12.4634 4.78449 12.0774 4.9118 11.6434C5.03521 11.3205 5.027 10.962 4.88894 10.6451C4.75088 10.3281 4.49398 10.078 4.17347 9.94844C2.0068 8.85011 0.608467 10.8051 0.4068 11.2601C0.203467 11.7151 -0.1532 12.4384 0.0734668 14.0851C0.298467 15.7334 1.09347 17.2551 3.58013 17.8534C5.95895 18.407 8.45625 18.1153 10.6435 17.0284L17.9935 13.9618C18.2992 13.8895 18.6085 13.8334 18.9201 13.7934V30.2334C18.9201 31.0768 19.4468 31.7551 20.1001 31.7551C20.7518 31.7551 21.2785 31.0768 21.2785 30.2334V13.8168C21.5232 13.8556 21.7661 13.9046 22.0068 13.9634L29.3568 17.0301C31.5442 18.1164 34.0415 18.4075 36.4201 17.8534C38.9068 17.2534 39.7018 15.7334 39.9285 14.0868C40.1535 12.4384 39.7951 11.7151 39.5951 11.2601C39.3918 10.8051 37.9918 8.85011 35.8268 9.94844C35.5063 10.078 35.2494 10.3281 35.1113 10.6451C34.9733 10.962 34.9651 11.3205 35.0885 11.6434C35.2151 12.0768 35.4701 12.4634 35.8168 12.7518C35.8097 12.4109 35.8907 12.0739 36.0518 11.7734C36.3168 11.3984 36.6501 11.3168 37.0735 11.7734C37.4968 12.2301 37.1585 13.7134 35.9568 14.0768C34.7568 14.4384 32.9501 12.3768 31.9968 11.5001C31.0451 10.6251 29.4668 8.58344 25.4968 8.27011C24.4074 8.16822 23.3115 8.37927 22.3379 8.87849C21.3642 9.37771 20.5532 10.1444 20.0001 11.0884C19.504 10.2417 18.7993 9.53598 17.9533 9.03857C17.1073 8.54116 16.148 8.26858 15.1668 8.24677V8.24677ZM35.8168 12.7518V12.7584L35.8268 12.7618C35.8235 12.7584 35.8201 12.7551 35.8168 12.7551V12.7518ZM4.18347 12.7518C4.18013 12.7551 4.1768 12.7584 4.17347 12.7584L4.18347 12.7568V12.7501V12.7518Z" fill="white"/>
</g>
<defs>
<clipPath id="clip0_485_33">
<rect width="40" height="40" fill="white"/>
</clipPath>
</defs>
</svg>
