<svg width="50" height="50" viewBox="0 0 50 50" fill="none" xmlns="http://www.w3.org/2000/svg">
<g clip-path="url(#clip0_59_55)">
<path d="M18.9583 10.3082C18.6816 10.302 18.4048 10.3117 18.1292 10.3374C13.1667 10.7291 11.1938 13.2811 10.0042 14.3749C8.81251 15.4686 6.55417 18.0478 5.05417 17.5936C3.55209 17.1416 3.12917 15.2874 3.65834 14.7166C4.18751 14.1457 4.60417 14.2478 4.93542 14.7166C5.13751 15.0916 5.23751 15.5145 5.22709 15.9395C5.66267 15.579 5.98046 15.0966 6.13959 14.5541C6.29385 14.1504 6.28359 13.7023 6.11102 13.3061C5.93844 12.9099 5.61732 12.5973 5.21667 12.4353C2.50834 11.0624 0.760423 13.5061 0.50834 14.0749C0.254173 14.6436 -0.19166 15.5478 0.0916729 17.6061C0.372923 19.6666 1.36667 21.5686 4.47501 22.3166C7.44852 23.0085 10.5702 22.6439 13.3042 21.2853L22.4917 17.452C22.8739 17.3617 23.2605 17.2915 23.65 17.2416V37.7916C23.65 38.8457 24.3083 39.6936 25.125 39.6936C25.9396 39.6936 26.5979 38.8457 26.5979 37.7916V17.2707C26.9038 17.3193 27.2075 17.3805 27.5083 17.4541L36.6958 21.2874C39.4301 22.6452 42.5517 23.0091 45.525 22.3166C48.6333 21.5666 49.6271 19.6666 49.9104 17.6082C50.1917 15.5478 49.7438 14.6436 49.4938 14.0749C49.2396 13.5061 47.4896 11.0624 44.7833 12.4353C44.3827 12.5973 44.0616 12.9099 43.889 13.3061C43.7164 13.7023 43.7062 14.1504 43.8604 14.5541C44.0188 15.0957 44.3375 15.5791 44.7708 15.9395C44.762 15.5134 44.8632 15.0922 45.0646 14.7166C45.3958 14.2478 45.8125 14.1457 46.3417 14.7166C46.8708 15.2874 46.4479 17.1416 44.9458 17.5957C43.4458 18.0478 41.1875 15.4707 39.9958 14.3749C38.8063 13.2811 36.8333 10.7291 31.8708 10.3374C30.5091 10.21 29.1392 10.4738 27.9222 11.0979C26.7051 11.7219 25.6914 12.6802 25 13.8603C24.3798 12.8018 23.499 11.9197 22.4415 11.298C21.3839 10.6762 20.1848 10.3355 18.9583 10.3082ZM44.7708 15.9395V15.9478L44.7833 15.952C44.7792 15.9478 44.775 15.9436 44.7708 15.9436V15.9395ZM5.22917 15.9395C5.22501 15.9436 5.22084 15.9478 5.21667 15.9478L5.22917 15.9457V15.9374V15.9395Z" fill="black"/>
</g>
<defs>
<clipPath id="clip0_59_55">
<rect width="50" height="50" fill="white"/>
</clipPath>
</defs>
</svg>
