<svg width="40" height="40" viewBox="0 0 40 40" fill="none" xmlns="http://www.w3.org/2000/svg">
<path d="M31.95 3.33327H8.05C7.65124 3.32435 7.25474 3.39548 6.88395 3.54245C6.51316 3.68943 6.17561 3.90926 5.89125 4.18896C5.60689 4.46865 5.38151 4.80253 5.22843 5.17084C5.07534 5.53915 4.99767 5.93441 5 6.33327V33.6666C4.99767 34.0655 5.07534 34.4607 5.22843 34.829C5.38151 35.1973 5.60689 35.5312 5.89125 35.8109C6.17561 36.0906 6.51316 36.3104 6.88395 36.4574C7.25474 36.6044 7.65124 36.6755 8.05 36.6666H31.95C32.3482 36.6732 32.7436 36.6005 33.1134 36.4528C33.4832 36.305 33.8198 36.085 34.1037 35.8058C34.3876 35.5266 34.6131 35.1936 34.7669 34.8263C34.9208 34.459 35.0001 34.0648 35 33.6666V6.33327C35.0001 5.93506 34.9208 5.54082 34.7669 5.17355C34.6131 4.80627 34.3876 4.47331 34.1037 4.19407C33.8198 3.91483 33.4832 3.6949 33.1134 3.54711C32.7436 3.39932 32.3482 3.32663 31.95 3.33327V3.33327ZM33.3333 33.6666C33.3333 33.8431 33.2983 34.0179 33.2303 34.1807C33.1622 34.3436 33.0625 34.4913 32.9369 34.6154C32.8114 34.7394 32.6624 34.8372 32.4987 34.9033C32.335 34.9693 32.1598 35.0021 31.9833 34.9999H8.05C7.87428 35.0022 7.69989 34.9692 7.53712 34.903C7.37434 34.8368 7.22646 34.7387 7.1022 34.6144C6.97794 34.4901 6.87981 34.3423 6.8136 34.1795C6.74738 34.0167 6.71443 33.8423 6.71666 33.6666V6.33327C6.71443 6.15755 6.74738 5.98316 6.8136 5.82038C6.87981 5.65761 6.97794 5.50973 7.1022 5.38547C7.22646 5.26121 7.37434 5.16308 7.53712 5.09687C7.69989 5.03065 7.87428 4.99769 8.05 4.99993H31.95C32.1265 4.99773 32.3017 5.03058 32.4654 5.0966C32.6291 5.16262 32.778 5.26048 32.9036 5.38451C33.0292 5.50855 33.1289 5.65628 33.1969 5.81914C33.265 5.98201 33.3 6.15676 33.3 6.33327L33.3333 33.6666Z" fill="white"/>
<path d="M12.55 31.6666L16.3 28.3333L12.55 24.9999V31.6666V31.6666ZM22.0333 16.6666C19.9011 16.7197 17.7911 17.1136 15.7833 17.8333V8.33325H12.45V22.7499L14.8 21.6666C17.0636 20.6853 19.4858 20.1207 21.95 19.9999C23.6167 19.9999 24.0333 20.9166 24.0333 21.7499V31.7499H27.3667V21.6666C27.411 21.0215 27.3148 20.3744 27.0846 19.7701C26.8544 19.1658 26.4957 18.6187 26.0333 18.1666C25.502 17.6601 24.8738 17.2661 24.1864 17.0083C23.4991 16.7506 22.7667 16.6343 22.0333 16.6666V16.6666ZM21.6667 13.7499H25C26.3569 12.241 27.2128 10.3486 27.45 8.33325H24.1167C23.7693 10.3164 22.9266 12.1796 21.6667 13.7499V13.7499Z" fill="white"/>
</svg>
