<svg width="40" height="40" viewBox="0 0 40 40" fill="none" xmlns="http://www.w3.org/2000/svg">
<path d="M21.8333 5.83325L23 7.66659L24.1667 5.83325V8.33325H25.8333V3.33325H24.1667L23 5.16659L22 3.33325H20.1667V8.33325H21.8333V5.83325ZM30.6667 8.33325V6.66659H28.3333V3.33325H26.6667V8.33325H30.6667ZM16.3333 8.33325H18V4.99992H19.5V3.33325H14.8333V4.99992H16.3333V8.33325ZM11 6.66659H12.5V8.33325H14.1667V3.33325H12.5V4.99992H11V3.33325H9.33334V8.33325H11V6.66659ZM8.33334 9.99992L10.3333 33.9999L20 36.6666L29.6667 33.9999L31.6667 9.99992H8.33334ZM27.1667 17.6666H15.8333L16.1667 20.6666H26.8333L26 29.8333L20 31.4999L14 29.8333L13.5 24.9999H16.5L16.6667 27.4999L20 28.3333L23.3333 27.4999L23.6667 23.6666H13.3333L12.5 14.8333H27.5L27.1667 17.6666V17.6666Z" fill="black"/>
</svg>
