<svg width="28" height="35" viewBox="0 0 28 35" fill="none" xmlns="http://www.w3.org/2000/svg">
<path d="M16.2 2.625L17.6 4.55L19 2.625V5.25H21V0H19L17.6 1.925L16.4 0H14.2V5.25H16.2V2.625ZM26.8 5.25V3.5H24V0H22V5.25H26.8ZM9.6 5.25H11.6V1.75H13.4V0H7.8V1.75H9.6V5.25ZM3.2 3.5H5V5.25H7V0H5V1.75H3.2V0H1.2V5.25H3.2V3.5ZM0 7L2.4 32.2L14 35L25.6 32.2L28 7H0ZM22.6 15.05H9L9.4 18.2H22.2L21.2 27.825L14 29.575L6.8 27.825L6.2 22.75H9.8L10 25.375L14 26.25L18 25.375L18.4 21.35H6L5 12.075H23L22.6 15.05Z" fill="black"/>
</svg>
