<svg width="25" height="25" viewBox="0 0 25 25" fill="none" xmlns="http://www.w3.org/2000/svg">
<path fill-rule="evenodd" clip-rule="evenodd" d="M23.4375 3.125C23.4375 2.7106 23.2729 2.31317 22.9799 2.02015C22.6868 1.72712 22.2894 1.5625 21.875 1.5625H3.125C2.7106 1.5625 2.31317 1.72712 2.02015 2.02015C1.72712 2.31317 1.5625 2.7106 1.5625 3.125V21.875C1.5625 22.2894 1.72712 22.6868 2.02015 22.9799C2.31317 23.2729 2.7106 23.4375 3.125 23.4375H21.875C22.2894 23.4375 22.6868 23.2729 22.9799 22.9799C23.2729 22.6868 23.4375 22.2894 23.4375 21.875V3.125ZM0 3.125C0 2.2962 0.32924 1.50134 0.915291 0.915291C1.50134 0.32924 2.2962 0 3.125 0L21.875 0C22.7038 0 23.4987 0.32924 24.0847 0.915291C24.6708 1.50134 25 2.2962 25 3.125V21.875C25 22.7038 24.6708 23.4987 24.0847 24.0847C23.4987 24.6708 22.7038 25 21.875 25H3.125C2.2962 25 1.50134 24.6708 0.915291 24.0847C0.32924 23.4987 0 22.7038 0 21.875V3.125ZM9.14688 16.8797C9.00038 17.0264 8.80162 17.1089 8.5943 17.109C8.38699 17.1092 8.1881 17.027 8.04141 16.8805C7.89471 16.734 7.81221 16.5352 7.81207 16.3279C7.81192 16.1206 7.89413 15.9217 8.04062 15.775L14.4422 9.375H10.1172C9.90999 9.375 9.71127 9.29269 9.56476 9.14618C9.41825 8.99966 9.33594 8.80095 9.33594 8.59375C9.33594 8.38655 9.41825 8.18784 9.56476 8.04132C9.71127 7.89481 9.90999 7.8125 10.1172 7.8125H16.3281C16.5353 7.8125 16.734 7.89481 16.8806 8.04132C17.0271 8.18784 17.1094 8.38655 17.1094 8.59375V14.8047C17.1094 15.0119 17.0271 15.2106 16.8806 15.3571C16.734 15.5036 16.5353 15.5859 16.3281 15.5859C16.1209 15.5859 15.9222 15.5036 15.7757 15.3571C15.6292 15.2106 15.5469 15.0119 15.5469 14.8047V10.4797L9.14688 16.8797Z" fill="#E5E5E5"/>
</svg>
