<svg width="18" height="32" viewBox="0 0 18 32" fill="none" xmlns="http://www.w3.org/2000/svg">
<path d="M17.1646 0.254071L17.1646 0.254071C17.5172 0.257985 17.75 0.506672 17.75 0.754026V3.25297C17.75 3.50243 17.5116 3.75334 17.1533 3.75247L17.1533 3.75247C16.1709 3.75025 14.6604 3.79941 13.3888 4.2145C12.7516 4.4225 12.1557 4.72816 11.7169 5.18211C11.2722 5.64221 11 6.24366 11 7.01136V14V14.25H11.25H13.7812C14.1376 14.25 14.375 14.5008 14.375 14.75V17.25C14.375 17.4993 14.1376 17.75 13.7812 17.75H11.25H11V18V25C11 25.7702 11.2819 26.3734 11.7365 26.8343C12.185 27.2891 12.792 27.5964 13.4361 27.8059C14.7223 28.2242 16.2302 28.2749 17.1487 28.2652C17.5088 28.2613 17.75 28.5136 17.75 28.765V31.2429C17.75 31.4911 17.5151 31.7408 17.1609 31.7429C14.6954 31.7571 11.7408 31.6983 9.16482 29.4396L9 29.295L8.83518 29.4396C6.20833 31.7429 3.12373 31.7715 0.835434 31.7459C0.482789 31.742 0.25 31.4933 0.25 31.246V28.747C0.25 28.4976 0.488354 28.2467 0.846692 28.2475C1.82866 28.2497 3.33917 28.2035 4.6107 27.7914C5.24788 27.5848 5.84388 27.2807 6.28284 26.8277C6.72781 26.3686 7 25.7678 7 25V18V17.75H6.75H4.21875C3.86237 17.75 3.625 17.4993 3.625 17.25V14.75C3.625 14.5008 3.86237 14.25 4.21875 14.25H6.75H7V14V7.01136C7 6.24118 6.71811 5.63742 6.26371 5.17549C5.81538 4.71974 5.20854 4.4109 4.56443 4.19996C3.27819 3.77874 1.77029 3.72505 0.851292 3.7348L0.851287 3.7348C0.491196 3.73863 0.25 3.48638 0.25 3.23491V0.757089C0.25 0.50881 0.484887 0.259135 0.839078 0.257083C3.30464 0.242833 6.25922 0.30164 8.83518 2.56038L9 2.7049L9.16482 2.56038C11.7917 0.257021 14.8763 0.22844 17.1646 0.254071Z" fill="black" stroke="#25A171" stroke-width="0.5"/>
</svg>
