<svg width="41" height="44" viewBox="0 0 41 44" fill="none" xmlns="http://www.w3.org/2000/svg">
<path fill-rule="evenodd" clip-rule="evenodd" d="M10.5706 4.30849L0.718994 0.354919L1.78907 10.1477L2.25046 11.3897L6.23399 16.5634L6.57408 22.4965L9.96193 27.0534L10.1396 33.6097L10.5684 34.8635L15.9968 43.3549L21.4208 34.8635L21.8519 33.6097L22.0187 27.0534L28.7684 28.9985L30.2045 29.0322L40.719 26.9326L33.5534 19.588L32.388 18.8234L25.7466 16.5634L24.3776 12.5523L15.9968 10.0764L11.7273 5.08296L10.5706 4.30849ZM30.8327 23.1731L37.0301 25.1182L32.1909 20.1445L26.7192 18.2787L30.8327 23.1731ZM16.7051 18.6313L23.9422 16.4128L22.808 13.2799L16.7051 11.6016V18.6313ZM13.9216 9.77336L10.4147 5.66926L3.7191 2.98733L7.53585 7.69754L13.9216 9.77336ZM15.2776 18.6313V11.6016L7.83261 9.17914L8.05355 16.4128L15.2776 18.6313ZM6.57408 14.7371L6.38779 8.474L2.51689 3.69248L3.25555 10.4211L6.57408 14.7371ZM14.8379 19.8712L7.61383 17.6409L8.05355 22.0114L10.3692 25.4094L14.8379 19.8712ZM11.5714 33.8414L15.2776 39.6529V33.4968L11.4284 28.3528L11.5714 33.8414ZM15.9968 20.6397L11.5302 26.1838L15.9968 32.136L20.4656 26.1838L15.9968 20.6397ZM16.7051 39.6529L20.4201 33.8414L20.5652 28.3547L16.7051 33.4987V39.6529ZM24.3776 17.6429L17.1405 19.8732L21.6093 25.4114L29.1886 23.3712L24.3776 17.6429ZM23.7776 26.1838L29.4637 27.8417L36.7246 26.3958L30.3822 24.4091L23.7776 26.1838Z" fill="#01F897"/>
</svg>
