<svg width="40" height="43" viewBox="0 0 40 43" fill="none" xmlns="http://www.w3.org/2000/svg">
<path fill-rule="evenodd" clip-rule="evenodd" d="M9.85162 3.95357L0 0L1.07007 9.79281L1.53146 11.0347L5.515 16.2084L5.85509 22.1415L9.24293 26.6985L9.42056 33.2547L9.84945 34.5085L15.2778 43L20.7018 34.5085L21.1329 33.2547L21.2997 26.6985L28.0494 28.6436L29.4855 28.6772L40 26.5776L32.8344 19.233L31.669 18.4685L25.0276 16.2084L23.6586 12.1974L15.2778 9.7215L11.0083 4.72804L9.85162 3.95357ZM30.1137 22.8182L36.3111 24.7633L31.4719 19.7896L26.0002 17.9238L30.1137 22.8182ZM15.9861 18.2763L23.2232 16.0579L22.089 12.925L15.9861 11.2467V18.2763ZM13.2026 9.41845L9.69566 5.31434L3.00011 2.63241L6.81685 7.34262L13.2026 9.41845ZM14.5587 18.2763V11.2467L7.11362 8.82422L7.33456 16.0579L14.5587 18.2763ZM5.85509 14.3822L5.6688 8.11908L1.7979 3.33756L2.53655 10.0661L5.85509 14.3822ZM14.1189 19.5163L6.89483 17.286L7.33456 21.6565L9.65017 25.0545L14.1189 19.5163ZM10.8524 33.4865L14.5587 39.298V33.1418L10.7094 27.9978L10.8524 33.4865ZM15.2778 20.2848L10.8112 25.8289L15.2778 31.7811L19.7466 25.8289L15.2778 20.2848ZM15.9861 39.298L19.7011 33.4865L19.8462 27.9998L15.9861 33.1438V39.298ZM23.6586 17.2879L16.4215 19.5183L20.8903 25.0564L28.4696 23.0163L23.6586 17.2879ZM23.0586 25.8289L28.7447 27.4868L36.0056 26.0409L29.6632 24.0542L23.0586 25.8289Z" fill="black"/>
<path d="M9.69566 5.31434L13.2026 9.41845L6.81685 7.34262L3.00011 2.63241L9.69566 5.31434Z" fill="#25A171"/>
<path d="M5.6688 8.11908L5.85509 14.3822L2.53655 10.0661L1.7979 3.33756L5.6688 8.11908Z" fill="#25A171"/>
<path d="M14.5587 11.2467V18.2763L7.33456 16.0579L7.11362 8.82422L14.5587 11.2467Z" fill="#25A171"/>
<path d="M23.2232 16.0579L15.9861 18.2763V11.2467L22.089 12.925L23.2232 16.0579Z" fill="#25A171"/>
<path d="M6.89483 17.286L14.1189 19.5163L9.65017 25.0545L7.33456 21.6565L6.89483 17.286Z" fill="#25A171"/>
<path d="M10.8112 25.8289L15.2778 20.2848L19.7466 25.8289L15.2778 31.7811L10.8112 25.8289Z" fill="#25A171"/>
<path d="M16.4215 19.5183L23.6586 17.2879L28.4696 23.0163L20.8903 25.0564L16.4215 19.5183Z" fill="#25A171"/>
<path d="M36.3111 24.7633L30.1137 22.8182L26.0002 17.9238L31.4719 19.7896L36.3111 24.7633Z" fill="#25A171"/>
<path d="M28.7447 27.4868L23.0586 25.8289L29.6632 24.0542L36.0056 26.0409L28.7447 27.4868Z" fill="#25A171"/>
<path d="M19.7011 33.4865L15.9861 39.298V33.1438L19.8462 27.9998L19.7011 33.4865Z" fill="#25A171"/>
<path d="M14.5587 39.298L10.8524 33.4865L10.7094 27.9978L14.5587 33.1418V39.298Z" fill="#25A171"/>
</svg>
