<svg width="28" height="33" viewBox="0 0 28 33" fill="none" xmlns="http://www.w3.org/2000/svg">
<path d="M27.7401 14.19C25.8751 12.2674 23.486 10.9355 20.8701 10.36C18.9495 9.8773 16.98 9.61561 15.0001 9.58V4.28C14.9687 3.38165 14.5829 2.53226 13.9271 1.9176C13.2712 1.30293 12.3985 0.973017 11.5001 1C10.6016 0.973017 9.72896 1.30293 9.07307 1.9176C8.41717 2.53226 8.03138 3.38165 8.00006 4.28V14.28L6.40006 12.7C5.69525 12.0086 4.74735 11.6213 3.76006 11.6213C2.77277 11.6213 1.82487 12.0086 1.12006 12.7C0.766931 13.0412 0.485854 13.4497 0.293472 13.9015C0.101091 14.3532 0.00131637 14.839 5.79975e-05 15.33C-0.0182776 16.282 0.34129 17.2025 1.00006 17.89L5.66006 23.41C5.88487 24.8204 6.36977 26.1767 7.09006 27.41C7.61631 28.3584 8.29159 29.216 9.09006 29.95V31.87C9.08691 32.1438 9.18884 32.4083 9.37486 32.6093C9.56088 32.8102 9.81684 32.9321 10.0901 32.95H24.0001C24.2733 32.9321 24.5292 32.8102 24.7153 32.6093C24.9013 32.4083 25.0032 32.1438 25.0001 31.87V29.17C26.9651 26.8303 28.0291 23.8653 28.0001 20.81V14.81C27.9875 14.5795 27.8957 14.3605 27.7401 14.19ZM26.0001 20.86C26.064 23.5187 25.1373 26.1063 23.4001 28.12C23.1793 28.2998 23.0361 28.5576 23.0001 28.84V31H11.1401V29.52C11.1403 29.3562 11.1003 29.1948 11.0236 29.0501C10.9469 28.9054 10.8358 28.7817 10.7001 28.69C9.95064 28.0756 9.33181 27.3174 8.88006 26.46C8.24306 25.3813 7.8346 24.1832 7.68006 22.94C7.66933 22.7236 7.58861 22.5166 7.45006 22.35L2.53006 16.53C2.36981 16.3719 2.24258 16.1835 2.15573 15.9757C2.06889 15.768 2.02417 15.5451 2.02417 15.32C2.02417 15.0949 2.06889 14.872 2.15573 14.6643C2.24258 14.4565 2.36981 14.2681 2.53006 14.11C2.85932 13.7857 3.30292 13.6039 3.76506 13.6039C4.2272 13.6039 4.6708 13.7857 5.00006 14.11L8.00006 17.11V20.25L10.0001 19.25V4.28C10.0356 3.91392 10.2119 3.57593 10.4917 3.33718C10.7714 3.09843 11.1329 2.97755 11.5001 3C11.8672 2.97755 12.2287 3.09843 12.5085 3.33718C12.7882 3.57593 12.9645 3.91392 13.0001 4.28V16.08L15.0001 16.51V11.59C15.8393 11.6066 16.6771 11.6666 17.5101 11.77V17L19.1101 17.35V12C19.5201 12.08 19.9401 12.17 20.3701 12.28C20.8885 12.4157 21.3993 12.5792 21.9001 12.77V17.92L23.5001 18.27V13.5C24.4091 13.9588 25.2503 14.541 26.0001 15.23V20.86Z" fill="#25A171"/>
<path d="M26.0001 20.86C26.064 23.5187 25.1373 26.1063 23.4001 28.12C23.1793 28.2998 23.0361 28.5576 23.0001 28.84V31H11.1401V29.52C11.1403 29.3562 11.1003 29.1948 11.0236 29.0501C10.9469 28.9054 10.8358 28.7817 10.7001 28.69C9.95064 28.0756 9.33181 27.3174 8.88006 26.46C8.24306 25.3813 7.8346 24.1832 7.68006 22.94C7.66933 22.7236 7.58861 22.5166 7.45006 22.35L2.53006 16.53C2.36981 16.3719 2.24258 16.1835 2.15573 15.9757C2.06889 15.768 2.02417 15.5451 2.02417 15.32C2.02417 15.0949 2.06889 14.872 2.15573 14.6643C2.24258 14.4565 2.36981 14.2681 2.53006 14.11C2.85932 13.7857 3.30292 13.6039 3.76506 13.6039C4.2272 13.6039 4.6708 13.7857 5.00006 14.11L8.00006 17.11V20.25L10.0001 19.25V4.28C10.0356 3.91392 10.2119 3.57593 10.4917 3.33718C10.7714 3.09843 11.1329 2.97755 11.5001 3C11.8672 2.97755 12.2287 3.09843 12.5085 3.33718C12.7882 3.57593 12.9645 3.91392 13.0001 4.28V16.08L15.0001 16.51V11.59C15.8393 11.6066 16.6771 11.6666 17.5101 11.77V17L19.1101 17.35V12C19.5201 12.08 19.9401 12.17 20.3701 12.28C20.8885 12.4157 21.3993 12.5792 21.9001 12.77V17.92L23.5001 18.27V13.5C24.4091 13.9588 25.2503 14.541 26.0001 15.23V20.86Z" fill="black"/>
</svg>
