<svg width="40" height="40" viewBox="0 0 40 40" fill="none" xmlns="http://www.w3.org/2000/svg">
<g clip-path="url(#clip0_485_21)">
<path d="M27.3437 9.45998C27.1487 9.45998 27.0187 9.48623 26.8875 9.51873V9.53873H26.9075C26.9987 9.70748 27.1487 9.83873 27.265 9.99498C27.3562 10.1712 27.4337 10.3525 27.5187 10.5287L27.545 10.5025C27.7012 10.3912 27.78 10.2162 27.78 9.94873C27.715 9.86998 27.7012 9.78623 27.6437 9.71373C27.5787 9.60248 27.435 9.54498 27.3437 9.45998ZM9.61622 31.4512H8.07372C8.02701 28.996 7.8773 26.5439 7.62497 24.1012H7.61247L5.26247 31.4512H4.08372L1.75247 24.1012H1.73247C1.5513 26.5475 1.44292 28.9985 1.40747 31.4512H0.0012207C0.0773659 28.3689 0.30556 25.2923 0.684971 22.2325H2.59872L4.82497 29.0037H4.83747L7.08372 22.2325H8.90622C9.30997 25.5925 9.55122 28.665 9.62247 31.4512H9.61622ZM16.3087 24.6487C15.6837 28.06 14.85 30.5412 13.8287 32.0837C13.0212 33.275 12.1425 33.8737 11.185 33.8737C10.9312 33.8737 10.6187 33.795 10.2412 33.6387V32.8187C10.43 32.845 10.645 32.8637 10.8862 32.8637C11.335 32.8637 11.6937 32.7337 11.9675 32.4925C12.2925 32.1925 12.4562 31.855 12.4562 31.4837C12.4562 31.2237 12.3325 30.7025 12.0725 29.9087L10.3862 24.6487H11.9037L13.115 28.5812C13.3887 29.48 13.5062 30.0987 13.4537 30.4562C14.1237 28.685 14.5862 26.745 14.8475 24.6487H16.3087ZM36.855 31.4512H32.4675V22.2325H33.945V30.3187H36.855V31.4512ZM31.3212 31.6737L29.6287 30.84C29.7787 30.7162 29.9212 30.58 30.0525 30.4237C30.775 29.5837 31.1337 28.3275 31.1337 26.6737C31.1337 23.62 29.9362 22.0975 27.54 22.0975C26.3675 22.0975 25.45 22.4812 24.7925 23.2562C24.0762 24.1025 23.7112 25.3525 23.7112 27C23.7112 28.6212 24.03 29.8062 24.6687 30.5675C25.255 31.245 26.1337 31.59 27.3125 31.59C27.7487 31.59 28.1525 31.5375 28.5175 31.4275L30.725 32.7162L31.33 31.675L31.3212 31.6737ZM25.8337 29.6025C25.4562 29.0037 25.2737 28.04 25.2737 26.7112C25.2737 24.3875 25.9775 23.2287 27.39 23.2287C28.1262 23.2287 28.6725 23.5087 29.0175 24.0625C29.3887 24.6675 29.5775 25.6187 29.5775 26.9337C29.5775 29.2712 28.8675 30.45 27.4612 30.45C26.7187 30.45 26.1787 30.17 25.8275 29.6162L25.8337 29.6025ZM23.0725 28.9C23.0725 29.6812 22.7862 30.3262 22.2062 30.82C21.6337 31.3212 20.8712 31.575 19.9012 31.575C18.9962 31.575 18.13 31.2887 17.2775 30.715L17.675 29.9212C18.4037 30.2862 19.0612 30.4687 19.6612 30.4687C20.215 30.4687 20.6512 30.345 20.9637 30.1037C21.2762 29.8562 21.465 29.5112 21.465 29.075C21.465 28.5275 21.0812 28.0587 20.3837 27.6687C19.7387 27.3112 18.4437 26.575 18.4437 26.575C17.74 26.0612 17.395 25.5137 17.395 24.6087C17.395 23.86 17.655 23.2612 18.1762 22.805C18.7037 22.3362 19.3737 22.1087 20.2075 22.1087C21.037 22.1015 21.8501 22.3394 22.545 22.7925L22.1875 23.5862C21.6289 23.3403 21.0265 23.2097 20.4162 23.2025C19.9412 23.2025 19.5762 23.32 19.3225 23.5475C19.0687 23.775 18.9125 24.0612 18.9125 24.42C18.9125 24.9675 19.3037 25.4362 20.0187 25.8387C20.6762 26.1962 21.9975 26.9525 21.9975 26.9525C22.72 27.46 23.0787 28.0075 23.0787 28.8987L23.0725 28.9ZM38.705 19.1412C37.8125 19.1212 37.1225 19.2125 36.5437 19.46C36.3812 19.525 36.1137 19.525 36.0875 19.7337C36.1787 19.825 36.1912 19.9687 36.27 20.0912C36.4062 20.3125 36.635 20.6125 36.85 20.7687C37.085 20.9512 37.3187 21.1337 37.56 21.29C37.9962 21.5575 38.485 21.7137 38.9137 21.98C39.155 22.1362 39.4025 22.3375 39.6425 22.5012C39.7662 22.5862 39.8437 22.7362 40 22.7875V22.755C39.9212 22.6575 39.9025 22.5137 39.8237 22.3975C39.7125 22.2862 39.6025 22.1887 39.4912 22.0787C39.1652 21.6459 38.7744 21.266 38.3325 20.9525C37.975 20.7112 37.1937 20.3725 37.05 19.9625L37.03 19.9362C37.2712 19.9162 37.5575 19.825 37.7912 19.76C38.1687 19.6625 38.52 19.6812 38.9112 19.5837C39.0907 19.5371 39.2687 19.485 39.445 19.4275V19.33C39.2437 19.1287 39.0937 18.855 38.885 18.6662C38.3097 18.1629 37.6958 17.7056 37.0487 17.2987C36.6975 17.0712 36.255 16.9275 35.8837 16.7387C35.7537 16.6737 35.5262 16.6412 35.4537 16.53C35.2525 16.2825 35.135 15.9637 34.9912 15.67C34.6642 15.0345 34.3603 14.3874 34.08 13.73C33.8787 13.2937 33.7612 12.8637 33.5137 12.46C32.3675 10.565 31.1175 9.41998 29.2037 8.29373C28.7937 8.05873 28.2987 7.96123 27.7775 7.83748C27.4975 7.82498 27.2237 7.80498 26.9437 7.79248C26.7612 7.71373 26.5862 7.50623 26.43 7.40123C25.7925 6.99748 24.1512 6.13123 23.6887 7.27748C23.3887 8.00623 24.1312 8.71623 24.3925 9.08123C24.5812 9.34123 24.8225 9.62873 24.9587 9.91498C25.0375 10.11 25.0562 10.3125 25.135 10.5137C25.3112 11.0025 25.48 11.5487 25.715 12.005C25.8387 12.24 25.9687 12.4862 26.125 12.695C26.2162 12.8187 26.3725 12.8712 26.405 13.0725C26.2487 13.3 26.2362 13.6325 26.1512 13.9062C25.7475 15.1687 25.9037 16.725 26.47 17.6562C26.6525 17.9362 27.075 18.5487 27.6425 18.3137C28.1437 18.1125 28.0337 17.48 28.1762 16.92C28.2087 16.7837 28.1887 16.6987 28.255 16.6075V16.6337C28.4175 16.9462 28.5737 17.2462 28.7175 17.5587C29.0562 18.1062 29.6612 18.6725 30.1625 19.05C30.43 19.2512 30.6375 19.5975 30.97 19.72V19.6875H30.9437C30.8725 19.59 30.7812 19.5437 30.69 19.4662C30.4789 19.2571 30.283 19.0332 30.1037 18.7962C29.6412 18.1712 29.225 17.4812 28.86 16.7712C28.6841 16.4204 28.5236 16.0622 28.3787 15.6975C28.3137 15.5675 28.3137 15.365 28.2025 15.3C28.0337 15.5412 27.7862 15.7487 27.6687 16.055C27.4537 16.53 27.4337 17.1225 27.35 17.735C27.3112 17.7475 27.33 17.735 27.3112 17.7612C26.9537 17.67 26.83 17.305 26.6987 16.9925C26.36 16.1987 26.3075 14.9287 26.595 14.0175C26.6737 13.7825 27.005 13.0475 26.875 12.8262C26.8037 12.6112 26.5825 12.4875 26.465 12.3187C26.315 12.11 26.165 11.8437 26.0612 11.6087C25.7937 10.9837 25.6637 10.2937 25.3712 9.66873C25.2412 9.38248 25.0062 9.08248 24.8175 8.81623C24.6025 8.51623 24.3687 8.30248 24.205 7.94998C24.1462 7.82623 24.0687 7.62498 24.16 7.49373C24.18 7.40248 24.225 7.36998 24.3162 7.34373C24.46 7.21998 24.8762 7.37623 25.02 7.44748C25.43 7.60998 25.775 7.76623 26.12 8.00123C26.2762 8.11248 26.445 8.31998 26.6475 8.37873H26.8825C27.24 8.45748 27.6375 8.39873 27.97 8.50248C28.5625 8.69123 29.0962 8.96498 29.5775 9.26373C31.0492 10.2085 32.246 11.5243 33.0475 13.0787C33.1837 13.3325 33.2425 13.5675 33.3662 13.8337C33.5937 14.3875 33.8875 14.94 34.1212 15.4675C34.355 15.995 34.5775 16.5287 34.915 16.965C35.0837 17.2 35.7487 17.3225 36.0537 17.44C36.275 17.5437 36.62 17.635 36.815 17.7525C37.1987 17.9875 37.5762 18.2537 37.935 18.5137C38.1175 18.6375 38.6712 18.9175 38.7037 19.1387L38.705 19.1412Z" fill="black"/>
</g>
<defs>
<clipPath id="clip0_485_21">
<rect width="40" height="40" fill="white"/>
</clipPath>
</defs>
</svg>
