<svg width="187" height="34" viewBox="0 0 187 34" fill="none" xmlns="http://www.w3.org/2000/svg">
<path d="M39.89 10.4H41.69V21.434H48.512V23H39.89V10.4ZM59.0945 13.46V23H57.4565V21.56C57.1085 22.052 56.6465 22.436 56.0705 22.712C55.5065 22.976 54.8885 23.108 54.2165 23.108C52.9445 23.108 51.9425 22.76 51.2105 22.064C50.4785 21.356 50.1125 20.318 50.1125 18.95V13.46H51.8405V18.752C51.8405 19.676 52.0625 20.378 52.5065 20.858C52.9505 21.326 53.5865 21.56 54.4145 21.56C55.3265 21.56 56.0465 21.284 56.5745 20.732C57.1025 20.18 57.3665 19.4 57.3665 18.392V13.46H59.0945ZM66.5421 23.108C65.5701 23.108 64.7001 22.898 63.9321 22.478C63.1761 22.058 62.5821 21.482 62.1501 20.75C61.7181 20.006 61.5021 19.166 61.5021 18.23C61.5021 17.294 61.7181 16.46 62.1501 15.728C62.5821 14.984 63.1761 14.408 63.9321 14C64.7001 13.58 65.5701 13.37 66.5421 13.37C67.4061 13.37 68.1741 13.544 68.8461 13.892C69.5301 14.24 70.0581 14.744 70.4301 15.404L69.1161 16.25C68.8161 15.794 68.4441 15.452 68.0001 15.224C67.5561 14.996 67.0641 14.882 66.5241 14.882C65.9001 14.882 65.3361 15.02 64.8321 15.296C64.3401 15.572 63.9501 15.968 63.6621 16.484C63.3861 16.988 63.2481 17.57 63.2481 18.23C63.2481 18.902 63.3861 19.496 63.6621 20.012C63.9501 20.516 64.3401 20.906 64.8321 21.182C65.3361 21.458 65.9001 21.596 66.5241 21.596C67.0641 21.596 67.5561 21.482 68.0001 21.254C68.4441 21.026 68.8161 20.684 69.1161 20.228L70.4301 21.056C70.0581 21.716 69.5301 22.226 68.8461 22.586C68.1741 22.934 67.4061 23.108 66.5421 23.108ZM72.6673 13.46H74.3953V23H72.6673V13.46ZM73.5313 11.624C73.1953 11.624 72.9133 11.516 72.6853 11.3C72.4693 11.084 72.3613 10.82 72.3613 10.508C72.3613 10.196 72.4693 9.932 72.6853 9.716C72.9133 9.488 73.1953 9.374 73.5313 9.374C73.8673 9.374 74.1433 9.482 74.3593 9.698C74.5873 9.902 74.7013 10.16 74.7013 10.472C74.7013 10.796 74.5873 11.072 74.3593 11.3C74.1433 11.516 73.8673 11.624 73.5313 11.624ZM81.1686 13.37C82.4886 13.37 83.4966 13.694 84.1926 14.342C84.9006 14.99 85.2546 15.956 85.2546 17.24V23H83.6166V21.74C83.3286 22.184 82.9146 22.526 82.3746 22.766C81.8466 22.994 81.2166 23.108 80.4846 23.108C79.4166 23.108 78.5586 22.85 77.9106 22.334C77.2746 21.818 76.9566 21.14 76.9566 20.3C76.9566 19.46 77.2626 18.788 77.8746 18.284C78.4866 17.768 79.4586 17.51 80.7906 17.51H83.5266V17.168C83.5266 16.424 83.3106 15.854 82.8786 15.458C82.4466 15.062 81.8106 14.864 80.9706 14.864C80.4066 14.864 79.8546 14.96 79.3146 15.152C78.7746 15.332 78.3186 15.578 77.9466 15.89L77.2266 14.594C77.7186 14.198 78.3066 13.898 78.9906 13.694C79.6746 13.478 80.4006 13.37 81.1686 13.37ZM80.7726 21.776C81.4326 21.776 82.0026 21.632 82.4826 21.344C82.9626 21.044 83.3106 20.624 83.5266 20.084V18.752H80.8626C79.3986 18.752 78.6666 19.244 78.6666 20.228C78.6666 20.708 78.8526 21.086 79.2246 21.362C79.5966 21.638 80.1126 21.776 80.7726 21.776ZM93.5465 13.37C94.7585 13.37 95.7185 13.724 96.4265 14.432C97.1465 15.128 97.5065 16.154 97.5065 17.51V23H95.7785V17.708C95.7785 16.784 95.5565 16.088 95.1125 15.62C94.6685 15.152 94.0325 14.918 93.2045 14.918C92.2685 14.918 91.5305 15.194 90.9905 15.746C90.4505 16.286 90.1805 17.066 90.1805 18.086V23H88.4525V13.46H90.1085V14.9C90.4565 14.408 90.9245 14.03 91.5125 13.766C92.1125 13.502 92.7905 13.37 93.5465 13.37ZM104.843 23.108C103.895 23.108 103.043 22.898 102.287 22.478C101.531 22.058 100.937 21.482 100.505 20.75C100.085 20.006 99.8751 19.166 99.8751 18.23C99.8751 17.294 100.085 16.46 100.505 15.728C100.937 14.984 101.531 14.408 102.287 14C103.043 13.58 103.895 13.37 104.843 13.37C105.791 13.37 106.637 13.58 107.381 14C108.137 14.408 108.725 14.984 109.145 15.728C109.577 16.46 109.793 17.294 109.793 18.23C109.793 19.166 109.577 20.006 109.145 20.75C108.725 21.482 108.137 22.058 107.381 22.478C106.637 22.898 105.791 23.108 104.843 23.108ZM104.843 21.596C105.455 21.596 106.001 21.458 106.481 21.182C106.973 20.894 107.357 20.498 107.633 19.994C107.909 19.478 108.047 18.89 108.047 18.23C108.047 17.57 107.909 16.988 107.633 16.484C107.357 15.968 106.973 15.572 106.481 15.296C106.001 15.02 105.455 14.882 104.843 14.882C104.231 14.882 103.679 15.02 103.187 15.296C102.707 15.572 102.323 15.968 102.035 16.484C101.759 16.988 101.621 17.57 101.621 18.23C101.621 18.89 101.759 19.478 102.035 19.994C102.323 20.498 102.707 20.894 103.187 21.182C103.679 21.458 104.231 21.596 104.843 21.596ZM119.771 11.966H115.451V10.4H125.873V11.966H121.553V23H119.771V11.966ZM130.683 23.108C129.735 23.108 128.883 22.898 128.127 22.478C127.371 22.058 126.777 21.482 126.345 20.75C125.925 20.006 125.715 19.166 125.715 18.23C125.715 17.294 125.925 16.46 126.345 15.728C126.777 14.984 127.371 14.408 128.127 14C128.883 13.58 129.735 13.37 130.683 13.37C131.631 13.37 132.477 13.58 133.221 14C133.977 14.408 134.565 14.984 134.985 15.728C135.417 16.46 135.633 17.294 135.633 18.23C135.633 19.166 135.417 20.006 134.985 20.75C134.565 21.482 133.977 22.058 133.221 22.478C132.477 22.898 131.631 23.108 130.683 23.108ZM130.683 21.596C131.295 21.596 131.841 21.458 132.321 21.182C132.813 20.894 133.197 20.498 133.473 19.994C133.749 19.478 133.887 18.89 133.887 18.23C133.887 17.57 133.749 16.988 133.473 16.484C133.197 15.968 132.813 15.572 132.321 15.296C131.841 15.02 131.295 14.882 130.683 14.882C130.071 14.882 129.519 15.02 129.027 15.296C128.547 15.572 128.163 15.968 127.875 16.484C127.599 16.988 127.461 17.57 127.461 18.23C127.461 18.89 127.599 19.478 127.875 19.994C128.163 20.498 128.547 20.894 129.027 21.182C129.519 21.458 130.071 21.596 130.683 21.596ZM139.679 15.062C139.979 14.51 140.423 14.09 141.011 13.802C141.599 13.514 142.313 13.37 143.153 13.37V15.044C143.057 15.032 142.925 15.026 142.757 15.026C141.821 15.026 141.083 15.308 140.543 15.872C140.015 16.424 139.751 17.216 139.751 18.248V23H138.023V13.46H139.679V15.062ZM146.939 15.062C147.239 14.51 147.683 14.09 148.271 13.802C148.859 13.514 149.573 13.37 150.413 13.37V15.044C150.317 15.032 150.185 15.026 150.017 15.026C149.081 15.026 148.343 15.308 147.803 15.872C147.275 16.424 147.011 17.216 147.011 18.248V23H145.283V13.46H146.939V15.062ZM155.999 13.37C157.319 13.37 158.327 13.694 159.023 14.342C159.731 14.99 160.085 15.956 160.085 17.24V23H158.447V21.74C158.159 22.184 157.745 22.526 157.205 22.766C156.677 22.994 156.047 23.108 155.315 23.108C154.247 23.108 153.389 22.85 152.741 22.334C152.105 21.818 151.787 21.14 151.787 20.3C151.787 19.46 152.093 18.788 152.705 18.284C153.317 17.768 154.289 17.51 155.621 17.51H158.357V17.168C158.357 16.424 158.141 15.854 157.709 15.458C157.277 15.062 156.641 14.864 155.801 14.864C155.237 14.864 154.685 14.96 154.145 15.152C153.605 15.332 153.149 15.578 152.777 15.89L152.057 14.594C152.549 14.198 153.137 13.898 153.821 13.694C154.505 13.478 155.231 13.37 155.999 13.37ZM155.603 21.776C156.263 21.776 156.833 21.632 157.313 21.344C157.793 21.044 158.141 20.624 158.357 20.084V18.752H155.693C154.229 18.752 153.497 19.244 153.497 20.228C153.497 20.708 153.683 21.086 154.055 21.362C154.427 21.638 154.943 21.776 155.603 21.776ZM168.377 13.37C169.589 13.37 170.549 13.724 171.257 14.432C171.977 15.128 172.337 16.154 172.337 17.51V23H170.609V17.708C170.609 16.784 170.387 16.088 169.943 15.62C169.499 15.152 168.863 14.918 168.035 14.918C167.099 14.918 166.361 15.194 165.821 15.746C165.281 16.286 165.011 17.066 165.011 18.086V23H163.283V13.46H164.939V14.9C165.287 14.408 165.755 14.03 166.343 13.766C166.943 13.502 167.621 13.37 168.377 13.37ZM179.673 23.108C178.725 23.108 177.873 22.898 177.117 22.478C176.361 22.058 175.767 21.482 175.335 20.75C174.915 20.006 174.705 19.166 174.705 18.23C174.705 17.294 174.915 16.46 175.335 15.728C175.767 14.984 176.361 14.408 177.117 14C177.873 13.58 178.725 13.37 179.673 13.37C180.621 13.37 181.467 13.58 182.211 14C182.967 14.408 183.555 14.984 183.975 15.728C184.407 16.46 184.623 17.294 184.623 18.23C184.623 19.166 184.407 20.006 183.975 20.75C183.555 21.482 182.967 22.058 182.211 22.478C181.467 22.898 180.621 23.108 179.673 23.108ZM179.673 21.596C180.285 21.596 180.831 21.458 181.311 21.182C181.803 20.894 182.187 20.498 182.463 19.994C182.739 19.478 182.877 18.89 182.877 18.23C182.877 17.57 182.739 16.988 182.463 16.484C182.187 15.968 181.803 15.572 181.311 15.296C180.831 15.02 180.285 14.882 179.673 14.882C179.061 14.882 178.509 15.02 178.017 15.296C177.537 15.572 177.153 15.968 176.865 16.484C176.589 16.988 176.451 17.57 176.451 18.23C176.451 18.89 176.589 19.478 176.865 19.994C177.153 20.498 177.537 20.894 178.017 21.182C178.509 21.458 179.061 21.596 179.673 21.596Z" fill="url(#paint0_linear_45_18)"/>
<path d="M29.0726 17.0014L33.9985 11.7484L26.7683 10.2482L27.5057 3.24417L20.7283 6.07183L17 0L13.2687 6.07325L6.49435 3.24558L7.23018 10.2496L0 11.7427L4.92289 16.9943L0 22.2544L7.23018 23.7462L6.48541 30.7516L13.2672 27.9267L17 34L20.7298 27.9267L27.5071 30.7516L26.7698 23.7561L34 22.2544L29.0726 17.0014V17.0014ZM31.4633 20.9567L27.2018 19.5656L24.3732 16.065L28.1357 17.3995L31.4633 20.9567ZM32.147 12.3207L28.2713 16.4546L23.7044 14.8382L26.4511 11.1378L32.147 12.3207V12.3207ZM25.7599 10.4451L23.4765 13.532L23.6076 9.0525L26.2708 5.63125L25.7599 10.4451ZM20.8385 7.0465L25.4427 5.12833L22.8092 8.49717L18.4255 9.98325L20.8385 7.0465V7.0465ZM22.6066 9.55683L22.4636 14.7305L17.4871 16.3172V11.2894L22.6066 9.55683V9.55683ZM17 1.853L19.9329 6.62858L17 10.1986L14.0641 6.62717L17 1.853ZM13.1615 7.0465L15.573 9.98183L11.1819 8.49717L8.55735 5.12833L13.1615 7.0465ZM16.5055 11.2894V16.3172L11.5379 14.7305L11.386 9.55683L16.5055 11.2894V11.2894ZM10.3924 9.0525L10.5205 13.532L8.23859 10.4451L7.73066 5.63267L10.3924 9.0525ZM1.85149 12.3137L7.54745 11.1378L10.2867 14.8382L5.72128 16.4475L1.85149 12.3137ZM5.86428 17.3924L9.62683 16.065L6.79672 19.5656L2.53518 20.9497L5.86428 17.3924ZM2.74669 21.8677L7.10952 20.451L11.6451 21.7203L7.7396 22.9061L2.74669 21.8677V21.8677ZM7.63235 29.2513L8.21625 23.732L12.8502 22.3408L12.9723 27.03L7.63235 29.2513V29.2513ZM13.1302 21.165L7.91983 19.7058L11.2355 15.6088L16.2031 17.204L13.1302 21.165V21.165ZM16.5055 31.3522L13.9569 27.1957L13.8586 23.2702L16.5055 26.9493V31.3522V31.3522ZM13.9286 21.7189L17 17.7537L20.0729 21.7189L17 25.976L13.9286 21.7189ZM20.0416 27.1957L17.4871 31.3522V26.9507L20.1414 23.2716L20.0416 27.1957ZM17.7865 17.2054L22.763 15.6102L26.0712 19.7072L20.8594 21.1664L17.7865 17.2054ZM21.0262 27.03L21.1409 22.3408L25.7823 23.732L26.3572 29.2584L21.0262 27.03ZM26.2604 22.9047L22.3504 21.7189L26.892 20.4496L31.2533 21.8705L26.2604 22.9047Z" fill="#01F897"/>
<defs>
<linearGradient id="paint0_linear_45_18" x1="38" y1="6" x2="187" y2="33.5" gradientUnits="userSpaceOnUse">
<stop stop-color="#01F897"/>
<stop offset="0.5" stop-color="#80EDC2" stop-opacity="0.83"/>
<stop offset="0.864583" stop-color="#E5E5E5"/>
</linearGradient>
</defs>
</svg>
