<svg width="40" height="40" viewBox="0 0 40 40" fill="none" xmlns="http://www.w3.org/2000/svg">
<g clip-path="url(#clip0_485_37)">
<path d="M20.2648 40.0001H20.2591C19.6133 40.0001 19.0095 39.8484 18.4914 39.5817L18.5086 39.5901L12.9143 36.6951C12.08 36.2851 12.4876 36.1417 12.7619 36.0567C13.6671 35.8112 14.5326 35.465 15.3371 35.0267L15.2914 35.0501C15.3581 35.0235 15.4314 35.0122 15.5045 35.0175C15.5775 35.0227 15.6478 35.0443 15.7086 35.0801L15.7067 35.0784L20.0038 37.3101C20.0841 37.3477 20.1739 37.3673 20.265 37.367C20.3561 37.3667 20.4457 37.3466 20.5257 37.3084L20.5219 37.3101L37.2724 28.8484C37.3501 28.8069 37.4143 28.7486 37.459 28.6792C37.5037 28.6097 37.5273 28.5314 37.5276 28.4517V11.5367C37.5269 11.4565 37.5027 11.3778 37.4573 11.3081C37.412 11.2383 37.347 11.1799 37.2686 11.1384L37.2667 11.1367L20.5219 2.68341C20.4427 2.64467 20.3534 2.62447 20.2626 2.62476C20.1719 2.62506 20.0827 2.64583 20.0038 2.68507L20.0057 2.68341L3.26476 11.1384C3.18486 11.1793 3.11846 11.2377 3.07205 11.3078C3.02565 11.3779 3.00082 11.4574 3 11.5384V28.4534C3 28.6217 3.10476 28.7667 3.26095 28.8434L3.26286 28.8451L7.85334 31.1651C10.3429 32.2551 11.8667 30.9717 11.8667 29.6834V12.9801C11.8667 12.7467 12.0838 12.5567 12.3505 12.5567H14.4819C14.7486 12.5567 14.9657 12.7451 14.9657 12.9801V29.6834C14.9657 32.5917 13.1562 34.2601 10.0057 34.2601L9.88 34.2617C8.55051 34.2636 7.24688 33.9403 6.11619 33.3284L1.75429 31.1317C1.2199 30.8591 0.776541 30.4686 0.468399 29.9992C0.160257 29.5299 -0.00189907 28.998 -0.00190353 28.4567V11.5384C1.22818e-06 10.4051 0.699049 9.41674 1.73905 8.88007L1.75619 8.87174L18.5086 0.401739C19.0512 0.141408 19.6604 0.00563443 20.2793 0.00709169C20.8982 0.00854894 21.5066 0.14719 22.0476 0.410072L22.0286 0.401739L38.779 8.87174C39.8362 9.41674 40.5333 10.4051 40.5371 11.5384V28.4551C40.5365 28.9937 40.3754 29.523 40.0698 29.9906C39.7641 30.4582 39.3245 30.8481 38.7943 31.1217L38.7771 31.1301L22.0305 39.5934C21.4971 39.8641 20.8909 40.0056 20.2743 40.0034H20.261L20.2648 40.0001Z" fill="white"/>
<path d="M25.44 28.3484C18.1105 28.3484 16.5733 25.405 16.5733 22.9334V22.9317C16.5733 22.6984 16.7886 22.51 17.0552 22.51H19.2267C19.4686 22.51 19.6686 22.665 19.7067 22.8667V22.8684C20.0324 24.7984 21.0076 25.7717 25.44 25.7717C28.9695 25.7717 30.4686 25.0734 30.4686 23.435C30.4686 22.49 30.0438 21.79 24.56 21.32C19.9771 20.92 17.1429 20.0367 17.1429 16.8284C17.1429 13.8717 19.9924 12.1067 24.7619 12.1067C30.1295 12.1067 32.7848 13.7367 33.12 17.2334L33.1219 17.27C33.1219 17.3823 33.0709 17.49 32.9802 17.5694C32.8895 17.6488 32.7664 17.6934 32.6381 17.6934H30.48C30.3707 17.693 30.2648 17.6601 30.1796 17.6002C30.0945 17.5402 30.0352 17.4567 30.0114 17.3634V17.36C29.4895 15.33 28.221 14.6817 24.781 14.6817C20.9276 14.6817 20.48 15.8567 20.48 16.735C20.48 17.8017 21.0095 18.1117 26.2114 18.7134C31.3581 19.31 33.8038 20.1517 33.8038 23.3167C33.7962 26.515 30.7543 28.345 25.4457 28.345L25.44 28.3484Z" fill="white"/>
</g>
<defs>
<clipPath id="clip0_485_37">
<rect width="40" height="40" fill="white"/>
</clipPath>
</defs>
</svg>
