<svg width="50" height="50" viewBox="0 0 50 50" fill="none" xmlns="http://www.w3.org/2000/svg">
<path fill-rule="evenodd" clip-rule="evenodd" d="M46.6667 14.0432L25 1.3999L3.33333 14.0432V35.9566L6.68666 37.9132L13.5433 35.1399C14.466 34.7663 15.2562 34.1257 15.8126 33.3003C16.3691 32.4748 16.6664 31.5021 16.6667 30.5066V13.3332H20V30.5066C19.9998 32.166 19.5041 33.7876 18.5765 35.1636C17.6489 36.5396 16.3315 37.6073 14.7933 38.2299L10.3267 40.0366L25 48.5999L46.6667 35.9599V14.0432ZM23.3333 19.9999C23.3333 18.2318 24.0357 16.5361 25.2859 15.2859C26.5362 14.0356 28.2319 13.3332 30 13.3332H33.89C37.2633 13.3332 40 16.0666 40 19.4432V19.9999H36.6667V19.4432C36.6667 19.0786 36.5948 18.7175 36.4553 18.3807C36.3158 18.0438 36.1112 17.7377 35.8534 17.4798C35.5956 17.222 35.2895 17.0175 34.9526 16.8779C34.6157 16.7384 34.2546 16.6666 33.89 16.6666H30C29.1159 16.6666 28.2681 17.0178 27.643 17.6429C27.0179 18.268 26.6667 19.1158 26.6667 19.9999C26.6667 20.884 27.0179 21.7318 27.643 22.3569C28.2681 22.982 29.1159 23.3332 30 23.3332H33.3333C35.1014 23.3332 36.7971 24.0356 38.0474 25.2859C39.2976 26.5361 40 28.2318 40 29.9999C40 31.768 39.2976 33.4637 38.0474 34.7139C36.7971 35.9642 35.1014 36.6666 33.3333 36.6666H30C28.2319 36.6666 26.5362 35.9642 25.2859 34.7139C24.0357 33.4637 23.3333 31.768 23.3333 29.9999H26.6667C26.6667 30.884 27.0179 31.7318 27.643 32.3569C28.2681 32.982 29.1159 33.3332 30 33.3332H33.3333C34.2174 33.3332 35.0652 32.982 35.6904 32.3569C36.3155 31.7318 36.6667 30.884 36.6667 29.9999C36.6667 29.1158 36.3155 28.268 35.6904 27.6429C35.0652 27.0178 34.2174 26.6666 33.3333 26.6666H30C28.2319 26.6666 26.5362 25.9642 25.2859 24.7139C24.0357 23.4637 23.3333 21.768 23.3333 19.9999Z" fill="black"/>
</svg>
