<svg width="50" height="50" viewBox="0 0 50 50" fill="none" xmlns="http://www.w3.org/2000/svg">
<g clip-path="url(#clip0_58_34)">
<path d="M23.5812 34.603C23.5578 34.6499 23.5344 34.6874 23.5812 34.603V34.603ZM43.0437 27.8062C41.4719 27.8062 39.9219 28.1655 38.5125 28.8609C38.0516 27.9312 37.575 27.1187 37.4969 26.5093C37.4031 25.7983 37.3016 25.3765 37.4109 24.5327C37.5203 23.689 38.0125 22.4937 38.0047 22.4077C37.9969 22.3218 37.8953 21.8921 36.8875 21.8843C35.8797 21.8765 35.0125 22.0796 34.9109 22.3452C34.7326 22.8305 34.5941 23.3296 34.4969 23.8374C34.3172 24.7515 32.4828 28.0171 31.4437 29.7202C31.1 29.0562 30.8109 28.4702 30.7484 28.0015C30.6547 27.2905 30.5531 26.8687 30.6625 26.0249C30.7719 25.1812 31.2641 23.9858 31.2562 23.8999C31.2484 23.814 31.1469 23.3843 30.1406 23.3765C29.1344 23.3687 28.2656 23.5718 28.1641 23.8374C28.0625 24.103 27.9531 24.728 27.75 25.3296C27.5469 25.9312 25.1016 31.3687 24.4625 32.7827C24.1344 33.5015 23.8531 34.0796 23.65 34.4702C23.6187 34.5327 23.5953 34.5718 23.5797 34.603C23.6031 34.564 23.6187 34.5249 23.6187 34.5405C23.4469 34.8765 23.3453 35.064 23.3453 35.064V35.0718C23.2125 35.3218 23.0641 35.5483 22.9937 35.5483C22.9469 35.5483 22.8453 34.8921 23.0172 33.9937C23.3844 32.103 24.2516 29.1655 24.2437 29.064C24.2359 29.0093 24.4078 28.5015 23.6734 28.228C22.9625 27.9702 22.7047 28.3999 22.6422 28.3999C22.5797 28.3999 22.5328 28.5562 22.5328 28.5562C22.5328 28.5562 23.3219 25.2437 21.0172 25.2437C19.5797 25.2437 17.5797 26.8218 16.5969 28.2515C15.9797 28.5874 14.6438 29.314 13.2375 30.0874L11.6203 30.978C11.5812 30.939 11.55 30.8999 11.5109 30.8608C8.71406 27.8765 3.55156 25.7671 3.77031 21.7593C3.84844 20.2983 4.35625 16.4624 13.6984 11.8062C21.3547 7.99366 27.475 9.04054 28.5297 11.3687C30.0453 14.689 25.2562 20.8687 17.3062 21.7593C14.275 22.0952 12.6828 20.9233 12.2844 20.4858C11.8703 20.0249 11.8078 20.0015 11.6516 20.0874C11.3937 20.228 11.5578 20.6343 11.6516 20.8765C11.8859 21.4937 12.8625 22.5874 14.5266 23.1343C15.9875 23.6108 19.5406 23.8765 23.8359 22.2124C28.6625 20.353 32.4203 15.1734 31.3172 10.8374C30.1953 6.43116 22.8891 4.98585 15.9812 7.43898C11.8641 8.89991 7.4125 11.1968 4.21094 14.189C0.40625 17.7515 -0.201562 20.853 0.0484382 22.1499C0.939063 26.7515 7.28125 29.7515 9.81875 31.9702L9.46719 32.1655C8.19375 32.7984 3.35938 35.3296 2.14844 38.0015C0.781251 41.0327 2.375 43.2046 3.42031 43.5015C6.68594 44.4077 10.0281 42.7749 11.825 40.0952C13.6219 37.4155 13.4031 33.9155 12.575 32.3218C12.5672 32.2984 12.5516 32.2827 12.5437 32.2593C13.4812 31.704 14.4266 31.1623 15.3797 30.6343C15.0672 31.478 14.8406 32.4937 14.7234 33.9624C14.5828 35.6812 15.2937 37.9077 16.2156 38.7827C16.6219 39.1655 17.1125 39.1734 17.4187 39.1734C18.4969 39.1734 18.9812 38.2827 19.5203 37.2202C20.1844 35.9233 20.7703 34.4155 20.7703 34.4155C20.7703 34.4155 20.0359 38.4937 22.0437 38.4937C22.7781 38.4937 23.5125 37.5484 23.8406 37.064V37.0718C23.8406 37.0718 23.8562 37.0405 23.8953 36.978C23.9734 36.8609 24.0125 36.7905 24.0125 36.7905V36.7671C24.3094 36.2593 24.9578 35.0952 25.9344 33.1734C27.2 30.689 28.4094 27.5874 28.4094 27.5874C28.5266 28.2687 28.6891 28.9421 28.8937 29.603C29.1125 30.3452 29.5734 31.1577 29.9406 31.9468C29.6437 32.353 29.4641 32.5874 29.4641 32.5874C29.4641 32.5937 29.4672 32.5984 29.4719 32.603C29.2375 32.9155 28.9719 33.2515 28.6984 33.5796C27.7 34.7671 26.5109 36.1265 26.3547 36.5171C26.1672 36.978 26.2141 37.3218 26.5734 37.5874C26.8391 37.7905 27.3078 37.8218 27.8 37.7827C28.6984 37.7202 29.3312 37.5015 29.6359 37.3608C30.1979 37.1595 30.7291 36.8808 31.2141 36.5327C32.1906 35.814 32.7844 34.7827 32.7297 33.4234C32.6984 32.6734 32.4562 31.9234 32.1594 31.2202C32.2453 31.0952 32.3391 30.9624 32.425 30.8296C33.4417 29.3126 34.3577 27.7306 35.1672 26.0937C35.2844 26.7749 35.4453 27.4483 35.6516 28.1093C35.8391 28.7421 36.2062 29.4374 36.5422 30.1171C35.0891 31.2968 34.1906 32.664 33.8797 33.5624C33.3016 35.2265 33.7547 35.9765 34.6062 36.1484C34.9891 36.2265 35.5359 36.0468 35.9422 35.8749C36.5453 35.6733 37.1141 35.3812 37.6281 35.0077C38.6047 34.289 39.55 33.2812 39.4859 31.914C39.4625 31.2968 39.2906 30.6796 39.0641 30.0858C40.2906 29.5702 41.8844 29.289 43.9156 29.5233C48.2656 30.0312 49.1172 32.7499 48.9531 33.8827C48.7891 35.0155 47.875 35.6483 47.5703 35.8358C47.2656 36.0233 47.1719 36.0937 47.1953 36.2343C47.2344 36.4374 47.375 36.4296 47.6328 36.3827C47.9922 36.3202 49.9141 35.4609 50 33.3593C50.125 30.703 47.5703 27.7812 43.0469 27.8046L43.0437 27.8062ZM9.51406 39.1109C8.07656 40.6812 6.0625 41.2749 5.19531 40.7749C4.26562 40.2343 4.63281 37.9234 6.40469 36.2499C7.48281 35.2343 8.87344 34.2968 9.79531 33.7187C10.0063 33.5937 10.3109 33.4062 10.6859 33.1796C10.7164 33.1601 10.7477 33.1418 10.7797 33.1249C10.85 33.078 10.9281 33.039 11.0063 32.9921C11.6531 35.3671 11.0297 37.4609 9.51406 39.1093V39.1109ZM20.0109 31.9702C19.5109 33.1968 18.4578 36.3218 17.8156 36.1577C17.2688 36.0171 16.9328 33.6343 17.7062 31.2905C18.0969 30.1108 18.925 28.7046 19.4172 28.1577C20.2062 27.2749 21.0734 26.9937 21.2766 27.3452C21.55 27.8062 20.3234 31.2046 20.0109 31.9702ZM28.6828 36.1109C28.4719 36.2202 28.2766 36.2905 28.1828 36.2359C28.1125 36.1968 28.2687 36.0483 28.2687 36.0483C28.2687 36.0483 29.3547 34.8843 29.7844 34.353C30.0344 34.0405 30.3234 33.6734 30.6359 33.2671C30.6359 33.3062 30.6437 33.3452 30.6437 33.3921C30.6344 34.7905 29.2906 35.7359 28.6812 36.1109H28.6828ZM35.3703 34.5874C35.2141 34.478 35.2375 34.1109 35.7609 32.9702C35.9641 32.5249 36.4328 31.7749 37.2453 31.0562C37.3375 31.328 37.3875 31.6124 37.3937 31.8999C37.3859 33.6577 36.1281 34.314 35.3703 34.5874Z" fill="black"/>
</g>
<defs>
<clipPath id="clip0_58_34">
<rect width="50" height="50" fill="white"/>
</clipPath>
</defs>
</svg>
