<svg width="50" height="50" viewBox="0 0 50 50" fill="none" xmlns="http://www.w3.org/2000/svg">
<path d="M43.6521 0.00832026C43.526 -0.00887381 43.3977 0.00324602 43.2771 0.0437369L6.71876 11.6354C6.35418 11.75 6.04585 12.0812 5.88126 12.4646C5.79813 12.6029 5.75487 12.7615 5.75626 12.9229V24.8521C5.75487 25.0135 5.79813 25.1721 5.88126 25.3104C6.04585 25.6917 6.35418 26.0208 6.71876 26.1375L22.2479 31.0625L6.71876 35.9854C6.18751 36.1521 5.75418 36.7646 5.75418 37.35V49.2C5.75418 49.7875 6.18751 50.125 6.71876 49.9562L43.2813 38.3625C43.775 38.2062 44.1688 37.6625 44.2229 37.1125C44.2292 37.0667 44.25 37.0292 44.25 36.9771V25.125C44.25 24.5396 43.8167 23.9271 43.2854 23.7583L27.9167 18.8854L43.2813 14.0125C43.8125 13.8458 44.2438 13.2312 44.2438 12.6458V0.799987C44.2438 0.360404 44 0.0604036 43.6542 0.00832026H43.6521Z" fill="black"/>
</svg>
