<svg width="355" height="318" viewBox="0 0 355 318" fill="none" xmlns="http://www.w3.org/2000/svg">
<path d="M177.5 317.529C275.531 317.529 355 271.648 355 215.05C355 158.453 275.531 112.572 177.5 112.572C79.4695 112.572 0 158.453 0 215.05C0 271.648 79.4695 317.529 177.5 317.529Z" fill="#242424"/>
<path d="M333.661 211.14L226.127 273.249C225.604 273.516 225.025 273.655 224.437 273.655C223.85 273.655 223.271 273.516 222.748 273.249L194.436 256.909C193.944 256.587 193.535 256.155 193.241 255.646C192.947 255.137 192.776 254.566 192.743 253.979V215.896C192.775 215.309 192.945 214.738 193.239 214.229C193.534 213.72 193.944 213.287 194.436 212.966L301.97 150.885C302.494 150.619 303.073 150.48 303.66 150.48C304.247 150.48 304.826 150.619 305.349 150.885L333.661 167.226C334.153 167.547 334.562 167.98 334.855 168.489C335.148 168.998 335.316 169.569 335.347 170.155V208.239C335.312 208.82 335.141 209.386 334.848 209.89C334.556 210.393 334.149 210.822 333.661 211.14Z" fill="#263238"/>
<path d="M300.797 190.844C301.07 190.614 301.254 190.296 301.317 189.945L333.007 208.21C332.944 208.562 332.76 208.88 332.488 209.11L226.773 270.151L195.083 251.886L300.797 190.844Z" fill="#37474F"/>
<path opacity="0.2" d="M288.299 212.875L303.565 221.678C303.99 221.896 304.461 222.01 304.938 222.01C305.416 222.01 305.887 221.896 306.312 221.678L325.139 210.69C325.306 210.635 325.452 210.529 325.555 210.386C325.658 210.244 325.713 210.072 325.713 209.896C325.713 209.721 325.658 209.549 325.555 209.407C325.452 209.264 325.306 209.158 325.139 209.103L309.874 200.3C309.448 200.085 308.977 199.973 308.5 199.973C308.023 199.973 307.553 200.085 307.127 200.3L288.299 211.294C288.135 211.351 287.992 211.458 287.891 211.599C287.79 211.741 287.736 211.911 287.736 212.085C287.736 212.259 287.79 212.428 287.891 212.57C287.992 212.712 288.135 212.818 288.299 212.875Z" fill="black"/>
<path d="M290.224 211.182V212.482L304.366 220.645C304.522 220.735 304.694 220.794 304.872 220.821C305.185 220.866 305.504 220.804 305.778 220.645L323.636 210.346V209.032L306.291 219.078C305.917 219.278 305.499 219.377 305.075 219.366C304.648 219.377 304.224 219.278 303.846 219.078L290.224 211.182Z" fill="#25A171"/>
<path opacity="0.6" d="M290.224 211.182V212.482L304.366 220.645C304.522 220.735 304.694 220.794 304.872 220.821C305.185 220.866 305.504 220.804 305.778 220.645L323.636 210.346V209.032L306.291 219.078C305.917 219.278 305.499 219.377 305.075 219.366C304.648 219.377 304.224 219.278 303.846 219.078L290.224 211.182Z" fill="white"/>
<path opacity="0.2" d="M290.224 211.182V212.482L304.366 220.645C304.522 220.734 304.694 220.794 304.872 220.821H305.075V219.324C304.648 219.335 304.224 219.236 303.846 219.036L290.224 211.182Z" fill="#25A171"/>
<path d="M303.846 219.043L290.224 211.175C289.869 210.945 289.573 210.634 289.361 210.268C289.149 209.901 289.026 209.49 289.002 209.068V206.546C289.028 206.123 289.152 205.713 289.364 205.347C289.576 204.981 289.871 204.67 290.224 204.438L307.569 194.441C307.949 194.251 308.367 194.152 308.792 194.152C309.216 194.152 309.635 194.251 310.014 194.441L323.636 202.302C323.99 202.534 324.284 202.846 324.496 203.212C324.709 203.577 324.833 203.988 324.858 204.41V206.925C324.835 207.343 324.712 207.749 324.499 208.11C324.286 208.47 323.99 208.775 323.636 208.997L306.298 219.043C305.917 219.234 305.498 219.333 305.072 219.333C304.646 219.333 304.227 219.234 303.846 219.043Z" fill="#455A64"/>
<path d="M305.068 201.368L290.224 204.417C289.871 204.649 289.576 204.96 289.364 205.326C289.152 205.692 289.028 206.102 289.002 206.524V209.032C289.026 209.455 289.149 209.866 289.361 210.232C289.573 210.599 289.869 210.91 290.224 211.14L303.846 219.008C304.223 219.204 304.643 219.303 305.068 219.296V201.368Z" fill="#263238"/>
<path d="M290.224 205.836L303.846 213.697C304.225 213.887 304.644 213.987 305.068 213.987C305.493 213.987 305.911 213.887 306.291 213.697L323.636 203.7C323.778 203.646 323.901 203.55 323.987 203.424C324.074 203.299 324.12 203.15 324.12 202.998C324.12 202.845 324.074 202.697 323.987 202.571C323.901 202.446 323.778 202.349 323.636 202.295L310.014 194.42C309.635 194.23 309.216 194.131 308.792 194.131C308.367 194.131 307.949 194.23 307.569 194.42L290.224 204.417C290.077 204.468 289.95 204.564 289.859 204.691C289.769 204.819 289.721 204.971 289.721 205.126C289.721 205.282 289.769 205.434 289.859 205.561C289.95 205.689 290.077 205.784 290.224 205.836Z" fill="#37474F"/>
<path d="M305.616 203.609C305.457 203.661 305.318 203.762 305.219 203.897C305.12 204.033 305.067 204.196 305.067 204.364C305.067 204.532 305.12 204.695 305.219 204.831C305.318 204.967 305.457 205.068 305.616 205.119C306.024 205.324 306.474 205.43 306.93 205.43C307.386 205.43 307.836 205.324 308.244 205.119C308.403 205.068 308.543 204.967 308.641 204.831C308.74 204.695 308.793 204.532 308.793 204.364C308.793 204.196 308.74 204.033 308.641 203.897C308.543 203.762 308.403 203.661 308.244 203.609C307.837 203.401 307.387 203.293 306.93 203.293C306.473 203.293 306.023 203.401 305.616 203.609Z" fill="#FAFAFA"/>
<path d="M321.416 206.321C321.276 206.41 321.159 206.533 321.076 206.677C320.993 206.821 320.946 206.983 320.938 207.15C320.938 207.459 321.149 207.585 321.416 207.438C321.555 207.347 321.671 207.225 321.754 207.081C321.837 206.936 321.885 206.775 321.894 206.609C321.894 206.3 321.676 206.166 321.416 206.321Z" fill="#FAFAFA"/>
<path d="M321.416 208.168C321.276 208.258 321.159 208.38 321.076 208.524C320.993 208.669 320.946 208.831 320.938 208.997C320.938 209.306 321.149 209.433 321.416 209.285C321.555 209.195 321.671 209.072 321.754 208.928C321.837 208.784 321.885 208.622 321.894 208.456C321.894 208.147 321.676 208.014 321.416 208.168Z" fill="#FAFAFA"/>
<path d="M301.317 171.328L333.007 189.629L253.785 235.37L222.094 217.069L301.317 171.328Z" fill="#37474F"/>
<path d="M333.007 189.629V192.818L254.059 238.404V235.208L333.007 189.629Z" fill="#455A64"/>
<path opacity="0.2" d="M247.308 218.165L262.58 226.982C263.005 227.197 263.474 227.308 263.95 227.308C264.426 227.308 264.895 227.197 265.32 226.982L294.72 210.009C294.885 209.952 295.028 209.846 295.129 209.704C295.23 209.562 295.284 209.393 295.284 209.219C295.284 209.045 295.23 208.875 295.129 208.733C295.028 208.592 294.885 208.485 294.72 208.428L279.448 199.612C279.024 199.394 278.554 199.28 278.078 199.28C277.601 199.28 277.132 199.394 276.708 199.612L247.308 216.584C247.143 216.641 247.001 216.748 246.9 216.889C246.799 217.031 246.744 217.201 246.744 217.375C246.744 217.549 246.799 217.718 246.9 217.86C247.001 218.002 247.143 218.108 247.308 218.165Z" fill="black"/>
<path d="M262.777 225.19L249.155 217.329C248.802 217.097 248.507 216.786 248.295 216.42C248.083 216.054 247.959 215.644 247.933 215.222V215.355C247.957 214.932 248.08 214.521 248.292 214.155C248.504 213.789 248.8 213.478 249.155 213.248L276.553 197.434C276.932 197.24 277.351 197.139 277.776 197.139C278.201 197.139 278.62 197.24 278.998 197.434L292.62 205.295C292.974 205.527 293.268 205.838 293.48 206.204C293.693 206.57 293.817 206.98 293.842 207.403V207.241C293.817 207.663 293.693 208.074 293.48 208.439C293.268 208.805 292.974 209.117 292.62 209.349L265.222 225.162C264.846 225.361 264.428 225.467 264.003 225.472C263.578 225.477 263.158 225.38 262.777 225.19Z" fill="#455A64"/>
<path d="M263.992 204.677L249.148 213.248C248.793 213.478 248.497 213.789 248.285 214.155C248.072 214.521 247.949 214.933 247.926 215.355V215.201C247.952 215.623 248.076 216.033 248.288 216.399C248.5 216.765 248.795 217.076 249.148 217.308L262.777 225.19C263.152 225.392 263.573 225.494 263.999 225.485L263.992 204.677Z" fill="#263238"/>
<path d="M249.148 214.653L262.77 222.514C263.148 222.708 263.567 222.809 263.992 222.809C264.418 222.809 264.837 222.708 265.215 222.514L292.613 206.7C292.758 206.649 292.884 206.554 292.974 206.428C293.063 206.302 293.111 206.152 293.111 205.998C293.111 205.843 293.063 205.693 292.974 205.567C292.884 205.441 292.758 205.346 292.613 205.295L278.991 197.434C278.613 197.24 278.194 197.139 277.769 197.139C277.344 197.139 276.925 197.24 276.546 197.434L249.148 213.248C249.003 213.299 248.877 213.394 248.788 213.52C248.699 213.645 248.651 213.796 248.651 213.95C248.651 214.104 248.699 214.255 248.788 214.381C248.877 214.506 249.003 214.601 249.148 214.653Z" fill="#263238"/>
<path d="M249.148 212.074V213.374L263.283 221.537C263.495 221.664 263.738 221.731 263.985 221.731C264.233 221.731 264.475 221.664 264.688 221.537L292.599 205.429V204.115L265.201 219.971C264.823 220.165 264.403 220.266 263.978 220.266C263.553 220.266 263.134 220.165 262.756 219.971L249.148 212.074Z" fill="#25A171"/>
<path opacity="0.6" d="M249.148 212.074V213.374L263.283 221.537C263.495 221.664 263.738 221.731 263.985 221.731C264.233 221.731 264.475 221.664 264.688 221.537L292.599 205.429V204.115L265.201 219.971C264.823 220.165 264.403 220.266 263.978 220.266C263.553 220.266 263.134 220.165 262.756 219.971L249.148 212.074Z" fill="white"/>
<path opacity="0.2" d="M249.148 212.074V213.374L263.283 221.537C263.44 221.631 263.614 221.693 263.796 221.72H263.992V220.223C263.566 220.232 263.145 220.13 262.77 219.928L249.148 212.074Z" fill="#25A171"/>
<path d="M262.77 219.936L249.148 212.074C248.795 211.842 248.5 211.531 248.288 211.165C248.076 210.799 247.952 210.389 247.926 209.967V207.452C247.952 207.03 248.076 206.619 248.288 206.254C248.5 205.888 248.795 205.576 249.148 205.344L276.546 189.531C276.925 189.337 277.344 189.235 277.769 189.235C278.194 189.235 278.613 189.337 278.991 189.531L292.613 197.392C292.966 197.624 293.261 197.935 293.473 198.301C293.686 198.667 293.809 199.077 293.835 199.499V202.007C293.817 202.431 293.696 202.844 293.483 203.211C293.27 203.578 292.972 203.888 292.613 204.115L265.215 219.971C264.834 220.159 264.413 220.255 263.988 220.249C263.563 220.243 263.145 220.135 262.77 219.936Z" fill="#455A64"/>
<path d="M263.992 196.745L249.148 205.316C248.795 205.548 248.5 205.859 248.288 206.225C248.076 206.591 247.952 207.001 247.926 207.424V209.939C247.952 210.361 248.076 210.771 248.288 211.137C248.5 211.503 248.795 211.814 249.148 212.046L262.77 219.907C263.145 220.109 263.566 220.211 263.992 220.202V196.745Z" fill="#263238"/>
<path d="M249.148 206.728L262.77 214.596C263.149 214.787 263.568 214.886 263.992 214.886C264.417 214.886 264.835 214.787 265.215 214.596L292.613 198.776C292.758 198.724 292.884 198.629 292.974 198.504C293.063 198.378 293.111 198.227 293.111 198.073C293.111 197.919 293.063 197.768 292.974 197.643C292.884 197.517 292.758 197.422 292.613 197.371L278.984 189.502C278.606 189.308 278.187 189.207 277.762 189.207C277.337 189.207 276.918 189.308 276.539 189.502L249.141 205.316C248.994 205.366 248.865 205.462 248.775 205.589C248.684 205.716 248.636 205.869 248.637 206.025C248.638 206.181 248.687 206.333 248.779 206.459C248.871 206.585 249 206.679 249.148 206.728Z" fill="#37474F"/>
<path d="M268.144 200.483C266.634 201.354 266.634 202.759 268.144 203.623C268.992 204.049 269.928 204.271 270.877 204.271C271.826 204.271 272.762 204.049 273.61 203.623C275.12 202.759 275.12 201.347 273.61 200.483C272.763 200.053 271.827 199.829 270.877 199.829C269.927 199.829 268.991 200.053 268.144 200.483Z" fill="#FAFAFA"/>
<path d="M290.386 201.396C290.247 201.489 290.132 201.613 290.049 201.758C289.966 201.903 289.918 202.065 289.908 202.232C289.908 202.541 290.126 202.668 290.386 202.52C290.526 202.43 290.643 202.308 290.726 202.164C290.809 202.02 290.856 201.857 290.864 201.691C290.864 201.375 290.653 201.249 290.386 201.396Z" fill="#FAFAFA"/>
<path d="M290.386 203.244C290.247 203.337 290.132 203.461 290.049 203.606C289.966 203.751 289.918 203.913 289.908 204.08C289.908 204.389 290.126 204.515 290.386 204.368C290.526 204.278 290.643 204.156 290.726 204.011C290.809 203.867 290.856 203.705 290.864 203.539C290.864 203.223 290.653 203.096 290.386 203.244Z" fill="#FAFAFA"/>
<path d="M254.059 254.422L222.368 236.128V199.569L254.059 217.863V254.422Z" fill="#263238"/>
<path d="M256.124 213.943V255.932L254.059 257.127V215.137L256.124 213.943Z" fill="#455A64"/>
<path opacity="0.2" d="M250.125 254.597L231.038 243.596C230.837 243.491 230.614 243.437 230.388 243.437C230.161 243.437 229.939 243.491 229.738 243.596L214.683 252.188C214.606 252.216 214.54 252.267 214.493 252.335C214.446 252.402 214.421 252.482 214.421 252.564C214.421 252.646 214.446 252.726 214.493 252.793C214.54 252.86 214.606 252.911 214.683 252.94L232.464 263.196C232.666 263.297 232.888 263.349 233.113 263.349C233.339 263.349 233.561 263.297 233.763 263.196L241.575 258.742C241.777 258.642 242 258.59 242.225 258.59C242.451 258.59 242.673 258.642 242.875 258.742C243.076 258.847 243.298 258.902 243.525 258.902C243.751 258.902 243.974 258.847 244.175 258.742L250.146 255.342C250.511 255.138 250.511 254.801 250.125 254.597Z" fill="black"/>
<path d="M231.789 217.104L246.802 225.879L246.879 254.661L231.866 245.879L231.789 217.104Z" fill="#25A171"/>
<path d="M246.296 226.356L231.761 217.926C230.883 218.875 229.723 219.515 228.452 219.753L242.861 228.183C244.083 227.732 245.239 227.117 246.296 226.356Z" fill="#F5F5F5"/>
<path d="M241.491 228.085C241.925 228.31 242.407 228.428 242.896 228.428C243.385 228.428 243.867 228.31 244.301 228.085L246.739 226.68C246.909 226.624 247.057 226.516 247.163 226.371C247.268 226.226 247.324 226.051 247.324 225.872C247.324 225.693 247.268 225.518 247.163 225.373C247.057 225.228 246.909 225.12 246.739 225.064L232.393 216.76L231.789 217.104L245.839 225.338C246.303 225.612 246.303 226.04 245.839 226.307L243.577 227.6C243.317 227.731 243.03 227.8 242.738 227.8C242.446 227.8 242.159 227.731 241.898 227.6L227.848 219.381L227.146 219.774L241.491 228.085Z" fill="#25A171"/>
<path opacity="0.6" d="M241.491 228.085C241.925 228.31 242.407 228.428 242.896 228.428C243.385 228.428 243.867 228.31 244.301 228.085L246.739 226.68C246.909 226.624 247.057 226.516 247.163 226.371C247.268 226.226 247.324 226.051 247.324 225.872C247.324 225.693 247.268 225.518 247.163 225.373C247.057 225.228 246.909 225.12 246.739 225.064L232.393 216.76L231.789 217.104L245.839 225.338C246.303 225.612 246.303 226.04 245.839 226.307L243.577 227.6C243.317 227.731 243.03 227.8 242.738 227.8C242.446 227.8 242.159 227.731 241.898 227.6L227.848 219.381L227.146 219.774L241.491 228.085Z" fill="white"/>
<path d="M227.174 219.767L227.251 248.57L241.568 256.888C242.003 257.109 242.485 257.225 242.973 257.225C243.462 257.225 243.943 257.109 244.378 256.888L246.816 255.483C246.975 255.413 247.112 255.302 247.214 255.161C247.315 255.02 247.377 254.855 247.392 254.682L247.315 225.879C247.3 226.052 247.238 226.219 247.137 226.361C247.036 226.503 246.898 226.616 246.739 226.686L244.301 228.092C243.866 228.313 243.384 228.428 242.896 228.428C242.408 228.428 241.926 228.313 241.491 228.092L227.174 219.767Z" fill="#25A171"/>
<path opacity="0.4" d="M227.174 219.767L227.251 248.57L241.568 256.888C242.003 257.109 242.485 257.225 242.973 257.225C243.462 257.225 243.943 257.109 244.378 256.888L246.816 255.483C246.975 255.413 247.112 255.302 247.214 255.161C247.315 255.02 247.377 254.855 247.392 254.682L247.315 225.879C247.3 226.052 247.238 226.219 247.137 226.361C247.036 226.503 246.898 226.616 246.739 226.686L244.301 228.092C243.866 228.313 243.384 228.428 242.896 228.428C242.408 228.428 241.926 228.313 241.491 228.092L227.174 219.767Z" fill="white"/>
<path d="M242.889 228.429C243.378 228.439 243.861 228.326 244.294 228.099L246.732 226.694C246.891 226.623 247.029 226.51 247.13 226.368C247.231 226.226 247.293 226.06 247.308 225.886L247.385 254.689C247.369 254.862 247.308 255.027 247.206 255.168C247.105 255.309 246.968 255.42 246.809 255.49L244.371 256.895C243.938 257.121 243.455 257.234 242.966 257.225L242.889 228.429Z" fill="#25A171"/>
<path opacity="0.7" d="M242.889 228.429C243.378 228.439 243.861 228.326 244.294 228.099L246.732 226.694C246.891 226.623 247.029 226.51 247.13 226.368C247.231 226.226 247.293 226.06 247.308 225.886L247.385 254.689C247.369 254.862 247.308 255.027 247.206 255.168C247.105 255.309 246.968 255.42 246.809 255.49L244.371 256.895C243.938 257.121 243.455 257.234 242.966 257.225L242.889 228.429Z" fill="white"/>
<path d="M226.612 226.497L240.521 234.625L236.707 259.066L222.797 250.937L226.612 226.497Z" fill="#25A171"/>
<path opacity="0.35" d="M226.612 226.497L240.521 234.625L236.707 259.066L222.797 250.937L226.612 226.497Z" fill="black"/>
<path d="M239.974 235.025L226.506 227.199C225.463 227.983 224.228 228.468 222.931 228.604L236.278 236.388C237.557 236.074 238.797 235.617 239.974 235.025Z" fill="white"/>
<path d="M234.88 236.262C235.316 236.471 235.789 236.59 236.272 236.613C236.754 236.636 237.237 236.562 237.69 236.395L240.332 235.306C241.168 234.962 241.259 234.351 240.55 233.936L227.279 226.209L226.619 226.476L239.664 234.098C240.093 234.351 240.037 234.716 239.538 234.92L237.086 235.917C236.814 236.017 236.525 236.061 236.235 236.048C235.946 236.035 235.662 235.964 235.4 235.84L222.361 228.225L221.617 228.534L234.88 236.262Z" fill="#25A171"/>
<path opacity="0.2" d="M234.88 236.262C235.316 236.471 235.789 236.59 236.272 236.613C236.754 236.636 237.237 236.562 237.69 236.395L240.332 235.306C241.168 234.962 241.259 234.351 240.55 233.936L227.279 226.209L226.619 226.476L239.664 234.098C240.093 234.351 240.037 234.716 239.538 234.92L237.086 235.917C236.814 236.017 236.525 236.061 236.235 236.048C235.946 236.035 235.662 235.964 235.4 235.84L222.361 228.225L221.617 228.534L234.88 236.262Z" fill="black"/>
<path d="M221.61 228.555L217.795 252.996L231.066 260.723C231.501 260.933 231.975 261.052 232.458 261.074C232.941 261.096 233.423 261.019 233.876 260.85L236.517 259.768C236.932 259.599 237.163 259.36 237.22 259.108L241.034 234.667C240.992 234.92 240.76 235.159 240.332 235.327L237.683 236.43C237.23 236.599 236.748 236.674 236.265 236.651C235.782 236.628 235.308 236.508 234.873 236.297L221.61 228.555Z" fill="#25A171"/>
<path opacity="0.3" d="M221.61 228.555L217.795 252.996L231.066 260.723C231.501 260.933 231.975 261.052 232.458 261.074C232.941 261.096 233.423 261.019 233.876 260.85L236.517 259.768C236.932 259.599 237.163 259.36 237.22 259.108L241.034 234.667C240.992 234.92 240.76 235.159 240.332 235.327L237.683 236.43C237.23 236.599 236.748 236.674 236.265 236.651C235.782 236.628 235.308 236.508 234.873 236.297L221.61 228.555Z" fill="black"/>
<path d="M236.236 236.613C236.728 236.641 237.221 236.567 237.683 236.395L240.325 235.306C240.739 235.138 240.971 234.899 241.027 234.646L237.213 259.086C237.17 259.339 236.939 259.578 236.51 259.747L233.869 260.829C233.408 261.007 232.914 261.082 232.421 261.046L236.236 236.613Z" fill="#25A171"/>
<path opacity="0.1" d="M236.236 236.613C236.728 236.641 237.221 236.567 237.683 236.395L240.325 235.306C240.739 235.138 240.971 234.899 241.027 234.646L237.213 259.086C237.17 259.339 236.939 259.578 236.51 259.747L233.869 260.829C233.408 261.007 232.914 261.082 232.421 261.046L236.236 236.613Z" fill="black"/>
<path d="M225.719 271.177L227.602 272.399L226.12 273.256C225.597 273.521 225.02 273.659 224.434 273.659C223.848 273.659 223.27 273.521 222.748 273.256L207.693 264.531L194.436 256.881C193.945 256.559 193.535 256.126 193.241 255.618C192.947 255.109 192.776 254.538 192.743 253.951V215.896C192.764 215.305 192.936 214.729 193.242 214.224L225.923 232.995L225.719 271.177Z" fill="#263238"/>
<path d="M224.434 234.189V272.259C224.434 273.334 225.193 273.769 226.127 273.228L333.661 211.14C334.153 210.819 334.562 210.386 334.855 209.877C335.148 209.368 335.316 208.797 335.347 208.21V170.155C335.347 169.073 334.595 168.638 333.661 169.179L226.127 231.267C225.634 231.586 225.224 232.017 224.93 232.525C224.636 233.033 224.466 233.603 224.434 234.189ZM226.773 234.189C226.839 233.839 227.023 233.522 227.293 233.29L333.007 172.256V208.239C332.944 208.59 332.76 208.908 332.488 209.138L226.773 270.151V234.189Z" fill="#455A64"/>
<path d="M335.347 170.155L335.529 190.872L335.586 201.235V206.419V207.712C335.614 208.167 335.574 208.624 335.466 209.068C335.224 209.976 334.676 210.773 333.914 211.323L298.085 232.138L262.152 252.785L244.189 263.049L226.155 273.249L244.006 262.712L261.899 252.258L297.727 231.464L333.647 210.824C334.297 210.35 334.769 209.673 334.989 208.899C335.086 208.504 335.121 208.096 335.094 207.691V206.398V201.213L335.15 190.851L335.347 170.155Z" fill="#37474F"/>
<path d="M193.242 214.224L224.975 232.447C225.255 231.963 225.651 231.555 226.127 231.26L333.661 169.179C334.441 168.729 335.066 168.961 335.298 169.671C335.201 169.175 335.007 168.703 334.726 168.283C334.445 167.863 334.083 167.504 333.661 167.226L305.349 150.885C304.826 150.619 304.247 150.48 303.66 150.48C303.073 150.48 302.494 150.619 301.97 150.885L194.436 212.966C193.936 213.275 193.524 213.708 193.242 214.224Z" fill="#37474F"/>
<path d="M207.243 214.519C207.061 214.519 206.881 214.471 206.723 214.379C206.53 214.252 206.375 214.075 206.275 213.867C206.175 213.659 206.133 213.428 206.154 213.198V136.421C206.178 135.883 206.331 135.359 206.6 134.893C206.869 134.428 207.246 134.033 207.7 133.744L312.838 73.0396C313.027 72.9076 313.248 72.8288 313.478 72.8115C313.708 72.7942 313.938 72.839 314.145 72.9413C314.338 73.0678 314.493 73.2446 314.593 73.4525C314.693 73.6604 314.735 73.8917 314.714 74.1215V150.899C314.69 151.437 314.537 151.961 314.268 152.426C313.999 152.892 313.622 153.287 313.168 153.576L208.03 214.28C207.793 214.428 207.522 214.51 207.243 214.519ZM313.618 73.4471C313.459 73.4574 313.305 73.5055 313.168 73.5876L208.03 134.313C207.679 134.547 207.387 134.859 207.176 135.225C206.966 135.59 206.842 135.999 206.815 136.421V213.198C206.799 213.311 206.813 213.426 206.855 213.532C206.897 213.638 206.965 213.731 207.054 213.802C207.16 213.844 207.276 213.857 207.39 213.84C207.503 213.823 207.61 213.776 207.7 213.704L312.838 153.007C313.189 152.773 313.481 152.46 313.692 152.095C313.903 151.729 314.026 151.32 314.054 150.899V74.1496C314.065 74.0371 314.05 73.9235 314.008 73.8183C313.967 73.7131 313.9 73.6195 313.815 73.5455C313.761 73.4929 313.692 73.4585 313.618 73.4471Z" fill="#25A171"/>
<path opacity="0.4" d="M206.485 213.198V136.42C206.513 135.939 206.656 135.471 206.9 135.054C207.144 134.638 207.483 134.285 207.89 134.025L313.035 73.3275C313.794 72.885 314.44 73.2432 314.44 74.1214V150.899C314.411 151.381 314.269 151.849 314.025 152.265C313.78 152.682 313.441 153.034 313.035 153.295L207.89 213.992C207.103 214.435 206.485 214.076 206.485 213.198Z" fill="#25A171"/>
<path opacity="0.2" d="M318.718 160.369L323.636 163.179C324.781 163.84 324.781 164.915 323.636 165.575L286.339 187.1C285.194 187.802 285.194 188.842 286.339 189.503L289.079 191.062C290.224 191.722 290.224 192.797 289.079 193.458L268.397 205.4C267.754 205.726 267.042 205.895 266.321 205.895C265.6 205.895 264.889 205.726 264.245 205.4L261.506 203.841C260.861 203.515 260.148 203.346 259.426 203.346C258.704 203.346 257.992 203.515 257.347 203.841L219.896 225.464C219.253 225.793 218.542 225.965 217.82 225.965C217.098 225.965 216.386 225.793 215.744 225.464L210.826 222.654C209.681 221.994 209.681 220.919 210.826 220.259L314.538 160.376C315.185 160.045 315.901 159.872 316.628 159.871C317.354 159.87 318.071 160.04 318.718 160.369Z" fill="black"/>
<path d="M213.39 218.776L213.194 218.664C212.786 218.404 212.447 218.052 212.202 217.635C211.958 217.219 211.816 216.75 211.789 216.268V139.483C211.817 139.003 211.96 138.535 212.204 138.12C212.448 137.705 212.787 137.354 213.194 137.095L318.571 76.517C318.999 76.2986 319.474 76.1848 319.955 76.1848C320.436 76.1848 320.91 76.2986 321.339 76.517C321.746 76.775 322.085 77.1262 322.33 77.5416C322.574 77.9569 322.716 78.4245 322.744 78.9056V155.683C322.716 156.165 322.574 156.634 322.33 157.05C322.085 157.467 321.746 157.819 321.339 158.079L216.2 218.776C215.767 219.003 215.285 219.121 214.795 219.121C214.306 219.121 213.824 219.003 213.39 218.776Z" fill="#455A64"/>
<path d="M216.622 140.678L212.217 138.128C211.967 138.54 211.826 139.009 211.81 139.491V216.268C211.837 216.75 211.979 217.219 212.224 217.635C212.468 218.052 212.808 218.404 213.215 218.664L213.411 218.776C213.839 218.995 214.312 219.108 214.792 219.108C215.272 219.108 215.745 218.995 216.172 218.776L216.643 218.509L216.622 140.678Z" fill="#263238"/>
<path d="M214.774 217.982V141.205C214.803 140.723 214.946 140.255 215.19 139.838C215.434 139.422 215.773 139.069 216.179 138.809L321.318 78.1118C322.083 77.6693 322.723 78.0275 322.723 78.9057V155.683C322.695 156.166 322.553 156.634 322.309 157.051C322.064 157.467 321.725 157.82 321.318 158.079L216.179 218.776C215.385 219.219 214.774 218.868 214.774 217.982Z" fill="#37474F"/>
<path d="M322.673 78.9059L322.856 104.035L322.961 129.171L323.018 154.3C323.018 154.841 323.018 155.318 323.018 155.901C322.955 156.486 322.739 157.043 322.392 157.517C322.224 157.759 322.023 157.976 321.795 158.164C321.571 158.326 321.336 158.473 321.093 158.606L319.73 159.393L314.292 162.547L303.418 168.87L259.862 193.929L238.006 206.377L216.151 218.777L237.824 206.054L259.538 193.409L303.024 168.202L313.913 161.936L319.358 158.803L320.72 158.016C320.937 157.903 321.145 157.776 321.346 157.637C321.521 157.489 321.677 157.319 321.809 157.131C322.085 156.755 322.262 156.315 322.322 155.852C322.322 155.396 322.322 154.827 322.322 154.314L322.378 129.185L322.484 104.049L322.673 78.9059Z" fill="#455A64"/>
<path d="M253.968 150.766C254.03 150.767 254.091 150.75 254.143 150.717L283.649 133.681C283.727 133.634 283.783 133.559 283.807 133.471C283.831 133.383 283.819 133.29 283.775 133.21C283.728 133.132 283.653 133.075 283.565 133.052C283.478 133.028 283.384 133.04 283.305 133.084L253.799 150.119C253.732 150.156 253.678 150.215 253.648 150.285C253.618 150.356 253.612 150.434 253.631 150.508C253.65 150.583 253.694 150.648 253.755 150.695C253.816 150.742 253.891 150.767 253.968 150.766ZM283.305 136.898L253.799 153.934C253.732 153.971 253.678 154.029 253.648 154.1C253.618 154.17 253.612 154.249 253.631 154.323C253.65 154.397 253.694 154.463 253.755 154.51C253.816 154.556 253.891 154.581 253.968 154.58C254.029 154.578 254.089 154.561 254.143 154.531L283.649 137.495C283.727 137.448 283.783 137.373 283.807 137.285C283.831 137.198 283.819 137.104 283.775 137.025C283.753 136.985 283.724 136.95 283.688 136.921C283.652 136.893 283.611 136.873 283.567 136.861C283.523 136.849 283.477 136.846 283.432 136.853C283.387 136.859 283.344 136.875 283.305 136.898ZM283.305 140.713L253.799 157.742C253.732 157.779 253.678 157.837 253.648 157.907C253.618 157.978 253.612 158.056 253.631 158.131C253.65 158.205 253.694 158.271 253.755 158.317C253.816 158.364 253.891 158.389 253.968 158.388C254.029 158.388 254.089 158.374 254.143 158.346L283.649 141.31C283.727 141.263 283.783 141.188 283.807 141.1C283.831 141.012 283.819 140.919 283.775 140.839C283.753 140.799 283.724 140.764 283.688 140.736C283.652 140.708 283.611 140.687 283.567 140.675C283.523 140.664 283.477 140.661 283.432 140.667C283.387 140.674 283.344 140.689 283.305 140.713ZM283.305 144.52L253.799 161.556C253.732 161.593 253.678 161.651 253.648 161.722C253.618 161.792 253.612 161.871 253.631 161.945C253.65 162.02 253.694 162.085 253.755 162.132C253.816 162.179 253.891 162.204 253.968 162.203C254.03 162.204 254.091 162.187 254.143 162.154L283.649 145.118C283.727 145.071 283.783 144.995 283.807 144.908C283.831 144.82 283.819 144.726 283.775 144.647C283.728 144.569 283.653 144.512 283.565 144.489C283.478 144.465 283.384 144.477 283.305 144.52ZM283.305 148.335L253.799 165.371C253.732 165.408 253.678 165.466 253.648 165.537C253.618 165.607 253.612 165.686 253.631 165.76C253.65 165.834 253.694 165.9 253.755 165.947C253.816 165.993 253.891 166.018 253.968 166.017C254.029 166.015 254.089 165.998 254.143 165.968L283.649 148.932C283.727 148.885 283.783 148.81 283.807 148.722C283.831 148.635 283.819 148.541 283.775 148.462C283.753 148.422 283.724 148.386 283.688 148.358C283.652 148.33 283.611 148.31 283.567 148.298C283.523 148.286 283.477 148.283 283.432 148.29C283.387 148.296 283.344 148.311 283.305 148.335Z" fill="#263238"/>
<path d="M285.798 193.5L268.285 203.602L261 199.514V197.631L267.631 201.403L262.37 176.907L280.024 166.699L285.798 193.5Z" fill="#263238"/>
<path d="M278.654 187.43L277.305 186.657L259.651 196.865L266.283 200.638L278.654 187.43Z" fill="#455A64"/>
<path d="M284.45 192.734L266.936 202.829L259.651 198.748V196.865L266.283 200.637L261.021 176.141L278.675 165.933L284.45 192.734Z" fill="#263238"/>
<path d="M280.024 166.699L278.675 165.933L261.021 176.141L262.37 176.906L280.024 166.699Z" fill="#455A64"/>
<path d="M262.37 176.906L268.285 203.602L259.651 198.748V196.865L266.283 200.637L261.021 176.141L262.37 176.906Z" fill="black"/>
<path d="M97.3631 93.5811C93.148 92.1269 88.413 96.2436 80.3974 98.0491C65.4408 101.414 58.0223 105.931 50.0558 111.713C42.0892 117.495 40.0379 115.703 37.0592 119.771C34.0806 123.838 38.8788 127.035 39.8693 134.053C41.5272 145.869 45.0539 154.426 49.4586 160.194C57.1863 170.45 54.4324 175.649 58.8372 176.632C63.53 177.693 64.1482 173.59 72.185 172.488C91.195 169.86 99.7727 165.533 110.648 155.543C114.863 151.644 118.804 152.986 120.63 148.679C121.544 146.523 118.565 144.542 117.293 136.793C115.186 123.923 109.973 111.081 103.707 103.564C100.967 100.283 101.613 95.0564 97.3631 93.5811Z" fill="#25A171"/>
<path opacity="0.3" d="M97.3631 93.5811C93.148 92.1269 88.413 96.2436 80.3974 98.0491C65.4408 101.414 58.0223 105.931 50.0558 111.713C42.0892 117.495 40.0379 115.703 37.0592 119.771C34.0806 123.838 38.8788 127.035 39.8693 134.053C41.5272 145.869 45.0539 154.426 49.4586 160.194C57.1863 170.45 54.4324 175.649 58.8372 176.632C63.53 177.693 64.1482 173.59 72.185 172.488C91.195 169.86 99.7727 165.533 110.648 155.543C114.863 151.644 118.804 152.986 120.63 148.679C121.544 146.523 118.565 144.542 117.293 136.793C115.186 123.923 109.973 111.081 103.707 103.564C100.967 100.283 101.613 95.0564 97.3631 93.5811Z" fill="black"/>
<path opacity="0.2" d="M40.0028 128.44C42.4405 134.524 40.7053 139.61 46.0023 150.984C51.0814 161.915 55.7251 165.736 56.9193 170.401C57.9099 174.258 59.9964 176.45 61.5419 172.579C63.0874 168.708 62.6589 156.47 57.6781 144.914C51.9385 131.566 47.5899 125.988 44.3303 123.466C39.2581 119.504 38.0849 123.649 40.0028 128.44Z" fill="black"/>
<path opacity="0.2" d="M73.5197 168.132C68.3211 168.645 67.1057 172.853 63.9093 175.572C66.3961 173.933 69.2241 172.883 72.1779 172.502C80.8399 171.3 87.3311 169.755 92.8669 167.479C85.9472 169.242 77.2922 167.753 73.5197 168.132ZM108.835 153.211C105.21 155.248 104.346 160.194 99.6392 164.05C103.583 161.591 107.268 158.741 110.641 155.543C114.518 151.981 118.108 152.782 120.096 149.663C116.668 152.375 113.205 150.759 108.835 153.211Z" fill="black"/>
<path opacity="0.3" d="M88.8767 102.524C78.1774 102.004 66.6702 104.849 57.7483 111.06C55.9664 112.385 54.7838 114.363 54.4605 116.56C54.2284 117.923 54.3449 119.323 54.7994 120.628C55.2539 121.934 56.0316 123.104 57.0598 124.028C59.1674 125.96 62.68 126.796 65.2582 127.077C70.7237 127.653 74.1801 127.014 81.0648 128.531C83.5841 129.153 85.9166 130.372 87.8651 132.086C90.8016 134.769 92.8249 137.495 95.4101 139.813C98.9719 142.975 106.461 143.698 109.573 141.773C112.903 139.722 114.49 135.83 113.261 130.189C110.591 117.642 103.229 104.308 88.8767 102.524Z" fill="#25A171"/>
<path d="M127.941 183.745L135.099 172.785L145.637 181.447L129.353 196.903C129.353 196.903 122.468 195.231 121.836 191.24C121.203 187.25 125.861 184.742 127.941 183.745Z" fill="#F0997A"/>
<path d="M119.953 186.295C117.754 186.477 116.813 187.11 116.117 188.929C115.422 190.749 115.745 192.638 114.986 195.153C114.227 197.668 112.914 198.736 111.719 202.003C110.525 205.27 110.813 210.932 112.647 214.451C114.48 217.971 116.159 219.601 120.522 219.474L119.953 186.295Z" fill="#263238"/>
<path d="M127.94 183.745L127.069 185.002C127.534 187.033 128.579 188.885 130.076 190.334C132.556 192.702 133.771 192.709 133.771 192.709L134.474 192.006C134.474 192.006 134.818 192.414 133.652 193.467C132.129 194.723 130.811 196.21 129.746 197.872C128.137 200.317 126.36 206.366 125.671 210.813C124.983 215.259 125.194 218.54 121.744 219.355C118.295 220.17 115.344 216.503 113.869 213.285C112.394 210.068 112.324 205.48 113.167 202.312C114.01 199.144 116.679 197.394 116.679 193.552C116.679 190.742 117.48 188.065 118.787 186.892C120.093 185.719 122.573 185.698 124.323 184.995C126.072 184.293 127.336 183.295 127.94 183.745Z" fill="#455A64"/>
<path d="M125.32 213.601C123.719 208.972 116.581 206.703 112.675 208.059C112.754 209.872 113.159 211.657 113.869 213.327C115.345 216.545 118.288 220.212 121.744 219.397C124.463 218.73 124.92 216.587 125.32 213.601Z" fill="#FAFAFA"/>
<path opacity="0.1" d="M133.673 193.474C134.839 192.421 134.495 192.013 134.495 192.013L133.792 192.716C133.792 192.716 132.577 192.716 130.097 190.341C128.6 188.892 127.555 187.04 127.09 185.009L127.962 183.752C127.357 183.302 126.17 184.307 124.449 185.009C122.728 185.712 120.234 185.712 118.913 186.906C118.125 187.693 117.568 188.683 117.304 189.765L128.545 191.978C128.545 191.978 126.901 196.755 125.671 201.237C124.161 206.738 124.414 213.749 121.309 215.611C118.295 217.395 113.377 210.791 112.675 205.438C112.439 208.113 112.846 210.806 113.862 213.292C115.337 216.51 118.281 220.177 121.737 219.362C125.194 218.547 124.976 215.273 125.664 210.82C126.353 206.366 128.13 200.324 129.739 197.879C130.812 196.215 132.14 194.728 133.673 193.474Z" fill="black"/>
<path d="M126.262 209.028C126.096 208.687 125.899 208.362 125.671 208.059C125.244 207.464 124.744 206.926 124.182 206.457C122.986 205.405 121.531 204.692 119.967 204.392C119.826 204.392 119.805 204.652 119.904 204.708C121.228 205.365 122.495 206.134 123.69 207.005C124.445 207.604 125.077 208.344 125.552 209.183C125.721 209.485 125.882 209.885 126.198 210.061C126.217 210.071 126.237 210.076 126.258 210.076C126.279 210.076 126.299 210.071 126.318 210.061C126.592 209.738 126.395 209.33 126.262 209.028Z" fill="#FAFAFA"/>
<path d="M126.999 205.74C126.429 204.532 125.543 203.501 124.435 202.755C123.956 202.405 123.449 202.097 122.918 201.834C122.651 201.705 122.377 201.592 122.096 201.497C121.785 201.402 121.464 201.346 121.14 201.328C121.021 201.328 120.979 201.56 121.077 201.609C121.639 201.89 122.194 202.179 122.749 202.474C123.277 202.749 123.778 203.074 124.245 203.443C124.692 203.786 125.112 204.161 125.503 204.567C125.952 205.045 126.36 205.565 126.802 206.042C126.957 206.211 127.041 205.874 126.999 205.74Z" fill="#FAFAFA"/>
<path d="M127.428 200.598C127.016 200.077 126.544 199.605 126.023 199.193C125.455 198.747 124.84 198.366 124.189 198.055C123.613 197.71 122.968 197.499 122.299 197.437C122.138 197.437 122.11 197.746 122.222 197.823C122.817 198.176 123.434 198.49 124.07 198.764C124.653 199.068 125.208 199.423 125.728 199.825C126.177 200.181 126.585 200.586 126.943 201.033C127.112 201.251 127.266 201.476 127.421 201.701C127.62 202.028 127.836 202.344 128.067 202.649C128.172 202.769 128.271 202.565 128.271 202.481C128.198 201.779 127.903 201.119 127.428 200.598Z" fill="#FAFAFA"/>
<path d="M128.91 197.099C128.467 196.636 128.018 196.179 127.505 195.751C127.017 195.324 126.488 194.947 125.924 194.627C125.415 194.289 124.827 194.088 124.217 194.043C124.049 194.043 124.042 194.353 124.161 194.416C124.688 194.718 125.243 194.964 125.749 195.287C126.244 195.62 126.713 195.988 127.154 196.39C127.554 196.748 127.948 197.127 128.32 197.514C128.504 197.703 128.678 197.902 128.84 198.111C128.905 198.215 128.964 198.323 129.015 198.434C129.086 198.589 129.205 198.722 129.282 198.87C129.36 199.017 129.465 199.031 129.542 198.912C130.006 198.259 129.346 197.563 128.91 197.099Z" fill="#FAFAFA"/>
<path d="M117.937 140.652C117.937 140.652 147.492 137.793 158.985 139.507C170.717 141.257 169.003 154.344 165.827 159.915C158.648 172.483 142.539 184.672 142.539 184.672C142.539 184.672 133.68 182.108 132.423 175.834L137.108 167.685L122.468 170.418L115.942 164.327L112.675 161.363L117.937 140.652Z" fill="#25A171"/>
<path opacity="0.2" d="M117.937 140.652C117.234 140.709 147.218 137.842 158.985 139.507C170.752 141.172 169.003 154.344 165.827 159.915C158.648 172.483 142.539 184.672 142.539 184.672C142.539 184.672 133.68 182.108 132.423 175.834L137.108 167.685L122.468 170.418L115.942 164.327L112.675 161.363L117.937 140.652Z" fill="white"/>
<path d="M133.645 176.214C133.645 176.214 139.455 179.684 142.187 180.906C143.71 181.596 145.267 182.206 146.852 182.733L144.007 193.144L129.409 189.351L133.645 176.214Z" fill="#FFBDA7"/>
<path d="M145.475 194.057C145.475 194.057 148.384 195.561 149.164 195.8C149.943 196.038 151.903 196.256 153.308 196.924C154.713 197.591 160.193 200.254 163.474 200.436C166.755 200.619 172.424 199.502 174.011 194.114L145.475 194.057Z" fill="#263238"/>
<path d="M144.337 181.813C145.377 182.298 145.777 185.972 145.075 188.22C144.534 189.962 142.827 192.632 141.745 192.554L140.712 192.287C140.712 192.287 140.747 192.99 142.419 193.327C144.091 193.664 149.142 195.062 151.067 195.477C152.992 195.891 156.933 198.027 159.413 198.68C161.893 199.334 164.246 200.387 168.462 198.933C172.677 197.479 175.676 193.165 174.215 189.351C172.754 185.536 168.637 184.51 165.223 184.096C161.809 183.682 155.887 184.272 152.135 183.464C149.64 182.965 147.197 182.235 144.836 181.286C144.558 181.132 144.245 181.051 143.926 181.051C143.608 181.051 143.295 181.132 143.016 181.286L144.337 181.813Z" fill="#455A64"/>
<path d="M160.643 184.609C159.768 185.667 159.181 186.932 158.935 188.283C158.516 189.73 158.373 191.243 158.514 192.744C158.514 192.884 158.753 193.137 158.851 192.898C159.066 192.272 159.194 191.62 159.231 190.959C159.308 190.292 159.385 189.632 159.519 188.971C159.637 188.344 159.801 187.727 160.01 187.124C160.291 186.399 160.622 185.694 161.001 185.016C161.106 184.84 160.874 184.363 160.643 184.609Z" fill="#FAFAFA"/>
<path d="M157.636 184.798C157.636 184.665 157.481 184.482 157.313 184.524C156.99 184.602 156.891 184.862 156.751 185.143C156.595 185.437 156.457 185.739 156.336 186.049C156.106 186.638 155.92 187.244 155.781 187.861C155.645 188.476 155.544 189.097 155.479 189.723C155.348 190.428 155.404 191.154 155.641 191.831C155.683 191.929 155.858 192.126 155.964 191.957C156.206 191.393 156.304 190.777 156.252 190.166C156.309 189.545 156.413 188.93 156.561 188.325C156.712 187.726 156.902 187.137 157.13 186.562C157.249 186.26 157.369 185.958 157.502 185.662C157.584 185.536 157.638 185.393 157.661 185.245C157.684 185.096 157.675 184.944 157.636 184.798Z" fill="#FAFAFA"/>
<path d="M153.948 184.293C153.731 184.539 153.564 184.825 153.456 185.136C153.337 185.403 153.217 185.67 153.119 185.944C152.902 186.538 152.723 187.146 152.585 187.763C152.227 188.963 152.143 190.228 152.339 191.465C152.381 191.634 152.648 191.894 152.746 191.613C152.909 191.045 153.005 190.46 153.034 189.871C153.104 189.272 153.21 188.679 153.351 188.093C153.484 187.531 153.66 186.976 153.849 186.428C153.948 186.161 154.039 185.894 154.144 185.627C154.288 185.344 154.387 185.041 154.439 184.728C154.453 184.517 154.194 184.096 153.948 184.293Z" fill="#FAFAFA"/>
<path d="M150.997 183.393C150.185 184.455 149.603 185.674 149.287 186.973C148.971 188.272 148.929 189.622 149.164 190.938C149.164 191.058 149.311 191.03 149.339 190.938C149.62 189.744 149.852 188.536 150.182 187.356C150.512 186.175 150.969 185.016 151.398 183.843C151.475 183.653 151.236 183.119 150.997 183.393Z" fill="#FAFAFA"/>
<path d="M174.215 189.351C173.063 186.323 170.239 185.058 167.415 184.433C163.354 186.73 162.631 197.535 163.635 199.607C165.276 199.717 166.92 199.477 168.462 198.905C172.684 197.486 175.676 193.165 174.215 189.351Z" fill="#FAFAFA"/>
<path opacity="0.1" d="M168.462 198.933C171.806 197.788 174.37 194.844 174.573 191.767C173.744 193.856 172.141 195.544 170.098 196.481C166.586 198.139 159.013 196.053 155.697 194.324C152.999 192.919 148.566 192.034 144.288 189.99C143.536 191.353 142.49 192.61 141.745 192.554L140.712 192.287C140.712 192.287 140.747 192.99 142.419 193.327C144.091 193.664 149.142 195.062 151.067 195.477C152.992 195.891 156.933 198.027 159.413 198.68C161.893 199.333 164.246 200.387 168.462 198.933Z" fill="black"/>
<path d="M136.694 176.895C129.514 171.619 119.068 163.196 114.537 161.32L114.185 161.18C116.995 156.066 119.005 151.471 117.937 140.652L73.5238 142.605C73.5238 142.605 73.8961 159.915 76.3339 165.669C79.5444 173.397 82.4457 176.207 89.9697 179.754C95.8427 182.515 106.746 183.689 106.746 183.689C108.741 185.29 111.6 186.562 115.176 187.391C119.707 188.445 128.222 189.681 133.153 190.686C136.666 187.236 137.713 177.647 136.694 176.895Z" fill="#25A171"/>
<path opacity="0.2" d="M136.694 176.895C129.514 171.619 119.068 163.196 114.537 161.32L114.185 161.18C116.995 156.066 119.005 151.471 117.937 140.652L73.5238 142.605C73.5238 142.605 73.8961 159.915 76.3339 165.669C79.5444 173.397 82.4457 176.207 89.9697 179.754C95.8427 182.515 106.746 183.689 106.746 183.689C108.741 185.29 111.6 186.562 115.176 187.391C119.707 188.445 128.222 189.681 133.153 190.686C136.666 187.236 137.713 177.647 136.694 176.895Z" fill="white"/>
<g opacity="0.3">
<path opacity="0.3" d="M140.614 158.848C138.02 161.886 135.599 165.069 133.364 168.381L137.108 167.678C142.433 158.11 143.642 155.279 150.702 151.443C150.702 151.45 145.834 152.63 140.614 158.848Z" fill="black"/>
<path opacity="0.3" d="M104.603 180.836C104.561 181.769 104.75 182.698 105.151 183.541C106.121 183.646 106.718 183.688 106.718 183.688H106.76C105.922 182.833 105.198 181.875 104.603 180.836Z" fill="black"/>
<path opacity="0.3" d="M121.85 165.83C124.864 167.854 126.971 169.582 126.971 169.582L129.521 169.111C129.521 169.111 123.95 165.058 119.7 162.037C119.117 161.622 117.08 160.161 116.56 159.74C117.69 156.835 118.158 153.715 117.93 150.607C117.522 153.622 116.595 156.543 115.19 159.241C113.455 158.461 111.958 158.384 109.317 158.468C104.715 158.623 91.3676 159.1 91.3676 159.1C91.3676 159.1 104.013 159.522 110.567 160.358C111.798 160.465 113.009 160.741 114.164 161.18C116.877 162.466 119.452 164.025 121.85 165.83Z" fill="black"/>
</g>
<path d="M146.803 135.355C144.941 133.629 142.837 132.183 140.558 131.063C136.019 128.625 130.575 125.822 124.042 122.766C123.992 121.108 124.245 114.336 123.81 100.939C123.592 94.1881 121.267 89.8326 117.951 87.9639L109.226 108.147C109.226 108.147 108.86 125.338 109.226 128.646C109.577 131.794 110.631 132.974 112.668 133.754C115.55 134.832 118.494 135.738 121.484 136.465C128.053 138.173 134.2 139.535 135.008 140.02C137.46 141.495 137.221 143.61 138.436 144.502C139.651 145.394 150.14 147.867 150.14 147.867C150.969 144.938 150.843 142.985 150.702 142.591C149.915 139.937 148.587 137.473 146.803 135.355Z" fill="#FFBDA7"/>
<path d="M115.316 86.4464C122.257 87.9779 123.241 90.4929 124.449 96.7944C126.297 106.447 124.224 121.382 124.224 121.382C122.601 122.38 112.281 123.848 108.53 121.72L108.607 107.213L115.316 86.4464Z" fill="#263238"/>
<path d="M93.0888 87.2472C90.2225 87.8514 85.0028 89.0035 85.0028 89.0035C85.0028 89.0035 81.4903 93.5909 78.5467 103.475C74.5283 117.09 74.0647 133.178 73.7275 147.34C81.4305 152.446 90.7409 154.544 99.8891 153.234C120.845 150.256 121.667 140.322 121.667 140.322C120.594 137.606 119.829 134.778 119.384 131.892V123.082C119.384 123.082 123.739 110.512 121.667 99.4337C119.637 88.615 115.302 86.4252 115.302 86.4252L111.045 85.793C105.021 85.4095 98.9728 85.8993 93.0888 87.2472Z" fill="#455A64"/>
<path d="M124.99 73.5973C126.034 74.3994 126.977 75.324 127.8 76.3511C128.317 76.9898 128.564 77.8058 128.486 78.6241C128.409 79.4424 128.014 80.1977 127.386 80.7278L126.198 80.0253C126.198 80.0253 127.393 78.7678 126.901 77.6929C126.409 76.6181 124.576 75.2482 124.576 75.2482L124.99 73.5973Z" fill="black"/>
<path d="M133.097 160.653L129.226 162.887L131.945 164.461C132.205 164.602 132.511 164.635 132.795 164.552C133.982 164.198 135.07 163.57 135.97 162.718C136.118 162.564 136.062 162.367 135.823 162.227L133.097 160.653Z" fill="#25A171"/>
<path d="M143.958 154.386L147.829 152.145L150.554 153.719C150.793 153.86 150.849 154.063 150.702 154.211C149.806 155.068 148.717 155.697 147.527 156.044C147.242 156.127 146.937 156.094 146.677 155.953L143.958 154.386Z" fill="#25A171"/>
<path d="M146.016 141.945C148.229 144.305 150.126 146.237 150.126 148.127C150.126 148.682 150.126 151.022 150.126 151.64C150.103 152.12 149.981 152.591 149.768 153.022C149.555 153.453 149.256 153.837 148.89 154.148C146.037 156.958 141.471 155.869 138.52 157.569C135.57 159.269 137.439 161.91 132.598 163.554C127.758 165.198 123.409 163.73 117.522 161.889C112.548 160.337 109.247 158.475 109.219 156.796C109.219 156.48 109.219 153.902 109.219 153.284C109.221 152.957 109.338 152.641 109.549 152.391C110.757 150.839 114.642 150.902 118.133 150.811C122.833 150.684 126.711 149.764 128.882 148.507C130.001 147.875 130.949 146.98 131.643 145.899C132.338 144.818 132.757 143.584 132.865 142.303C133.02 140.287 132.914 138.046 135.598 137.351C138.886 136.458 142.827 138.51 146.016 141.945Z" fill="#37474F"/>
<path d="M146.016 141.945C149.206 145.345 151.756 147.853 148.897 150.649C146.037 153.445 141.478 152.37 138.527 154.07C135.577 155.77 137.446 158.405 132.605 160.056C127.765 161.707 123.416 160.231 117.529 158.391C111.642 156.55 108.08 154.274 109.556 152.384C110.764 150.832 114.649 150.895 118.14 150.804C122.84 150.677 126.718 149.757 128.889 148.499C130.008 147.868 130.956 146.973 131.65 145.892C132.345 144.811 132.764 143.577 132.872 142.296C133.027 140.28 132.921 138.039 135.605 137.343C138.886 136.458 142.827 138.51 146.016 141.945Z" fill="#455A64"/>
<path d="M135.408 144.818C136.111 147.72 135.331 149.153 132.704 150.67C130.076 152.188 127.596 152.623 122.566 152.23C117.255 151.815 115.295 151.092 111.396 151.31C113.174 150.818 115.745 150.832 118.14 150.769C122.84 150.642 126.718 149.722 128.889 148.464C130.008 147.833 130.956 146.938 131.65 145.857C132.345 144.776 132.764 143.542 132.872 142.261C132.978 140.856 132.964 139.395 133.807 138.369C133.427 140.624 134.685 141.755 135.408 144.818Z" fill="#37474F"/>
<path d="M130.463 152.911C127.287 151.078 122.51 150.881 119.7 152.483C116.89 154.084 117.297 156.845 120.473 158.679C123.648 160.512 128.453 160.709 131.207 159.121C133.961 157.534 133.638 154.745 130.463 152.911Z" fill="#37474F"/>
<path d="M126.571 160.414C124.418 160.43 122.296 159.901 120.403 158.876C118.653 157.864 117.656 156.508 117.656 155.159C117.694 154.543 117.898 153.949 118.245 153.438C118.593 152.928 119.071 152.52 119.63 152.258C122.44 150.635 127.357 150.853 130.603 152.708C132.345 153.712 133.35 155.068 133.35 156.417C133.311 157.033 133.108 157.628 132.76 158.138C132.413 158.648 131.935 159.056 131.376 159.318C129.894 160.088 128.24 160.466 126.571 160.414ZM124.393 151.633C122.813 151.587 121.248 151.948 119.848 152.679C119.363 152.9 118.947 153.246 118.641 153.683C118.336 154.119 118.154 154.629 118.112 155.159C118.112 156.333 119.026 157.534 120.62 158.454C123.725 160.253 128.432 160.449 131.109 158.904C131.595 158.683 132.013 158.336 132.32 157.898C132.626 157.461 132.81 156.949 132.851 156.417C132.851 155.244 131.938 154.042 130.343 153.122C128.519 152.128 126.471 151.615 124.393 151.633Z" fill="#263238"/>
<path d="M136.771 152.265L135.457 153.017C135.296 153.115 135.317 153.277 135.507 153.389C135.606 153.44 135.715 153.466 135.826 153.466C135.937 153.466 136.047 153.44 136.146 153.389L137.46 152.63C137.621 152.539 137.6 152.37 137.41 152.258C137.311 152.208 137.201 152.183 137.09 152.184C136.979 152.186 136.87 152.213 136.771 152.265Z" fill="#37474F"/>
<path d="M132.725 151.717L131.418 152.483C131.249 152.581 131.27 152.743 131.46 152.855C131.559 152.906 131.669 152.932 131.78 152.932C131.891 152.932 132 152.906 132.099 152.855L133.413 152.096C133.582 151.998 133.561 151.836 133.371 151.724C133.272 151.671 133.161 151.643 133.049 151.642C132.936 151.641 132.825 151.666 132.725 151.717Z" fill="#37474F"/>
<path d="M131.481 147.502C130.782 147.113 130.003 146.893 129.204 146.859C128.405 146.825 127.609 146.977 126.88 147.305C125.7 148.008 125.847 149.181 127.21 149.961C127.909 150.349 128.689 150.57 129.487 150.604C130.286 150.638 131.082 150.485 131.811 150.157C132.985 149.476 132.837 148.268 131.481 147.502Z" fill="#37474F"/>
<path d="M129.809 150.846C128.858 150.849 127.922 150.607 127.09 150.143C126.751 149.993 126.458 149.757 126.239 149.457C126.021 149.157 125.886 148.805 125.847 148.436C125.861 148.148 125.954 147.868 126.115 147.628C126.276 147.388 126.499 147.196 126.76 147.073C127.526 146.726 128.363 146.562 129.203 146.594C130.043 146.627 130.864 146.856 131.601 147.263C131.94 147.413 132.233 147.65 132.452 147.95C132.67 148.249 132.805 148.601 132.844 148.97C132.83 149.259 132.737 149.538 132.576 149.778C132.415 150.018 132.192 150.21 131.931 150.333C131.279 150.683 130.549 150.86 129.809 150.846ZM128.875 147.087C128.223 147.069 127.578 147.216 126.999 147.516C126.807 147.596 126.641 147.726 126.517 147.893C126.394 148.06 126.317 148.258 126.297 148.464C126.34 148.747 126.456 149.015 126.632 149.241C126.807 149.467 127.038 149.645 127.301 149.757C127.964 150.126 128.703 150.335 129.46 150.368C130.217 150.4 130.972 150.256 131.664 149.947C131.856 149.867 132.022 149.736 132.146 149.569C132.269 149.402 132.346 149.205 132.366 148.998C132.322 148.715 132.207 148.448 132.031 148.222C131.856 147.996 131.625 147.818 131.362 147.706C130.598 147.294 129.743 147.081 128.875 147.087Z" fill="#263238"/>
<path d="M136.56 149.378C133.385 147.544 133.048 144.769 135.788 143.181C138.527 141.594 143.347 141.776 146.522 143.624C149.697 145.472 150.035 148.233 147.295 149.82C144.555 151.408 139.764 151.211 136.56 149.378Z" fill="#37474F"/>
<path d="M142.658 151.127C140.497 151.149 138.366 150.617 136.469 149.581C134.72 148.577 133.722 147.221 133.722 145.872C133.761 145.256 133.964 144.661 134.312 144.151C134.659 143.641 135.137 143.233 135.696 142.971C138.506 141.348 143.424 141.566 146.67 143.42C148.412 144.425 149.416 145.781 149.416 147.13C149.378 147.746 149.174 148.34 148.827 148.851C148.48 149.361 148.001 149.769 147.442 150.031C145.967 150.798 144.32 151.175 142.658 151.127ZM136.708 149.167C139.813 150.958 144.52 151.162 147.196 149.617C147.683 149.396 148.101 149.049 148.407 148.611C148.714 148.174 148.897 147.662 148.939 147.13C148.939 145.956 148.025 144.755 146.431 143.835C143.326 142.043 138.619 141.84 135.935 143.392C135.451 143.613 135.034 143.959 134.729 144.395C134.424 144.831 134.241 145.341 134.2 145.872C134.2 147.045 135.113 148.247 136.708 149.167Z" fill="#263238"/>
<path d="M134.509 150.684L135.823 149.926C135.922 149.875 136.031 149.849 136.142 149.849C136.254 149.849 136.363 149.875 136.462 149.926C136.652 150.038 136.673 150.2 136.511 150.298L135.198 151.078C135.099 151.128 134.989 151.155 134.878 151.155C134.767 151.155 134.657 151.128 134.558 151.078C134.369 150.944 134.347 150.776 134.509 150.684Z" fill="#37474F"/>
<path d="M130.729 147.93C130.277 147.679 129.772 147.538 129.254 147.517C128.737 147.496 128.222 147.597 127.751 147.811C126.985 148.253 127.048 149.019 127.962 149.532C128.413 149.786 128.917 149.932 129.434 149.956C129.951 149.98 130.467 149.883 130.94 149.673C131.706 149.209 131.643 148.443 130.729 147.93Z" fill="#25A171"/>
<path opacity="0.6" d="M130.729 147.93C130.277 147.679 129.772 147.538 129.254 147.517C128.737 147.496 128.222 147.597 127.751 147.811C126.985 148.253 127.048 149.019 127.962 149.532C128.413 149.786 128.917 149.932 129.434 149.956C129.951 149.98 130.467 149.883 130.94 149.673C131.706 149.209 131.643 148.443 130.729 147.93Z" fill="white"/>
<path opacity="0.3" d="M130.603 147.867C130.23 147.742 129.833 147.703 129.443 147.753C129.052 147.803 128.678 147.941 128.348 148.155C127.463 148.795 128.236 149.715 129.198 149.919C128.764 149.873 128.344 149.742 127.962 149.532C127.083 149.019 126.985 148.254 127.751 147.811C128.2 147.607 128.69 147.506 129.183 147.516C129.677 147.526 130.162 147.646 130.603 147.867Z" fill="#25A171"/>
<path opacity="0.3" d="M130.533 148.303C130.153 148.225 130.182 148.535 130.034 148.886C129.887 149.237 129.641 149.49 130.034 149.588C130.239 149.632 130.453 149.612 130.647 149.53C130.84 149.449 131.004 149.309 131.116 149.132C131.249 148.759 130.94 148.387 130.533 148.303Z" fill="white"/>
<path d="M129.985 156.796C129.533 156.543 129.028 156.399 128.511 156.377C127.993 156.355 127.478 156.455 127.006 156.67C126.24 157.112 126.304 157.878 127.217 158.391C127.67 158.642 128.175 158.784 128.692 158.804C129.209 158.825 129.724 158.724 130.196 158.51C130.94 158.103 130.863 157.302 129.985 156.796Z" fill="#25A171"/>
<path opacity="0.5" d="M129.985 156.796C129.533 156.543 129.028 156.399 128.511 156.377C127.993 156.355 127.478 156.455 127.006 156.67C126.24 157.112 126.304 157.878 127.217 158.391C127.67 158.642 128.175 158.784 128.692 158.804C129.209 158.825 129.724 158.724 130.196 158.51C130.94 158.103 130.863 157.302 129.985 156.796Z" fill="white"/>
<path opacity="0.3" d="M129.858 156.698C129.485 156.575 129.088 156.537 128.698 156.587C128.308 156.637 127.934 156.773 127.603 156.986C126.725 157.625 127.491 158.545 128.46 158.749C128.025 158.703 127.602 158.572 127.217 158.363C126.339 157.85 126.24 157.084 127.006 156.642C127.456 156.438 127.945 156.337 128.439 156.347C128.932 156.356 129.417 156.476 129.858 156.698Z" fill="#25A171"/>
<path opacity="0.3" d="M129.795 157.168C129.409 157.084 129.437 157.393 129.296 157.744C129.156 158.096 128.896 158.349 129.296 158.447C129.502 158.491 129.716 158.47 129.909 158.389C130.103 158.307 130.266 158.168 130.378 157.99C130.505 157.625 130.174 157.246 129.795 157.168Z" fill="white"/>
<path d="M124.891 157.612C124.972 156.953 124.094 156.305 122.931 156.163C121.767 156.021 120.759 156.44 120.679 157.099C120.599 157.757 121.477 158.406 122.64 158.548C123.803 158.69 124.811 158.271 124.891 157.612Z" fill="#25A171"/>
<path opacity="0.5" d="M124.891 157.612C124.972 156.953 124.094 156.305 122.931 156.163C121.767 156.021 120.759 156.44 120.679 157.099C120.599 157.757 121.477 158.406 122.64 158.548C123.803 158.69 124.811 158.271 124.891 157.612Z" fill="white"/>
<path opacity="0.3" d="M124.035 156.487C123.661 156.362 123.265 156.323 122.874 156.373C122.484 156.423 122.109 156.56 121.779 156.775C120.901 157.407 121.674 158.328 122.637 158.538C122.202 158.494 121.781 158.36 121.4 158.145C120.515 157.639 120.424 156.866 121.182 156.431C121.631 156.225 122.121 156.123 122.615 156.133C123.109 156.142 123.594 156.264 124.035 156.487Z" fill="#25A171"/>
<path opacity="0.3" d="M123.971 156.923C123.585 156.845 123.613 157.155 123.473 157.506C123.332 157.857 123.072 158.103 123.473 158.208C123.678 158.249 123.891 158.227 124.084 158.146C124.276 158.065 124.44 157.927 124.554 157.752C124.681 157.4 124.351 157.007 123.971 156.923Z" fill="white"/>
<path d="M123.747 153.185C123.295 152.931 122.79 152.788 122.272 152.766C121.755 152.744 121.239 152.844 120.768 153.059C120.002 153.501 120.065 154.267 120.979 154.78C121.431 155.031 121.937 155.172 122.454 155.193C122.971 155.214 123.486 155.113 123.957 154.899C124.723 154.471 124.618 153.698 123.747 153.185Z" fill="#25A171"/>
<path opacity="0.5" d="M123.747 153.185C123.295 152.931 122.79 152.788 122.272 152.766C121.755 152.744 121.239 152.844 120.768 153.059C120.002 153.501 120.065 154.267 120.979 154.78C121.431 155.031 121.937 155.172 122.454 155.193C122.971 155.214 123.486 155.113 123.957 154.899C124.723 154.471 124.618 153.698 123.747 153.185Z" fill="white"/>
<path opacity="0.3" d="M123.62 153.122C123.246 152.999 122.85 152.961 122.46 153.011C122.07 153.061 121.696 153.197 121.365 153.41C120.48 154.049 121.253 154.97 122.215 155.18C121.782 155.13 121.362 154.996 120.979 154.787C120.1 154.274 120.002 153.508 120.768 153.066C121.217 152.862 121.707 152.761 122.2 152.771C122.694 152.78 123.179 152.9 123.62 153.122Z" fill="#25A171"/>
<path opacity="0.3" d="M123.55 153.565C123.17 153.48 123.192 153.796 123.051 154.141C122.911 154.485 122.658 154.745 123.051 154.843C123.256 154.888 123.471 154.868 123.664 154.786C123.858 154.705 124.022 154.565 124.133 154.386C124.259 154.021 123.915 153.642 123.55 153.565Z" fill="white"/>
<path d="M129.535 153.431C129.084 153.181 128.58 153.039 128.064 153.017C127.548 152.995 127.035 153.093 126.564 153.305C125.798 153.747 125.896 154.52 126.774 155.026C127.226 155.278 127.731 155.421 128.249 155.443C128.766 155.465 129.281 155.365 129.753 155.152C130.54 154.71 130.448 153.937 129.535 153.431Z" fill="#25A171"/>
<path opacity="0.5" d="M129.535 153.431C129.084 153.181 128.58 153.039 128.064 153.017C127.548 152.995 127.035 153.093 126.564 153.305C125.798 153.747 125.896 154.52 126.774 155.026C127.226 155.278 127.731 155.421 128.249 155.443C128.766 155.465 129.281 155.365 129.753 155.152C130.54 154.71 130.448 153.937 129.535 153.431Z" fill="white"/>
<path opacity="0.3" d="M129.437 153.368C129.065 153.243 128.669 153.204 128.28 153.254C127.89 153.304 127.518 153.441 127.189 153.656C126.304 154.288 127.076 155.208 128.039 155.419C127.605 155.372 127.184 155.238 126.802 155.026C125.924 154.52 125.826 153.747 126.592 153.305C127.041 153.102 127.529 153.002 128.021 153.013C128.514 153.024 128.998 153.145 129.437 153.368Z" fill="#25A171"/>
<path opacity="0.3" d="M129.374 153.803C128.994 153.726 129.015 154.035 128.875 154.387C128.734 154.738 128.481 154.984 128.875 155.089C129.08 155.131 129.293 155.11 129.486 155.028C129.679 154.947 129.843 154.809 129.957 154.632C130.083 154.26 129.76 153.888 129.374 153.803Z" fill="white"/>
<path d="M146.072 147.502C145.62 147.251 145.114 147.109 144.597 147.089C144.08 147.068 143.565 147.169 143.094 147.382C142.328 147.825 142.391 148.591 143.305 149.104C143.757 149.355 144.262 149.496 144.78 149.517C145.297 149.538 145.812 149.437 146.283 149.223C147.049 148.78 146.951 148.015 146.072 147.502Z" fill="#25A171"/>
<path opacity="0.5" d="M146.072 147.502C145.62 147.251 145.114 147.109 144.597 147.089C144.08 147.068 143.565 147.169 143.094 147.382C142.328 147.825 142.391 148.591 143.305 149.104C143.757 149.355 144.262 149.496 144.78 149.517C145.297 149.538 145.812 149.437 146.283 149.223C147.049 148.78 146.951 148.015 146.072 147.502Z" fill="white"/>
<path opacity="0.3" d="M145.946 147.439C145.573 147.314 145.176 147.275 144.785 147.325C144.395 147.374 144.021 147.512 143.691 147.727C142.813 148.366 143.578 149.279 144.548 149.49C144.112 149.444 143.69 149.313 143.304 149.104C142.426 148.591 142.328 147.825 143.094 147.382C143.543 147.178 144.033 147.078 144.526 147.087C145.02 147.097 145.505 147.217 145.946 147.439Z" fill="#25A171"/>
<path opacity="0.3" d="M145.883 147.874C145.496 147.797 145.524 148.106 145.384 148.457C145.243 148.808 144.984 149.054 145.384 149.16C145.589 149.202 145.802 149.18 145.996 149.099C146.189 149.017 146.353 148.879 146.466 148.703C146.592 148.331 146.262 147.958 145.883 147.874Z" fill="white"/>
<path d="M140.249 147.263C139.796 147.013 139.291 146.871 138.774 146.849C138.257 146.827 137.742 146.925 137.27 147.137C136.511 147.579 136.603 148.352 137.488 148.858C137.939 149.11 138.442 149.253 138.958 149.275C139.475 149.297 139.989 149.197 140.459 148.984C141.225 148.542 141.127 147.769 140.249 147.263Z" fill="#25A171"/>
<path opacity="0.5" d="M140.249 147.263C139.796 147.013 139.291 146.871 138.774 146.849C138.257 146.827 137.742 146.925 137.27 147.137C136.511 147.579 136.603 148.352 137.488 148.858C137.939 149.11 138.442 149.253 138.958 149.275C139.475 149.297 139.989 149.197 140.459 148.984C141.225 148.542 141.127 147.769 140.249 147.263Z" fill="white"/>
<path opacity="0.3" d="M140.122 147.2C139.749 147.075 139.352 147.036 138.962 147.086C138.571 147.136 138.197 147.273 137.867 147.488C136.989 148.12 137.762 149.04 138.724 149.251C138.29 149.204 137.87 149.07 137.488 148.858C136.603 148.352 136.511 147.579 137.27 147.137C137.72 146.934 138.21 146.834 138.703 146.845C139.197 146.856 139.682 146.977 140.122 147.2Z" fill="#25A171"/>
<path opacity="0.3" d="M140.073 147.635C139.687 147.558 139.715 147.867 139.574 148.218C139.434 148.57 139.174 148.816 139.574 148.921C139.779 148.962 139.992 148.94 140.185 148.859C140.378 148.777 140.542 148.64 140.656 148.464C140.775 148.092 140.438 147.72 140.073 147.635Z" fill="white"/>
<path d="M139.827 143.905C139.377 143.651 138.873 143.508 138.356 143.486C137.84 143.464 137.326 143.564 136.855 143.779C136.09 144.221 136.188 144.987 137.066 145.5C137.519 145.751 138.024 145.892 138.541 145.913C139.059 145.934 139.573 145.833 140.045 145.619C140.811 145.177 140.712 144.411 139.827 143.905Z" fill="#25A171"/>
<path opacity="0.5" d="M139.827 143.905C139.377 143.651 138.873 143.508 138.356 143.486C137.84 143.464 137.326 143.564 136.855 143.779C136.09 144.221 136.188 144.987 137.066 145.5C137.519 145.751 138.024 145.892 138.541 145.913C139.059 145.934 139.573 145.833 140.045 145.619C140.811 145.177 140.712 144.411 139.827 143.905Z" fill="white"/>
<path opacity="0.3" d="M139.708 143.835C139.334 143.712 138.938 143.674 138.547 143.724C138.157 143.774 137.783 143.91 137.453 144.123C136.567 144.762 137.34 145.682 138.303 145.886C137.869 145.841 137.448 145.71 137.066 145.5C136.188 144.987 136.09 144.221 136.855 143.779C137.305 143.575 137.794 143.474 138.288 143.484C138.781 143.493 139.266 143.613 139.708 143.835Z" fill="#25A171"/>
<path opacity="0.3" d="M139.637 144.277C139.258 144.193 139.279 144.502 139.139 144.854C138.998 145.205 138.745 145.458 139.139 145.556C139.344 145.601 139.558 145.581 139.752 145.499C139.946 145.418 140.109 145.278 140.22 145.099C140.347 144.755 140.024 144.355 139.637 144.277Z" fill="white"/>
<path d="M145.651 144.144C145.2 143.892 144.696 143.749 144.18 143.727C143.664 143.705 143.15 143.805 142.679 144.017C141.914 144.46 141.977 145.233 142.89 145.739C143.343 145.989 143.848 146.131 144.364 146.153C144.881 146.175 145.396 146.076 145.869 145.865C146.627 145.458 146.536 144.65 145.651 144.144Z" fill="#25A171"/>
<path opacity="0.5" d="M145.651 144.144C145.2 143.892 144.696 143.749 144.18 143.727C143.664 143.705 143.15 143.805 142.679 144.017C141.914 144.46 141.977 145.233 142.89 145.739C143.343 145.989 143.848 146.131 144.364 146.153C144.881 146.175 145.396 146.076 145.869 145.865C146.627 145.458 146.536 144.65 145.651 144.144Z" fill="white"/>
<path opacity="0.3" d="M145.524 144.053C145.152 143.93 144.757 143.892 144.368 143.942C143.979 143.992 143.606 144.128 143.276 144.341C142.391 144.98 143.164 145.9 144.126 146.111C143.692 146.063 143.272 145.93 142.89 145.718C142.012 145.212 141.914 144.439 142.679 143.996C143.128 143.793 143.616 143.692 144.108 143.701C144.601 143.711 145.085 143.831 145.524 144.053Z" fill="#25A171"/>
<path opacity="0.3" d="M145.461 144.516C145.082 144.432 145.103 144.748 144.962 145.092C144.822 145.437 144.569 145.696 144.962 145.795C145.168 145.84 145.382 145.82 145.576 145.738C145.77 145.656 145.933 145.517 146.044 145.338C146.171 144.973 145.848 144.593 145.461 144.516Z" fill="white"/>
<path d="M87.567 89.439C78.4765 90.3382 76.2495 95.9162 74.4159 106.356C73.1865 113.381 71.1984 126.799 70.4678 137.119C70.1517 141.566 71.346 143.687 74.2403 145.795C79.453 149.588 91.3887 154.119 99.566 157.801C105.032 160.259 116.047 162.971 120.248 162.627C116.581 159.74 115.794 156.599 116.827 155.447C119.173 152.841 121.934 153.789 124.33 153.066C126.332 152.455 127.526 151.394 127.47 149.918C127.435 148.956 124.892 149.216 120.67 148.844C114.825 148.296 113.124 150.67 109.015 149.49C107.076 148.935 88.0658 135.44 88.0658 135.44L92.1966 110.992C92.1966 110.992 92.8288 92.3052 87.567 89.439Z" fill="#FFBDA7"/>
<path d="M88.0869 88.322C80.3592 89.446 77.5492 91.5044 75.6805 97.4547C73.9312 102.927 71.7604 116.661 70.7629 126.89C74.0296 129.918 83.0709 131.702 89.9907 129.068L93.2995 110.332C93.8335 104.171 94.0021 94.0194 88.0869 88.322Z" fill="#263238"/>
<path d="M140.417 137.828C142.159 138.369 142.483 140.161 142.616 141.236C142.639 142.62 142.782 144 143.045 145.359C143.67 147.769 146.557 148.724 146.634 146.947C146.712 145.626 147 143.814 147.084 142.233C147.168 140.652 146.824 137.983 146.03 136.69C145.236 135.398 140.326 135.412 140.417 137.828Z" fill="#FFBDA7"/>
<path d="M92.9912 52.5297C92.2923 52.4362 91.5813 52.5035 90.9123 52.7265C90.2434 52.9495 89.6341 53.3222 89.1311 53.8164C87.4841 55.5019 87.8444 58.6157 89.1311 65.7698L94.2136 66.3617L92.9912 52.5297Z" fill="#5F4D33"/>
<path d="M122.637 50.4583C123.729 50.4636 124.811 50.2447 125.815 49.8149C127.372 48.9142 127.784 50.6899 126.934 52.221C126.365 53.3234 125.524 54.2623 124.49 54.949C123.457 55.6357 122.265 56.0475 121.028 56.1455C121.028 55.9267 119.574 52.1696 119.574 52.1696L122.637 50.4583Z" fill="#5F4D33"/>
<path d="M95.3715 66.4391C94.6123 66.8894 93.5443 65.4355 92.6051 64.4576C92.2391 64.0387 91.7723 63.7201 91.2489 63.532C90.7254 63.3439 90.1626 63.2925 89.6138 63.3827C89.0649 63.4729 88.5481 63.7017 88.1124 64.0474C87.6767 64.3931 87.3363 64.8443 87.1237 65.3583C85.5797 68.6136 89.0924 72.9369 91.1511 74.3652C91.7259 74.8634 92.4432 75.1677 93.2009 75.2347C93.9586 75.3017 94.7182 75.128 95.3715 74.7383L95.9119 87.1807C96.8225 89.1765 98.2134 90.9156 99.9602 92.2426C101.707 93.5695 103.756 94.4431 105.922 94.7851C113.231 95.7758 111.725 89.7412 109.332 86.7947V82.2655C111.158 82.6589 113.035 82.7545 114.891 82.5486C115.843 82.2912 118.12 79.5505 119.587 76.4625C121.234 73.0141 123.975 66.8766 121.53 56.5058C118.957 45.363 106.939 45.0284 99.7977 49.519C92.6565 54.0096 95.3715 66.4391 95.3715 66.4391Z" fill="#FFBDA7"/>
<path d="M95.3716 67.7257C94.9985 67.7257 93.5445 65.3324 92.6052 64.4703C91.3185 63.2866 92.9912 52.5683 92.9912 52.5683C92.9912 52.5683 91.7045 48.4895 94.2779 45.8003C96.8513 43.1111 101.844 43.5486 105.485 43.4199C109.96 43.461 114.396 42.5852 118.519 40.8465C123.666 38.5948 124.091 38.2731 124.734 40.602C125.377 42.931 125.622 48.0906 122.534 51.5776L120.848 54.3183C120.848 54.3183 119.278 55.605 114.415 56.2354C109.551 56.8659 101.355 54.2282 100.261 54.0867C98.8714 53.8936 98.5626 55.2576 97.8163 58.9632C97.1987 62.1414 96.6455 67.7257 95.3716 67.7257Z" fill="#5F4D33"/>
<path d="M92.991 53.3532L88.4361 50.9085C88.7424 50.3001 89.2773 49.838 89.9236 49.6233C90.57 49.4087 91.2751 49.459 91.8845 49.7633C92.4961 50.1037 92.9527 50.6671 93.1589 51.336C93.3651 52.0049 93.3049 52.7276 92.991 53.3532Z" fill="#5F4D33"/>
<path d="M109.319 82.2397C109.319 82.2397 102.551 80.8758 100.184 79.6663C98.7921 78.9412 97.6494 77.8165 96.9025 76.4366C97.2571 77.8362 97.8918 79.1494 98.7682 80.2967C100.492 82.5099 109.319 84.1568 109.319 84.1568V82.2397Z" fill="#F28F8F" fill-opacity="0.5"/>
<path d="M109.538 66.1688C109.528 66.4361 109.44 66.6946 109.284 66.912C109.128 67.1294 108.912 67.2962 108.662 67.3916C108.412 67.487 108.139 67.5067 107.878 67.4484C107.617 67.3901 107.379 67.2563 107.193 67.0637C107.008 66.8711 106.883 66.6281 106.834 66.365C106.785 66.102 106.815 65.8304 106.92 65.5842C107.024 65.3379 107.199 65.1279 107.422 64.9802C107.645 64.8325 107.907 64.7536 108.174 64.7534C108.357 64.7568 108.537 64.796 108.704 64.869C108.872 64.9419 109.023 65.0471 109.149 65.1786C109.276 65.31 109.376 65.4651 109.442 65.635C109.509 65.8049 109.542 65.9863 109.538 66.1688Z" fill="#5F4D33"/>
<path d="M108.161 61.0479L105.253 62.6434C105.045 62.2462 105 61.7835 105.127 61.3535C105.255 60.9235 105.544 60.56 105.935 60.3402C106.127 60.2345 106.337 60.1688 106.555 60.1473C106.773 60.1258 106.992 60.1489 107.2 60.2151C107.409 60.2814 107.601 60.3894 107.767 60.5325C107.932 60.6757 108.066 60.8511 108.161 61.0479Z" fill="#5F4D33"/>
<path d="M108.702 75.2401L111.803 76.3982C111.735 76.6064 111.626 76.7988 111.482 76.964C111.338 77.1292 111.162 77.2638 110.966 77.3598C110.769 77.4559 110.555 77.5113 110.336 77.523C110.117 77.5346 109.898 77.5021 109.692 77.4275C109.277 77.2606 108.943 76.9401 108.758 76.5326C108.574 76.1251 108.553 75.6621 108.702 75.2401Z" fill="#F28F8F" fill-opacity="0.5"/>
<path d="M121.633 62.1672L118.983 60.1342C119.106 59.9544 119.266 59.8018 119.451 59.6861C119.636 59.5703 119.843 59.4938 120.059 59.4612C120.275 59.4286 120.495 59.4407 120.706 59.4967C120.917 59.5527 121.114 59.6515 121.286 59.7868C121.64 60.0621 121.873 60.4635 121.938 60.9071C122.003 61.3508 121.894 61.8023 121.633 62.1672Z" fill="#5F4D33"/>
<path d="M120.81 65.7827C120.799 66.0506 120.711 66.3096 120.554 66.5272C120.398 66.7449 120.181 66.9116 119.93 67.0066C119.679 67.1016 119.406 67.1206 119.145 67.0613C118.883 67.0019 118.645 66.8669 118.46 66.673C118.275 66.4791 118.151 66.2349 118.104 65.971C118.057 65.7071 118.089 65.4352 118.195 65.1892C118.302 64.9432 118.478 64.7341 118.703 64.5879C118.928 64.4417 119.19 64.365 119.458 64.3674C119.64 64.3707 119.82 64.41 119.986 64.4831C120.153 64.5563 120.304 64.6617 120.429 64.7933C120.555 64.9249 120.653 65.0801 120.718 65.2499C120.784 65.4198 120.815 65.6009 120.81 65.7827Z" fill="#5F4D33"/>
<path d="M114.428 65.6155L113.141 73.6831L117.619 73.1555L114.428 65.6155Z" fill="#F28F8F" fill-opacity="0.5"/>
<path d="M95.5254 63.9631L90.3701 63.8401C90.3701 63.8401 89.4735 58.7572 89.1715 55.7187C89.108 55.1348 89.0718 54.6215 89.0693 54.2351C89.0713 54.0665 89.0732 53.8979 89.0752 53.7223C89.1002 51.5727 89.2773 49.6287 91.5888 47.8007C93.1517 46.6251 94.9598 45.8175 96.8784 45.4382C96.1711 46.0844 95.5383 46.8076 94.9916 47.5943C94.5289 47.877 94.1274 48.2495 93.811 48.6899C93.4946 49.1303 93.2696 49.6296 93.1493 50.1584C93.0845 50.5646 93.0655 50.9768 93.0929 51.3872C93.0864 51.9421 93.1841 52.6037 93.2811 53.3284C93.8571 57.5786 95.5254 63.9631 95.5254 63.9631Z" fill="#455A64"/>
<path d="M97.7684 72.8977C98.3249 71.0832 98.4462 69.1632 98.1225 67.2932C97.7987 65.4231 97.0391 63.6556 95.905 62.1339C95.348 61.4208 94.6129 60.867 93.7737 60.5284C93.2597 60.3316 92.7023 60.2766 92.1597 60.3692L90.3504 60.6854C89.1114 60.9029 88.0526 61.9375 87.4361 63.6024C86.8811 65.4186 86.7612 67.3399 87.0861 69.211C87.411 71.0821 88.1716 72.8505 89.3065 74.3733C89.8656 75.0827 90.6003 75.6337 91.4378 75.9717C91.9542 76.1688 92.514 76.2238 93.0589 76.131L94.8823 75.8079C96.086 75.6041 97.1588 74.5767 97.7684 72.8977Z" fill="#37474F"/>
<path d="M91.4378 75.9715C90.6003 75.6335 89.8656 75.0825 89.3065 74.3731C88.1717 72.8503 87.411 71.0819 87.0861 69.2108C86.7612 67.3397 86.8811 65.4184 87.4362 63.6022C88.3066 61.2376 90.0901 60.1202 91.9716 60.8445C92.795 61.1865 93.5151 61.7373 94.0607 62.4425C95.1956 63.9653 95.9562 65.7337 96.2811 67.6048C96.606 69.4759 96.4861 71.3972 95.9311 73.2134C95.1027 75.5784 93.3197 76.6678 91.4378 75.9715Z" fill="#263238"/>
<path d="M95.6166 73.0765C96.1543 71.3258 96.2712 69.4729 95.9576 67.6686C95.644 65.8642 94.9089 64.1594 93.812 62.6928C92.738 61.4017 91.5287 60.8748 90.4375 61.0659L89.5434 61.2241C88.4593 61.4083 87.4933 62.3174 86.92 63.8916C86.3824 65.6418 86.265 67.4942 86.5774 69.2983C86.8897 71.1024 87.6229 72.8075 88.7176 74.2752C89.7986 75.5664 91.0079 76.0933 92.0921 75.9021L92.9931 75.751C94.0632 75.5596 95.0222 74.6574 95.6166 73.0765Z" fill="#F0F0F0"/>
<path d="M92.9248 62.8509C94.0202 64.3183 94.7544 66.0231 95.0679 67.8271C95.3814 69.6312 95.2655 71.4838 94.7294 73.2346C93.5687 76.3897 90.8866 76.8575 88.7315 74.2751C87.6369 72.8075 86.9036 71.1024 86.5913 69.2983C86.279 67.4941 86.3963 65.6418 86.9339 63.8915C88.0314 60.7357 90.7413 60.3034 92.9248 62.8509Z" fill="#E0E0E0"/>
<path d="M94.7014 73.2343C95.2413 71.4857 95.3618 69.6344 95.0532 67.8305C94.7446 66.0266 94.0154 64.3207 92.9249 62.851C91.8508 61.5669 90.6415 61.04 89.5574 61.2241C89.2547 61.2768 88.6981 61.4109 88.3954 61.4636C87.3112 61.6548 86.3523 62.557 85.772 64.131C85.236 65.8819 85.12 67.7344 85.4335 69.5385C85.7471 71.3425 86.4813 73.0474 87.5766 74.5147C88.6506 75.8058 89.8599 76.3327 90.9441 76.1415C91.2467 76.0959 91.8034 75.9548 92.1061 75.9021C93.1621 75.7176 94.121 74.8154 94.7014 73.2343Z" fill="#25A171"/>
<path opacity="0.15" d="M91.7414 63.1255C92.8356 64.5934 93.5685 66.2985 93.8808 68.1025C94.1931 69.9065 94.076 71.7588 93.539 73.5091C92.3853 76.6643 89.7032 77.132 87.5481 74.5497C86.4528 73.0823 85.7186 71.3775 85.405 69.5735C85.0915 67.7694 85.2075 65.9169 85.7435 64.166C86.9048 60.9617 89.5867 60.5151 91.7414 63.1255Z" fill="white"/>
<path d="M90.0778 66.0217C90.6553 66.7917 91.0423 67.6875 91.2071 68.6358C91.3719 69.584 91.31 70.5578 91.0263 71.4776C90.4169 73.1356 89.0089 73.3792 87.8795 72.0242C87.3036 71.2534 86.9175 70.3577 86.7527 69.4097C86.588 68.4617 86.649 67.4883 86.931 66.5683C87.5474 64.9104 88.9554 64.6668 90.0778 66.0217Z" fill="#263238"/>
<path d="M90.9463 68.0762L88.8273 69.0493L88.1695 65.1916C88.5147 65.1635 88.8612 65.2281 89.1732 65.3787C89.4852 65.5293 89.7513 65.7604 89.944 66.0482C90.4173 66.646 90.7588 67.3371 90.9463 68.0762Z" fill="#455A64"/>
<path d="M90.8925 71.5042C90.8078 71.8368 90.6361 72.1408 90.3949 72.3849C90.1538 72.6291 89.8519 72.8046 89.5205 72.8934L88.8625 69.0428L90.9815 68.0697C91.2953 69.1978 91.2643 70.3939 90.8925 71.5042Z" fill="#37474F"/>
<path d="M89.52 72.9353C89.1752 72.9656 88.8286 72.9028 88.5164 72.7533C88.2042 72.6039 87.9379 72.3733 87.7453 72.0857C87.2719 71.4864 86.9325 70.7925 86.7502 70.0508L88.8691 69.0847L89.52 72.9353Z" fill="#455A64"/>
<path d="M88.8485 69.0497L86.7296 70.0158C86.4047 68.8965 86.4185 67.7062 86.7692 66.5948C86.8565 66.2623 87.03 65.9588 87.2722 65.7149C87.5143 65.471 87.8165 65.2954 88.1483 65.2056L88.8485 69.0497Z" fill="#37474F"/>
<path d="M109.5 82L113 82.5C113.5 81.1667 114.6 78.3 115 77.5C115.4 76.7 114.5 76.1667 114 76.0001L109.5 74.5C109 74.3334 107.7 73.9001 106.5 73.5001C105.3 73.1001 105 75.0001 105 76.0001V80.5001L108.5 81.5M109.5 82V78.5L108.5 81.5M109.5 82L108.5 81.5" stroke="#5F4D33"/>
<path d="M95.6419 191.259C86.0596 185.723 70.52 185.723 60.9306 191.259V190.261C55.9217 193.155 53.5332 196.991 53.765 200.799C53.5332 204.592 55.9217 208.421 60.9306 211.336C70.5129 216.872 86.0526 216.872 95.6419 211.336C105.231 205.801 105.224 196.794 95.6419 191.259Z" fill="#25A171"/>
<path d="M95.6419 190.261C105.224 195.797 105.224 204.768 95.6419 210.297C86.0596 215.826 70.513 215.833 60.9307 210.297C51.3484 204.761 51.3484 195.797 60.9307 190.261C70.513 184.725 86.0596 184.725 95.6419 190.261Z" fill="#25A171"/>
<path opacity="0.6" d="M95.6419 190.261C105.224 195.797 105.224 204.768 95.6419 210.297C86.0596 215.826 70.513 215.833 60.9307 210.297C51.3484 204.761 51.3484 195.797 60.9307 190.261C70.513 184.725 86.0596 184.725 95.6419 190.261Z" fill="white"/>
<path d="M66.5156 194.771C59.9331 198.572 59.9331 204.74 66.5156 208.541C73.0982 212.341 83.7834 212.341 90.4011 208.541C97.0188 204.74 96.9837 198.572 90.4011 194.771C83.8186 190.971 73.1052 190.964 66.5156 194.771Z" fill="#25A171"/>
<path d="M66.5156 194.771C59.9331 198.572 59.9331 204.74 66.5156 208.541C73.0982 212.341 83.7834 212.341 90.4011 208.541C97.0188 204.74 96.9837 198.572 90.4011 194.771C83.8186 190.971 73.1052 190.964 66.5156 194.771Z" fill="#25A171"/>
<path d="M67.3305 195.235C61.1906 198.783 61.1906 204.529 67.3305 208.07C73.4705 211.611 83.4181 211.618 89.5581 208.07C95.6981 204.522 95.6981 198.783 89.5581 195.235C83.4181 191.687 73.4775 191.694 67.3305 195.235Z" fill="#25A171"/>
<path opacity="0.6" d="M67.3305 195.235C61.1906 198.783 61.1906 204.529 67.3305 208.07C73.4705 211.611 83.4181 211.618 89.5581 208.07C95.6981 204.522 95.6981 198.783 89.5581 195.235C83.4181 191.687 73.4775 191.694 67.3305 195.235Z" fill="white"/>
<path opacity="0.15" d="M102.653 201.93C102.101 200.94 101.441 200.014 100.686 199.169C99.6716 197.953 98.4888 196.889 97.1734 196.008C95.4291 194.998 93.5547 194.232 91.6025 193.732C89.4107 193.029 87.1696 192.383 84.8794 192.467C82.0694 192.572 79.5052 193.781 76.9972 194.968L64.352 200.939L58.0926 203.904C57.4884 204.192 55.985 204.606 55.2825 205.26C55.7933 206.04 56.3869 206.763 57.0528 207.417L57.2074 207.452C66.4244 209.348 75.8943 209.749 85.308 209.833C89.0313 209.868 92.7546 209.833 96.4709 209.777C100.033 207.522 102.084 204.768 102.653 201.93Z" fill="black"/>
<path d="M54.5098 203.637C54.5451 204.188 54.7775 204.708 55.1645 205.101C55.5515 205.494 56.0672 205.735 56.6173 205.78C58.1418 205.948 60.5233 206.145 63.6425 206.201C69.396 206.314 94.4547 207.248 95.649 206.475C97.5528 205.239 95.2486 202.352 95.2486 202.352L56.1818 203.054L54.5098 203.637Z" fill="#FFBDA7"/>
<path d="M85.5609 185.618C86.1546 185.298 86.814 185.12 87.4878 185.097C88.1616 185.074 88.8316 185.206 89.4458 185.484C90.38 185.914 91.213 186.537 91.8906 187.311C92.8952 188.428 94.1316 188.364 96.9768 190.381C99.822 192.397 99.6955 193.57 100.215 194.631C100.665 195.551 100.37 196.738 100.7 197.729C101.03 198.719 101.965 199.478 102.428 200.448C102.9 201.35 103.042 202.389 102.829 203.384C102.712 203.878 102.458 204.328 102.096 204.684C101.735 205.039 101.28 205.285 100.784 205.393C100.461 205.45 100.131 205.428 99.8149 205.513C99.4179 205.66 99.0386 205.851 98.6839 206.082C97.8479 206.51 96.6115 207.037 95.7966 206.567C94.806 206.005 94.6163 205.112 94.6163 203.651C94.2019 202.52 92.9865 201.382 92.284 200.398L88.1462 194.645C87.823 194.195 82.9476 187.268 82.8773 187.311L85.5609 185.618Z" fill="#F0997A"/>
<path opacity="0.1" d="M89.8673 197.04L90.4996 197.926L91.9959 200.033C92.1505 200.244 92.291 200.448 92.4455 200.644L92.4947 200.707C92.6581 200.924 92.8467 201.119 93.0567 201.291C93.3774 201.544 93.6207 201.882 93.7592 202.267C94.1107 202.691 94.3972 203.164 94.6093 203.672C94.6093 205.133 94.799 206.026 95.7895 206.588C96.6044 207.058 97.8409 206.531 98.6768 206.103C99.0315 205.872 99.4109 205.681 99.8079 205.534C100.124 205.449 100.454 205.471 100.777 205.414C101.273 205.306 101.728 205.06 102.089 204.705C102.451 204.349 102.705 203.899 102.822 203.405C103.035 202.41 102.893 201.371 102.421 200.469C102.172 200.002 101.875 199.561 101.536 199.155C101.689 199.509 101.728 199.903 101.647 200.28C101.567 200.658 101.371 201.001 101.086 201.262C100.342 201.733 97.9462 201.473 96.9697 200.96C95.9932 200.448 96.3726 198.853 96.0705 198.108C95.7684 197.364 94.3494 196.816 94.6093 195.256C94.8692 193.696 93.9068 192.495 91.6306 191.743C89.3545 190.992 89.0313 190.05 88.118 189.011C87.2048 187.971 84.6898 187.676 82.8703 187.332C82.9405 187.289 87.7879 194.202 88.1391 194.666C88.7222 195.446 89.2913 196.247 89.8673 197.04Z" fill="black"/>
<path d="M82.8773 187.311C85.2438 188.657 87.4218 190.31 89.3545 192.228L89.4317 192.305L89.6917 192.572C92.8249 195.867 94.6093 199.654 94.6093 203.672H54.5659L57.376 202.035L58.4228 201.431L58.5562 201.354L82.8773 187.311Z" fill="#FFBDA7"/>
<path opacity="0.3" d="M82.8773 187.311C85.2438 188.657 87.4218 190.31 89.3545 192.228L89.4317 192.305L89.6917 192.572C92.8249 195.867 94.6093 199.654 94.6093 203.672H54.5659L57.376 202.035L58.4228 201.431L58.5562 201.354L82.8773 187.311Z" fill="white"/>
<path d="M69.1361 197.462C69.6432 197.73 70.0608 198.14 70.3374 198.642C70.8011 199.563 70.4006 200.602 69.1361 201.333C68.0963 201.859 66.9471 202.134 65.7816 202.134C64.6161 202.134 63.4669 201.859 62.4271 201.333C62.0229 201.165 61.6756 200.884 61.4265 200.524C61.1774 200.164 61.037 199.74 61.0221 199.303C61.0829 198.903 61.2434 198.524 61.489 198.202C61.7346 197.881 62.0572 197.626 62.4271 197.462C63.4669 196.936 64.6161 196.661 65.7816 196.661C66.9471 196.661 68.0963 196.936 69.1361 197.462Z" fill="#B16668"/>
<path d="M80.5731 197.033C81.3511 197.019 82.1264 197.128 82.8703 197.356C84.3456 197.806 85.3572 198.698 85.3853 199.724C85.3853 201.234 83.334 202.478 80.7136 202.499C79.4875 202.546 78.2722 202.254 77.201 201.656C76.8411 201.486 76.5305 201.227 76.2982 200.904C76.0659 200.581 75.9197 200.204 75.8732 199.808C75.8662 198.298 77.9527 197.09 80.5731 197.033Z" fill="#B16668"/>
<path d="M85.0129 189.362C85.7907 189.352 86.5654 189.461 87.3102 189.685C88.7854 190.135 89.7971 191.027 89.8252 192.06C89.8252 193.563 87.7738 194.806 85.1534 194.828C83.9286 194.871 82.7149 194.582 81.6409 193.992C81.2826 193.818 80.9738 193.558 80.7429 193.233C80.5121 192.909 80.3667 192.532 80.3201 192.137C80.3061 190.598 82.3926 189.362 85.0129 189.362Z" fill="#B16668"/>
<path d="M51.1096 185.667V158.564H34.7059V185.667C34.6356 186.931 35.4084 188.203 37.0944 189.179C40.3049 191.034 45.5246 191.034 48.7 189.179C50.386 188.203 51.1728 186.931 51.1096 185.667Z" fill="#EBEBEB"/>
<path d="M42.9112 163.298C47.4429 163.298 51.1165 161.179 51.1165 158.564C51.1165 155.949 47.4429 153.829 42.9112 153.829C38.3794 153.829 34.7058 155.949 34.7058 158.564C34.7058 161.179 38.3794 163.298 42.9112 163.298Z" fill="#FAFAFA"/>
<path d="M37.4667 161.641C39.1604 162.479 41.0248 162.915 42.9147 162.915C44.8046 162.915 46.669 162.479 48.3627 161.641C51.3695 159.941 51.3695 157.187 48.3627 155.487C46.669 154.648 44.8046 154.212 42.9147 154.212C41.0248 154.212 39.1604 154.648 37.4667 155.487C34.4599 157.187 34.4599 159.941 37.4667 161.641Z" fill="#EBEBEB"/>
<path d="M48.3627 156.28C46.669 155.442 44.8046 155.006 42.9147 155.006C41.0248 155.006 39.1605 155.442 37.4667 156.28C36.8407 156.396 36.275 156.728 35.8679 157.218C35.4607 157.707 35.2378 158.324 35.2378 158.96C35.2378 159.597 35.4607 160.214 35.8679 160.703C36.275 161.193 36.8407 161.525 37.4667 161.641C39.1605 162.479 41.0248 162.915 42.9147 162.915C44.8046 162.915 46.669 162.479 48.3627 161.641C49.6835 160.889 50.4281 159.941 50.5827 158.964C50.4281 157.98 49.6835 157.046 48.3627 156.28Z" fill="#F5F5F5"/>
<path d="M34.7059 182.899C34.7059 184.121 35.4997 185.343 37.1085 186.271C40.319 188.118 45.5387 188.118 48.714 186.271C50.3158 185.343 51.1166 184.163 51.1166 182.92V161.261C51.1166 162.476 50.3158 163.685 48.714 164.612C45.5106 166.46 40.2839 166.46 37.1085 164.612C35.4997 163.678 34.6989 162.455 34.7059 161.233V182.899Z" fill="#25A171"/>
<path opacity="0.3" d="M34.7059 182.899C34.7059 184.121 35.4997 185.343 37.1085 186.271C40.319 188.118 45.5387 188.118 48.714 186.271C50.3158 185.343 51.1166 184.163 51.1166 182.92V161.261C51.1166 162.476 50.3158 163.685 48.714 164.612C45.5106 166.46 40.2839 166.46 37.1085 164.612C35.4997 163.678 34.6989 162.455 34.7059 161.233V182.899Z" fill="white"/>
<path opacity="0.05" d="M46.2762 190.135C43.2554 190.914 39.5883 190.598 37.1435 189.165C35.4716 188.203 34.6847 186.931 34.748 185.653V158.564C34.748 159.779 35.5559 160.987 37.1576 161.915C37.4104 162.064 37.6733 162.195 37.9444 162.308V187.662C37.9023 189.032 42.4756 190.661 46.2762 190.135Z" fill="black"/>
<path d="M47.0139 159.28C45.8618 158.613 44.3022 158.437 43.5014 158.88C42.7005 159.322 43.0377 160.228 44.2039 160.896C45.356 161.563 46.9156 161.739 47.7164 161.289C48.5173 160.84 48.1871 159.947 47.0139 159.28Z" fill="#455A64"/>
<path d="M43.972 157.826L42.567 157.011C41.4148 156.344 39.8553 156.168 39.0544 156.611C38.2535 157.053 38.5907 157.96 39.7569 158.627L41.1619 159.442C42.3141 160.109 43.8807 160.285 44.6745 159.842C45.4684 159.4 45.096 158.493 43.972 157.826ZM41.2111 157.826C40.9742 157.944 40.7134 158.005 40.4489 158.005C40.1844 158.005 39.9235 157.944 39.6867 157.826C39.5957 157.793 39.5171 157.733 39.4615 157.654C39.406 157.575 39.3762 157.48 39.3762 157.383C39.3762 157.287 39.406 157.192 39.4615 157.113C39.5171 157.034 39.5957 156.974 39.6867 156.941C39.9235 156.823 40.1844 156.762 40.4489 156.762C40.7134 156.762 40.9742 156.823 41.2111 156.941C41.3121 156.971 41.3999 157.035 41.4605 157.121C41.5211 157.207 41.5509 157.312 41.5452 157.417C41.5396 157.522 41.4987 157.622 41.4292 157.702C41.3597 157.781 41.2656 157.835 41.1619 157.854L41.2111 157.826ZM44.0212 159.287C43.7831 159.405 43.521 159.466 43.2554 159.466C42.9898 159.466 42.7278 159.405 42.4897 159.287C42.3987 159.254 42.3201 159.194 42.2646 159.115C42.209 159.036 42.1792 158.941 42.1792 158.845C42.1792 158.748 42.209 158.654 42.2646 158.574C42.3201 158.495 42.3987 158.435 42.4897 158.402C42.7249 158.3 42.98 158.251 43.2364 158.26C43.4928 158.268 43.7441 158.334 43.972 158.451C44.0563 158.488 44.1281 158.548 44.1786 158.625C44.229 158.702 44.2559 158.791 44.2559 158.883C44.2559 158.975 44.229 159.065 44.1786 159.142C44.1281 159.219 44.0563 159.279 43.972 159.315L44.0212 159.287Z" fill="#EBEBEB"/>
<path d="M50.1261 183.707L46.7329 181.971L44.52 183.215L41.0425 180.861L42.5108 178.185L45.3209 181.121L46.8313 180.046L50.1261 183.707Z" fill="#455A64"/>
<path d="M40.2346 172.038L43.9368 176.899L45.7072 176.049L46.5994 179.379L48.0606 178.459L49.8801 182.175L49.2057 175.571L47.604 176.646L47.1122 172.248L44.7096 173.52L44.0352 169.53L40.2346 172.038Z" fill="#455A64"/>
<path d="M40.5789 175.972C40.5611 175.987 40.5388 175.995 40.5156 175.995C40.4925 175.995 40.4701 175.987 40.4524 175.972L40.3892 175.916C40.3062 175.844 40.2003 175.805 40.0906 175.805C39.981 175.805 39.875 175.844 39.792 175.916L39.7569 176.014C39.7497 176.023 39.7406 176.03 39.7302 176.035C39.7199 176.04 39.7086 176.042 39.6972 176.042C39.6858 176.042 39.6745 176.04 39.6642 176.035C39.6539 176.03 39.6447 176.023 39.6375 176.014C39.6296 176.006 39.6234 175.997 39.6191 175.987C39.6149 175.977 39.6127 175.966 39.6127 175.954C39.6127 175.943 39.6149 175.932 39.6191 175.922C39.6234 175.912 39.6296 175.903 39.6375 175.895L39.6867 175.824C39.7598 175.742 39.8001 175.636 39.8001 175.526C39.8001 175.416 39.7598 175.31 39.6867 175.227L39.6234 175.164C39.6103 175.147 39.6032 175.126 39.6032 175.104C39.6032 175.083 39.6103 175.062 39.6234 175.045C39.6412 175.03 39.6635 175.022 39.6867 175.022C39.7098 175.022 39.7322 175.03 39.7499 175.045L39.8201 175.101C39.9031 175.173 40.0091 175.212 40.1187 175.212C40.2284 175.212 40.3343 175.173 40.4173 175.101L40.4805 175.038C40.4977 175.025 40.5186 175.017 40.5402 175.017C40.5618 175.017 40.5828 175.025 40.5999 175.038C40.6078 175.045 40.614 175.055 40.6183 175.065C40.6225 175.075 40.6247 175.086 40.6247 175.097C40.6247 175.108 40.6225 175.119 40.6183 175.13C40.614 175.14 40.6078 175.149 40.5999 175.157L40.5508 175.227C40.4791 175.31 40.4396 175.416 40.4396 175.526C40.4396 175.636 40.4791 175.742 40.5508 175.824L40.614 175.888C40.6148 175.903 40.6121 175.919 40.606 175.934C40.6 175.948 40.5907 175.961 40.5789 175.972ZM39.8763 175.677C39.9841 175.645 40.0988 175.645 40.2065 175.677C40.1786 175.569 40.1786 175.455 40.2065 175.347C40.0983 175.375 39.9846 175.375 39.8763 175.347C39.9198 175.451 39.932 175.566 39.9115 175.677H39.8763Z" fill="#455A64"/>
<path d="M41.3376 178.122C41.2566 178.201 41.154 178.255 41.0425 178.276C40.9311 178.298 40.8158 178.286 40.7111 178.242C40.6064 178.198 40.5171 178.124 40.4542 178.03C40.3914 177.935 40.3579 177.824 40.3579 177.711C40.3579 177.597 40.3914 177.486 40.4542 177.392C40.5171 177.297 40.6064 177.223 40.7111 177.179C40.8158 177.135 40.9311 177.123 41.0425 177.145C41.154 177.166 41.2566 177.22 41.3376 177.3C41.4461 177.409 41.5071 177.557 41.5071 177.711C41.5071 177.865 41.4461 178.012 41.3376 178.122ZM40.6351 177.461C40.5977 177.498 40.568 177.542 40.5477 177.59C40.5275 177.638 40.517 177.69 40.517 177.742C40.517 177.795 40.5275 177.846 40.5477 177.895C40.568 177.943 40.5977 177.987 40.6351 178.023C40.6909 178.08 40.7622 178.119 40.84 178.134C40.9179 178.15 40.9987 178.143 41.0722 178.113C41.1457 178.083 41.2086 178.031 41.2529 177.965C41.2972 177.899 41.3208 177.822 41.3208 177.742C41.3208 177.663 41.2972 177.585 41.2529 177.519C41.2086 177.453 41.1457 177.402 41.0722 177.372C40.9987 177.342 40.9179 177.334 40.84 177.35C40.7622 177.366 40.6909 177.405 40.6351 177.461Z" fill="#455A64"/>
<path d="M38.2887 177.777C38.2802 177.786 38.2698 177.794 38.2584 177.799C38.2469 177.804 38.2345 177.806 38.222 177.806C38.2095 177.806 38.1971 177.804 38.1856 177.799C38.1741 177.794 38.1638 177.786 38.1552 177.777L37.9375 177.574C37.9248 177.557 37.9184 177.536 37.9193 177.515C37.9202 177.494 37.9284 177.474 37.9425 177.458C37.9565 177.442 37.9756 177.432 37.9965 177.429C38.0174 177.425 38.0387 177.429 38.0569 177.44L38.2817 177.644C38.2995 177.661 38.3101 177.684 38.3114 177.709C38.3127 177.734 38.3046 177.758 38.2887 177.777Z" fill="#455A64"/>
<path d="M38.2957 178.037L38.092 178.255C38.0751 178.268 38.0543 178.274 38.0332 178.273C38.0122 178.272 37.992 178.264 37.9763 178.25C37.9606 178.236 37.9502 178.217 37.9469 178.196C37.9437 178.175 37.9478 178.154 37.9585 178.136L38.1622 177.911C38.18 177.896 38.2023 177.888 38.2255 177.888C38.2486 177.888 38.271 177.896 38.2887 177.911C38.3046 177.928 38.314 177.95 38.3153 177.973C38.3165 177.996 38.3096 178.019 38.2957 178.037Z" fill="#455A64"/>
<path d="M38.7874 178.241C38.7686 178.256 38.745 178.265 38.7207 178.265C38.6964 178.265 38.6728 178.256 38.654 178.241L38.4362 178.037C38.4194 178.019 38.4101 177.995 38.4101 177.97C38.4101 177.946 38.4194 177.922 38.4362 177.904C38.4532 177.887 38.4758 177.878 38.4994 177.878C38.523 177.878 38.5456 177.887 38.5626 177.904L38.7874 178.107C38.8042 178.126 38.8135 178.149 38.8135 178.174C38.8135 178.199 38.8042 178.223 38.7874 178.241Z" fill="#455A64"/>
<path d="M38.7524 177.539L38.5486 177.756C38.5408 177.765 38.5314 177.771 38.521 177.776C38.5105 177.781 38.4993 177.783 38.4879 177.783C38.4765 177.784 38.4651 177.782 38.4544 177.778C38.4438 177.774 38.434 177.768 38.4257 177.76C38.4174 177.752 38.4107 177.743 38.406 177.732C38.4014 177.722 38.3988 177.71 38.3985 177.699C38.3981 177.688 38.4001 177.676 38.4041 177.666C38.4082 177.655 38.4143 177.645 38.4222 177.637L38.6259 177.412C38.6436 177.397 38.666 177.389 38.6891 177.389C38.7123 177.389 38.7346 177.397 38.7524 177.412C38.7672 177.43 38.7754 177.452 38.7754 177.475C38.7754 177.498 38.7672 177.521 38.7524 177.539Z" fill="#455A64"/>
<path d="M48.6578 172.839C48.5171 172.778 48.4063 172.664 48.3496 172.522C48.293 172.38 48.2952 172.221 48.3557 172.08C48.4163 171.939 48.5302 171.829 48.6725 171.772C48.8148 171.715 48.9738 171.717 49.1145 171.778C49.2551 171.839 49.366 171.953 49.4226 172.095C49.4793 172.237 49.4771 172.396 49.4165 172.537C49.356 172.677 49.242 172.788 49.0997 172.845C48.9575 172.902 48.7985 172.899 48.6578 172.839ZM49.0442 171.947C48.9969 171.925 48.9456 171.913 48.8934 171.911C48.8413 171.909 48.7893 171.918 48.7408 171.937C48.6922 171.956 48.648 171.985 48.6108 172.022C48.5736 172.058 48.5442 172.102 48.5243 172.15C48.49 172.198 48.4667 172.252 48.456 172.309C48.4453 172.367 48.4476 172.426 48.4626 172.483C48.4776 172.539 48.5051 172.591 48.5429 172.636C48.5807 172.681 48.628 172.716 48.6813 172.74C48.7346 172.764 48.7926 172.776 48.851 172.775C48.9095 172.773 48.9669 172.759 49.0192 172.733C49.0714 172.707 49.1172 172.669 49.1531 172.623C49.189 172.577 49.2142 172.524 49.2269 172.466C49.2494 172.42 49.2626 172.37 49.2657 172.319C49.2687 172.268 49.2615 172.217 49.2445 172.168C49.2275 172.12 49.201 172.075 49.1666 172.037C49.1322 171.999 49.0906 171.968 49.0442 171.947Z" fill="#455A64"/>
<path d="M48.0045 169.839C47.9834 169.828 47.9672 169.81 47.9593 169.788C47.9515 169.766 47.9526 169.741 47.9623 169.72L48.0818 169.439C48.0851 169.426 48.0913 169.413 48.0999 169.403C48.1085 169.392 48.1193 169.384 48.1315 169.378C48.1438 169.373 48.1571 169.37 48.1706 169.37C48.1842 169.37 48.1975 169.373 48.2097 169.379C48.2219 169.385 48.2326 169.393 48.2411 169.403C48.2497 169.414 48.2557 169.426 48.259 169.439C48.2622 169.452 48.2625 169.466 48.2598 169.479C48.257 169.493 48.2514 169.505 48.2433 169.516L48.1239 169.79C48.1146 169.812 48.0968 169.83 48.0744 169.839C48.052 169.848 48.0268 169.848 48.0045 169.839Z" fill="#455A64"/>
<path d="M47.7726 169.93L47.4916 169.811C47.4762 169.795 47.4671 169.774 47.4658 169.752C47.4645 169.73 47.4711 169.709 47.4845 169.691C47.4883 169.68 47.4945 169.669 47.5028 169.66C47.5112 169.651 47.5214 169.644 47.5328 169.639C47.5442 169.634 47.5564 169.632 47.5687 169.633C47.581 169.633 47.593 169.636 47.604 169.642L47.8779 169.762C47.899 169.772 47.9152 169.791 47.9231 169.813C47.9309 169.835 47.9299 169.86 47.9201 169.881C47.9266 169.901 47.9251 169.922 47.9159 169.94C47.9066 169.959 47.8905 169.973 47.8709 169.979C47.8513 169.986 47.83 169.984 47.8116 169.975C47.7931 169.966 47.7791 169.95 47.7726 169.93Z" fill="#455A64"/>
<path d="M47.7375 170.457C47.7258 170.453 47.715 170.447 47.7059 170.439C47.6969 170.431 47.6897 170.42 47.6851 170.409C47.6804 170.398 47.6782 170.385 47.6788 170.373C47.6794 170.361 47.6826 170.349 47.6883 170.338L47.8077 170.064C47.8184 170.043 47.8363 170.026 47.8583 170.017C47.8802 170.008 47.9047 170.007 47.9272 170.015C47.9495 170.024 47.9673 170.042 47.9765 170.064C47.9857 170.087 47.9857 170.112 47.9763 170.134L47.8569 170.408C47.8476 170.43 47.8298 170.448 47.8074 170.457C47.785 170.467 47.7599 170.466 47.7375 170.457Z" fill="#455A64"/>
<path d="M48.3909 170.197L48.1169 170.078C48.1052 170.074 48.0944 170.068 48.0853 170.06C48.0763 170.051 48.0691 170.041 48.0645 170.03C48.0598 170.018 48.0576 170.006 48.0582 169.994C48.0588 169.981 48.062 169.969 48.0677 169.958C48.0783 169.937 48.0967 169.921 48.1189 169.913C48.1412 169.905 48.1656 169.907 48.1871 169.916L48.4611 170.036C48.4729 170.039 48.4836 170.046 48.4927 170.054C48.5017 170.062 48.5089 170.073 48.5136 170.084C48.5182 170.095 48.5204 170.108 48.5198 170.12C48.5193 170.132 48.516 170.144 48.5103 170.155C48.4997 170.176 48.4813 170.192 48.4591 170.2C48.4368 170.208 48.4124 170.207 48.3909 170.197Z" fill="#455A64"/>
<path d="M43.143 183.84C43.1508 183.861 43.1508 183.884 43.143 183.904C43.1353 183.925 43.1203 183.942 43.1009 183.953L43.0166 183.995C42.9201 184.044 42.8445 184.127 42.8033 184.227C42.7621 184.328 42.758 184.44 42.7918 184.543V184.627C42.7975 184.649 42.7958 184.671 42.7868 184.692C42.7779 184.712 42.7623 184.729 42.7426 184.739C42.7211 184.749 42.6966 184.75 42.6744 184.742C42.6521 184.734 42.6338 184.718 42.6232 184.697V184.62C42.5733 184.522 42.4901 184.444 42.3884 184.402C42.2866 184.359 42.1731 184.354 42.0682 184.388H41.9839C41.9623 184.394 41.9395 184.392 41.9191 184.383C41.8986 184.374 41.8819 184.359 41.8715 184.339C41.8637 184.318 41.8637 184.295 41.8715 184.275C41.8792 184.254 41.8942 184.237 41.9136 184.227L41.9909 184.184C42.0892 184.135 42.1665 184.051 42.209 183.95C42.2515 183.848 42.2564 183.734 42.2227 183.629V183.552C42.2155 183.531 42.2165 183.507 42.2256 183.486C42.2347 183.466 42.2512 183.449 42.2719 183.44C42.2934 183.43 42.3178 183.429 42.3401 183.437C42.3624 183.445 42.3807 183.461 42.3913 183.482V183.559C42.4412 183.657 42.5249 183.734 42.6268 183.775C42.7288 183.817 42.8422 183.82 42.9463 183.784H43.0306C43.053 183.777 43.0771 183.779 43.098 183.79C43.1189 183.8 43.135 183.818 43.143 183.84ZM42.5951 184.318C42.6075 184.207 42.6514 184.102 42.7215 184.016C42.6098 183.999 42.5038 183.956 42.4124 183.889C42.3975 183.999 42.3539 184.104 42.2859 184.191C42.3886 184.21 42.4851 184.253 42.567 184.318H42.5951Z" fill="#455A64"/>
<path d="M46.9506 183.882C46.9929 183.988 47.0031 184.103 46.98 184.214C46.9569 184.325 46.9015 184.427 46.8207 184.507C46.7399 184.587 46.6374 184.641 46.526 184.662C46.4146 184.684 46.2992 184.672 46.1945 184.629C46.0897 184.585 46.0002 184.511 45.9371 184.417C45.874 184.323 45.8402 184.212 45.84 184.098C45.8397 183.985 45.873 183.874 45.9356 183.779C45.9982 183.684 46.0874 183.61 46.1919 183.566C46.3347 183.51 46.4937 183.511 46.6354 183.57C46.777 183.629 46.8901 183.741 46.9506 183.882ZM46.0514 184.255C46.0919 184.352 46.1692 184.43 46.2666 184.47C46.3639 184.511 46.4734 184.512 46.5713 184.472C46.6675 184.431 46.7435 184.353 46.7829 184.256C46.8223 184.158 46.822 184.05 46.782 183.953C46.7721 183.894 46.7489 183.838 46.7143 183.79C46.6796 183.741 46.6345 183.701 46.5822 183.673C46.5299 183.644 46.4718 183.628 46.4123 183.626C46.3528 183.623 46.2935 183.634 46.2388 183.657C46.1841 183.681 46.1355 183.716 46.0965 183.761C46.0576 183.806 46.0294 183.86 46.0141 183.917C45.9987 183.975 45.9967 184.035 46.008 184.093C46.0193 184.152 46.0438 184.207 46.0795 184.255H46.0514Z" fill="#455A64"/>
<path d="M44.3864 185.92C44.394 185.942 44.3932 185.967 44.3842 185.989C44.3752 186.01 44.3585 186.028 44.3373 186.039L44.0563 186.151C44.0459 186.157 44.0343 186.16 44.0225 186.161C44.0106 186.162 43.9988 186.159 43.9879 186.155C43.9771 186.15 43.9674 186.143 43.9598 186.134C43.9521 186.125 43.9467 186.114 43.9439 186.102C43.9341 186.081 43.933 186.056 43.9409 186.034C43.9487 186.012 43.9649 185.993 43.986 185.983L44.267 185.87C44.2779 185.865 44.29 185.861 44.3022 185.861C44.3145 185.86 44.3268 185.863 44.3382 185.867C44.3496 185.872 44.3598 185.879 44.3681 185.888C44.3765 185.897 44.3827 185.908 44.3864 185.92Z" fill="#455A64"/>
<path d="M44.6183 186.018L44.7377 186.292C44.7453 186.314 44.7445 186.339 44.7355 186.361C44.7265 186.383 44.7098 186.401 44.6886 186.411C44.6777 186.417 44.6656 186.42 44.6533 186.421C44.641 186.421 44.6288 186.419 44.6174 186.415C44.606 186.41 44.5958 186.403 44.5875 186.394C44.5791 186.385 44.5729 186.374 44.5691 186.362L44.4567 186.081C44.4521 186.071 44.4494 186.06 44.449 186.049C44.4486 186.038 44.4504 186.027 44.4543 186.016C44.4582 186.006 44.4642 185.996 44.4718 185.988C44.4795 185.98 44.4887 185.973 44.4989 185.969C44.5098 185.963 44.5218 185.96 44.5341 185.959C44.5464 185.959 44.5587 185.961 44.5701 185.965C44.5815 185.97 44.5917 185.977 44.6 185.986C44.6083 185.995 44.6146 186.006 44.6183 186.018Z" fill="#455A64"/>
<path d="M45.0117 185.66C45.0175 185.67 45.0207 185.682 45.0213 185.693C45.0218 185.705 45.0196 185.717 45.0149 185.728C45.0101 185.739 45.0029 185.748 44.9939 185.756C44.9848 185.764 44.9741 185.769 44.9626 185.772L44.6815 185.891C44.6712 185.897 44.6596 185.9 44.6477 185.901C44.6359 185.902 44.6241 185.899 44.6132 185.895C44.6023 185.89 44.5927 185.883 44.5851 185.874C44.5774 185.865 44.572 185.854 44.5691 185.842C44.5634 185.831 44.5602 185.819 44.5596 185.807C44.5591 185.795 44.5612 185.782 44.5659 185.771C44.5706 185.76 44.5777 185.749 44.5868 185.741C44.5958 185.733 44.6066 185.727 44.6183 185.723L44.8923 185.61C44.9032 185.605 44.9152 185.601 44.9275 185.601C44.9398 185.6 44.9521 185.602 44.9635 185.607C44.9749 185.612 44.9851 185.619 44.9934 185.628C45.0018 185.637 45.008 185.648 45.0117 185.66Z" fill="#455A64"/>
<path d="M44.3583 185.386L44.4778 185.667C44.4853 185.689 44.4846 185.714 44.4755 185.736C44.4665 185.758 44.4498 185.776 44.4286 185.786C44.4175 185.791 44.4056 185.793 44.3936 185.793C44.3816 185.793 44.3698 185.791 44.3587 185.786C44.3476 185.782 44.3375 185.775 44.329 185.767C44.3205 185.758 44.3138 185.748 44.3091 185.737L44.1897 185.456C44.1825 185.435 44.1835 185.411 44.1926 185.39C44.2017 185.37 44.2182 185.353 44.2389 185.344C44.2604 185.334 44.2848 185.333 44.3071 185.341C44.3294 185.349 44.3477 185.365 44.3583 185.386Z" fill="#455A64"/>
<path d="M172 8.75V2.5H179.5V3.75H180.75V8.75H178.25V3.75H174.5V8.75H172ZM183.25 8.75V7.5H182V3.75H183.25V2.5H189.5V3.75H190.75V6.25H184.5V7.5H189.5V8.75H183.25ZM184.5 5H188.25V3.75H184.5V5ZM194.5 7.5H195.75V8.75H193.25V7.5H192V2.5H194.5V7.5ZM197 2.5V7.5H195.75V2.5H197ZM200.75 2.5V7.5H199.5V8.75H197V7.5H198.25V2.5H200.75ZM215.75 3.75H217V5H215.75V8.75H213.25V2.5H215.75V3.75ZM220.75 2.5V3.75H217V2.5H220.75ZM223.25 8.75V7.5H222V3.75H223.25V2.5H229.5V3.75H230.75V6.25H224.5V7.5H229.5V8.75H223.25ZM224.5 5H228.25V3.75H224.5V5ZM233.25 8.75V7.5H232V3.75H233.25V2.5H240.75V3.75H234.5V7.5H240.75V8.75H233.25ZM243.25 8.75V7.5H242V3.75H243.25V2.5H249.5V3.75H250.75V7.5H249.5V8.75H243.25ZM244.5 7.5H248.25V3.75H244.5V7.5ZM255.75 3.75H257V5H255.75V8.75H253.25V2.5H255.75V3.75ZM260.75 2.5V3.75H257V2.5H260.75ZM263.25 8.75V7.5H262V3.75H263.25V2.5H268.25V0H270.75V8.75H263.25ZM264.5 7.5H268.25V3.75H264.5V7.5Z" fill="white"/>
<path d="M209.25 51.75V43H211.75V50.5H216.75V51.75H209.25ZM219.25 51.75V50.5H218V46.75H219.25V45.5H225.5V46.75H226.75V49.25H220.5V50.5H225.5V51.75H219.25ZM220.5 48H224.25V46.75H220.5V48ZM231.75 51.75V50.5H230.5V49.25H229.25V45.5H231.75V49.25H234.25V45.5H236.75V49.25H235.5V50.5H234.25V51.75H231.75ZM239.25 51.75V50.5H238V46.75H239.25V45.5H245.5V46.75H246.75V49.25H240.5V50.5H245.5V51.75H239.25ZM240.5 48H244.25V46.75H240.5V48ZM249.25 51.75V50.5H251.75V44.25H250.5V43H254.25V50.5H256.75V51.75H249.25ZM269.25 51.75V50.5H268V45.5H270.5V50.5H274.25V45.5H276.75V51.75H269.25ZM278 53V45.5H285.5V46.75H286.75V49.25H285.5V50.5H280.5V53H278ZM280.5 49.25H284.25V46.75H280.5V49.25Z" fill="white"/>
</svg>
