<svg width="40" height="40" viewBox="0 0 40 40" fill="none" xmlns="http://www.w3.org/2000/svg">
<path d="M28.3333 27.4499V12.3166L18.3333 19.8832M3.7 15.3166C3.4581 15.0579 3.32078 14.7187 3.31462 14.3646C3.30847 14.0106 3.43391 13.6668 3.66667 13.3999L5.66667 11.5499C6 11.2499 6.81667 11.1166 7.41667 11.5499L13.1167 15.8999L26.3333 3.81655C26.8667 3.28322 27.7833 3.06655 28.8333 3.61655L35.5 6.79988C36.1 7.14988 36.6667 7.69988 36.6667 8.71655V31.2166C36.6667 31.8832 36.1833 32.5999 35.6667 32.8832L28.3333 36.3832C27.8 36.5999 26.8 36.3999 26.45 36.0499L13.0833 23.8832L7.41667 28.2166C6.78333 28.6499 6 28.5332 5.66667 28.2166L3.66667 26.3832C3.13333 25.8332 3.2 24.9332 3.75 24.3832L8.75 19.8832" fill="white"/>
</svg>
