<svg width="50" height="50" viewBox="0 0 50 50" fill="none" xmlns="http://www.w3.org/2000/svg">
<g clip-path="url(#clip0_70_25)">
<path d="M48.2266 5.38746L37.9406 0.43902C37.3589 0.157184 36.7037 0.0636698 36.0664 0.171486C35.429 0.279302 34.8411 0.583087 34.3844 1.04058L14.6828 19.0171L6.09687 12.5062C5.7102 12.2106 5.23202 12.0601 4.74573 12.0809C4.25944 12.1018 3.7959 12.2926 3.43594 12.6203L0.685937 15.1265C0.470996 15.3208 0.299042 15.5578 0.181113 15.8224C0.0631829 16.087 0.00188295 16.3734 0.0011473 16.6631C0.000411636 16.9528 0.0602565 17.2394 0.176841 17.5046C0.293425 17.7698 0.464173 18.0078 0.678124 18.2031L8.125 24.9984L0.678124 31.7937C0.464173 31.989 0.293425 32.2269 0.176841 32.4921C0.0602565 32.7574 0.000411636 33.044 0.0011473 33.3337C0.00188295 33.6234 0.0631829 33.9098 0.181113 34.1744C0.299042 34.439 0.470996 34.676 0.685937 34.8703L3.43594 37.3765C3.7959 37.7041 4.25944 37.895 4.74573 37.9159C5.23202 37.9367 5.7102 37.7862 6.09687 37.4906L14.6828 30.9718L34.3937 48.9562C34.8488 49.4137 35.4354 49.7175 36.0716 49.8254C36.7078 49.9332 37.3618 49.8397 37.9422 49.5578L48.2375 44.6015C48.7677 44.3468 49.2149 43.9472 49.5273 43.4489C49.8398 42.9506 50.0048 42.3741 50.0031 41.7859V8.19996C50.0031 7.00308 49.3109 5.90465 48.2297 5.38433L48.2266 5.38746ZM37.5078 36.3531L22.55 25L37.5078 13.6468V36.3531Z" fill="black"/>
</g>
<defs>
<clipPath id="clip0_70_25">
<rect width="50" height="50" fill="white"/>
</clipPath>
</defs>
</svg>
