<svg width="34" height="34" viewBox="0 0 34 34" fill="none" xmlns="http://www.w3.org/2000/svg">
<path d="M29.0726 17.0014L33.9985 11.7484L26.7683 10.2482L27.5057 3.24417L20.7283 6.07183L17 0L13.2687 6.07325L6.49435 3.24558L7.23018 10.2496L0 11.7427L4.92289 16.9943L0 22.2544L7.23018 23.7462L6.48541 30.7516L13.2672 27.9267L17 34L20.7298 27.9267L27.5071 30.7516L26.7698 23.7561L34 22.2544L29.0726 17.0014ZM31.4633 20.9567L27.2018 19.5656L24.3732 16.065L28.1357 17.3995L31.4633 20.9567ZM32.147 12.3207L28.2713 16.4546L23.7044 14.8382L26.4511 11.1378L32.147 12.3207ZM25.7599 10.4451L23.4765 13.532L23.6076 9.0525L26.2708 5.63125L25.7599 10.4451ZM20.8385 7.0465L25.4427 5.12833L22.8092 8.49717L18.4255 9.98325L20.8385 7.0465ZM22.6066 9.55683L22.4636 14.7305L17.4871 16.3172V11.2894L22.6066 9.55683ZM17 1.853L19.9329 6.62858L17 10.1986L14.0641 6.62717L17 1.853ZM13.1615 7.0465L15.573 9.98183L11.1819 8.49717L8.55735 5.12833L13.1615 7.0465ZM16.5055 11.2894V16.3172L11.5379 14.7305L11.386 9.55683L16.5055 11.2894ZM10.3924 9.0525L10.5205 13.532L8.23859 10.4451L7.73066 5.63267L10.3924 9.0525ZM1.85149 12.3137L7.54745 11.1378L10.2867 14.8382L5.72128 16.4475L1.85149 12.3137ZM5.86428 17.3924L9.62683 16.065L6.79672 19.5656L2.53518 20.9497L5.86428 17.3924ZM2.74669 21.8677L7.10952 20.451L11.6451 21.7203L7.7396 22.9061L2.74669 21.8677ZM7.63235 29.2513L8.21624 23.732L12.8502 22.3408L12.9723 27.03L7.63235 29.2513ZM13.1302 21.165L7.91983 19.7058L11.2355 15.6088L16.2031 17.204L13.1302 21.165ZM16.5055 31.3522L13.9569 27.1957L13.8586 23.2702L16.5055 26.9493V31.3522ZM13.9286 21.7189L17 17.7537L20.0729 21.7189L17 25.976L13.9286 21.7189ZM20.0416 27.1957L17.4871 31.3522V26.9507L20.1414 23.2716L20.0416 27.1957ZM17.7865 17.2054L22.763 15.6102L26.0712 19.7073L20.8594 21.1664L17.7865 17.2054ZM21.0262 27.03L21.1409 22.3408L25.7823 23.732L26.3572 29.2584L21.0262 27.03ZM26.2604 22.9047L22.3504 21.7189L26.892 20.4496L31.2533 21.8705L26.2604 22.9047Z" fill="#01F897"/>
</svg>
