<svg width="328" height="257" viewBox="0 0 328 257" fill="none" xmlns="http://www.w3.org/2000/svg">
<path d="M47.9854 231.934C111.962 265.355 215.695 265.355 279.679 231.934C343.663 198.513 343.656 144.285 279.679 110.892C215.702 77.5 111.962 77.4715 47.9854 110.892C-15.9916 144.313 -15.9987 198.492 47.9854 231.934Z" fill="#176647"/>
<path d="M102.385 208.91L161.196 242.865C161.82 243.182 162.509 243.346 163.209 243.346C163.908 243.346 164.598 243.182 165.222 242.865L277.812 178.019C278.924 177.378 278.924 176.337 277.812 175.696L218.881 141.669C218.257 141.353 217.567 141.188 216.867 141.188C216.168 141.188 215.478 141.353 214.854 141.669L102.406 206.594C101.266 207.228 101.266 208.269 102.385 208.91Z" fill="#E0E0E0"/>
<path d="M29.8071 141.662L60.5841 159.349C61.2081 159.665 61.8977 159.83 62.5972 159.83C63.2967 159.83 63.9864 159.665 64.6103 159.349L101.537 138.028C102.649 137.387 102.649 136.347 101.537 135.705L70.9382 118.033C70.313 117.717 69.6222 117.552 68.9215 117.552C68.2209 117.552 67.5301 117.717 66.9049 118.033L29.8071 139.339C28.6526 140.009 28.6526 141.021 29.8071 141.662Z" fill="#E0E0E0"/>
<path d="M275.318 154.019C275.147 153.948 274.606 142.418 279.594 135.627C284.582 128.836 290.568 128.052 294.516 129.705C298.463 131.359 297.651 135.406 292.791 137.843C287.931 140.28 281.881 144.527 280.442 152.28L275.318 154.019Z" fill="#25A171"/>
<path opacity="0.1" d="M275.318 154.019C275.147 153.948 274.606 142.418 279.594 135.627C284.582 128.836 290.568 128.052 294.516 129.705C298.463 131.359 297.651 135.406 292.791 137.843C287.931 140.28 281.881 144.527 280.442 152.28L275.318 154.019Z" fill="black"/>
<path d="M277.142 150.634C277.229 150.634 277.313 150.603 277.38 150.547C277.446 150.491 277.491 150.413 277.506 150.328C279.366 138.62 286.285 132.883 292.143 131.422C292.195 131.417 292.246 131.399 292.291 131.372C292.336 131.345 292.376 131.309 292.406 131.266C292.436 131.222 292.456 131.173 292.466 131.121C292.475 131.069 292.474 131.016 292.461 130.964C292.448 130.913 292.424 130.865 292.392 130.824C292.359 130.782 292.317 130.749 292.27 130.724C292.223 130.7 292.172 130.687 292.119 130.684C292.066 130.681 292.014 130.69 291.965 130.71C285.879 132.228 278.696 138.156 276.772 150.214C276.758 150.312 276.782 150.412 276.841 150.492C276.9 150.572 276.988 150.625 277.085 150.641L277.142 150.634Z" fill="white"/>
<path d="M276.209 175.418C276.964 172.383 280.021 170.373 283.634 170.045C287.383 169.711 291.751 169.333 292.898 166.169C294.045 163.005 292.898 158.708 293.418 156.606C294.067 154.055 295.043 152.537 299.967 150.991C304.385 149.565 306.829 145.383 302.376 143.601C297.922 141.82 293.468 142.945 290.44 144.314C287.411 145.682 287.268 147.1 283.007 146.736C278.746 146.373 275.561 149.052 275.297 151.632L276.209 175.418Z" fill="#25A171"/>
<path d="M276.209 165.114C276.285 165.114 276.359 165.09 276.421 165.047C276.483 165.004 276.531 164.943 276.558 164.872C280.064 155.102 294.373 146.266 299.162 145.703C299.259 145.691 299.348 145.64 299.41 145.563C299.471 145.486 299.5 145.388 299.49 145.29C299.484 145.241 299.469 145.194 299.445 145.152C299.422 145.109 299.39 145.072 299.351 145.042C299.312 145.012 299.268 144.99 299.221 144.977C299.174 144.965 299.125 144.962 299.076 144.969C294.181 145.546 279.458 154.603 275.86 164.623C275.83 164.715 275.837 164.816 275.879 164.903C275.922 164.991 275.996 165.059 276.088 165.093C276.127 165.107 276.168 165.115 276.209 165.114Z" fill="white"/>
<path d="M279.565 159.249H279.651C279.746 159.227 279.829 159.169 279.881 159.086C279.933 159.003 279.95 158.903 279.929 158.808C278.746 153.72 279.929 150.442 279.929 150.406C279.946 150.361 279.953 150.313 279.951 150.264C279.949 150.216 279.938 150.168 279.917 150.125C279.897 150.081 279.868 150.041 279.832 150.009C279.796 149.977 279.754 149.952 279.708 149.936C279.662 149.919 279.613 149.911 279.564 149.913C279.516 149.915 279.467 149.926 279.423 149.947C279.379 149.967 279.339 149.997 279.306 150.033C279.273 150.069 279.247 150.111 279.23 150.157C279.181 150.292 277.99 153.656 279.23 158.972C279.251 159.047 279.294 159.114 279.354 159.164C279.414 159.213 279.488 159.243 279.565 159.249Z" fill="white"/>
<path d="M277.142 162.997C277.202 162.998 277.261 162.983 277.313 162.955C280.164 161.387 286.435 162.506 286.499 162.513C286.55 162.534 286.605 162.544 286.66 162.541C286.715 162.538 286.769 162.523 286.817 162.497C286.866 162.471 286.908 162.434 286.94 162.39C286.973 162.345 286.995 162.294 287.005 162.24C287.016 162.186 287.014 162.13 287 162.077C286.986 162.023 286.96 161.974 286.924 161.932C286.889 161.89 286.844 161.856 286.794 161.833C286.744 161.811 286.689 161.799 286.634 161.8C286.363 161.75 280.071 160.632 276.964 162.313C276.921 162.337 276.883 162.368 276.852 162.406C276.821 162.444 276.798 162.488 276.784 162.535C276.77 162.582 276.765 162.631 276.771 162.68C276.776 162.729 276.791 162.776 276.815 162.819C276.849 162.875 276.897 162.921 276.954 162.953C277.012 162.984 277.077 162.999 277.142 162.997Z" fill="white"/>
<path d="M97.6321 136.432L91.8101 133.068L97.6321 131.387V136.432Z" fill="black"/>
<path d="M62.6934 151.56V156.919L30.6622 138.427V133.068L62.6934 151.56Z" fill="black"/>
<path d="M27.7548 91.0396L59.7789 109.531V153.235L27.7548 134.75V91.0396Z" fill="#263238"/>
<path d="M59.7789 109.532L103.454 84.3198V128.023L59.7789 153.235V109.532Z" fill="#37474F"/>
<path d="M103.454 84.32L71.4299 65.8281L27.7548 91.0398L59.7789 109.532L103.454 84.32Z" fill="#455A64"/>
<path d="M62.6934 111.213L100.539 89.3652V99.4485L62.6934 121.304V111.213Z" fill="#455A64"/>
<g style="mix-blend-mode:multiply">
<g style="mix-blend-mode:multiply">
<path d="M77.2518 103.667C77.2518 104.13 78.6413 103.703 80.3516 102.712L85.7887 99.5695C87.5061 98.5861 88.8956 97.4317 88.8956 96.94V96.0991L77.2518 102.826V103.667Z" fill="#263238"/>
</g>
</g>
<path d="M62.6934 124.66L100.539 102.812V112.895L62.6934 134.75V124.66Z" fill="#455A64"/>
<g style="mix-blend-mode:multiply">
<g style="mix-blend-mode:multiply">
<path d="M77.2518 117.099C77.2518 117.562 78.6413 117.135 80.3516 116.144L85.7887 113.009C87.5061 112.018 88.8956 110.835 88.8956 110.372V109.531L77.2518 116.258V117.099Z" fill="#263238"/>
</g>
</g>
<path d="M62.6934 138.107L100.539 116.258V126.342L62.6934 148.197V138.107Z" fill="#455A64"/>
<g style="mix-blend-mode:multiply">
<g style="mix-blend-mode:multiply">
<path d="M77.2518 130.546C77.2518 131.009 78.6413 130.546 80.3516 129.591L85.7887 126.456C87.5061 125.465 88.8956 124.318 88.8956 123.819V122.979L77.2518 129.705V130.546Z" fill="#263238"/>
</g>
</g>
<path d="M62.6934 156.919L65.6008 155.237V149.878L62.6934 151.56V156.919Z" fill="#263238"/>
<path d="M97.6321 136.432L100.539 134.75V129.705L97.6321 131.387V136.432Z" fill="#263238"/>
<path d="M58.4107 105.897L75.8195 95.8283C76.1615 95.6359 76.1615 95.3152 75.8195 95.1157L51.9403 81.5194C51.7479 81.4228 51.5356 81.3726 51.3204 81.3726C51.1051 81.3726 50.8928 81.4228 50.7004 81.5194L33.4484 91.4957C33.0992 91.6881 33.0992 92.0088 33.4484 92.2083L57.1637 105.904C57.3574 106.002 57.5713 106.052 57.788 106.05C58.0048 106.049 58.2181 105.997 58.4107 105.897Z" fill="#E0E0E0"/>
<path d="M33.427 91.4603L53.0235 79.0041C53.2123 78.9042 53.4227 78.8521 53.6363 78.8521C53.8499 78.8521 54.0603 78.9042 54.2491 79.0041L61.3039 83.0801C61.4697 83.1787 61.5925 83.3359 61.6479 83.5206C61.7033 83.7054 61.6874 83.9042 61.6031 84.0778L61.311 84.6407C61.2261 84.8134 61.2091 85.0117 61.2632 85.1963C61.3172 85.381 61.4385 85.5387 61.6031 85.6384L75.8195 93.9116C75.8834 93.9466 75.9367 93.9981 75.9739 94.0608C76.011 94.1235 76.0306 94.195 76.0306 94.2679C76.0306 94.3408 76.011 94.4123 75.9739 94.475C75.9367 94.5377 75.8834 94.5892 75.8195 94.6242L58.368 105.862C58.1797 105.964 57.9691 106.017 57.7551 106.017C57.5412 106.017 57.3306 105.964 57.1423 105.862L33.4484 92.2014C33.3734 92.174 33.3084 92.1247 33.2617 92.0599C33.215 91.9952 33.1888 91.9179 33.1865 91.8381C33.1842 91.7583 33.2059 91.6796 33.2488 91.6123C33.2917 91.5449 33.3538 91.492 33.427 91.4603Z" fill="#F5F5F5"/>
<path d="M74.266 40.9583C74.2092 40.9166 74.1423 40.8906 74.0722 40.8831C74.0021 40.8756 73.9313 40.8868 73.8669 40.9156L73.4251 41.1721L73.6959 69.3268C73.7074 69.5249 73.7649 69.7176 73.8638 69.8895C73.9628 70.0614 74.1005 70.2079 74.266 70.3173L96.3066 83.0443V53.6996L74.266 40.9583Z" fill="#25A171"/>
<path opacity="0.2" d="M74.266 40.9583C74.2092 40.9166 74.1423 40.8906 74.0722 40.8831C74.0021 40.8756 73.9313 40.8868 73.8669 40.9156L73.4251 41.1721L73.6959 69.3268C73.7074 69.5249 73.7649 69.7176 73.8638 69.8895C73.9628 70.0614 74.1005 70.2079 74.266 70.3173L96.3066 83.0443V53.6996L74.266 40.9583Z" fill="black"/>
<path d="M73.8384 41.2222C73.5249 41.044 73.2684 41.2222 73.2684 41.5571V69.5978C73.2798 69.7959 73.3373 69.9885 73.4363 70.1605C73.5352 70.3324 73.6729 70.4789 73.8384 70.5883L95.8791 83.3082V53.942L73.8384 41.2222Z" fill="#25A171"/>
<path opacity="0.5" d="M73.8384 41.2222C73.5249 41.044 73.2684 41.2222 73.2684 41.5571V69.5978C73.2798 69.7959 73.3373 69.9885 73.4363 70.1605C73.5352 70.3324 73.6729 70.4789 73.8384 70.5883L95.8791 83.3082V53.942L73.8384 41.2222Z" fill="black"/>
<path d="M90.4633 80.5787L74.152 71.1582C73.9865 71.0488 73.8488 70.9023 73.7498 70.7303C73.6508 70.5584 73.5933 70.3657 73.5819 70.1677V44.3004L71.4441 43.0818L73.6247 41.8277H73.6674C73.7601 41.6851 73.9382 41.6495 74.152 41.7707L92.8292 52.5665V81.9326L90.4491 83.3008L90.4633 80.5787Z" fill="#EBEBEB"/>
<path d="M71.7719 43.1671C71.4584 42.989 71.2018 43.1671 71.2018 43.4949V71.5427C71.2127 71.74 71.27 71.9319 71.3691 72.1027C71.4681 72.2736 71.6062 72.4187 71.7719 72.5261L90.4633 83.322V53.9559L71.7719 43.1671Z" fill="#FAFAFA"/>
<path d="M90.4562 53.9561L92.8292 52.5879L92.8434 81.954L90.4633 83.3222L90.4562 53.9561Z" fill="#E6E6E6"/>
<path d="M89.6652 54.754C89.6613 54.6811 89.6469 54.6091 89.6225 54.5402C89.5877 54.4298 89.5265 54.3295 89.4443 54.248C89.4208 54.2189 89.3917 54.1947 89.3588 54.1768C89.1949 54.077 89.0524 54.1768 89.0595 54.4048C89.0586 54.5089 89.0831 54.6116 89.1308 54.7041C89.1769 54.8177 89.2564 54.9146 89.3588 54.982C89.3588 54.982 89.3588 54.982 89.4016 54.982C89.5655 55.0675 89.6652 54.9678 89.6652 54.754Z" fill="#263238"/>
<path d="M92.9788 56.1796C93.2766 56.0229 93.5145 55.7725 93.6558 55.467C93.7131 55.3206 93.7364 55.1631 93.7241 55.0064C93.7117 54.8496 93.664 54.6977 93.5845 54.562C93.4381 54.3249 93.2316 54.1307 92.9859 53.9991L92.8363 53.9136V54.2913C93.004 54.3509 93.1492 54.4611 93.2518 54.6065C93.3544 54.752 93.4095 54.9256 93.4095 55.1036C93.4095 55.2816 93.3544 55.4553 93.2518 55.6007C93.1492 55.7462 93.004 55.8563 92.8363 55.916C92.3946 56.1401 91.9064 56.2569 91.4111 56.2569C90.9158 56.2569 90.4276 56.1401 89.9859 55.916C89.81 55.8445 89.6603 55.7208 89.5571 55.5615C89.4539 55.4021 89.4021 55.215 89.4087 55.0252C89.4223 54.8488 89.501 54.6836 89.6296 54.562C89.5948 54.4516 89.5337 54.3513 89.4515 54.2699C89.3141 54.3965 89.207 54.5524 89.1379 54.7259C89.0802 54.8714 89.0572 55.0283 89.0708 55.1842C89.0844 55.34 89.1342 55.4906 89.2163 55.6238C89.3627 55.8671 89.572 56.0665 89.822 56.201C90.3121 56.4484 90.854 56.5755 91.403 56.5718C91.952 56.5681 92.4921 56.4337 92.9788 56.1796Z" fill="#263238"/>
<path d="M90.3208 56.7637L70.0688 43.0961L70.3823 42.918C70.4714 42.8755 70.5688 42.8535 70.6674 42.8535C70.766 42.8535 70.8634 42.8755 70.9524 42.918L90.7555 56.4573L90.3208 56.7637Z" fill="#25A171"/>
<path opacity="0.2" d="M90.3208 56.7637L70.0688 43.0961L70.3823 42.918C70.4714 42.8755 70.5688 42.8535 70.6674 42.8535C70.766 42.8535 70.8634 42.8755 70.9524 42.918L90.7555 56.4573L90.3208 56.7637Z" fill="black"/>
<path d="M70.4679 43.167C70.1543 42.9888 69.8978 43.167 69.8978 43.5019V71.5426C69.9083 71.7407 69.9662 71.9335 70.0666 72.1046C70.1671 72.2757 70.3071 72.4202 70.475 72.526L90.6557 86.329V56.9629L70.4679 43.167Z" fill="#25A171"/>
<path d="M96.2995 53.6997L96.3066 83.0658L90.6486 86.3295V56.9563L96.2995 53.6997Z" fill="#25A171"/>
<path opacity="0.1" d="M96.2995 53.6997L96.3066 83.0658L90.6486 86.3295V56.9563L96.2995 53.6997Z" fill="black"/>
<path d="M95.1736 60.1413C95.1018 60.0064 95.0004 59.8896 94.877 59.7995C94.7536 59.7094 94.6114 59.6484 94.461 59.6211C94.1223 59.5833 93.7808 59.6612 93.4919 59.842C93.0309 60.1403 92.6476 60.544 92.3737 61.0199C92.0999 61.4957 91.9433 62.03 91.917 62.5784C91.9086 62.8591 91.975 63.1371 92.1094 63.3836C92.1962 63.5226 92.3115 63.6417 92.4476 63.733C92.5836 63.8243 92.7375 63.8857 92.899 63.9133C93.0606 63.9409 93.2261 63.934 93.3848 63.8931C93.5434 63.8521 93.6917 63.7781 93.8197 63.6758C94.2822 63.3804 94.6673 62.9784 94.9425 62.5035C95.2178 62.0287 95.3752 61.4948 95.4016 60.9466C95.403 60.6666 95.337 60.3904 95.2092 60.1413H95.1736Z" fill="#455A64"/>
<path d="M93.6273 60.1273C94.404 59.6783 95.0525 60.0418 95.0525 60.9468C95.0254 61.4379 94.882 61.9156 94.6342 62.3405C94.3865 62.7654 94.0414 63.1255 93.6273 63.391C92.8505 63.847 92.2021 63.4765 92.2021 62.5786C92.2309 62.0869 92.3749 61.6089 92.6225 61.1831C92.8701 60.7573 93.2142 60.3956 93.6273 60.1273Z" fill="#F5F5F5"/>
<path d="M93.3494 66.2127L93.7769 65.9633C94.632 65.4716 95.3304 65.8706 95.3304 66.8611V79.5881C95.301 80.1266 95.145 80.6505 94.8751 81.1173C94.6052 81.5841 94.2289 81.9806 93.7769 82.2746L93.3494 82.524C92.4942 83.0157 91.7959 82.6167 91.7959 81.6262V68.8992C91.8253 68.3607 91.9813 67.8368 92.2512 67.37C92.5211 66.9032 92.8974 66.5067 93.3494 66.2127Z" fill="#F5F5F5"/>
<path d="M95.9646 53.5L90.3351 56.7494L90.6486 56.9561L96.2995 53.6995L95.9646 53.5Z" fill="#25A171"/>
<path opacity="0.2" d="M95.9646 53.5L90.3351 56.7494L90.6486 56.9561L96.2995 53.6995L95.9646 53.5Z" fill="black"/>
<path d="M89.3161 86.8284C89.3802 86.7798 89.4326 86.7174 89.4696 86.6459C89.5066 86.5744 89.5272 86.4956 89.5298 86.4151V57.6262C89.5252 57.5393 89.5002 57.4547 89.4569 57.3792C89.4136 57.3037 89.3531 57.2394 89.2804 57.1915L68.2873 43.4883L67.8597 43.7377V73.0967L88.8386 86.8071C88.9103 86.8497 88.9914 86.874 89.0747 86.8777C89.1579 86.8814 89.2409 86.8645 89.3161 86.8284Z" fill="#25A171"/>
<path opacity="0.1" d="M89.0168 57.6259L89.4443 57.3765C89.4887 57.4527 89.5155 57.5379 89.5227 57.6259V86.4148C89.52 86.4953 89.4994 86.5741 89.4625 86.6456C89.4255 86.7171 89.373 86.7794 89.3089 86.8281C89.2359 86.8645 89.1554 86.8835 89.0738 86.8835C88.9922 86.8835 88.9117 86.8645 88.8386 86.8281C88.974 86.9065 89.088 86.8281 89.088 86.6856V57.8967C89.0923 57.8013 89.0675 57.7068 89.0168 57.6259Z" fill="black"/>
<path opacity="0.5" d="M67.874 43.7378L88.8386 57.441C88.9148 57.4841 88.9767 57.5485 89.0168 57.6263C89.0659 57.7004 89.0931 57.7869 89.0952 57.8757V86.6647C89.0952 86.8214 88.9811 86.8856 88.8458 86.8072L67.874 73.0968V43.7378Z" fill="black"/>
<path opacity="0.2" d="M67.874 43.7377L68.3016 43.4883L89.2733 57.1915C89.3443 57.2388 89.4029 57.3023 89.4443 57.3768L89.0168 57.6262C88.9767 57.5484 88.9148 57.484 88.8386 57.4409L67.874 43.7377Z" fill="black"/>
<path d="M68.2161 43.9297L68.2232 73.2958L62.5652 76.5666L62.6222 47.1649L68.2161 43.9297Z" fill="#25A171"/>
<path opacity="0.7" d="M68.2161 43.9297L68.2232 73.2958L62.5652 76.5666L62.6222 47.1649L68.2161 43.9297Z" fill="black"/>
<path d="M86.1023 88.3176C86.1989 88.3643 86.3049 88.3886 86.4122 88.3886C86.5196 88.3886 86.6255 88.3643 86.7222 88.3176L87.8695 87.6549C87.9573 87.5944 88.0304 87.515 88.0834 87.4225C88.1365 87.33 88.1681 87.2268 88.1759 87.1205V58.4669C88.1673 58.36 88.1346 58.2564 88.0803 58.1638C88.026 58.0713 87.9515 57.9922 87.8624 57.9325L69.5201 46.6592L67.7529 47.6782V77.0443L86.1023 88.3176Z" fill="#EBEBEB"/>
<path d="M67.76 77.03L86.1022 88.3176C86.2733 88.4173 86.4086 88.3176 86.4086 88.1394V59.4859C86.401 59.3777 86.3689 59.2727 86.3145 59.1788C86.2602 59.085 86.1851 59.0048 86.0951 58.9443L67.7457 47.6567L67.76 77.03Z" fill="#FAFAFA"/>
<path d="M69.1068 49.6734C69.1029 49.6005 69.0885 49.5285 69.064 49.4596C69.0313 49.3499 68.9727 49.2497 68.893 49.1675L68.8004 49.0962C68.6365 48.9965 68.5011 49.0962 68.5011 49.3243C68.5028 49.428 68.5271 49.5302 68.5724 49.6235C68.6208 49.7379 68.7028 49.8348 68.8075 49.9015C68.9999 49.9798 69.1068 49.8872 69.1068 49.6734Z" fill="#263238"/>
<path d="M86.316 59.1868L88.0904 58.1606C88.147 58.2558 88.1788 58.3636 88.183 58.4742V87.1206C88.1744 87.2275 88.1417 87.3311 88.0874 87.4237C88.0331 87.5162 87.9586 87.5953 87.8695 87.655L86.7222 88.3178C86.638 88.3549 86.547 88.374 86.455 88.374C86.363 88.374 86.272 88.3549 86.1878 88.3178C86.316 88.3534 86.4087 88.275 86.4087 88.104V59.4861C86.4071 59.3795 86.375 59.2756 86.316 59.1868Z" fill="#E6E6E6"/>
<path d="M64.9951 48.2198C65.0057 48.4458 65.0776 48.6648 65.2032 48.8531C65.3287 49.0414 65.5031 49.1919 65.7077 49.2887C66.6858 49.7426 67.7966 49.8212 68.8289 49.5096L68.6721 49.1105C67.7602 49.3799 66.782 49.3142 65.9144 48.9253C65.7469 48.839 65.6063 48.7084 65.5082 48.5476C65.4467 48.4497 65.4168 48.3352 65.4227 48.2198C65.4227 47.8279 65.8003 47.3932 66.4203 47.0582C67.0011 46.7408 67.6457 46.5575 68.3066 46.5217C68.9676 46.4859 69.6281 46.5987 70.2398 46.8516C70.4385 46.9552 70.5985 47.1201 70.6959 47.3219L71.1519 47.5927V47.5571C71.1512 47.3696 71.1021 47.1856 71.0094 47.0226C70.8706 46.7967 70.6738 46.6121 70.4393 46.4882C69.7665 46.1966 69.0358 46.063 68.3033 46.0976C67.5709 46.1322 66.856 46.3341 66.2136 46.6877C65.8948 46.8151 65.6148 47.0234 65.4011 47.292C65.1874 47.5607 65.0474 47.8805 64.9951 48.2198Z" fill="#263238"/>
<path d="M85.7174 88.9017C85.7844 88.8553 85.8394 88.7936 85.8778 88.7217C85.9162 88.6499 85.937 88.5699 85.9383 88.4884V59.6995C85.9337 59.6125 85.9087 59.5279 85.8654 59.4524C85.8221 59.3769 85.7616 59.3126 85.6889 59.2648L62.6863 46.7373L62.2587 46.9867V76.3457L85.2685 88.8803C85.3362 88.9193 85.4123 88.9416 85.4904 88.9453C85.5685 88.949 85.6463 88.9341 85.7174 88.9017Z" fill="#25A171"/>
<path opacity="0.1" d="M85.4253 59.6993L85.8528 59.457C85.8959 59.5308 85.9203 59.614 85.9241 59.6993V88.4882C85.9366 88.5757 85.9221 88.6648 85.8827 88.7438C85.8432 88.8228 85.7806 88.8879 85.7033 88.9305C85.6259 88.973 85.5374 88.991 85.4495 88.982C85.3617 88.973 85.2787 88.9375 85.2115 88.8802C85.3469 88.9586 85.4609 88.8802 85.4609 88.7377V59.9487C85.4683 59.8639 85.4561 59.7786 85.4253 59.6993Z" fill="black"/>
<path d="M62.2445 46.9868L85.2471 59.4858C85.3211 59.5323 85.3825 59.5963 85.4259 59.6721C85.4694 59.7478 85.4936 59.8331 85.4965 59.9205V88.7094C85.4965 88.8661 85.3825 88.9303 85.2471 88.8519L62.2374 76.3173L62.2445 46.9868Z" fill="#25A171"/>
<path opacity="0.2" d="M62.2445 46.9867L62.672 46.7373L85.6747 59.2648C85.7497 59.3124 85.8111 59.3787 85.8528 59.4572L85.4253 59.6995C85.3812 59.6246 85.3202 59.5612 85.2471 59.5142L62.2445 46.9867Z" fill="black"/>
<path d="M67.874 43.7378L62.2516 46.9872L62.6222 47.1654L68.2161 43.9302L67.874 43.7378Z" fill="#25A171"/>
<path opacity="0.2" d="M67.874 43.7378L62.2516 46.9872L62.6222 47.1654L68.2161 43.9302L67.874 43.7378Z" fill="black"/>
<path d="M62.5865 47.7348C62.5261 47.699 62.4572 47.6802 62.387 47.6802C62.3168 47.6802 62.2479 47.699 62.1875 47.7348L61.7457 47.9842L62.0165 76.146C62.0273 76.3432 62.0846 76.5351 62.1837 76.706C62.2828 76.8769 62.4208 77.022 62.5865 77.1294L84.6272 89.8564V60.4546L62.5865 47.7348Z" fill="#25A171"/>
<path opacity="0.2" d="M62.5865 47.7348C62.5261 47.699 62.4572 47.6802 62.387 47.6802C62.3168 47.6802 62.2479 47.699 62.1875 47.7348L61.7457 47.9842L62.0165 76.146C62.0273 76.3432 62.0846 76.5351 62.1837 76.706C62.2828 76.8769 62.4208 77.022 62.5865 77.1294L84.6272 89.8564V60.4546L62.5865 47.7348Z" fill="black"/>
<path d="M62.1305 47.9844C61.8169 47.7992 61.5604 47.9488 61.5604 48.3122V76.3529C61.5707 76.5513 61.6277 76.7443 61.7268 76.9165C61.8259 77.0886 61.9642 77.2349 62.1305 77.3434L84.1711 90.0704V60.7043L62.1305 47.9844Z" fill="#25A171"/>
<path opacity="0.5" d="M62.1305 47.9844C61.8169 47.7992 61.5604 47.9488 61.5604 48.3122V76.3529C61.5707 76.5513 61.6277 76.7443 61.7268 76.9165C61.8259 77.0886 61.9642 77.2349 62.1305 77.3434L84.1711 90.0704V60.7043L62.1305 47.9844Z" fill="black"/>
<path d="M78.7554 87.3409L62.444 77.9133C62.2773 77.8051 62.1387 77.6589 62.0396 77.4867C61.9405 77.3145 61.8837 77.1212 61.8739 76.9228V51.0626L59.7361 49.8441L61.9167 48.5828C61.9457 48.5472 61.9814 48.5177 62.0218 48.4959C62.0622 48.4741 62.1065 48.4605 62.1522 48.4559C62.1979 48.4513 62.244 48.4557 62.288 48.4689C62.3319 48.4821 62.3728 48.5039 62.4084 48.5329L81.1141 59.343V88.702L78.734 90.0773L78.7554 87.3409Z" fill="#EBEBEB"/>
<path d="M60.0639 49.9297C59.7504 49.7445 59.4939 49.8941 59.4939 50.2575V78.2982C59.5053 78.4963 59.5628 78.689 59.6618 78.8609C59.7607 79.0329 59.8984 79.1794 60.0639 79.2888L78.7554 90.0846V60.7185L60.0639 49.9297Z" fill="#FAFAFA"/>
<path d="M78.7482 60.7186L81.1212 59.3433L81.1354 88.7094L78.7554 90.0847L78.7482 60.7186Z" fill="#E6E6E6"/>
<path d="M77.9715 61.5167C77.967 61.4415 77.9526 61.3672 77.9287 61.2958C77.8929 61.1879 77.8319 61.0902 77.7506 61.0107C77.7291 60.9796 77.6996 60.955 77.6651 60.9395C77.5012 60.8397 77.3587 60.9395 77.3658 61.1675C77.3655 61.2715 77.3899 61.3741 77.437 61.4668C77.485 61.5793 77.5641 61.6757 77.6651 61.7447H77.7078C77.8575 61.8231 77.9715 61.7305 77.9715 61.5167Z" fill="#263238"/>
<path d="M81.2708 62.9347C81.5703 62.7802 81.8088 62.5291 81.9478 62.2221C82.005 62.0769 82.0283 61.9205 82.0159 61.7649C82.0036 61.6094 81.9559 61.4586 81.8765 61.3242C81.732 61.0856 81.525 60.8909 81.278 60.7613C81.2306 60.7286 81.1805 60.7 81.1283 60.6758V61.0463C81.296 61.106 81.4412 61.2161 81.5438 61.3616C81.6464 61.507 81.7015 61.6807 81.7015 61.8587C81.7015 62.0367 81.6464 62.2104 81.5438 62.3558C81.4412 62.5013 81.296 62.6114 81.1283 62.6711C80.6873 62.8974 80.1988 63.0154 79.7031 63.0154C79.2074 63.0154 78.7189 62.8974 78.2779 62.6711C78.102 62.5996 77.9523 62.4759 77.8491 62.3165C77.7459 62.1572 77.6941 61.97 77.7007 61.7803C77.718 61.6049 77.7962 61.441 77.9216 61.3171C77.8858 61.2093 77.8247 61.1115 77.7435 61.0321C77.6048 61.1575 77.4974 61.3137 77.4299 61.4881C77.3864 61.6297 77.3747 61.7791 77.3956 61.9257C77.4165 62.0723 77.4696 62.2124 77.5511 62.3361C77.698 62.5772 77.9072 62.7742 78.1568 62.9062C78.6364 63.1576 79.1689 63.2913 79.7104 63.2963C80.2518 63.3013 80.7867 63.1773 81.2708 62.9347Z" fill="#263238"/>
<path d="M78.6128 63.5263L58.3608 49.8872L58.6744 49.7091C58.7625 49.6635 58.8602 49.6396 58.9594 49.6396C59.0586 49.6396 59.1564 49.6635 59.2444 49.7091L79.0475 63.2484L78.6128 63.5263Z" fill="#25A171"/>
<path opacity="0.2" d="M78.6128 63.5263L58.3608 49.8872L58.6744 49.7091C58.7625 49.6635 58.8602 49.6396 58.9594 49.6396C59.0586 49.6396 59.1564 49.6635 59.2444 49.7091L79.0475 63.2484L78.6128 63.5263Z" fill="black"/>
<path d="M58.7599 49.9297C58.4463 49.7445 58.1898 49.8941 58.1898 50.2575V78.2982C58.2001 78.4966 58.2572 78.6897 58.3562 78.8618C58.4553 79.0339 58.5936 79.1802 58.7599 79.2888L78.9763 93.0846V63.7185L58.7599 49.9297Z" fill="#25A171"/>
<path d="M84.5915 60.4551L84.5987 89.8212L78.9406 93.092V63.7188L84.5915 60.4551Z" fill="#25A171"/>
<path opacity="0.1" d="M84.5915 60.4551L84.5987 89.8212L78.9406 93.092V63.7188L84.5915 60.4551Z" fill="black"/>
<path d="M83.4656 66.8969C83.3934 66.763 83.2918 66.6473 83.1683 66.5584C83.0449 66.4695 82.9029 66.4098 82.753 66.3838C82.4141 66.3425 82.0714 66.4207 81.7839 66.6047C81.3231 66.9014 80.9397 67.3038 80.6658 67.7786C80.3919 68.2533 80.2353 68.7865 80.2091 69.334C80.1948 69.6266 80.2614 69.9175 80.4015 70.1749C80.489 70.313 80.6046 70.4312 80.7407 70.5218C80.8768 70.6124 81.0305 70.6735 81.1917 70.701C81.3528 70.7286 81.518 70.722 81.6765 70.6817C81.835 70.6413 81.9832 70.5682 82.1117 70.467C82.5744 70.17 82.9594 69.7667 83.2346 69.2907C83.5098 68.8147 83.6672 68.2798 83.6937 67.7307C83.6964 67.4497 83.6277 67.1726 83.4941 66.9254L83.4656 66.8969Z" fill="#455A64"/>
<path d="M81.9193 66.8895C82.696 66.4406 83.3445 66.804 83.3445 67.709C83.3174 68.2001 83.174 68.6778 82.9263 69.1027C82.6785 69.5277 82.3334 69.8877 81.9193 70.1532C81.1426 70.6021 80.4941 70.2387 80.4941 69.3408C80.5218 68.8489 80.6654 68.3704 80.913 67.9444C81.1607 67.5184 81.5055 67.157 81.9193 66.8895Z" fill="#F5F5F5"/>
<path d="M81.6414 72.9681L82.0689 72.7258C82.9241 72.227 83.6224 72.6332 83.6224 73.6166V86.3436C83.5925 86.8828 83.4363 87.4075 83.1665 87.8754C82.8966 88.3432 82.5207 88.7412 82.0689 89.0372L81.6414 89.2795C80.7863 89.7783 80.0879 89.3721 80.0879 88.3887V75.6617C80.1179 75.1225 80.2741 74.5978 80.5439 74.1299C80.8137 73.6621 81.1896 73.2641 81.6414 72.9681Z" fill="#F5F5F5"/>
<path d="M84.2566 60.2554L78.6271 63.5048L78.9406 63.7186L84.5915 60.4549L84.2566 60.2554Z" fill="#25A171"/>
<path opacity="0.2" d="M84.2566 60.2554L78.6271 63.5048L78.9406 63.7186L84.5915 60.4549L84.2566 60.2554Z" fill="black"/>
<path d="M242.959 52.6733L240.144 47.3715L242.41 40.837V36.8394L235.484 40.837V44.8418L238.463 49.9939C238.506 50.0764 238.577 50.1417 238.662 50.1792L242.959 52.6733Z" fill="#25A171"/>
<path opacity="0.2" d="M242.959 52.6733L240.144 47.3715L242.41 40.837V36.8394L235.484 40.837V44.8418L238.463 49.9939C238.506 50.0764 238.577 50.1417 238.662 50.1792L242.959 52.6733Z" fill="black"/>
<path d="M259.499 5.06478C259.453 4.34981 259.242 3.6553 258.88 3.03668C258.519 2.41805 258.018 1.89244 257.418 1.50179L255.7 0.497033C255.057 0.17029 254.345 0 253.623 0C252.901 0 252.19 0.17029 251.546 0.497033L225.622 15.4616C225.021 15.8522 224.52 16.3778 224.159 16.9965C223.798 17.6151 223.586 18.3096 223.541 19.0246V47.5285C223.586 48.2434 223.798 48.9379 224.159 49.5566C224.52 50.1752 225.021 50.7008 225.622 51.0914L227.311 52.0677C227.954 52.3944 228.666 52.5647 229.388 52.5647C230.11 52.5647 230.821 52.3944 231.465 52.0677L239.802 47.2505L242.774 52.3955C242.815 52.4705 242.878 52.5319 242.953 52.5721C243.029 52.6124 243.114 52.6298 243.2 52.6222C243.285 52.6147 243.366 52.5825 243.434 52.5296C243.501 52.4767 243.552 52.4053 243.579 52.3242L246.715 43.2529L257.404 37.0747C258.004 36.684 258.505 36.1584 258.866 35.5398C259.227 34.9211 259.439 34.2266 259.484 33.5117L259.499 5.06478Z" fill="#25A171"/>
<path opacity="0.2" d="M223.569 47.6141C223.615 48.329 223.826 49.0235 224.188 49.6422C224.549 50.2608 225.05 50.7864 225.65 51.177L227.339 52.1533C227.925 52.4472 228.565 52.6143 229.22 52.6437C229.874 52.6732 230.528 52.5644 231.137 52.3243C230.161 52.6949 229.413 52.1391 229.413 50.9561V22.4309C229.441 21.7083 229.652 21.0046 230.026 20.3857L224.182 17.0151C223.806 17.633 223.595 18.3373 223.569 19.0603V47.6141Z" fill="black"/>
<path opacity="0.3" d="M259.427 4.48046C259.185 3.59684 258.38 3.31893 257.425 3.86763L231.472 18.8678C230.853 19.2456 230.346 19.7819 230.004 20.4213L224.168 17.0436C224.514 16.4112 225.017 15.8787 225.629 15.4972L251.553 0.532672C252.197 0.205929 252.908 0.0356445 253.63 0.0356445C254.352 0.0356445 255.064 0.205929 255.708 0.532672L257.404 1.50893C257.924 1.84221 258.371 2.27726 258.719 2.78792C259.067 3.29858 259.308 3.8743 259.427 4.48046Z" fill="white"/>
<path d="M247.292 24.9749C247.257 24.9676 247.22 24.9676 247.185 24.9749L245.724 24.8538C245.691 24.8557 245.658 24.8509 245.627 24.8396C245.596 24.8283 245.567 24.8107 245.543 24.788C245.519 24.7654 245.5 24.738 245.487 24.7076C245.474 24.6773 245.467 24.6445 245.468 24.6115C245.468 24.3763 245.503 24.1412 245.503 23.8989C245.503 23.6566 245.503 23.4001 245.503 23.1863C245.504 23.0264 245.562 22.872 245.667 22.7516L247.327 20.735C247.376 20.6794 247.411 20.6127 247.428 20.5406C247.446 20.4686 247.445 20.3935 247.427 20.3217L246.636 18.5687C246.628 18.5477 246.613 18.5301 246.593 18.5188C246.529 18.5188 246.43 18.5188 246.337 18.5972L244.563 20.2219C244.515 20.2762 244.449 20.3122 244.378 20.3239C244.307 20.3356 244.233 20.3222 244.171 20.286C243.945 20.0986 243.689 19.9493 243.415 19.8442C243.354 19.8205 243.303 19.7763 243.27 19.7192C243.238 19.6621 243.226 19.5955 243.237 19.5307L243.786 17.0437C243.794 17.0105 243.791 16.9755 243.777 16.9443C243.763 16.9132 243.738 16.8879 243.707 16.8727C243.654 16.8536 243.596 16.8536 243.544 16.8727L241.805 17.0437C241.724 17.0509 241.647 17.079 241.581 17.1253C241.515 17.1715 241.462 17.2343 241.427 17.3074L240.479 19.8371C240.399 19.998 240.266 20.1263 240.102 20.2005C239.727 20.3815 239.368 20.5911 239.026 20.8276C238.883 20.9202 238.719 20.9274 238.655 20.8276L237.764 19.4665C237.7 19.3739 237.558 19.3953 237.444 19.5093L235.534 21.5259C235.48 21.5808 235.438 21.6469 235.412 21.7195C235.387 21.7922 235.377 21.8696 235.384 21.9464L235.919 23.7421C235.942 23.8935 235.909 24.0481 235.826 24.1768C235.503 24.6681 235.208 25.1773 234.942 25.7018C234.848 25.8518 234.7 25.9611 234.529 26.0082L232.897 26.4072C232.816 26.4268 232.741 26.4646 232.677 26.5177C232.612 26.5708 232.561 26.6378 232.527 26.7137L231.707 29.4785C231.698 29.5086 231.696 29.5406 231.702 29.5716C231.708 29.6026 231.721 29.6318 231.741 29.6564C231.76 29.681 231.786 29.7004 231.815 29.7129C231.844 29.7254 231.875 29.7306 231.907 29.7279L233.403 29.8134C233.436 29.8125 233.468 29.8181 233.498 29.8298C233.528 29.8415 233.556 29.8592 233.579 29.8818C233.602 29.9044 233.621 29.9315 233.634 29.9613C233.646 29.9912 233.653 30.0233 233.653 30.0557C233.61 30.5299 233.61 31.0068 233.653 31.4809C233.652 31.6417 233.596 31.7974 233.496 31.9227L231.828 33.9394C231.779 33.995 231.745 34.0617 231.727 34.1337C231.71 34.2057 231.71 34.2809 231.729 34.3527L232.52 36.0986C232.528 36.1234 232.546 36.1439 232.57 36.1556H232.627C232.699 36.146 232.766 36.1136 232.819 36.0629L234.593 34.4382C234.641 34.3839 234.706 34.3479 234.778 34.3362C234.849 34.3245 234.923 34.3379 234.985 34.3741C235.213 34.5593 235.468 34.7084 235.741 34.8159C235.803 34.8384 235.855 34.8824 235.887 34.9398C235.92 34.9973 235.931 35.0645 235.919 35.1294L235.37 37.6164C235.362 37.6488 235.365 37.6828 235.378 37.7136C235.39 37.7443 235.413 37.7702 235.441 37.7874C235.494 37.8065 235.552 37.8065 235.605 37.7874L237.344 37.6164C237.424 37.6079 237.501 37.5792 237.567 37.5331C237.633 37.487 237.686 37.425 237.722 37.3527L238.669 34.823C238.752 34.6635 238.884 34.5357 239.047 34.4596C239.235 34.3721 239.418 34.2745 239.596 34.1674C239.774 34.0677 239.945 33.9536 240.123 33.8325C240.301 33.7114 240.429 33.7327 240.494 33.8325L241.384 35.1936H241.427C241.498 35.2434 241.612 35.1936 241.705 35.1152L243.586 33.1199C243.641 33.0656 243.682 32.9994 243.707 32.9264C243.732 32.8535 243.739 32.7758 243.729 32.6995L243.201 30.9037C243.177 30.7514 243.213 30.5957 243.301 30.469C243.626 29.9802 243.919 29.4708 244.178 28.9441C244.273 28.794 244.42 28.6848 244.591 28.6377L246.223 28.2386C246.305 28.2217 246.382 28.1849 246.446 28.1315C246.511 28.0781 246.561 28.0096 246.593 27.9322L247.413 25.1673C247.42 25.126 247.411 25.0835 247.389 25.0481C247.367 25.0126 247.332 24.9866 247.292 24.9749ZM238.598 31.7303H238.505H238.434H238.277H238.099H237.885C237.534 31.7335 237.191 31.6304 236.9 31.4345C236.608 31.2386 236.383 30.9592 236.254 30.6329C236.124 30.344 236.042 30.036 236.011 29.7208C236.001 29.5523 236.001 29.3833 236.011 29.2149C236.114 27.3669 236.872 25.6161 238.149 24.2766C238.534 23.8602 238.975 23.5003 239.46 23.2077C239.61 23.1222 239.76 23.0438 239.902 22.9796C240.288 22.8009 240.71 22.7132 241.135 22.7231H241.27H241.342C241.644 22.7678 241.929 22.8906 242.169 23.0793C242.409 23.268 242.595 23.5162 242.71 23.7991C243.422 25.431 242.596 28.2814 240.821 30.1555C240.243 30.8785 239.472 31.4243 238.598 31.7303Z" fill="#455A64"/>
<path d="M257.731 28.844H257.646L256.52 28.7799C256.495 28.7818 256.471 28.7787 256.447 28.7706C256.424 28.7625 256.403 28.7497 256.385 28.733C256.367 28.7162 256.352 28.6959 256.342 28.6733C256.332 28.6507 256.327 28.6263 256.327 28.6017C256.327 28.4236 256.327 28.2454 256.327 28.0744C256.339 27.8869 256.339 27.6989 256.327 27.5114C256.329 27.3893 256.372 27.2713 256.449 27.1765L257.717 25.6444C257.754 25.6023 257.78 25.5516 257.793 25.4968C257.805 25.442 257.804 25.3849 257.788 25.3309L257.19 24.0054L257.154 23.9627C257.104 23.9627 257.033 23.9627 256.962 24.0197L255.601 25.281C255.563 25.3211 255.514 25.3477 255.459 25.3567C255.405 25.3657 255.35 25.3566 255.301 25.3309C255.131 25.1884 254.939 25.0752 254.731 24.996C254.685 24.9785 254.646 24.9455 254.621 24.9026C254.597 24.8597 254.588 24.8096 254.596 24.7608L255.009 22.8724C255.015 22.8467 255.012 22.82 255.002 22.7958C254.992 22.7715 254.974 22.751 254.952 22.737C254.91 22.7289 254.866 22.7289 254.824 22.737L253.506 22.8724C253.445 22.8792 253.387 22.901 253.338 22.9359C253.288 22.9707 253.248 23.0175 253.221 23.0719L252.508 24.9888C252.444 25.1114 252.341 25.2093 252.216 25.2667C251.933 25.4019 251.661 25.5592 251.403 25.7371C251.289 25.8154 251.168 25.8154 251.118 25.7371L250.441 24.7109C250.399 24.6325 250.285 24.6539 250.199 24.7109L248.774 26.243C248.733 26.2839 248.702 26.3332 248.683 26.3873C248.663 26.4414 248.655 26.4992 248.66 26.5565L249.066 27.9247C249.083 28.039 249.057 28.1555 248.995 28.2525C248.748 28.6235 248.525 29.009 248.325 29.4069C248.256 29.5237 248.143 29.6083 248.011 29.6421L246.772 29.9414C246.711 29.956 246.655 29.9841 246.607 30.0236C246.558 30.0631 246.52 30.1129 246.494 30.1694L245.867 32.3072C245.859 32.3307 245.858 32.3555 245.863 32.3795C245.868 32.4036 245.878 32.4261 245.894 32.4451C245.909 32.4641 245.929 32.479 245.952 32.4885C245.974 32.498 245.999 32.5018 246.023 32.4996L247.156 32.5637C247.181 32.5618 247.206 32.5649 247.229 32.573C247.252 32.581 247.274 32.5939 247.292 32.6106C247.31 32.6273 247.324 32.6477 247.334 32.6703C247.344 32.6929 247.349 32.7172 247.349 32.7419C247.317 33.1046 247.317 33.4694 247.349 33.8322C247.351 33.9549 247.308 34.0742 247.228 34.1671L245.966 35.6992C245.928 35.7409 245.901 35.7914 245.888 35.8461C245.874 35.9008 245.874 35.958 245.888 36.0127L246.487 37.3381L246.522 37.3738H246.579C246.635 37.3687 246.687 37.3463 246.729 37.3096L248.076 36.0768C248.111 36.0363 248.16 36.0092 248.213 36.0001C248.266 35.991 248.321 36.0005 248.368 36.027C248.541 36.1681 248.736 36.2811 248.945 36.3619C248.991 36.3794 249.03 36.4123 249.055 36.4552C249.079 36.4981 249.089 36.5482 249.08 36.597L248.66 38.4854C248.656 38.51 248.659 38.5353 248.669 38.558C248.679 38.5808 248.696 38.6002 248.717 38.6137C248.756 38.6258 248.799 38.6258 248.838 38.6137L250.156 38.4783C250.217 38.4715 250.275 38.4497 250.324 38.4149C250.374 38.38 250.414 38.3332 250.441 38.2788L251.154 36.3619C251.215 36.2394 251.315 36.1414 251.439 36.084C251.582 36.0198 251.717 35.9415 251.859 35.8631L252.259 35.6137C252.365 35.5353 252.494 35.5281 252.536 35.6137L253.213 36.6398C253.221 36.655 253.234 36.6674 253.249 36.6754C253.286 36.6877 253.326 36.6882 253.363 36.6767C253.4 36.6652 253.432 36.6423 253.456 36.6113L254.881 35.0792C254.921 35.0383 254.953 34.989 254.972 34.9349C254.992 34.8808 255 34.8231 254.995 34.7657L254.589 33.3975C254.575 33.2824 254.603 33.1661 254.667 33.0697C254.914 32.7003 255.135 32.3146 255.33 31.9153C255.401 31.8 255.513 31.716 255.643 31.6801L256.883 31.3808C256.945 31.367 257.003 31.3384 257.051 31.2975C257.1 31.2565 257.137 31.2044 257.161 31.1457L257.788 29.0506C257.801 29.0341 257.809 29.0149 257.813 28.9946C257.817 28.9742 257.816 28.9533 257.811 28.9333C257.805 28.9133 257.795 28.8949 257.781 28.8794C257.768 28.8639 257.75 28.8518 257.731 28.844ZM251.118 33.9676H251.047H250.997H250.876H250.741H250.62C250.353 33.9714 250.091 33.8936 249.869 33.7446C249.648 33.5956 249.477 33.3825 249.38 33.1338C249.277 32.9088 249.214 32.6677 249.194 32.4212C249.187 32.2954 249.187 32.1693 249.194 32.0435C249.274 30.6381 249.855 29.3078 250.833 28.2953C251.124 27.977 251.46 27.7032 251.831 27.4829C251.932 27.4571 252.034 27.4357 252.137 27.4188C252.432 27.2842 252.754 27.2184 253.078 27.2264H253.235C253.464 27.2602 253.68 27.3538 253.861 27.4976C254.043 27.6415 254.183 27.8306 254.268 28.0459C254.824 29.2787 254.183 31.4378 252.843 32.863C252.384 33.3929 251.787 33.7851 251.118 33.9961V33.9676Z" fill="#455A64"/>
<path d="M153.364 105.128L148.975 102.641C148.201 102.199 147.558 101.562 147.11 100.792C146.663 100.023 146.426 99.1486 146.424 98.2582V75.0703H148.754V98.2582C148.752 98.7374 148.878 99.2084 149.118 99.6229C149.359 100.037 149.705 100.381 150.122 100.617L154.512 103.111L153.364 105.128Z" fill="#263238"/>
<path d="M140.359 83.5361C139.977 83.2761 139.661 82.9296 139.437 82.5249C139.213 82.1201 139.087 81.6683 139.07 81.2059V60.5406C139.093 60.0753 139.237 59.6241 139.487 59.2307C139.737 58.8374 140.084 58.5154 140.495 58.2959L163.355 47.7352C163.789 47.5569 164.255 47.4718 164.724 47.4853C165.193 47.4988 165.654 47.6106 166.077 47.8136C166.46 48.0737 166.776 48.4201 167 48.8249C167.224 49.2297 167.35 49.6815 167.367 50.1438V70.8091C167.343 71.2744 167.199 71.7257 166.95 72.119C166.7 72.5123 166.353 72.8344 165.942 73.0538L143.11 83.6145C142.672 83.797 142.2 83.8844 141.726 83.8709C141.252 83.8573 140.786 83.7432 140.359 83.5361Z" fill="#455A64"/>
<path d="M144.215 61.9375L139.504 59.2153C139.239 59.6107 139.088 60.072 139.07 60.5479V81.2132C139.087 81.6756 139.213 82.1274 139.437 82.5321C139.661 82.9369 139.977 83.2833 140.359 83.5434C140.782 83.7464 141.243 83.8583 141.712 83.8718C142.181 83.8853 142.648 83.8001 143.082 83.6218L144.215 83.0945V61.9375Z" fill="#263238"/>
<path d="M143.11 59.7853L165.913 49.2318C166.064 49.136 166.239 49.0854 166.417 49.0859C166.596 49.0865 166.77 49.1382 166.92 49.235C167.07 49.3317 167.189 49.4694 167.263 49.6318C167.337 49.7941 167.364 49.9743 167.338 50.151V70.8163C167.315 71.2816 167.171 71.7329 166.921 72.1262C166.671 72.5196 166.324 72.8416 165.913 73.061L143.11 83.6146C142.959 83.7073 142.785 83.7554 142.608 83.7534C142.43 83.7514 142.257 83.6994 142.108 83.6033C141.959 83.5072 141.841 83.371 141.766 83.2104C141.691 83.0498 141.663 82.8712 141.685 82.6954V62.03C141.71 61.5651 141.854 61.1144 142.104 60.7213C142.353 60.3282 142.7 60.0059 143.11 59.7853Z" fill="#37474F"/>
<path d="M148.098 106.46V145.24C148.089 145.419 148.038 145.594 147.949 145.75C147.859 145.906 147.735 146.039 147.585 146.138L146.203 146.936C146.042 147.017 145.866 147.059 145.686 147.059C145.507 147.059 145.33 147.017 145.169 146.936L143.823 146.138C143.673 146.039 143.548 145.906 143.459 145.75C143.37 145.594 143.319 145.419 143.31 145.24V106.46C143.31 105.999 143.493 105.557 143.819 105.231C144.145 104.905 144.587 104.722 145.048 104.722H146.388C146.844 104.729 147.279 104.916 147.599 105.241C147.919 105.566 148.098 106.004 148.098 106.46Z" fill="#263238"/>
<path d="M144.535 104.722C144.855 104.722 145.161 104.849 145.387 105.074C145.613 105.3 145.74 105.607 145.74 105.926V146.708C145.74 146.993 145.54 147.114 145.291 146.972L143.823 146.124C143.68 146.029 143.561 145.903 143.475 145.754C143.39 145.606 143.34 145.439 143.331 145.268V105.926C143.331 105.607 143.458 105.3 143.684 105.074C143.91 104.849 144.216 104.722 144.535 104.722Z" fill="#37474F"/>
<path d="M174.236 120.057V159.962C174.227 160.14 174.176 160.314 174.087 160.469C173.997 160.624 173.873 160.755 173.723 160.853L172.327 161.694C172.166 161.774 171.989 161.817 171.81 161.817C171.63 161.817 171.453 161.774 171.293 161.694L169.911 160.896C169.761 160.798 169.637 160.667 169.547 160.512C169.458 160.357 169.407 160.183 169.398 160.005V120.057C169.398 119.899 169.46 119.748 169.571 119.636C169.681 119.524 169.832 119.46 169.989 119.458H173.631C173.71 119.457 173.788 119.472 173.862 119.502C173.935 119.531 174.002 119.575 174.058 119.631C174.115 119.687 174.16 119.753 174.19 119.826C174.221 119.899 174.236 119.977 174.236 120.057Z" fill="#263238"/>
<path d="M170.003 119.479H171.229C171.387 119.481 171.537 119.545 171.648 119.657C171.759 119.769 171.821 119.92 171.821 120.078V161.408C171.821 161.736 171.593 161.864 171.308 161.7L169.925 160.902C169.775 160.805 169.651 160.673 169.562 160.518C169.473 160.364 169.421 160.19 169.412 160.012V120.056C169.418 119.902 169.482 119.757 169.592 119.649C169.702 119.542 169.85 119.481 170.003 119.479Z" fill="#37474F"/>
<path d="M143.302 105.634V106.168C143.328 106.653 143.456 107.127 143.677 107.559C143.898 107.991 144.207 108.372 144.585 108.677L170.538 126.777C170.93 127.03 171.382 127.176 171.849 127.2C172.315 127.224 172.78 127.124 173.196 126.912L205.819 108.057C206.22 107.798 206.553 107.449 206.793 107.036C207.032 106.623 207.169 106.16 207.194 105.684V105.135C207.172 104.668 207.029 104.215 206.779 103.82C206.529 103.426 206.181 103.103 205.769 102.883L173.673 87.9899C173.223 87.813 172.74 87.733 172.256 87.7551C171.772 87.7772 171.298 87.9009 170.866 88.1182L144.671 103.254C144.272 103.515 143.941 103.867 143.703 104.281C143.465 104.694 143.328 105.158 143.302 105.634Z" fill="#37474F"/>
<path d="M144.671 103.254L170.901 88.1182C171.334 87.9009 171.808 87.7772 172.291 87.7551C172.775 87.733 173.258 87.813 173.709 87.9899L205.819 102.883C206.617 103.254 206.645 103.902 205.883 104.308L173.196 123.192C172.78 123.406 172.315 123.506 171.849 123.482C171.382 123.458 170.93 123.312 170.538 123.057L144.585 104.978C144.426 104.893 144.294 104.764 144.204 104.607C144.115 104.449 144.073 104.27 144.082 104.089C144.091 103.908 144.151 103.734 144.255 103.586C144.359 103.438 144.503 103.323 144.671 103.254Z" fill="#455A64"/>
<path d="M182.189 175.162H188.93V163.618H182.189V175.162Z" fill="#FFA8A7"/>
<path d="M201.714 160.803L208.455 161.031L208.797 148.81L202.056 148.582L201.714 160.803Z" fill="#FFA8A7"/>
<path d="M188.93 172.126V170.929C189.643 171.235 192.821 177.984 195.728 180.634C198.044 182.772 202.142 185.623 202.006 187.632C201.878 190.212 198.201 191.359 195.023 190.611C192.543 190.026 189.001 188.523 187.298 186.691C185.595 184.86 185.046 182.416 184.163 181.24C183.279 180.064 181.227 178.703 180.749 177.314C180.486 176.551 180.799 174.877 181.17 173.466C181.505 172.169 181.882 170.744 182.317 170.865V171.663C182.852 172.254 184.32 172.839 185.98 172.903C187.056 172.945 188.937 172.945 188.93 172.126Z" fill="#263238"/>
<path d="M208.526 158.95C208.876 158.95 209.161 159.456 209.952 160.297C210.885 161.301 212.973 162.363 214.477 163.112C217.006 164.38 223.612 166.076 225.835 167.074C227.225 167.701 226.876 169.86 224.909 171.071C223.441 171.976 218.766 172.846 214.605 171.919C212.339 171.406 208.904 169.838 207.208 169.575C205.355 169.283 201.956 168.926 200.581 167.979C199.206 167.031 199.754 165 200.146 163.254C200.567 161.351 201.18 158.437 201.807 158.565V159.164C202.619 160.397 206.745 160.895 208.526 159.99V158.95Z" fill="#263238"/>
<path d="M155.018 93.3907C153.542 103.816 155.531 105.818 165.436 115.802C170.766 121.168 179.346 129.042 179.346 129.042C179.346 129.042 179.224 132.37 179.153 139.838C179.089 146.408 181.84 167.807 181.84 167.807C181.84 167.807 186.315 169.689 189.386 167.736C189.386 167.736 190.776 151.817 191.524 143.508C192.543 132.263 193.07 126.626 192.5 124.203C191.994 122.066 181.911 109.346 179.581 105.769L201.009 118.218C200.592 121.372 200.383 124.549 200.381 127.731C200.617 136.66 201.714 154.482 201.714 154.482C201.714 154.482 206.624 156.677 209.054 154.781C209.054 154.781 215.232 115.802 215.232 112.602C215.232 107.742 194.118 93.234 190.12 89.8491C187.84 87.9251 185.296 85.8657 185.296 85.8657L155.018 93.3907Z" fill="#25A171"/>
<path opacity="0.3" d="M155.018 93.3907C153.542 103.816 155.531 105.818 165.436 115.802C170.766 121.168 179.346 129.042 179.346 129.042C179.346 129.042 179.224 132.37 179.153 139.838C179.089 146.408 181.84 167.807 181.84 167.807C181.84 167.807 186.315 169.689 189.386 167.736C189.386 167.736 190.776 151.817 191.524 143.508C192.543 132.263 193.07 126.626 192.5 124.203C191.994 122.066 181.911 109.346 179.581 105.769L201.009 118.218C200.592 121.372 200.383 124.549 200.381 127.731C200.617 136.66 201.714 154.482 201.714 154.482C201.714 154.482 206.624 156.677 209.054 154.781C209.054 154.781 215.232 115.802 215.232 112.602C215.232 107.742 194.118 93.234 190.12 89.8491C187.84 87.9251 185.296 85.8657 185.296 85.8657L155.018 93.3907Z" fill="black"/>
<path opacity="0.1" d="M179.581 105.805C181.838 103.985 183.535 101.564 184.476 98.8213C184.361 100.61 184.106 102.388 183.714 104.137C183.137 106.453 201.009 118.254 201.009 118.254L179.581 105.805Z" fill="black"/>
<path d="M191.994 69.1702C191.994 69.1702 193.177 58.5383 193.177 54.6475C193.177 50.4788 191.417 48.0132 186.001 47.8921C186.001 47.8921 182.068 74.7998 184.198 76.8307C185.367 77.9423 190.469 79.6169 195.543 81.1063L198.343 73.0254C196.434 71.8852 194.324 70.6026 191.994 69.1702Z" fill="#FFBDA7"/>
<path d="M185.153 47.4927C185.153 47.4927 189.628 47.6067 191.617 49.5093C193.605 51.412 193.655 53.0367 193.448 56.5498C193.241 60.0629 192.543 69.177 192.543 69.177C192.543 69.177 189.179 72.3552 181.626 72.0274L185.153 47.4927Z" fill="#E0E0E0"/>
<path d="M163.519 53.543C161.915 55.9516 157.177 68.1085 154.847 94.5601C159.578 99.705 182.88 100.838 190.12 89.8712C190.12 89.8712 192.557 67.8947 192.507 62.6429C192.472 59.0015 192.372 50.208 186.001 47.8921H177.657L168.144 49.5097C166.282 50.4365 164.69 51.8252 163.519 53.543Z" fill="#F5F5F5"/>
<path d="M163.832 172.368L104.017 137.836L216.272 73.0537L276.081 107.586L163.832 172.368Z" fill="#455A64"/>
<path d="M104.017 137.836V206.901L107.167 208.718V161.466L160.683 192.364V239.616L163.832 241.433V172.368L104.017 137.836Z" fill="#263238"/>
<path d="M107.167 208.718L110.316 206.901V163.283L107.167 161.466V208.718Z" fill="black"/>
<path d="M163.832 241.433L166.982 239.616V192.364L272.938 131.216V178.468L276.081 176.651V107.586L163.832 172.368V241.433Z" fill="#37474F"/>
<path d="M272.938 178.468L269.788 176.651V133.033L272.938 131.216V178.468Z" fill="#263238"/>
<path d="M163.369 131.651L139.547 145.411C139.338 145.516 139.108 145.571 138.874 145.571C138.64 145.571 138.409 145.516 138.2 145.411L120.656 135.285C120.576 135.256 120.508 135.203 120.459 135.134C120.41 135.064 120.384 134.981 120.384 134.897C120.384 134.812 120.41 134.729 120.459 134.66C120.508 134.59 120.576 134.537 120.656 134.508L144.478 120.769C144.686 120.664 144.915 120.609 145.148 120.609C145.381 120.609 145.61 120.664 145.818 120.769L163.369 130.903C163.44 130.936 163.5 130.989 163.542 131.055C163.584 131.121 163.607 131.198 163.607 131.277C163.607 131.355 163.584 131.432 163.542 131.498C163.5 131.564 163.44 131.617 163.369 131.651Z" fill="#EBEBEB"/>
<path d="M145.818 120.769L162.478 130.389L139.547 143.615C139.338 143.72 139.108 143.775 138.874 143.775C138.64 143.775 138.409 143.72 138.2 143.615L121.54 133.995L144.478 120.769C144.686 120.664 144.915 120.609 145.148 120.609C145.381 120.609 145.61 120.664 145.818 120.769Z" fill="#E0E0E0"/>
<path d="M163.369 129.221L139.547 142.988C139.338 143.093 139.108 143.148 138.874 143.148C138.64 143.148 138.409 143.093 138.2 142.988L120.635 132.883C120.555 132.854 120.486 132.801 120.438 132.732C120.389 132.663 120.363 132.58 120.363 132.495C120.363 132.41 120.389 132.327 120.438 132.258C120.486 132.188 120.555 132.136 120.635 132.107L144.478 118.339C144.686 118.234 144.915 118.179 145.148 118.179C145.381 118.179 145.61 118.234 145.818 118.339L163.369 128.472C163.443 128.503 163.505 128.555 163.55 128.622C163.594 128.689 163.617 128.767 163.617 128.846C163.617 128.926 163.594 129.004 163.55 129.071C163.505 129.137 163.443 129.189 163.369 129.221Z" fill="#FAFAFA"/>
<path d="M182.951 104.992V104.728C182.964 104.496 183.031 104.269 183.147 104.067C183.264 103.866 183.426 103.694 183.621 103.567L223.206 80.7137C223.414 80.6085 223.643 80.5537 223.876 80.5537C224.109 80.5537 224.338 80.6085 224.546 80.7137L232.648 85.3883C232.843 85.5157 233.005 85.6872 233.122 85.889C233.238 86.0908 233.305 86.3172 233.318 86.5499V86.8207C233.305 87.0533 233.238 87.2797 233.122 87.4815C233.005 87.6833 232.843 87.8549 232.648 87.9822L193.07 110.835C192.861 110.94 192.631 110.995 192.397 110.995C192.163 110.995 191.932 110.94 191.723 110.835L183.621 106.153C183.426 106.026 183.264 105.855 183.147 105.653C183.031 105.451 182.964 105.225 182.951 104.992Z" fill="#E0E0E0"/>
<path d="M183.621 104.336L191.723 109.018C191.931 109.123 192.161 109.178 192.393 109.178C192.626 109.178 192.855 109.123 193.063 109.018L232.648 86.1651C232.728 86.1361 232.796 86.0832 232.845 86.0138C232.894 85.9443 232.92 85.8615 232.92 85.7767C232.92 85.6919 232.894 85.6091 232.845 85.5397C232.796 85.4702 232.728 85.4174 232.648 85.3883L224.546 80.7137C224.338 80.6085 224.109 80.5537 223.876 80.5537C223.643 80.5537 223.414 80.6085 223.206 80.7137L183.621 103.567C183.541 103.594 183.471 103.646 183.421 103.715C183.372 103.784 183.345 103.867 183.345 103.951C183.345 104.036 183.372 104.119 183.421 104.188C183.471 104.257 183.541 104.309 183.621 104.336Z" fill="#FAFAFA"/>
<path d="M220.84 86.0369C220.128 84.8896 216.344 81.5262 215.603 80.835C214.861 80.1438 211.633 79.6734 208.804 78.7898C206.218 77.5926 202.826 75.6971 198.343 73.0249L195.543 81.0915C199.74 82.3101 203.93 83.3932 205.868 83.9419C207.5 84.569 207.443 85.0535 208.776 85.8089C211.241 87.2341 212.852 86.9348 212.852 86.9348C213.584 87.6301 214.363 88.2753 215.182 88.8659C216.935 90.0631 218.688 91.0037 220.84 90.2911C223.199 89.5215 221.538 87.1913 220.84 86.0369Z" fill="#FFBDA7"/>
<path d="M210.864 137.872C213.158 135.527 214.512 129.677 212.289 127.824H200.887C198.65 129.677 199.997 135.52 202.313 137.865L202.377 137.929C202.399 137.958 202.426 137.985 202.455 138.007C202.519 138.074 202.588 138.136 202.662 138.193L202.719 138.235C202.773 138.284 202.83 138.329 202.89 138.371L203.182 138.556C204.242 139.094 205.414 139.374 206.602 139.374C207.791 139.374 208.963 139.094 210.023 138.556C210.126 138.497 210.226 138.433 210.322 138.364L210.486 138.242L210.55 138.193L210.75 138.014L210.842 137.922L210.864 137.872Z" fill="#EBEBEB"/>
<path d="M201.871 127.076C199.27 128.572 199.27 131.01 201.871 132.506C203.329 133.247 204.942 133.633 206.578 133.633C208.213 133.633 209.826 133.247 211.284 132.506C213.878 131.01 213.878 128.572 211.284 127.076C209.826 126.335 208.213 125.949 206.578 125.949C204.942 125.949 203.329 126.335 201.871 127.076Z" fill="#FAFAFA"/>
<path d="M203.681 128.138C202.106 129.05 202.106 130.532 203.681 131.444C204.565 131.889 205.541 132.121 206.531 132.121C207.521 132.121 208.497 131.889 209.382 131.444C210.964 130.532 210.964 129.05 209.382 128.138C208.497 127.693 207.521 127.461 206.531 127.461C205.541 127.461 204.565 127.693 203.681 128.138Z" fill="#EBEBEB"/>
<path d="M209.439 129.705C208.554 129.26 207.578 129.028 206.588 129.028C205.598 129.028 204.622 129.26 203.738 129.705C203.358 129.916 203.033 130.214 202.79 130.574C203.015 130.933 203.32 131.236 203.681 131.458C204.565 131.903 205.541 132.135 206.531 132.135C207.521 132.135 208.497 131.903 209.382 131.458C209.764 131.251 210.09 130.952 210.329 130.589C210.108 130.227 209.802 129.924 209.439 129.705Z" fill="#E0E0E0"/>
<path d="M204.058 130.574C203.251 129.753 202.556 128.828 201.992 127.824C201.03 126.128 200.859 123.862 201.351 123.584C201.842 123.306 203.859 125.565 203.859 125.565C203.675 124.627 203.604 123.67 203.645 122.714C203.731 121.204 204.101 119.864 204.529 119.565C204.956 119.266 205.954 121.19 206.339 122.565C206.724 123.94 207.002 125.073 207.002 125.073C207.16 124 207.398 122.94 207.714 121.902C208.22 120.477 208.669 120.149 209.025 120.292C209.382 120.434 209.61 121.097 209.738 123.007C209.775 123.915 209.746 124.825 209.652 125.729C209.652 125.729 210.365 124.952 211.149 124.19C211.933 123.427 212.382 123.249 212.631 123.406C212.88 123.562 212.945 124.831 211.605 127.282C210.939 128.516 210.086 129.638 209.075 130.61C209.075 130.61 207.244 131.772 204.058 130.574Z" fill="#25A171"/>
<path d="M195.023 148.952C195.093 148.921 195.154 148.872 195.199 148.809C195.244 148.746 195.272 148.673 195.279 148.596V148.047L168.764 133.083C168.573 132.985 168.362 132.934 168.147 132.934C167.933 132.934 167.721 132.985 167.531 133.083L143.702 146.836L171.201 162.706L195.023 148.952Z" fill="#25A171"/>
<path opacity="0.2" d="M195.023 148.952C195.093 148.921 195.154 148.872 195.199 148.809C195.244 148.746 195.272 148.673 195.279 148.596V148.047L168.764 133.083C168.573 132.985 168.362 132.934 168.147 132.934C167.933 132.934 167.721 132.985 167.531 133.083L143.702 146.836L171.201 162.706L195.023 148.952Z" fill="black"/>
<path d="M195.023 148.418C195.097 148.392 195.16 148.344 195.206 148.28C195.251 148.216 195.275 148.14 195.275 148.061C195.275 147.983 195.251 147.907 195.206 147.843C195.16 147.779 195.097 147.731 195.023 147.705L168.764 132.548C168.573 132.45 168.362 132.399 168.147 132.399C167.933 132.399 167.721 132.45 167.531 132.548L143.702 146.301L171.201 162.171L195.023 148.418Z" fill="#25A171"/>
<path opacity="0.5" d="M195.023 148.418C195.097 148.392 195.16 148.344 195.206 148.28C195.251 148.216 195.275 148.14 195.275 148.061C195.275 147.983 195.251 147.907 195.206 147.843C195.16 147.779 195.097 147.731 195.023 147.705L168.764 132.548C168.573 132.45 168.362 132.399 168.147 132.399C167.933 132.399 167.721 132.45 167.531 132.548L143.702 146.301L171.201 162.171L195.023 148.418Z" fill="black"/>
<path d="M149.188 142.71L166.825 132.527C167.019 132.434 167.231 132.385 167.445 132.385C167.66 132.385 167.872 132.434 168.065 132.527L192.293 146.508L194.588 145.176V147.891H194.545C194.624 148.055 194.545 148.24 194.339 148.368L174.129 160.033L146.63 144.164V141.199L149.188 142.71Z" fill="#EBEBEB"/>
<path d="M194.324 145.432C194.398 145.406 194.462 145.358 194.507 145.294C194.553 145.23 194.577 145.154 194.577 145.076C194.577 144.998 194.553 144.921 194.507 144.857C194.462 144.794 194.398 144.745 194.324 144.719L168.051 129.562C167.859 129.464 167.647 129.413 167.431 129.413C167.215 129.413 167.003 129.464 166.811 129.562L146.602 141.228L174.115 157.111L194.324 145.432Z" fill="#FAFAFA"/>
<path d="M174.115 157.09V160.062L146.616 144.192V141.228L174.115 157.09Z" fill="#E6E6E6"/>
<path d="M173.787 155.929C173.859 155.967 173.936 155.993 174.015 156.007C174.134 156.039 174.26 156.039 174.379 156.007C174.419 156.001 174.458 155.986 174.493 155.964C174.678 155.865 174.657 155.679 174.443 155.558C174.344 155.505 174.234 155.474 174.122 155.466C173.99 155.448 173.857 155.471 173.737 155.53C173.726 155.527 173.714 155.527 173.702 155.53C173.559 155.687 173.588 155.815 173.787 155.929Z" fill="#263238"/>
<path d="M170.673 158.252C170.657 158.62 170.768 158.982 170.987 159.278C171.092 159.411 171.226 159.519 171.38 159.592C171.533 159.664 171.701 159.701 171.87 159.699C172.173 159.69 172.468 159.602 172.726 159.442L172.882 159.349L172.533 159.15C171.692 159.62 171.023 159.221 171.023 158.252C171.052 157.723 171.205 157.208 171.47 156.749C171.735 156.289 172.104 155.899 172.547 155.608C172.71 155.484 172.907 155.411 173.112 155.401C173.317 155.391 173.52 155.443 173.695 155.551C173.849 155.662 173.96 155.823 174.008 156.007C174.127 156.039 174.253 156.039 174.372 156.007C174.33 155.809 174.242 155.623 174.115 155.466C174.009 155.334 173.875 155.228 173.721 155.156C173.568 155.085 173.401 155.049 173.232 155.052C172.926 155.063 172.629 155.154 172.369 155.316C171.872 155.634 171.459 156.066 171.164 156.577C170.868 157.088 170.7 157.663 170.673 158.252Z" fill="#263238"/>
<path d="M171.564 155.451L195.279 143.857V144.285C195.271 144.391 195.24 144.495 195.187 144.587C195.134 144.68 195.061 144.759 194.973 144.819L171.564 156.021V155.451Z" fill="#25A171"/>
<path opacity="0.2" d="M171.564 155.451L195.279 143.857V144.285C195.271 144.391 195.24 144.495 195.187 144.587C195.134 144.68 195.061 144.759 194.973 144.819L171.564 156.021V155.451Z" fill="black"/>
<path d="M195.023 144.214C195.365 144.014 195.365 143.693 195.023 143.501L168.764 128.344C168.573 128.246 168.362 128.195 168.147 128.195C167.933 128.195 167.721 128.246 167.531 128.344L143.702 139.781L171.201 155.687L195.023 144.214Z" fill="#25A171"/>
<path d="M171.201 162.705L143.702 146.836V139.774L171.201 155.651V162.705Z" fill="#25A171"/>
<path opacity="0.1" d="M171.201 162.705L143.702 146.836V139.774L171.201 155.651V162.705Z" fill="black"/>
<path d="M165.778 158.174C165.948 158.176 166.117 158.139 166.272 158.066C166.426 157.993 166.562 157.886 166.669 157.753C166.884 157.455 166.994 157.094 166.982 156.727C166.951 156.134 166.78 155.557 166.483 155.043C166.185 154.529 165.77 154.092 165.272 153.77C165.012 153.609 164.715 153.52 164.41 153.513C163.697 153.513 163.212 154.098 163.212 154.938C163.241 155.531 163.41 156.109 163.706 156.623C164.003 157.137 164.417 157.574 164.916 157.896C165.175 158.056 165.473 158.144 165.778 158.152V158.174Z" fill="#455A64"/>
<path d="M166.626 156.727C166.626 157.703 165.913 158.095 165.094 157.61C164.65 157.319 164.28 156.927 164.016 156.466C163.751 156.006 163.598 155.49 163.569 154.959C163.569 153.99 164.281 153.591 165.094 154.083C165.538 154.373 165.907 154.764 166.174 155.223C166.44 155.682 166.594 156.197 166.626 156.727Z" fill="#F5F5F5"/>
<path d="M161.082 153.178V153.713C161.082 154.781 160.326 155.216 159.4 154.682L147.485 147.805C146.997 147.486 146.591 147.057 146.298 146.552C146.006 146.047 145.837 145.48 145.804 144.898V144.363C145.804 143.294 146.559 142.86 147.485 143.394L159.4 150.271C159.889 150.589 160.296 151.019 160.588 151.524C160.88 152.029 161.049 152.596 161.082 153.178Z" fill="#F5F5F5"/>
<path d="M171.571 162.499V155.473L171.201 155.651V162.706L171.571 162.499Z" fill="#25A171"/>
<path opacity="0.2" d="M171.571 162.499V155.473L171.201 155.651V162.706L171.571 162.499Z" fill="black"/>
<path d="M143.958 138.677C143.966 138.762 143.995 138.845 144.04 138.918C144.086 138.991 144.148 139.052 144.222 139.097L171.193 154.653C171.276 154.695 171.368 154.717 171.461 154.717C171.554 154.717 171.645 154.695 171.728 154.653L195.892 142.432V141.891L168.4 126.021L144.222 138.249C144.148 138.296 144.086 138.358 144.04 138.432C143.995 138.506 143.966 138.59 143.958 138.677Z" fill="#25A171"/>
<path opacity="0.1" d="M171.457 154.183V154.718C171.363 154.719 171.27 154.697 171.186 154.653L144.229 139.105C144.154 139.059 144.09 138.997 144.043 138.923C143.996 138.848 143.967 138.764 143.958 138.677C143.967 138.59 143.996 138.505 144.043 138.431C144.09 138.357 144.153 138.295 144.229 138.25C144.079 138.335 144.079 138.47 144.229 138.556L171.186 154.119C171.269 154.166 171.363 154.188 171.457 154.183Z" fill="black"/>
<path opacity="0.5" d="M195.892 141.89L171.728 154.119C171.645 154.165 171.552 154.187 171.457 154.183C171.363 154.188 171.269 154.166 171.186 154.119L144.229 138.584C144.079 138.498 144.079 138.363 144.229 138.277L168.407 126.049L195.892 141.89Z" fill="black"/>
<path opacity="0.2" d="M195.892 141.891V142.432L171.728 154.653C171.645 154.699 171.552 154.722 171.457 154.717V154.183C171.552 154.187 171.645 154.165 171.728 154.119L195.892 141.891Z" fill="black"/>
<path d="M195.529 142.104L168.022 126.242V119.173L195.529 135.121V142.104Z" fill="#25A171"/>
<path opacity="0.7" d="M195.529 142.104L168.022 126.242V119.173L195.529 135.121V142.104Z" fill="black"/>
<path d="M144.293 134.871C144.194 134.935 144.112 135.022 144.053 135.123C143.993 135.225 143.959 135.338 143.951 135.456V136.881C143.956 136.998 143.99 137.112 144.05 137.212C144.109 137.313 144.193 137.397 144.293 137.458L171.122 152.936C171.225 152.991 171.34 153.019 171.457 153.019C171.574 153.019 171.689 152.991 171.792 152.936L192.279 141.862V139.66L164.787 123.791L144.293 134.871Z" fill="#EBEBEB"/>
<path d="M164.787 123.791L144.293 134.871C144.252 134.885 144.216 134.911 144.191 134.947C144.166 134.982 144.152 135.024 144.152 135.067C144.152 135.111 144.166 135.153 144.191 135.188C144.216 135.223 144.252 135.25 144.293 135.263L171.122 150.741C171.225 150.796 171.34 150.825 171.457 150.825C171.574 150.825 171.689 150.796 171.792 150.741L192.279 139.66L164.787 123.791Z" fill="#FAFAFA"/>
<path d="M189.671 139.839C189.743 139.876 189.82 139.903 189.899 139.917C190.018 139.948 190.144 139.948 190.263 139.917C190.303 139.91 190.342 139.896 190.377 139.874C190.562 139.774 190.541 139.589 190.327 139.468C190.228 139.415 190.118 139.383 190.006 139.375C189.874 139.358 189.74 139.38 189.621 139.439C189.429 139.568 189.472 139.724 189.671 139.839Z" fill="#263238"/>
<path d="M171.457 150.812V153.021C171.338 153.024 171.221 152.997 171.115 152.943L144.286 137.473C144.19 137.407 144.111 137.32 144.054 137.218C143.997 137.117 143.965 137.004 143.958 136.888V135.463C143.969 135.263 144.059 135.076 144.207 134.943C144.108 135.043 144.136 135.178 144.286 135.271L171.115 150.741C171.22 150.798 171.339 150.823 171.457 150.812Z" fill="#E6E6E6"/>
<path d="M193.256 136.781C193.039 136.667 192.795 136.613 192.55 136.627C192.305 136.641 192.068 136.721 191.866 136.86C190.914 137.534 190.24 138.532 189.97 139.667L190.426 139.739C190.671 138.739 191.262 137.858 192.094 137.252C192.27 137.148 192.467 137.087 192.671 137.074C192.795 137.072 192.916 137.107 193.02 137.173C193.237 137.365 193.401 137.609 193.497 137.882C193.593 138.156 193.618 138.449 193.569 138.734C193.526 140.202 192.693 141.855 191.702 142.425C191.49 142.56 191.239 142.62 190.989 142.596L190.491 142.881C190.667 142.986 190.87 143.04 191.075 143.038C191.36 143.031 191.638 142.947 191.88 142.796C193.006 142.147 193.925 140.359 193.975 138.727C194.03 138.368 193.993 138.001 193.867 137.661C193.741 137.321 193.531 137.018 193.256 136.781Z" fill="#263238"/>
<path d="M143.958 134.187C143.966 134.274 143.995 134.358 144.04 134.432C144.086 134.506 144.148 134.569 144.222 134.615L171.193 150.171C171.276 150.213 171.368 150.235 171.461 150.235C171.554 150.235 171.645 150.213 171.728 150.171L195.892 135.399V134.864L168.4 118.988L144.222 133.767C144.148 133.812 144.086 133.873 144.04 133.946C143.995 134.019 143.966 134.102 143.958 134.187Z" fill="#25A171"/>
<path opacity="0.1" d="M171.457 149.693V150.228C171.364 150.228 171.272 150.209 171.186 150.171L144.229 134.615C144.147 134.577 144.078 134.517 144.029 134.441C143.98 134.366 143.954 134.277 143.954 134.187C143.954 134.097 143.98 134.009 144.029 133.933C144.078 133.858 144.147 133.797 144.229 133.76C144.195 133.77 144.166 133.791 144.145 133.819C144.124 133.847 144.113 133.881 144.113 133.917C144.113 133.952 144.124 133.986 144.145 134.014C144.166 134.042 144.195 134.063 144.229 134.073L171.186 149.636C171.27 149.678 171.364 149.697 171.457 149.693Z" fill="black"/>
<path d="M195.892 134.864L171.728 149.637C171.644 149.677 171.551 149.697 171.457 149.694C171.364 149.697 171.27 149.678 171.186 149.637L144.229 134.073C144.195 134.063 144.166 134.042 144.145 134.014C144.124 133.986 144.113 133.952 144.113 133.917C144.113 133.882 144.124 133.847 144.145 133.819C144.166 133.791 144.195 133.77 144.229 133.76L168.407 118.988L195.892 134.864Z" fill="#25A171"/>
<path opacity="0.2" d="M195.892 134.864V135.399L171.728 150.171C171.644 150.212 171.551 150.231 171.457 150.228V149.693C171.551 149.697 171.644 149.677 171.728 149.636L195.892 134.864Z" fill="black"/>
<path d="M195.892 141.891V134.872L195.529 135.121V142.104L195.892 141.891Z" fill="#25A171"/>
<path opacity="0.2" d="M195.892 141.891V134.872L195.529 135.121V142.104L195.892 141.891Z" fill="black"/>
<path d="M195.023 134.757C195.093 134.726 195.154 134.677 195.199 134.614C195.244 134.551 195.272 134.478 195.279 134.401V133.852L168.764 118.888C168.571 118.795 168.361 118.748 168.147 118.748C167.934 118.748 167.723 118.795 167.531 118.888L143.702 132.648L171.201 148.518L195.023 134.757Z" fill="#25A171"/>
<path opacity="0.2" d="M195.023 134.757C195.093 134.726 195.154 134.677 195.199 134.614C195.244 134.551 195.272 134.478 195.279 134.401V133.852L168.764 118.888C168.571 118.795 168.361 118.748 168.147 118.748C167.934 118.748 167.723 118.795 167.531 118.888L143.702 132.648L171.201 148.518L195.023 134.757Z" fill="black"/>
<path d="M195.023 134.223C195.365 134.023 195.365 133.703 195.023 133.51L168.764 118.346C168.571 118.254 168.361 118.206 168.147 118.206C167.934 118.206 167.723 118.254 167.531 118.346L143.702 132.106L171.201 147.976L195.023 134.223Z" fill="#25A171"/>
<path opacity="0.5" d="M195.023 134.223C195.365 134.023 195.365 133.703 195.023 133.51L168.764 118.346C168.571 118.254 168.361 118.206 168.147 118.206C167.934 118.206 167.723 118.254 167.531 118.346L143.702 132.106L171.201 147.976L195.023 134.223Z" fill="black"/>
<path d="M149.189 128.515L166.825 118.332C167.017 118.234 167.23 118.183 167.445 118.183C167.661 118.183 167.873 118.234 168.065 118.332L192.294 132.313L194.588 130.973V133.696H194.545C194.564 133.741 194.573 133.79 194.573 133.839C194.572 133.888 194.562 133.936 194.543 133.981C194.524 134.026 194.496 134.067 194.461 134.101C194.426 134.135 194.384 134.162 194.339 134.18L174.129 145.838L146.616 130.033V127.061L149.189 128.515Z" fill="#EBEBEB"/>
<path d="M194.324 131.237C194.398 131.211 194.462 131.163 194.507 131.099C194.553 131.036 194.577 130.959 194.577 130.881C194.577 130.803 194.553 130.727 194.507 130.663C194.462 130.599 194.398 130.551 194.324 130.525L168.051 115.361C167.858 115.267 167.646 115.219 167.431 115.219C167.216 115.219 167.004 115.267 166.811 115.361L146.602 127.026L174.101 142.895L194.324 131.237Z" fill="#FAFAFA"/>
<path d="M174.115 142.895V145.86L146.616 129.997V127.026L174.115 142.895Z" fill="#E6E6E6"/>
<path d="M173.787 141.734C173.859 141.772 173.936 141.798 174.015 141.812C174.134 141.844 174.26 141.844 174.379 141.812C174.419 141.806 174.458 141.791 174.493 141.77C174.678 141.67 174.657 141.485 174.443 141.363C174.344 141.31 174.234 141.279 174.122 141.271C173.99 141.254 173.857 141.276 173.737 141.335C173.726 141.332 173.714 141.332 173.702 141.335C173.559 141.435 173.588 141.62 173.787 141.734Z" fill="#263238"/>
<path d="M170.673 144.057C170.657 144.425 170.768 144.787 170.987 145.083C171.092 145.216 171.226 145.323 171.38 145.396C171.533 145.469 171.701 145.506 171.87 145.503C172.173 145.495 172.468 145.406 172.726 145.247L172.882 145.154L172.533 144.955C171.692 145.425 171.023 145.026 171.023 144.057C171.052 143.527 171.205 143.012 171.47 142.553C171.735 142.094 172.104 141.703 172.547 141.413C172.71 141.288 172.907 141.216 173.112 141.206C173.317 141.196 173.52 141.248 173.695 141.356C173.849 141.467 173.96 141.628 174.008 141.812C174.127 141.843 174.253 141.843 174.372 141.812C174.33 141.614 174.242 141.428 174.115 141.27C174.009 141.139 173.875 141.033 173.721 140.961C173.568 140.889 173.401 140.854 173.232 140.857C172.927 140.865 172.629 140.954 172.369 141.114C171.872 141.433 171.459 141.867 171.164 142.379C170.869 142.891 170.701 143.466 170.673 144.057Z" fill="#263238"/>
<path d="M171.564 141.249L195.279 129.663V130.033C195.271 130.139 195.24 130.243 195.187 130.335C195.134 130.428 195.061 130.507 194.973 130.568L171.564 141.791V141.249Z" fill="#25A171"/>
<path opacity="0.2" d="M171.564 141.249L195.279 129.663V130.033C195.271 130.139 195.24 130.243 195.187 130.335C195.134 130.428 195.061 130.507 194.973 130.568L171.564 141.791V141.249Z" fill="black"/>
<path d="M195.023 130.033C195.365 129.841 195.365 129.52 195.023 129.32L168.764 114.142C168.571 114.05 168.361 114.002 168.147 114.002C167.934 114.002 167.723 114.05 167.531 114.142L143.702 125.586L171.201 141.435L195.023 130.033Z" fill="#25A171"/>
<path d="M171.201 148.511L143.702 132.641V125.572L171.201 141.456V148.511Z" fill="#25A171"/>
<path opacity="0.1" d="M171.201 148.511L143.702 132.641V125.572L171.201 141.456V148.511Z" fill="black"/>
<path d="M165.778 143.978C165.948 143.98 166.117 143.943 166.272 143.871C166.426 143.798 166.562 143.691 166.669 143.558C166.884 143.26 166.994 142.899 166.982 142.532C166.951 141.939 166.78 141.361 166.483 140.847C166.185 140.333 165.77 139.897 165.272 139.574C165.012 139.413 164.715 139.325 164.41 139.318C163.697 139.318 163.212 139.902 163.212 140.743C163.241 141.336 163.41 141.913 163.706 142.428C164.003 142.942 164.417 143.378 164.916 143.7C165.175 143.86 165.473 143.949 165.778 143.957V143.978Z" fill="#455A64"/>
<path d="M166.626 142.532C166.626 143.501 165.913 143.9 165.094 143.408C164.649 143.119 164.28 142.728 164.015 142.269C163.75 141.809 163.597 141.294 163.569 140.765C163.569 139.788 164.281 139.396 165.094 139.881C165.537 140.173 165.907 140.565 166.173 141.025C166.439 141.485 166.594 142.001 166.626 142.532Z" fill="#F5F5F5"/>
<path d="M161.082 138.983V139.517C161.082 140.586 160.326 141.021 159.4 140.486L147.485 133.596C146.996 133.278 146.588 132.849 146.296 132.343C146.004 131.838 145.835 131.271 145.804 130.688V130.154C145.804 129.085 146.559 128.65 147.485 129.192L159.4 136.068C159.89 136.388 160.297 136.818 160.589 137.324C160.881 137.831 161.05 138.399 161.082 138.983Z" fill="#F5F5F5"/>
<path d="M171.571 148.297V141.271L171.201 141.456V148.51L171.571 148.297Z" fill="#25A171"/>
<path opacity="0.2" d="M171.571 148.297V141.271L171.201 141.456V148.51L171.571 148.297Z" fill="black"/>
<path d="M143.958 124.054C143.966 124.141 143.995 124.224 144.04 124.298C144.086 124.373 144.148 124.435 144.222 124.482L171.193 140.009C171.276 140.051 171.368 140.073 171.461 140.073C171.554 140.073 171.645 140.051 171.728 140.009L195.892 127.788V127.246L168.4 111.377L144.222 123.619C144.147 123.666 144.084 123.73 144.039 123.806C143.993 123.881 143.965 123.966 143.958 124.054Z" fill="#25A171"/>
<path opacity="0.1" d="M171.457 139.567V140.102C171.363 140.1 171.271 140.078 171.186 140.038L144.229 124.482C144.149 124.443 144.081 124.383 144.034 124.308C143.987 124.233 143.962 124.146 143.962 124.058C143.962 123.969 143.987 123.882 144.034 123.807C144.081 123.732 144.149 123.672 144.229 123.634C144.079 123.719 144.079 123.855 144.229 123.94L171.186 139.503C171.27 139.547 171.363 139.569 171.457 139.567Z" fill="black"/>
<path opacity="0.5" d="M195.892 127.275L171.728 139.503C171.644 139.546 171.551 139.568 171.457 139.568C171.363 139.569 171.27 139.547 171.186 139.503L144.229 123.94C144.079 123.855 144.079 123.719 144.229 123.634L168.407 111.406L195.892 127.275Z" fill="black"/>
<path opacity="0.2" d="M195.892 127.275V127.817L171.728 140.01C171.645 140.056 171.552 140.078 171.457 140.074V139.539C171.551 139.54 171.644 139.518 171.728 139.475L195.892 127.275Z" fill="black"/>
<path d="M195.529 127.489L168.022 111.627V104.558L195.529 120.506V127.489Z" fill="#25A171"/>
<path opacity="0.7" d="M195.529 127.489L168.022 111.627V104.558L195.529 120.506V127.489Z" fill="black"/>
<path d="M144.293 120.256C144.194 120.32 144.112 120.406 144.053 120.508C143.993 120.609 143.959 120.723 143.951 120.84V122.266C143.959 122.383 143.993 122.497 144.053 122.598C144.112 122.7 144.194 122.786 144.293 122.85L171.122 138.327C171.225 138.382 171.34 138.411 171.457 138.411C171.574 138.411 171.689 138.382 171.792 138.327L192.279 127.247V125.045L164.787 109.168L144.293 120.256Z" fill="#EBEBEB"/>
<path d="M164.787 109.168L144.293 120.256C144.251 120.268 144.214 120.293 144.187 120.327C144.161 120.362 144.146 120.405 144.146 120.448C144.146 120.492 144.161 120.535 144.187 120.569C144.214 120.604 144.251 120.629 144.293 120.641L171.122 136.126C171.225 136.18 171.34 136.209 171.457 136.209C171.574 136.209 171.689 136.18 171.792 136.126L192.279 125.045L164.787 109.168Z" fill="#FAFAFA"/>
<path d="M189.671 125.223C189.743 125.261 189.82 125.287 189.899 125.301C190.018 125.333 190.144 125.333 190.263 125.301C190.303 125.294 190.342 125.28 190.377 125.258C190.562 125.159 190.541 124.973 190.327 124.852C190.228 124.799 190.118 124.768 190.006 124.76C189.874 124.742 189.74 124.765 189.621 124.824C189.429 124.952 189.472 125.109 189.671 125.223Z" fill="#263238"/>
<path d="M171.457 136.197V138.406C171.338 138.409 171.221 138.382 171.115 138.327L144.286 122.85C144.188 122.787 144.108 122.702 144.051 122.602C143.994 122.501 143.962 122.388 143.958 122.273V120.847C143.961 120.748 143.985 120.65 144.028 120.561C144.071 120.471 144.132 120.392 144.207 120.327C144.108 120.427 144.136 120.555 144.286 120.648L171.115 136.125C171.22 136.182 171.339 136.207 171.457 136.197Z" fill="#E6E6E6"/>
<path d="M193.256 122.194C193.038 122.081 192.794 122.028 192.549 122.044C192.304 122.059 192.068 122.14 191.866 122.28C190.914 122.954 190.24 123.952 189.97 125.087L190.426 125.159C190.67 124.158 191.261 123.277 192.094 122.672C192.268 122.565 192.467 122.504 192.671 122.494C192.794 122.494 192.914 122.526 193.02 122.586C193.237 122.78 193.401 123.025 193.497 123.299C193.593 123.573 193.618 123.868 193.569 124.154C193.526 125.622 192.693 127.275 191.702 127.845C191.49 127.98 191.239 128.04 190.989 128.016L190.491 128.301C190.669 128.403 190.87 128.457 191.075 128.458C191.36 128.451 191.638 128.367 191.88 128.216C193.006 127.567 193.925 125.779 193.975 124.147C194.032 123.787 193.995 123.419 193.869 123.077C193.743 122.735 193.532 122.431 193.256 122.194Z" fill="#263238"/>
<path d="M143.958 119.572C143.966 119.658 143.995 119.74 144.04 119.813C144.086 119.886 144.148 119.948 144.222 119.992L171.193 135.548C171.276 135.59 171.368 135.612 171.461 135.612C171.554 135.612 171.645 135.59 171.728 135.548L195.892 120.769V120.228L168.4 104.379L144.222 119.152C144.149 119.197 144.087 119.259 144.042 119.332C143.996 119.404 143.967 119.487 143.958 119.572Z" fill="#25A171"/>
<path opacity="0.1" d="M171.457 135.078V135.613C171.363 135.614 171.27 135.592 171.186 135.549L144.229 120C144.154 119.954 144.09 119.892 144.043 119.818C143.996 119.743 143.967 119.659 143.958 119.572C143.967 119.485 143.996 119.4 144.043 119.326C144.09 119.252 144.153 119.19 144.229 119.145C144.079 119.23 144.079 119.373 144.229 119.451L171.186 135.021C171.269 135.066 171.363 135.086 171.457 135.078Z" fill="black"/>
<path d="M195.892 120.242L171.728 135.021C171.645 135.067 171.552 135.09 171.457 135.085C171.363 135.09 171.269 135.068 171.186 135.021L144.229 119.458C144.079 119.38 144.079 119.237 144.229 119.152L168.407 104.379L195.892 120.242Z" fill="#25A171"/>
<path opacity="0.2" d="M195.892 120.242V120.77L171.728 135.535C171.645 135.581 171.552 135.603 171.457 135.599V135.064C171.552 135.069 171.645 135.046 171.728 135L195.892 120.242Z" fill="black"/>
<path d="M195.892 127.275V120.256L195.529 120.505V127.489L195.892 127.275Z" fill="#25A171"/>
<path opacity="0.2" d="M195.892 127.275V120.256L195.529 120.505V127.489L195.892 127.275Z" fill="black"/>
<path d="M195.023 120.135C195.093 120.105 195.154 120.057 195.199 119.996C195.245 119.934 195.272 119.862 195.279 119.786V119.237L168.764 104.273C168.571 104.18 168.361 104.132 168.147 104.132C167.934 104.132 167.723 104.18 167.531 104.273L143.702 118.033L171.201 133.895L195.023 120.135Z" fill="#25A171"/>
<path opacity="0.2" d="M195.023 120.135C195.093 120.105 195.154 120.057 195.199 119.996C195.245 119.934 195.272 119.862 195.279 119.786V119.237L168.764 104.273C168.571 104.18 168.361 104.132 168.147 104.132C167.934 104.132 167.723 104.18 167.531 104.273L143.702 118.033L171.201 133.895L195.023 120.135Z" fill="black"/>
<path d="M195.023 119.601C195.365 119.408 195.365 119.087 195.023 118.888L168.764 103.731C168.571 103.639 168.361 103.591 168.147 103.591C167.934 103.591 167.723 103.639 167.531 103.731L143.702 117.491L171.201 133.354L195.023 119.601Z" fill="#25A171"/>
<path opacity="0.5" d="M195.023 119.601C195.365 119.408 195.365 119.087 195.023 118.888L168.764 103.731C168.571 103.639 168.361 103.591 168.147 103.591C167.934 103.591 167.723 103.639 167.531 103.731L143.702 117.491L171.201 133.354L195.023 119.601Z" fill="black"/>
<path d="M149.189 113.893L166.825 103.717C167.017 103.619 167.23 103.567 167.445 103.567C167.661 103.567 167.873 103.619 168.065 103.717L192.294 117.698L194.588 116.358V119.08H194.545C194.624 119.251 194.545 119.43 194.339 119.565L174.115 131.244L146.616 115.382V112.41L149.189 113.893Z" fill="#EBEBEB"/>
<path d="M194.324 116.615C194.398 116.589 194.462 116.54 194.507 116.477C194.553 116.413 194.577 116.337 194.577 116.258C194.577 116.18 194.553 116.104 194.507 116.04C194.462 115.976 194.398 115.928 194.324 115.902L168.051 100.745C167.859 100.647 167.647 100.596 167.431 100.596C167.215 100.596 167.003 100.647 166.811 100.745L146.602 112.41L174.101 128.28L194.324 116.615Z" fill="#FAFAFA"/>
<path d="M174.115 128.28V131.244L146.616 115.382V112.41L174.115 128.28Z" fill="#E6E6E6"/>
<path d="M173.787 127.118C173.859 127.156 173.936 127.182 174.015 127.196C174.134 127.228 174.26 127.228 174.379 127.196C174.408 127.196 174.437 127.191 174.464 127.182C174.65 127.082 174.628 126.897 174.414 126.776C174.315 126.723 174.206 126.691 174.094 126.683C173.962 126.666 173.828 126.688 173.709 126.748C173.697 126.745 173.685 126.745 173.673 126.748C173.559 126.847 173.588 127.004 173.787 127.118Z" fill="#263238"/>
<path d="M170.673 129.441C170.657 129.809 170.768 130.172 170.987 130.468C171.092 130.601 171.226 130.708 171.38 130.781C171.533 130.854 171.701 130.891 171.87 130.888C172.173 130.88 172.468 130.791 172.726 130.632L172.882 130.539L172.533 130.339C171.692 130.81 171.023 130.411 171.023 129.441C171.052 128.912 171.205 128.397 171.47 127.938C171.735 127.479 172.104 127.088 172.547 126.798C172.71 126.673 172.907 126.601 173.112 126.591C173.317 126.58 173.52 126.633 173.695 126.741C173.849 126.851 173.96 127.013 174.008 127.197C174.127 127.228 174.253 127.228 174.372 127.197C174.33 126.998 174.242 126.813 174.115 126.655C174.009 126.523 173.875 126.417 173.721 126.346C173.568 126.274 173.401 126.239 173.232 126.242C172.927 126.25 172.629 126.338 172.369 126.498C171.872 126.818 171.459 127.252 171.164 127.764C170.869 128.276 170.701 128.851 170.673 129.441Z" fill="#263238"/>
<path d="M171.564 126.634L195.279 115.068V115.453C195.271 115.559 195.24 115.663 195.187 115.755C195.134 115.848 195.061 115.927 194.973 115.988L171.564 127.183V126.634Z" fill="#25A171"/>
<path opacity="0.2" d="M171.564 126.634L195.279 115.068V115.453C195.271 115.559 195.24 115.663 195.187 115.755C195.134 115.848 195.061 115.927 194.973 115.988L171.564 127.183V126.634Z" fill="black"/>
<path d="M195.023 115.396C195.365 115.204 195.365 114.883 195.023 114.684L168.764 99.5268C168.573 99.4286 168.362 99.3774 168.147 99.3774C167.933 99.3774 167.721 99.4286 167.531 99.5268L143.702 110.964L171.201 126.833L195.023 115.396Z" fill="#25A171"/>
<path d="M171.201 133.888L143.702 118.026V110.957L171.201 126.833V133.888Z" fill="#25A171"/>
<path opacity="0.1" d="M171.201 133.888L143.702 118.026V110.957L171.201 126.833V133.888Z" fill="black"/>
<path d="M165.778 129.356C165.948 129.358 166.117 129.321 166.272 129.248C166.426 129.175 166.562 129.068 166.669 128.935C166.885 128.638 166.995 128.277 166.982 127.909C166.952 127.317 166.781 126.741 166.483 126.228C166.186 125.715 165.771 125.28 165.272 124.959C165.012 124.798 164.715 124.71 164.41 124.703C163.697 124.703 163.212 125.28 163.212 126.128C163.24 126.72 163.409 127.297 163.705 127.81C164.001 128.324 164.416 128.758 164.916 129.078C165.175 129.238 165.473 129.326 165.778 129.335V129.356Z" fill="#455A64"/>
<path d="M166.626 127.895C166.626 128.872 165.913 129.263 165.094 128.779C164.649 128.489 164.28 128.099 164.015 127.639C163.75 127.18 163.597 126.665 163.569 126.135C163.569 125.159 164.281 124.767 165.094 125.252C165.537 125.542 165.907 125.933 166.173 126.392C166.439 126.851 166.594 127.366 166.626 127.895Z" fill="#F5F5F5"/>
<path d="M161.082 124.368V124.902C161.082 125.971 160.326 126.406 159.4 125.871L147.485 118.988C146.997 118.669 146.59 118.24 146.298 117.735C146.006 117.23 145.836 116.663 145.804 116.08V115.546C145.804 114.477 146.559 114.042 147.485 114.577L159.4 121.482C159.887 121.798 160.292 122.223 160.585 122.725C160.877 123.226 161.047 123.789 161.082 124.368Z" fill="#F5F5F5"/>
<path d="M171.571 133.681V126.655L171.201 126.833V133.888L171.571 133.681Z" fill="#25A171"/>
<path opacity="0.2" d="M171.571 133.681V126.655L171.201 126.833V133.888L171.571 133.681Z" fill="black"/>
<path d="M181.982 98.4861C177.707 97.2462 162.471 92.9777 157.839 91.4813C154.611 90.4337 152.851 89.6926 152.787 86.9064C152.702 84.3125 156.55 63.07 157.939 57.8324C159.165 53.2433 163.996 49.7729 168.144 49.5093C169.533 54.0984 170.224 64.4738 166.576 67.6948C165.222 73.0891 163.64 82.9016 163.64 82.9016C163.64 82.9016 171.443 86.9563 177.635 89.9421C180.728 91.4314 184.868 92.7924 187.334 93.049C189.293 93.2556 192.807 94.1749 193.555 94.8661C195.359 96.6984 197.039 98.6481 198.586 100.702C199.298 101.85 200.944 104.18 198.586 104.928C196.448 105.605 194.681 104.686 192.928 103.503C192.107 102.911 191.326 102.266 190.59 101.572C188.844 101.762 187.081 101.414 185.538 100.574C184.206 99.7973 181.982 98.4861 181.982 98.4861Z" fill="#FFBDA7"/>
<path d="M259.677 101.116L262.527 66.8044C262.556 66.2466 262.44 65.691 262.19 65.1915C261.94 64.692 261.565 64.2657 261.102 63.954C260.595 63.7051 260.035 63.5805 259.47 63.5904C258.905 63.6003 258.351 63.7445 257.852 64.011L220.284 85.7024C219.788 86.0258 219.367 86.4522 219.05 86.9526C218.732 87.453 218.526 88.0157 218.446 88.6027L215.595 122.907C215.566 123.465 215.682 124.021 215.932 124.52C216.182 125.02 216.557 125.446 217.021 125.758C217.531 126.002 218.091 126.124 218.657 126.112C219.222 126.101 219.777 125.958 220.277 125.693L257.838 104.009C258.334 103.687 258.755 103.262 259.072 102.762C259.389 102.263 259.596 101.702 259.677 101.116Z" fill="#E0E0E0"/>
<path d="M259.677 101.116L262.527 66.8044C262.556 66.2466 262.44 65.691 262.19 65.1915C261.94 64.692 261.565 64.2657 261.102 63.954C260.595 63.7051 260.035 63.5805 259.47 63.5904C258.905 63.6003 258.351 63.7445 257.852 64.011L220.284 85.7024C219.785 86.0116 219.365 86.4339 219.059 86.9352L224.902 90.3058V123.021L257.838 104.009C258.334 103.687 258.755 103.262 259.072 102.762C259.389 102.263 259.596 101.702 259.677 101.116Z" fill="#FAFAFA"/>
<path d="M218.752 124.739L221.603 90.4343C221.682 89.8478 221.887 89.2853 222.203 88.7848C222.519 88.2844 222.939 87.8578 223.434 87.534L261.002 65.8426C261.929 65.3081 262.613 65.7428 262.527 66.8046L259.677 101.116C259.596 101.701 259.391 102.263 259.075 102.762C258.759 103.261 258.34 103.686 257.845 104.009L220.277 125.701C219.358 126.235 218.645 125.808 218.752 124.739Z" fill="#F0F0F0"/>
<path d="M238.142 97.2108C238.248 96.2904 238.548 95.403 239.022 94.6071C239.496 93.8112 240.134 93.1248 240.893 92.5931C242.268 91.795 243.266 92.5931 243.123 94.3319C243.018 95.2534 242.718 96.1422 242.244 96.9394C241.77 97.7367 241.132 98.4242 240.372 98.9566C238.997 99.7476 237.999 98.9709 238.142 97.2108Z" fill="#25A171"/>
<path d="M237.486 108.498L250.078 101.223L248.503 100.318L235.919 107.586L237.486 108.498Z" fill="#FAFAFA"/>
<path d="M252.551 117.969L241.306 124.46C241.088 124.58 240.841 124.636 240.593 124.624C240.38 124.619 240.17 124.565 239.981 124.468L234.992 121.617C234.801 121.491 234.643 121.322 234.532 121.122C234.42 120.922 234.358 120.698 234.351 120.47V120.206C234.351 119.779 234.643 119.6 235.021 119.814L238.007 121.539L238.676 121.924L238.527 121.168L235.933 107.629L237.501 108.541L250.092 101.272L253.092 116.864C253.114 117.08 253.074 117.298 252.979 117.493C252.883 117.688 252.735 117.853 252.551 117.969Z" fill="#F5F5F5"/>
<path d="M234.543 119.736L238.377 117.52L239.161 122.679L234.543 119.736Z" fill="#E0E0E0"/>
<path d="M237.486 108.498L235.919 107.586L238.513 121.125C238.598 121.539 238.363 121.71 237.992 121.496L235.035 119.786C234.657 119.572 234.365 119.75 234.365 120.178V120.441C234.372 120.67 234.434 120.893 234.546 121.093C234.657 121.293 234.815 121.463 235.007 121.588L239.995 124.439C240.185 124.536 240.394 124.59 240.608 124.596L237.486 108.498Z" fill="#EBEBEB"/>
<path opacity="0.1" d="M181.662 59.714C182.019 59.9012 182.419 59.9905 182.822 59.973C183.225 59.9555 183.616 59.8317 183.956 59.6143V59.9136C183.613 60.1572 183.216 60.3138 182.799 60.3696C182.381 60.4255 181.957 60.379 181.562 60.2342L181.662 59.714Z" fill="black"/>
<path d="M182.666 55.3739L173.31 47.3714L173.374 44.9272C173.374 44.9272 172.042 45.1767 170.417 49.1316C171.758 52.8832 174.252 56.1137 177.543 58.3597L179.802 54.868L182.666 55.3739Z" fill="#E0E0E0"/>
<path d="M183.821 46.4951C183.821 46.4951 185.125 46.8514 186.137 48.9251C186.956 50.6068 187.056 56.728 187.056 56.728L184.875 54.4976L182.666 55.3955C183.001 53.3788 183.628 49.6947 183.628 49.6947L183.821 46.4951Z" fill="#E0E0E0"/>
<path d="M168.144 49.5096C168.144 49.5096 163.604 49.1604 160.554 52.0108C157.504 54.8612 156.991 57.3054 155.744 64.4884C154.497 71.6714 153.671 77.7926 153.671 77.7926C153.671 77.7926 158.759 81.3912 165.001 80.023L167.139 68.03C168.303 65.7373 169.191 63.314 169.783 60.8114C170.723 55.923 169.647 51.0987 168.144 49.5096Z" fill="#E0E0E0"/>
<path d="M170.782 21.526C170.237 21.4531 169.682 21.5056 169.161 21.6795C168.639 21.8533 168.164 22.144 167.772 22.5293C166.488 23.8435 166.769 26.2714 167.772 31.8494L171.735 32.3109L170.782 21.526Z" fill="#5F4D33"/>
<path d="M193.896 19.9113C194.748 19.9155 195.591 19.7448 196.374 19.4097C197.588 18.7074 197.909 20.0919 197.247 21.2857C196.803 22.1453 196.147 22.8774 195.342 23.4128C194.536 23.9482 193.607 24.2693 192.642 24.3456C192.642 24.1751 191.509 21.2456 191.509 21.2456L193.896 19.9113Z" fill="#5F4D33"/>
<path d="M172.638 32.3713C172.046 32.7225 171.213 31.5888 170.481 30.8263C170.195 30.4997 169.831 30.2513 169.423 30.1046C169.015 29.958 168.576 29.9179 168.148 29.9882C167.72 30.0586 167.317 30.2369 166.978 30.5065C166.638 30.776 166.373 31.1278 166.207 31.5286C165.003 34.0668 167.742 37.4377 169.347 38.5513C169.795 38.9398 170.354 39.177 170.945 39.2293C171.536 39.2815 172.128 39.1461 172.638 38.8422L173.059 48.5436C173.769 50.0998 174.853 51.4557 176.215 52.4904C177.578 53.5251 179.175 54.2061 180.864 54.4728C186.563 55.2453 185.389 50.5401 183.523 48.2427V44.7112C184.946 45.018 186.41 45.0925 187.857 44.9319C188.599 44.7313 190.375 42.5944 191.519 40.1866C192.803 37.4979 194.94 32.7124 193.034 24.6263C191.027 15.9382 181.657 15.6773 176.089 19.1786C170.521 22.68 172.638 32.3713 172.638 32.3713Z" fill="#FFBDA7"/>
<path d="M172.638 33.3746C172.347 33.3746 171.213 31.5085 170.481 30.8364C169.478 29.9134 170.782 21.5564 170.782 21.5564C170.782 21.5564 169.778 18.3761 171.785 16.2793C173.791 14.1825 177.684 14.5236 180.523 14.4233C184.012 14.4553 187.471 13.7725 190.686 12.4168C194.699 10.6611 195.03 10.4103 195.532 12.2262C196.033 14.042 196.224 18.0651 193.816 20.7838L192.502 22.9208C192.502 22.9208 191.278 23.924 187.486 24.4156C183.693 24.9072 177.303 22.8505 176.45 22.7402C175.367 22.5897 175.126 23.6531 174.544 26.5425C174.062 29.0205 173.631 33.3746 172.638 33.3746Z" fill="#5F4D33"/>
<path d="M170.782 22.1682L167.23 20.262C167.469 19.7877 167.886 19.4273 168.39 19.26C168.894 19.0926 169.444 19.1319 169.919 19.3691C170.396 19.6345 170.752 20.0738 170.912 20.5953C171.073 21.1169 171.026 21.6804 170.782 22.1682Z" fill="#5F4D33"/>
<path d="M183.513 44.6911C183.513 44.6911 178.236 43.6277 176.39 42.6846C175.305 42.1194 174.414 41.2424 173.831 40.1665C174.108 41.2578 174.603 42.2816 175.286 43.1762C176.63 44.9018 183.513 46.186 183.513 46.186V44.6911Z" fill="#F28F8F" fill-opacity="0.5"/>
<path d="M183.684 32.1607C183.676 32.3691 183.607 32.5707 183.485 32.7402C183.364 32.9097 183.195 33.0398 183 33.1141C182.805 33.1885 182.593 33.2039 182.389 33.1585C182.186 33.113 182 33.0087 181.855 32.8585C181.71 32.7083 181.613 32.5188 181.575 32.3137C181.537 32.1086 181.561 31.8969 181.642 31.7049C181.724 31.5129 181.86 31.3491 182.034 31.2339C182.208 31.1188 182.412 31.0573 182.62 31.0571C182.762 31.0597 182.903 31.0904 183.033 31.1472C183.164 31.2041 183.282 31.2861 183.38 31.3886C183.479 31.4911 183.557 31.612 183.609 31.7445C183.661 31.877 183.686 32.0184 183.684 32.1607Z" fill="#5F4D33"/>
<path d="M182.61 28.1677L180.343 29.4117C180.18 29.102 180.145 28.7413 180.244 28.406C180.344 28.0707 180.57 27.7873 180.874 27.6159C181.023 27.5335 181.188 27.4823 181.358 27.4656C181.527 27.4488 181.698 27.4668 181.861 27.5184C182.023 27.5701 182.173 27.6543 182.302 27.7659C182.431 27.8775 182.536 28.0143 182.61 28.1677Z" fill="#5F4D33"/>
<path d="M183.031 39.2339L185.449 40.1368C185.396 40.2992 185.311 40.4492 185.199 40.578C185.087 40.7068 184.95 40.8118 184.796 40.8866C184.643 40.9615 184.476 41.0048 184.305 41.0138C184.135 41.0229 183.964 40.9976 183.804 40.9394C183.48 40.8093 183.219 40.5593 183.075 40.2416C182.931 39.9239 182.916 39.5629 183.031 39.2339Z" fill="#F28F8F" fill-opacity="0.5"/>
<path d="M193.114 29.0403L191.047 27.4552C191.144 27.3149 191.268 27.196 191.412 27.1058C191.557 27.0155 191.718 26.9558 191.886 26.9304C192.055 26.905 192.227 26.9145 192.391 26.9581C192.556 27.0018 192.709 27.0788 192.843 27.1843C193.119 27.3989 193.301 27.7119 193.352 28.0578C193.402 28.4037 193.317 28.7558 193.114 29.0403Z" fill="#5F4D33"/>
<path d="M192.472 31.8595C192.464 32.0683 192.395 32.2702 192.273 32.44C192.151 32.6097 191.981 32.7397 191.786 32.8137C191.59 32.8878 191.377 32.9026 191.174 32.8564C190.97 32.8101 190.784 32.7048 190.64 32.5536C190.495 32.4024 190.399 32.212 190.362 32.0063C190.325 31.8005 190.35 31.5885 190.433 31.3967C190.516 31.2049 190.654 31.0418 190.829 30.9279C191.004 30.8139 191.209 30.7541 191.418 30.7559C191.56 30.7585 191.7 30.7892 191.83 30.8462C191.96 30.9032 192.077 30.9854 192.175 31.088C192.273 31.1906 192.35 31.3116 192.401 31.444C192.452 31.5765 192.476 31.7177 192.472 31.8595Z" fill="#5F4D33"/>
<path d="M187.496 31.7295L186.492 38.0198L189.984 37.6085L187.496 31.7295Z" fill="#F28F8F" fill-opacity="0.5"/>
<path d="M172.758 30.4404L168.738 30.3445C168.738 30.3445 168.039 26.3813 167.803 24.0121C167.754 23.5569 167.726 23.1567 167.724 22.8554C167.725 22.7239 167.727 22.5925 167.728 22.4555C167.748 20.7795 167.886 19.2637 169.688 17.8385C170.907 16.9218 172.317 16.2921 173.813 15.9964C173.261 16.5003 172.768 17.0641 172.341 17.6775C171.981 17.8979 171.668 18.1884 171.421 18.5318C171.174 18.8752 170.999 19.2645 170.905 19.6767C170.854 19.9934 170.84 20.3148 170.861 20.6349C170.856 21.0676 170.932 21.5834 171.008 22.1485C171.457 25.4623 172.758 30.4404 172.758 30.4404Z" fill="#455A64"/>
<path d="M174.507 37.4069C174.94 35.9922 175.035 34.4952 174.783 33.0371C174.53 31.579 173.938 30.2009 173.054 29.0144C172.619 28.4584 172.046 28.0266 171.392 27.7626C170.991 27.6091 170.556 27.5663 170.133 27.6384L168.723 27.885C167.757 28.0546 166.931 28.8612 166.45 30.1594C166.018 31.5755 165.924 33.0735 166.178 34.5324C166.431 35.9914 167.024 37.3702 167.909 38.5575C168.345 39.1106 168.918 39.5402 169.571 39.8038C169.973 39.9575 170.41 40.0004 170.835 39.928L172.256 39.6761C173.195 39.5172 174.031 38.7161 174.507 37.4069Z" fill="#37474F"/>
<path d="M169.571 39.8041C168.917 39.5405 168.345 39.1109 167.909 38.5578C167.024 37.3705 166.431 35.9917 166.177 34.5328C165.924 33.0739 166.018 31.5758 166.45 30.1597C167.129 28.316 168.52 27.4447 169.987 28.0095C170.629 28.2762 171.19 28.7056 171.616 29.2555C172.5 30.4428 173.094 31.8216 173.347 33.2805C173.6 34.7394 173.507 36.2375 173.074 37.6536C172.428 39.4976 171.038 40.347 169.571 39.8041Z" fill="#263238"/>
<path d="M172.829 37.5466C173.248 36.1816 173.339 34.7369 173.095 33.33C172.85 31.9231 172.277 30.5939 171.422 29.4504C170.584 28.4437 169.641 28.0329 168.79 28.1819L168.093 28.3052C167.248 28.4488 166.495 29.1577 166.048 30.385C165.629 31.7497 165.537 33.194 165.781 34.6007C166.024 36.0074 166.596 37.3368 167.449 38.4812C168.292 39.488 169.235 39.8988 170.081 39.7497L170.783 39.6319C171.618 39.4827 172.365 38.7792 172.829 37.5466Z" fill="#F0F0F0"/>
<path d="M170.73 29.5735C171.584 30.7176 172.156 32.0469 172.401 33.4535C172.645 34.8601 172.555 36.3046 172.137 37.6697C171.232 40.1298 169.141 40.4945 167.46 38.481C166.607 37.3367 166.035 36.0072 165.792 34.6005C165.548 33.1938 165.64 31.7495 166.059 30.3849C166.915 27.9242 169.027 27.5872 170.73 29.5735Z" fill="#E0E0E0"/>
<path d="M172.115 37.6697C172.536 36.3063 172.63 34.8629 172.39 33.4563C172.149 32.0498 171.58 30.7197 170.73 29.5738C169.893 28.5726 168.95 28.1617 168.104 28.3053C167.868 28.3464 167.434 28.4509 167.198 28.492C166.353 28.6411 165.605 29.3445 165.153 30.5718C164.735 31.937 164.645 33.3814 164.889 34.7881C165.134 36.1947 165.706 37.5239 166.56 38.668C167.397 39.6747 168.34 40.0855 169.186 39.9365C169.422 39.9009 169.856 39.7909 170.092 39.7498C170.915 39.606 171.663 38.9025 172.115 37.6697Z" fill="#25A171"/>
<path opacity="0.15" d="M169.807 29.788C170.66 30.9325 171.232 32.262 171.475 33.6686C171.719 35.0752 171.628 36.5194 171.209 37.8841C170.309 40.3443 168.218 40.7089 166.538 38.6955C165.684 37.5514 165.111 36.2221 164.867 34.8155C164.622 33.4089 164.713 31.9644 165.131 30.5993C166.036 28.1009 168.127 27.7526 169.807 29.788Z" fill="white"/>
<path d="M168.51 32.0463C168.96 32.6467 169.262 33.3451 169.391 34.0845C169.519 34.8239 169.471 35.5832 169.25 36.3003C168.775 37.593 167.677 37.783 166.796 36.7265C166.347 36.1255 166.046 35.4271 165.918 34.688C165.789 33.9488 165.837 33.1898 166.057 32.4725C166.537 31.1798 167.635 30.9899 168.51 32.0463Z" fill="#263238"/>
<path d="M169.187 33.6473L167.535 34.406L167.022 31.3981C167.291 31.3762 167.562 31.4266 167.805 31.544C168.048 31.6614 168.256 31.8416 168.406 32.066C168.775 32.5322 169.041 33.071 169.187 33.6473Z" fill="#455A64"/>
<path d="M169.145 36.3205C169.079 36.5798 168.945 36.8168 168.757 37.0072C168.569 37.1975 168.334 37.3344 168.076 37.4037L167.563 34.4013L169.215 33.6426C169.459 34.5221 169.435 35.4548 169.145 36.3205Z" fill="#37474F"/>
<path d="M168.075 37.4364C167.806 37.4601 167.536 37.411 167.293 37.2945C167.049 37.178 166.842 36.9982 166.691 36.774C166.322 36.3067 166.058 35.7656 165.915 35.1873L167.568 34.4341L168.075 37.4364Z" fill="#455A64"/>
<path d="M167.552 34.4069L165.899 35.1601C165.646 34.2874 165.657 33.3593 165.93 32.4927C165.998 32.2336 166.134 31.9969 166.323 31.8067C166.511 31.6166 166.747 31.4796 167.006 31.4096L167.552 34.4069Z" fill="#37474F"/>
<path d="M183.654 44.5039L186.383 44.8938C186.773 43.8542 187.63 41.619 187.942 40.9953C188.254 40.3715 187.552 39.9557 187.162 39.8257L183.654 38.6561C183.264 38.5262 182.25 38.1884 181.315 37.8765C180.379 37.5646 180.145 39.046 180.145 39.8257V43.3344L182.874 44.1141M183.654 44.5039V41.775L182.874 44.1141M183.654 44.5039L182.874 44.1141" stroke="#5F4D33"/>
</svg>
